<svg width="390" height="75" viewBox="0 0 390 75" fill="none" xmlns="http://www.w3.org/2000/svg">
<path d="M0 44C0 26.8792 13.8792 13 31 13H359C376.121 13 390 26.8792 390 44C390 61.1208 376.121 75 359 75H31C13.8792 75 0 61.1208 0 44Z" fill="white"/>
<path d="M41 0V20H12L41 0Z" fill="white"/>
<path d="M46.8864 39.1591C46.697 38.5455 46.4356 37.9962 46.1023 37.5114C45.7765 37.0189 45.3826 36.5985 44.9205 36.25C44.4659 35.9015 43.9432 35.6402 43.3523 35.4659C42.7614 35.2841 42.1174 35.1932 41.4205 35.1932C40.1705 35.1932 39.0568 35.5076 38.0795 36.1364C37.1023 36.7652 36.3333 37.6894 35.7727 38.9091C35.2197 40.1212 34.9432 41.5985 34.9432 43.3409C34.9432 45.0985 35.2197 46.5871 35.7727 47.8068C36.3258 49.0265 37.0947 49.9545 38.0795 50.5909C39.0644 51.2197 40.2083 51.5341 41.5114 51.5341C42.6932 51.5341 43.7159 51.3068 44.5795 50.8523C45.4508 50.3977 46.1212 49.7538 46.5909 48.9205C47.0606 48.0795 47.2955 47.0947 47.2955 45.9659L48.25 46.1136H41.9318V42.8182H51.375V45.6136C51.375 47.6061 50.9508 49.3295 50.1023 50.7841C49.2538 52.2386 48.0871 53.3598 46.6023 54.1477C45.1174 54.928 43.4129 55.3182 41.4886 55.3182C39.3447 55.3182 37.4621 54.8371 35.8409 53.875C34.2273 52.9053 32.9659 51.5303 32.0568 49.75C31.1553 47.9621 30.7045 45.8409 30.7045 43.3864C30.7045 41.5076 30.9697 39.8295 31.5 38.3523C32.0379 36.875 32.7879 35.6212 33.75 34.5909C34.7121 33.553 35.8409 32.7652 37.1364 32.2273C38.4318 31.6818 39.8409 31.4091 41.3636 31.4091C42.6515 31.4091 43.8523 31.5985 44.9659 31.9773C46.0795 32.3485 47.0682 32.8788 47.9318 33.5682C48.803 34.2576 49.5189 35.0758 50.0795 36.0227C50.6402 36.9697 51.0076 38.0152 51.1818 39.1591H46.8864ZM62.3572 55.3409C60.6072 55.3409 59.0958 54.9773 57.8231 54.25C56.5579 53.5152 55.5844 52.4773 54.9026 51.1364C54.2208 49.7879 53.8799 48.2008 53.8799 46.375C53.8799 44.5795 54.2208 43.0038 54.9026 41.6477C55.592 40.2841 56.5541 39.2235 57.789 38.4659C59.0238 37.7008 60.4746 37.3182 62.1413 37.3182C63.217 37.3182 64.2322 37.4924 65.1867 37.8409C66.1488 38.1818 66.9973 38.7121 67.7322 39.4318C68.4746 40.1515 69.0579 41.0682 69.4822 42.1818C69.9064 43.2879 70.1185 44.6061 70.1185 46.1364V47.3977H55.8117V44.625H66.1753C66.1678 43.8371 65.9973 43.1364 65.664 42.5227C65.3306 41.9015 64.8647 41.4129 64.2663 41.0568C63.6753 40.7008 62.9859 40.5227 62.1981 40.5227C61.3572 40.5227 60.6185 40.7273 59.9822 41.1364C59.3458 41.5379 58.8496 42.0682 58.4935 42.7273C58.145 43.3788 57.967 44.0947 57.9594 44.875V47.2955C57.9594 48.3106 58.145 49.1818 58.5163 49.9091C58.8875 50.6288 59.4064 51.1818 60.0731 51.5682C60.7397 51.947 61.52 52.1364 62.414 52.1364C63.0125 52.1364 63.5541 52.053 64.039 51.8864C64.5238 51.7121 64.9443 51.4583 65.3003 51.125C65.6564 50.7917 65.9253 50.3788 66.1072 49.8864L69.9481 50.3182C69.7056 51.3333 69.2435 52.2197 68.5617 52.9773C67.8875 53.7273 67.0238 54.3106 65.9708 54.7273C64.9178 55.1364 63.7132 55.3409 62.3572 55.3409ZM81.6745 37.5455V40.7273H71.6405V37.5455H81.6745ZM74.1177 33.3636H78.2314V49.75C78.2314 50.303 78.3147 50.7273 78.4814 51.0227C78.6556 51.3106 78.8829 51.5076 79.1632 51.6136C79.4435 51.7197 79.7541 51.7727 80.095 51.7727C80.3526 51.7727 80.5874 51.7538 80.7995 51.7159C81.0192 51.678 81.1859 51.6439 81.2995 51.6136L81.9927 54.8295C81.773 54.9053 81.4586 54.9886 81.0495 55.0795C80.648 55.1705 80.1556 55.2235 79.5723 55.2386C78.542 55.2689 77.6139 55.1136 76.7882 54.7727C75.9624 54.4242 75.3071 53.8864 74.8223 53.1591C74.345 52.4318 74.1102 51.5227 74.1177 50.4318V33.3636ZM94.3292 61.5455C93.7686 61.5455 93.2497 61.5 92.7724 61.4091C92.3027 61.3258 91.9277 61.2273 91.6474 61.1136L92.6019 57.9091C93.2004 58.0833 93.7345 58.1667 94.2042 58.1591C94.6739 58.1515 95.0868 58.0038 95.4428 57.7159C95.8065 57.4356 96.1133 56.9659 96.3633 56.3068L96.7156 55.3636L90.386 37.5455H94.7497L98.7724 50.7273H98.9542L102.988 37.5455H107.363L100.375 57.1136C100.049 58.0379 99.6171 58.8295 99.0792 59.4886C98.5413 60.1553 97.8822 60.6629 97.1019 61.0114C96.3292 61.3674 95.405 61.5455 94.3292 61.5455ZM116.59 55.3409C114.885 55.3409 113.408 54.9659 112.158 54.2159C110.908 53.4659 109.938 52.4167 109.249 51.0682C108.567 49.7197 108.226 48.1439 108.226 46.3409C108.226 44.5379 108.567 42.9583 109.249 41.6023C109.938 40.2462 110.908 39.1932 112.158 38.4432C113.408 37.6932 114.885 37.3182 116.59 37.3182C118.294 37.3182 119.772 37.6932 121.022 38.4432C122.272 39.1932 123.238 40.2462 123.919 41.6023C124.609 42.9583 124.953 44.5379 124.953 46.3409C124.953 48.1439 124.609 49.7197 123.919 51.0682C123.238 52.4167 122.272 53.4659 121.022 54.2159C119.772 54.9659 118.294 55.3409 116.59 55.3409ZM116.613 52.0455C117.537 52.0455 118.309 51.7917 118.931 51.2841C119.552 50.7689 120.014 50.0795 120.317 49.2159C120.628 48.3523 120.783 47.3902 120.783 46.3295C120.783 45.2614 120.628 44.2955 120.317 43.4318C120.014 42.5606 119.552 41.8674 118.931 41.3523C118.309 40.8371 117.537 40.5795 116.613 40.5795C115.666 40.5795 114.878 40.8371 114.249 41.3523C113.628 41.8674 113.162 42.5606 112.851 43.4318C112.548 44.2955 112.397 45.2614 112.397 46.3295C112.397 47.3902 112.548 48.3523 112.851 49.2159C113.162 50.0795 113.628 50.7689 114.249 51.2841C114.878 51.7917 115.666 52.0455 116.613 52.0455ZM138.93 47.6591V37.5455H143.044V55H139.055V51.8977H138.873C138.479 52.875 137.831 53.6742 136.93 54.2955C136.036 54.9167 134.934 55.2273 133.623 55.2273C132.479 55.2273 131.468 54.9735 130.589 54.4659C129.718 53.9508 129.036 53.2045 128.544 52.2273C128.051 51.2424 127.805 50.053 127.805 48.6591V37.5455H131.919V48.0227C131.919 49.1288 132.222 50.0076 132.828 50.6591C133.434 51.3106 134.229 51.6364 135.214 51.6364C135.82 51.6364 136.407 51.4886 136.975 51.1932C137.544 50.8977 138.009 50.4583 138.373 49.875C138.744 49.2841 138.93 48.5455 138.93 47.6591ZM146.634 55V37.5455H150.622V40.4545H150.804C151.122 39.447 151.668 38.6705 152.44 38.125C153.221 37.572 154.111 37.2955 155.111 37.2955C155.338 37.2955 155.592 37.3068 155.872 37.3295C156.16 37.3447 156.399 37.3712 156.588 37.4091V41.1932C156.414 41.1326 156.137 41.0795 155.759 41.0341C155.387 40.9811 155.028 40.9545 154.679 40.9545C153.929 40.9545 153.255 41.1174 152.656 41.4432C152.065 41.7614 151.6 42.2045 151.259 42.7727C150.918 43.3409 150.747 43.9962 150.747 44.7386V55H146.634ZM166.16 55V31.7273H170.274V40.4318H170.445C170.657 40.0076 170.956 39.5568 171.342 39.0795C171.729 38.5947 172.251 38.1818 172.91 37.8409C173.57 37.4924 174.41 37.3182 175.433 37.3182C176.782 37.3182 177.998 37.6629 179.081 38.3523C180.172 39.0341 181.035 40.0455 181.672 41.3864C182.316 42.7197 182.638 44.3561 182.638 46.2955C182.638 48.2121 182.323 49.8409 181.695 51.1818C181.066 52.5227 180.21 53.5455 179.126 54.25C178.043 54.9545 176.816 55.3068 175.445 55.3068C174.445 55.3068 173.615 55.1402 172.956 54.8068C172.297 54.4735 171.767 54.072 171.365 53.6023C170.971 53.125 170.664 52.6742 170.445 52.25H170.206V55H166.16ZM170.195 46.2727C170.195 47.4015 170.354 48.3902 170.672 49.2386C170.998 50.0871 171.463 50.75 172.07 51.2273C172.683 51.697 173.426 51.9318 174.297 51.9318C175.206 51.9318 175.967 51.6894 176.581 51.2045C177.195 50.7121 177.657 50.0417 177.967 49.1932C178.285 48.3371 178.445 47.3636 178.445 46.2727C178.445 45.1894 178.289 44.2273 177.979 43.3864C177.668 42.5455 177.206 41.8864 176.592 41.4091C175.979 40.9318 175.213 40.6932 174.297 40.6932C173.418 40.6932 172.672 40.9242 172.058 41.3864C171.445 41.8485 170.979 42.4962 170.66 43.3295C170.35 44.1629 170.195 45.1439 170.195 46.2727ZM193.222 55.3409C191.472 55.3409 189.961 54.9773 188.688 54.25C187.423 53.5152 186.449 52.4773 185.768 51.1364C185.086 49.7879 184.745 48.2008 184.745 46.375C184.745 44.5795 185.086 43.0038 185.768 41.6477C186.457 40.2841 187.419 39.2235 188.654 38.4659C189.889 37.7008 191.34 37.3182 193.006 37.3182C194.082 37.3182 195.097 37.4924 196.052 37.8409C197.014 38.1818 197.862 38.7121 198.597 39.4318C199.34 40.1515 199.923 41.0682 200.347 42.1818C200.771 43.2879 200.984 44.6061 200.984 46.1364V47.3977H186.677V44.625H197.04C197.033 43.8371 196.862 43.1364 196.529 42.5227C196.196 41.9015 195.73 41.4129 195.131 41.0568C194.54 40.7008 193.851 40.5227 193.063 40.5227C192.222 40.5227 191.484 40.7273 190.847 41.1364C190.211 41.5379 189.715 42.0682 189.359 42.7273C189.01 43.3788 188.832 44.0947 188.824 44.875V47.2955C188.824 48.3106 189.01 49.1818 189.381 49.9091C189.752 50.6288 190.271 51.1818 190.938 51.5682C191.605 51.947 192.385 52.1364 193.279 52.1364C193.877 52.1364 194.419 52.053 194.904 51.8864C195.389 51.7121 195.809 51.4583 196.165 51.125C196.521 50.7917 196.79 50.3788 196.972 49.8864L200.813 50.3182C200.571 51.3333 200.109 52.2197 199.427 52.9773C198.752 53.7273 197.889 54.3106 196.836 54.7273C195.783 55.1364 194.578 55.3409 193.222 55.3409ZM207.937 44.7727V55H203.824V37.5455H207.755V40.5114H207.96C208.362 39.5341 209.002 38.7576 209.88 38.1818C210.767 37.6061 211.862 37.3182 213.165 37.3182C214.369 37.3182 215.418 37.5758 216.312 38.0909C217.214 38.6061 217.911 39.3523 218.403 40.3295C218.903 41.3068 219.149 42.4924 219.142 43.8864V55H215.028V44.5227C215.028 43.3561 214.725 42.4432 214.119 41.7841C213.521 41.125 212.691 40.7955 211.63 40.7955C210.911 40.7955 210.271 40.9545 209.71 41.2727C209.157 41.5833 208.721 42.0341 208.403 42.625C208.093 43.2159 207.937 43.9318 207.937 44.7727ZM230.411 55.3409C228.661 55.3409 227.15 54.9773 225.877 54.25C224.612 53.5152 223.638 52.4773 222.956 51.1364C222.275 49.7879 221.934 48.2008 221.934 46.375C221.934 44.5795 222.275 43.0038 222.956 41.6477C223.646 40.2841 224.608 39.2235 225.843 38.4659C227.078 37.7008 228.528 37.3182 230.195 37.3182C231.271 37.3182 232.286 37.4924 233.24 37.8409C234.203 38.1818 235.051 38.7121 235.786 39.4318C236.528 40.1515 237.112 41.0682 237.536 42.1818C237.96 43.2879 238.172 44.6061 238.172 46.1364V47.3977H223.865V44.625H234.229C234.222 43.8371 234.051 43.1364 233.718 42.5227C233.384 41.9015 232.918 41.4129 232.32 41.0568C231.729 40.7008 231.04 40.5227 230.252 40.5227C229.411 40.5227 228.672 40.7273 228.036 41.1364C227.4 41.5379 226.903 42.0682 226.547 42.7273C226.199 43.3788 226.021 44.0947 226.013 44.875V47.2955C226.013 48.3106 226.199 49.1818 226.57 49.9091C226.941 50.6288 227.46 51.1818 228.127 51.5682C228.793 51.947 229.574 52.1364 230.468 52.1364C231.066 52.1364 231.608 52.053 232.093 51.8864C232.578 51.7121 232.998 51.4583 233.354 51.125C233.71 50.7917 233.979 50.3788 234.161 49.8864L238.002 50.3182C237.759 51.3333 237.297 52.2197 236.615 52.9773C235.941 53.7273 235.078 54.3106 234.025 54.7273C232.972 55.1364 231.767 55.3409 230.411 55.3409ZM249.853 37.5455V40.7273H239.535V37.5455H249.853ZM242.115 55V35.8977C242.115 34.7235 242.357 33.7462 242.842 32.9659C243.334 32.1856 243.993 31.6023 244.819 31.2159C245.645 30.8295 246.562 30.6364 247.569 30.6364C248.281 30.6364 248.914 30.6932 249.467 30.8068C250.02 30.9205 250.429 31.0227 250.694 31.1136L249.876 34.2955C249.702 34.2424 249.482 34.1894 249.217 34.1364C248.952 34.0758 248.656 34.0455 248.331 34.0455C247.565 34.0455 247.024 34.2311 246.706 34.6023C246.395 34.9659 246.24 35.4886 246.24 36.1705V55H242.115ZM252.435 55V37.5455H256.549V55H252.435ZM254.503 35.0682C253.852 35.0682 253.291 34.8523 252.821 34.4205C252.352 33.9811 252.117 33.4545 252.117 32.8409C252.117 32.2197 252.352 31.6932 252.821 31.2614C253.291 30.822 253.852 30.6023 254.503 30.6023C255.162 30.6023 255.723 30.822 256.185 31.2614C256.655 31.6932 256.889 32.2197 256.889 32.8409C256.889 33.4545 256.655 33.9811 256.185 34.4205C255.723 34.8523 255.162 35.0682 254.503 35.0682ZM268.855 37.5455V40.7273H258.82V37.5455H268.855ZM261.298 33.3636H265.411V49.75C265.411 50.303 265.495 50.7273 265.661 51.0227C265.836 51.3106 266.063 51.5076 266.343 51.6136C266.623 51.7197 266.934 51.7727 267.275 51.7727C267.533 51.7727 267.767 51.7538 267.98 51.7159C268.199 51.678 268.366 51.6439 268.48 51.6136L269.173 54.8295C268.953 54.9053 268.639 54.9886 268.23 55.0795C267.828 55.1705 267.336 55.2235 266.752 55.2386C265.722 55.2689 264.794 55.1136 263.968 54.7727C263.142 54.4242 262.487 53.8864 262.002 53.1591C261.525 52.4318 261.29 51.5227 261.298 50.4318V33.3636ZM285.2 42.1591L281.45 42.5682C281.344 42.1894 281.159 41.8333 280.894 41.5C280.636 41.1667 280.287 40.8977 279.848 40.6932C279.409 40.4886 278.871 40.3864 278.234 40.3864C277.378 40.3864 276.659 40.572 276.075 40.9432C275.5 41.3144 275.215 41.7955 275.223 42.3864C275.215 42.8939 275.401 43.3068 275.78 43.625C276.166 43.9432 276.803 44.2045 277.689 44.4091L280.666 45.0455C282.318 45.4015 283.545 45.9659 284.348 46.7386C285.159 47.5114 285.568 48.5227 285.575 49.7727C285.568 50.8712 285.246 51.8409 284.609 52.6818C283.981 53.5152 283.106 54.1667 281.984 54.6364C280.863 55.1061 279.575 55.3409 278.121 55.3409C275.984 55.3409 274.265 54.8939 272.962 54C271.659 53.0985 270.882 51.8447 270.632 50.2386L274.644 49.8523C274.825 50.6402 275.212 51.2348 275.803 51.6364C276.394 52.0379 277.162 52.2386 278.109 52.2386C279.087 52.2386 279.871 52.0379 280.462 51.6364C281.06 51.2348 281.359 50.7386 281.359 50.1477C281.359 49.6477 281.166 49.2348 280.78 48.9091C280.401 48.5833 279.81 48.3333 279.007 48.1591L276.03 47.5341C274.356 47.1856 273.117 46.5985 272.314 45.7727C271.511 44.9394 271.113 43.8864 271.121 42.6136C271.113 41.5379 271.405 40.6061 271.996 39.8182C272.594 39.0227 273.424 38.4091 274.484 37.9773C275.553 37.5379 276.784 37.3182 278.178 37.3182C280.223 37.3182 281.833 37.7538 283.007 38.625C284.189 39.4962 284.92 40.6742 285.2 42.1591ZM299.739 44.7727V55H295.625V37.5455H299.557V40.5114H299.761C300.163 39.5341 300.803 38.7576 301.682 38.1818C302.568 37.6061 303.663 37.3182 304.966 37.3182C306.17 37.3182 307.22 37.5758 308.114 38.0909C309.015 38.6061 309.712 39.3523 310.204 40.3295C310.704 41.3068 310.951 42.4924 310.943 43.8864V55H306.829V44.5227C306.829 43.3561 306.526 42.4432 305.92 41.7841C305.322 41.125 304.492 40.7955 303.432 40.7955C302.712 40.7955 302.072 40.9545 301.511 41.2727C300.958 41.5833 300.523 42.0341 300.204 42.625C299.894 43.2159 299.739 43.9318 299.739 44.7727ZM322.099 55.3409C320.394 55.3409 318.917 54.9659 317.667 54.2159C316.417 53.4659 315.447 52.4167 314.758 51.0682C314.076 49.7197 313.735 48.1439 313.735 46.3409C313.735 44.5379 314.076 42.9583 314.758 41.6023C315.447 40.2462 316.417 39.1932 317.667 38.4432C318.917 37.6932 320.394 37.3182 322.099 37.3182C323.803 37.3182 325.28 37.6932 326.53 38.4432C327.78 39.1932 328.746 40.2462 329.428 41.6023C330.117 42.9583 330.462 44.5379 330.462 46.3409C330.462 48.1439 330.117 49.7197 329.428 51.0682C328.746 52.4167 327.78 53.4659 326.53 54.2159C325.28 54.9659 323.803 55.3409 322.099 55.3409ZM322.121 52.0455C323.045 52.0455 323.818 51.7917 324.439 51.2841C325.061 50.7689 325.523 50.0795 325.826 49.2159C326.136 48.3523 326.292 47.3902 326.292 46.3295C326.292 45.2614 326.136 44.2955 325.826 43.4318C325.523 42.5606 325.061 41.8674 324.439 41.3523C323.818 40.8371 323.045 40.5795 322.121 40.5795C321.174 40.5795 320.386 40.8371 319.758 41.3523C319.136 41.8674 318.67 42.5606 318.36 43.4318C318.057 44.2955 317.905 45.2614 317.905 46.3295C317.905 47.3902 318.057 48.3523 318.36 49.2159C318.67 50.0795 319.136 50.7689 319.758 51.2841C320.386 51.7917 321.174 52.0455 322.121 52.0455ZM336.416 55L331.484 37.5455H335.677L338.745 49.8182H338.905L342.041 37.5455H346.189L349.325 49.75H349.495L352.518 37.5455H356.723L351.78 55H347.495L344.223 43.2045H343.984L340.711 55H336.416Z" fill="#FF5DCA"/>
</svg>
