<svg width="200" height="40" viewBox="0 0 200 40" fill="none" xmlns="http://www.w3.org/2000/svg">
<path d="M0 23.4667C0 14.3356 7.4734 6.93333 16.6923 6.93333H183.308C192.527 6.93333 200 14.3356 200 23.4667C200 32.5978 192.527 40 183.308 40H16.6923C7.47341 40 0 32.5978 0 23.4667Z" fill="white"/>
<path d="M22.0769 0V10.6667H6.46154L22.0769 0Z" fill="white"/>
<path d="M25.9432 21.0795C25.8485 20.7727 25.7178 20.4981 25.5511 20.2557C25.3883 20.0095 25.1913 19.7992 24.9602 19.625C24.733 19.4508 24.4716 19.3201 24.1761 19.233C23.8807 19.142 23.5587 19.0966 23.2102 19.0966C22.5852 19.0966 22.0284 19.2538 21.5398 19.5682C21.0511 19.8826 20.6667 20.3447 20.3864 20.9545C20.1098 21.5606 19.9716 22.2992 19.9716 23.1705C19.9716 24.0492 20.1098 24.7936 20.3864 25.4034C20.6629 26.0133 21.0473 26.4773 21.5398 26.7955C22.0322 27.1098 22.6042 27.267 23.2557 27.267C23.8466 27.267 24.358 27.1534 24.7898 26.9261C25.2254 26.6989 25.5606 26.3769 25.7955 25.9602C26.0303 25.5398 26.1477 25.0473 26.1477 24.483L26.625 24.5568H23.4659V22.9091H28.1875V24.3068C28.1875 25.303 27.9754 26.1648 27.5511 26.892C27.1269 27.6193 26.5436 28.1799 25.8011 28.5739C25.0587 28.964 24.2064 29.1591 23.2443 29.1591C22.1723 29.1591 21.2311 28.9186 20.4205 28.4375C19.6136 27.9527 18.983 27.2652 18.5284 26.375C18.0777 25.4811 17.8523 24.4205 17.8523 23.1932C17.8523 22.2538 17.9848 21.4148 18.25 20.6761C18.5189 19.9375 18.8939 19.3106 19.375 18.7955C19.8561 18.2765 20.4205 17.8826 21.0682 17.6136C21.7159 17.3409 22.4205 17.2045 23.1818 17.2045C23.8258 17.2045 24.4261 17.2992 24.983 17.4886C25.5398 17.6742 26.0341 17.9394 26.4659 18.2841C26.9015 18.6288 27.2595 19.0379 27.5398 19.5114C27.8201 19.9848 28.0038 20.5076 28.0909 21.0795H25.9432ZM33.6786 29.1705C32.8036 29.1705 32.0479 28.9886 31.4115 28.625C30.779 28.2576 30.2922 27.7386 29.9513 27.0682C29.6104 26.3939 29.4399 25.6004 29.4399 24.6875C29.4399 23.7898 29.6104 23.0019 29.9513 22.3239C30.296 21.642 30.7771 21.1117 31.3945 20.733C32.0119 20.3504 32.7373 20.1591 33.5706 20.1591C34.1085 20.1591 34.6161 20.2462 35.0934 20.4205C35.5744 20.5909 35.9987 20.8561 36.3661 21.2159C36.7373 21.5758 37.029 22.0341 37.2411 22.5909C37.4532 23.1439 37.5593 23.803 37.5593 24.5682V25.1989H30.4059V23.8125H35.5877C35.5839 23.4186 35.4987 23.0682 35.332 22.7614C35.1653 22.4508 34.9324 22.2064 34.6331 22.0284C34.3377 21.8504 33.993 21.7614 33.599 21.7614C33.1786 21.7614 32.8093 21.8636 32.4911 22.0682C32.1729 22.2689 31.9248 22.5341 31.7468 22.8636C31.5725 23.1894 31.4835 23.5473 31.4797 23.9375V25.1477C31.4797 25.6553 31.5725 26.0909 31.7581 26.4545C31.9437 26.8144 32.2032 27.0909 32.5365 27.2841C32.8699 27.4735 33.26 27.5682 33.707 27.5682C34.0062 27.5682 34.2771 27.5265 34.5195 27.4432C34.7619 27.3561 34.9721 27.2292 35.1502 27.0625C35.3282 26.8958 35.4627 26.6894 35.5536 26.4432L37.474 26.6591C37.3528 27.1667 37.1218 27.6098 36.7809 27.9886C36.4437 28.3636 36.0119 28.6553 35.4854 28.8636C34.9589 29.0682 34.3566 29.1705 33.6786 29.1705ZM43.3373 20.2727V21.8636H38.3202V20.2727H43.3373ZM39.5589 18.1818H41.6157V26.375C41.6157 26.6515 41.6573 26.8636 41.7407 27.0114C41.8278 27.1553 41.9414 27.2538 42.0816 27.3068C42.2217 27.3598 42.377 27.3864 42.5475 27.3864C42.6763 27.3864 42.7937 27.3769 42.8998 27.358C43.0096 27.339 43.093 27.322 43.1498 27.3068L43.4964 28.9148C43.3865 28.9527 43.2293 28.9943 43.0248 29.0398C42.824 29.0852 42.5778 29.1117 42.2861 29.1193C41.771 29.1345 41.307 29.0568 40.8941 28.8864C40.4812 28.7121 40.1536 28.4432 39.9111 28.0795C39.6725 27.7159 39.5551 27.2614 39.5589 26.7159V18.1818ZM49.6646 32.2727C49.3843 32.2727 49.1248 32.25 48.8862 32.2045C48.6513 32.1629 48.4638 32.1136 48.3237 32.0568L48.801 30.4545C49.1002 30.5417 49.3673 30.5833 49.6021 30.5795C49.837 30.5758 50.0434 30.5019 50.2214 30.358C50.4032 30.2178 50.5566 29.983 50.6816 29.6534L50.8578 29.1818L47.693 20.2727H49.8748L51.8862 26.8636H51.9771L53.9941 20.2727H56.1816L52.6873 30.0568C52.5245 30.5189 52.3085 30.9148 52.0396 31.2443C51.7707 31.5777 51.4411 31.8314 51.051 32.0057C50.6646 32.1837 50.2025 32.2727 49.6646 32.2727ZM60.7949 29.1705C59.9426 29.1705 59.204 28.983 58.579 28.608C57.954 28.233 57.4691 27.7083 57.1244 27.0341C56.7835 26.3598 56.6131 25.572 56.6131 24.6705C56.6131 23.7689 56.7835 22.9792 57.1244 22.3011C57.4691 21.6231 57.954 21.0966 58.579 20.7216C59.204 20.3466 59.9426 20.1591 60.7949 20.1591C61.6472 20.1591 62.3858 20.3466 63.0108 20.7216C63.6358 21.0966 64.1188 21.6231 64.4597 22.3011C64.8044 22.9792 64.9767 23.7689 64.9767 24.6705C64.9767 25.572 64.8044 26.3598 64.4597 27.0341C64.1188 27.7083 63.6358 28.233 63.0108 28.608C62.3858 28.983 61.6472 29.1705 60.7949 29.1705ZM60.8063 27.5227C61.2684 27.5227 61.6547 27.3958 61.9653 27.142C62.2759 26.8845 62.507 26.5398 62.6585 26.108C62.8138 25.6761 62.8915 25.1951 62.8915 24.6648C62.8915 24.1307 62.8138 23.6477 62.6585 23.2159C62.507 22.7803 62.2759 22.4337 61.9653 22.1761C61.6547 21.9186 61.2684 21.7898 60.8063 21.7898C60.3328 21.7898 59.9388 21.9186 59.6244 22.1761C59.3138 22.4337 59.0809 22.7803 58.9256 23.2159C58.7741 23.6477 58.6983 24.1307 58.6983 24.6648C58.6983 25.1951 58.7741 25.6761 58.9256 26.108C59.0809 26.5398 59.3138 26.8845 59.6244 27.142C59.9388 27.3958 60.3328 27.5227 60.8063 27.5227ZM71.9649 25.3295V20.2727H74.0218V29H72.0274V27.4489H71.9365C71.7396 27.9375 71.4157 28.3371 70.9649 28.6477C70.518 28.9583 69.9668 29.1136 69.3115 29.1136C68.7396 29.1136 68.2339 28.9867 67.7945 28.733C67.3589 28.4754 67.018 28.1023 66.7718 27.6136C66.5256 27.1212 66.4024 26.5265 66.4024 25.8295V20.2727H68.4593V25.5114C68.4593 26.0644 68.6108 26.5038 68.9138 26.8295C69.2168 27.1553 69.6146 27.3182 70.107 27.3182C70.41 27.3182 70.7036 27.2443 70.9877 27.0966C71.2718 26.9489 71.5047 26.7292 71.6865 26.4375C71.8721 26.142 71.9649 25.7727 71.9649 25.3295ZM75.8168 29V20.2727H77.8111V21.7273H77.902C78.0611 21.2235 78.3339 20.8352 78.7202 20.5625C79.1104 20.286 79.5555 20.1477 80.0555 20.1477C80.1691 20.1477 80.296 20.1534 80.4361 20.1648C80.5801 20.1723 80.6994 20.1856 80.7941 20.2045V22.0966C80.707 22.0663 80.5687 22.0398 80.3793 22.017C80.1937 21.9905 80.0138 21.9773 79.8395 21.9773C79.4645 21.9773 79.1274 22.0587 78.8282 22.2216C78.5327 22.3807 78.2998 22.6023 78.1293 22.8864C77.9589 23.1705 77.8736 23.4981 77.8736 23.8693V29H75.8168ZM85.5802 29V17.3636H87.637V21.7159H87.7223C87.8283 21.5038 87.978 21.2784 88.1711 21.0398C88.3643 20.7973 88.6257 20.5909 88.9552 20.4205C89.2848 20.2462 89.7052 20.1591 90.2166 20.1591C90.8908 20.1591 91.4988 20.3314 92.0405 20.6761C92.5859 21.017 93.0177 21.5227 93.3359 22.1932C93.6579 22.8598 93.8189 23.678 93.8189 24.6477C93.8189 25.6061 93.6617 26.4205 93.3473 27.0909C93.0329 27.7614 92.6049 28.2727 92.0632 28.625C91.5215 28.9773 90.9079 29.1534 90.2223 29.1534C89.7223 29.1534 89.3075 29.0701 88.978 28.9034C88.6484 28.7367 88.3833 28.536 88.1825 28.3011C87.9855 28.0625 87.8321 27.8371 87.7223 27.625H87.603V29H85.5802ZM87.5973 24.6364C87.5973 25.2008 87.6768 25.6951 87.8359 26.1193C87.9988 26.5436 88.2317 26.875 88.5348 27.1136C88.8416 27.3485 89.2128 27.4659 89.6484 27.4659C90.103 27.4659 90.4836 27.3447 90.7905 27.1023C91.0973 26.8561 91.3283 26.5208 91.4836 26.0966C91.6427 25.6686 91.7223 25.1818 91.7223 24.6364C91.7223 24.0947 91.6446 23.6136 91.4893 23.1932C91.334 22.7727 91.103 22.4432 90.7961 22.2045C90.4893 21.9659 90.1067 21.8466 89.6484 21.8466C89.209 21.8466 88.8359 21.9621 88.5291 22.1932C88.2223 22.4242 87.9893 22.7481 87.8302 23.1648C87.6749 23.5814 87.5973 24.072 87.5973 24.6364ZM99.1111 29.1705C98.2361 29.1705 97.4804 28.9886 96.844 28.625C96.2115 28.2576 95.7247 27.7386 95.3838 27.0682C95.0429 26.3939 94.8724 25.6004 94.8724 24.6875C94.8724 23.7898 95.0429 23.0019 95.3838 22.3239C95.7285 21.642 96.2096 21.1117 96.827 20.733C97.4444 20.3504 98.1698 20.1591 99.0031 20.1591C99.541 20.1591 100.049 20.2462 100.526 20.4205C101.007 20.5909 101.431 20.8561 101.799 21.2159C102.17 21.5758 102.461 22.0341 102.674 22.5909C102.886 23.1439 102.992 23.803 102.992 24.5682V25.1989H95.8384V23.8125H101.02C101.016 23.4186 100.931 23.0682 100.764 22.7614C100.598 22.4508 100.365 22.2064 100.066 22.0284C99.7702 21.8504 99.4255 21.7614 99.0315 21.7614C98.6111 21.7614 98.2418 21.8636 97.9236 22.0682C97.6054 22.2689 97.3573 22.5341 97.1793 22.8636C97.005 23.1894 96.916 23.5473 96.9122 23.9375V25.1477C96.9122 25.6553 97.005 26.0909 97.1906 26.4545C97.3762 26.8144 97.6357 27.0909 97.969 27.2841C98.3024 27.4735 98.6925 27.5682 99.1395 27.5682C99.4387 27.5682 99.7096 27.5265 99.952 27.4432C100.194 27.3561 100.405 27.2292 100.583 27.0625C100.761 26.8958 100.895 26.6894 100.986 26.4432L102.907 26.6591C102.785 27.1667 102.554 27.6098 102.213 27.9886C101.876 28.3636 101.444 28.6553 100.918 28.8636C100.391 29.0682 99.7891 29.1705 99.1111 29.1705ZM106.469 23.8864V29H104.412V20.2727H106.378V21.7557H106.48C106.681 21.267 107.001 20.8788 107.44 20.5909C107.883 20.303 108.431 20.1591 109.082 20.1591C109.685 20.1591 110.209 20.2879 110.656 20.5455C111.107 20.803 111.455 21.1761 111.702 21.6648C111.952 22.1534 112.075 22.7462 112.071 23.4432V29H110.014V23.7614C110.014 23.178 109.863 22.7216 109.56 22.392C109.26 22.0625 108.846 21.8977 108.315 21.8977C107.955 21.8977 107.635 21.9773 107.355 22.1364C107.078 22.2917 106.861 22.517 106.702 22.8125C106.546 23.108 106.469 23.4659 106.469 23.8864ZM117.705 29.1705C116.83 29.1705 116.075 28.9886 115.438 28.625C114.806 28.2576 114.319 27.7386 113.978 27.0682C113.637 26.3939 113.467 25.6004 113.467 24.6875C113.467 23.7898 113.637 23.0019 113.978 22.3239C114.323 21.642 114.804 21.1117 115.421 20.733C116.039 20.3504 116.764 20.1591 117.598 20.1591C118.135 20.1591 118.643 20.2462 119.12 20.4205C119.601 20.5909 120.026 20.8561 120.393 21.2159C120.764 21.5758 121.056 22.0341 121.268 22.5909C121.48 23.1439 121.586 23.803 121.586 24.5682V25.1989H114.433V23.8125H119.615C119.611 23.4186 119.526 23.0682 119.359 22.7614C119.192 22.4508 118.959 22.2064 118.66 22.0284C118.365 21.8504 118.02 21.7614 117.626 21.7614C117.205 21.7614 116.836 21.8636 116.518 22.0682C116.2 22.2689 115.952 22.5341 115.774 22.8636C115.599 23.1894 115.51 23.5473 115.507 23.9375V25.1477C115.507 25.6553 115.599 26.0909 115.785 26.4545C115.971 26.8144 116.23 27.0909 116.563 27.2841C116.897 27.4735 117.287 27.5682 117.734 27.5682C118.033 27.5682 118.304 27.5265 118.546 27.4432C118.789 27.3561 118.999 27.2292 119.177 27.0625C119.355 26.8958 119.49 26.6894 119.58 26.4432L121.501 26.6591C121.38 27.1667 121.149 27.6098 120.808 27.9886C120.471 28.3636 120.039 28.6553 119.512 28.8636C118.986 29.0682 118.383 29.1705 117.705 29.1705ZM127.427 20.2727V21.8636H122.268V20.2727H127.427ZM123.557 29V19.4489C123.557 18.8617 123.679 18.3731 123.921 17.983C124.167 17.5928 124.497 17.3011 124.91 17.108C125.322 16.9148 125.781 16.8182 126.285 16.8182C126.641 16.8182 126.957 16.8466 127.233 16.9034C127.51 16.9602 127.715 17.0114 127.847 17.0568L127.438 18.6477C127.351 18.6212 127.241 18.5947 127.108 18.5682C126.976 18.5379 126.828 18.5227 126.665 18.5227C126.283 18.5227 126.012 18.6155 125.853 18.8011C125.697 18.983 125.62 19.2443 125.62 19.5852V29H123.557ZM128.717 29V20.2727H130.774V29H128.717ZM129.752 19.0341C129.426 19.0341 129.145 18.9261 128.911 18.7102C128.676 18.4905 128.558 18.2273 128.558 17.9205C128.558 17.6098 128.676 17.3466 128.911 17.1307C129.145 16.911 129.426 16.8011 129.752 16.8011C130.081 16.8011 130.361 16.911 130.592 17.1307C130.827 17.3466 130.945 17.6098 130.945 17.9205C130.945 18.2273 130.827 18.4905 130.592 18.7102C130.361 18.9261 130.081 19.0341 129.752 19.0341ZM136.927 20.2727V21.8636H131.91V20.2727H136.927ZM133.149 18.1818H135.206V26.375C135.206 26.6515 135.247 26.8636 135.331 27.0114C135.418 27.1553 135.531 27.2538 135.672 27.3068C135.812 27.3598 135.967 27.3864 136.137 27.3864C136.266 27.3864 136.384 27.3769 136.49 27.358C136.6 27.339 136.683 27.322 136.74 27.3068L137.086 28.9148C136.977 28.9527 136.819 28.9943 136.615 29.0398C136.414 29.0852 136.168 29.1117 135.876 29.1193C135.361 29.1345 134.897 29.0568 134.484 28.8864C134.071 28.7121 133.744 28.4432 133.501 28.0795C133.262 27.7159 133.145 27.2614 133.149 26.7159V18.1818ZM145.1 22.5795L143.225 22.7841C143.172 22.5947 143.079 22.4167 142.947 22.25C142.818 22.0833 142.644 21.9489 142.424 21.8466C142.204 21.7443 141.935 21.6932 141.617 21.6932C141.189 21.6932 140.829 21.786 140.538 21.9716C140.25 22.1572 140.108 22.3977 140.112 22.6932C140.108 22.947 140.201 23.1534 140.39 23.3125C140.583 23.4716 140.901 23.6023 141.344 23.7045L142.833 24.0227C143.659 24.2008 144.273 24.483 144.674 24.8693C145.079 25.2557 145.284 25.7614 145.288 26.3864C145.284 26.9356 145.123 27.4205 144.805 27.8409C144.49 28.2576 144.053 28.5833 143.492 28.8182C142.932 29.053 142.288 29.1705 141.56 29.1705C140.492 29.1705 139.632 28.947 138.981 28.5C138.329 28.0492 137.941 27.4223 137.816 26.6193L139.822 26.4261C139.913 26.8201 140.106 27.1174 140.401 27.3182C140.697 27.5189 141.081 27.6193 141.555 27.6193C142.043 27.6193 142.435 27.5189 142.731 27.3182C143.03 27.1174 143.18 26.8693 143.18 26.5739C143.18 26.3239 143.083 26.1174 142.89 25.9545C142.701 25.7917 142.405 25.6667 142.004 25.5795L140.515 25.267C139.678 25.0928 139.059 24.7992 138.657 24.3864C138.255 23.9697 138.057 23.4432 138.06 22.8068C138.057 22.2689 138.202 21.803 138.498 21.4091C138.797 21.0114 139.212 20.7045 139.742 20.4886C140.276 20.2689 140.892 20.1591 141.589 20.1591C142.612 20.1591 143.416 20.3769 144.004 20.8125C144.594 21.2481 144.96 21.8371 145.1 22.5795ZM152.369 23.8864V29H150.312V20.2727H152.278V21.7557H152.381C152.581 21.267 152.901 20.8788 153.341 20.5909C153.784 20.303 154.331 20.1591 154.983 20.1591C155.585 20.1591 156.11 20.2879 156.557 20.5455C157.008 20.803 157.356 21.1761 157.602 21.6648C157.852 22.1534 157.975 22.7462 157.972 23.4432V29H155.915V23.7614C155.915 23.178 155.763 22.7216 155.46 22.392C155.161 22.0625 154.746 21.8977 154.216 21.8977C153.856 21.8977 153.536 21.9773 153.256 22.1364C152.979 22.2917 152.761 22.517 152.602 22.8125C152.447 23.108 152.369 23.4659 152.369 23.8864ZM163.549 29.1705C162.697 29.1705 161.958 28.983 161.333 28.608C160.708 28.233 160.224 27.7083 159.879 27.0341C159.538 26.3598 159.367 25.572 159.367 24.6705C159.367 23.7689 159.538 22.9792 159.879 22.3011C160.224 21.6231 160.708 21.0966 161.333 20.7216C161.958 20.3466 162.697 20.1591 163.549 20.1591C164.402 20.1591 165.14 20.3466 165.765 20.7216C166.39 21.0966 166.873 21.6231 167.214 22.3011C167.559 22.9792 167.731 23.7689 167.731 24.6705C167.731 25.572 167.559 26.3598 167.214 27.0341C166.873 27.7083 166.39 28.233 165.765 28.608C165.14 28.983 164.402 29.1705 163.549 29.1705ZM163.561 27.5227C164.023 27.5227 164.409 27.3958 164.72 27.142C165.03 26.8845 165.261 26.5398 165.413 26.108C165.568 25.6761 165.646 25.1951 165.646 24.6648C165.646 24.1307 165.568 23.6477 165.413 23.2159C165.261 22.7803 165.03 22.4337 164.72 22.1761C164.409 21.9186 164.023 21.7898 163.561 21.7898C163.087 21.7898 162.693 21.9186 162.379 22.1761C162.068 22.4337 161.835 22.7803 161.68 23.2159C161.528 23.6477 161.453 24.1307 161.453 24.6648C161.453 25.1951 161.528 25.6761 161.68 26.108C161.835 26.5398 162.068 26.8845 162.379 27.142C162.693 27.3958 163.087 27.5227 163.561 27.5227ZM170.708 29L168.242 20.2727H170.339L171.873 26.4091H171.952L173.52 20.2727H175.594L177.163 26.375H177.248L178.759 20.2727H180.861L178.39 29H176.248L174.611 23.1023H174.492L172.856 29H170.708Z" fill="#FF5DCA"/>
</svg>
