<svg width="160" height="40" viewBox="0 0 160 40" fill="none" xmlns="http://www.w3.org/2000/svg">
<path d="M0 23.4667C0 14.3356 7.4734 6.93333 16.6923 6.93333H143.308C152.527 6.93333 160 14.3356 160 23.4667C160 32.5978 152.527 40 143.308 40H16.6923C7.47341 40 0 32.5978 0 23.4667Z" fill="white"/>
<path d="M22.0769 0V10.6667H6.46154L22.0769 0Z" fill="white"/>
<path d="M27.672 31.128C27.1067 31.128 26.6533 30.9787 26.312 30.68C25.9813 30.3813 25.816 29.976 25.816 29.464C25.816 28.9627 25.976 28.5733 26.296 28.296C26.616 28.008 27 27.864 27.448 27.864C27.9067 27.864 28.2587 27.9867 28.504 28.232C28.7493 28.4667 28.8773 28.7547 28.888 29.096H28.68C28.6373 28.904 28.5253 28.728 28.344 28.568C28.1733 28.3973 27.96 28.312 27.704 28.312C27.6613 28.184 27.6293 28.0613 27.608 27.944C27.5867 27.8267 27.576 27.6933 27.576 27.544V26.888C27.576 26.632 27.5173 26.4453 27.4 26.328C27.2827 26.2107 27.08 26.1307 26.792 26.088L23.224 25.512V24.552C23.224 23.6667 23.4853 23.0107 24.008 22.584C24.5413 22.1467 25.208 21.928 26.008 21.928C26.4133 21.928 26.7653 21.96 27.064 22.024C27.3627 22.0773 27.64 22.136 27.896 22.2C28.1627 22.2533 28.4453 22.28 28.744 22.28C28.968 22.28 29.1813 22.2587 29.384 22.216C29.5973 22.1733 29.8107 22.1093 30.024 22.024V23.496C29.8853 23.56 29.7093 23.624 29.496 23.688C29.2933 23.7413 29.0587 23.768 28.792 23.768C28.3867 23.768 27.9813 23.7147 27.576 23.608C27.1707 23.5013 26.7493 23.448 26.312 23.448C25.5653 23.448 25.192 23.768 25.192 24.408V24.568L27.224 24.904C27.832 24.9893 28.3013 25.112 28.632 25.272C28.9733 25.432 29.2133 25.6507 29.352 25.928C29.4907 26.2053 29.56 26.568 29.56 27.016V29.24C29.56 29.848 29.3947 30.3173 29.064 30.648C28.744 30.968 28.28 31.128 27.672 31.128ZM27.624 30.152C27.848 30.152 28.0187 30.0933 28.136 29.976C28.2533 29.8587 28.312 29.6933 28.312 29.48C28.312 29.2667 28.2533 29.1067 28.136 29C28.0187 28.8827 27.848 28.824 27.624 28.824C27.4107 28.824 27.24 28.8827 27.112 29C26.9947 29.1067 26.936 29.2667 26.936 29.48C26.936 29.6933 26.9947 29.8587 27.112 29.976C27.24 30.0933 27.4107 30.152 27.624 30.152ZM26.8474 20.872C26.5167 20.872 26.2127 20.8347 25.9354 20.76C25.658 20.6853 25.4234 20.584 25.2314 20.456C25.0074 20.3067 24.842 20.12 24.7354 19.896C24.618 19.6613 24.5594 19.4 24.5594 19.112C24.5594 18.6213 24.714 18.232 25.0234 17.944C25.3327 17.6453 25.754 17.496 26.2874 17.496C26.8207 17.496 27.2474 17.6347 27.5674 17.912C27.8874 18.1787 28.0474 18.5467 28.0474 19.016C28.0474 19.3787 27.9514 19.6667 27.7594 19.88C27.5567 20.0827 27.2634 20.1947 26.8794 20.216V19.64C26.9647 19.6507 27.0714 19.6667 27.1994 19.688C27.3167 19.6987 27.434 19.704 27.5514 19.704C27.8927 19.704 28.2714 19.6133 28.6874 19.432C29.1034 19.2507 29.5087 19.0107 29.9034 18.712C30.298 18.4027 30.634 18.0667 30.9114 17.704H30.9754V19.448C30.634 19.736 30.2394 19.9867 29.7914 20.2C29.3327 20.4133 28.8527 20.5787 28.3514 20.696C27.85 20.8133 27.3487 20.872 26.8474 20.872ZM26.3034 19.768C26.5167 19.768 26.682 19.7147 26.7994 19.608C26.9167 19.4907 26.9754 19.3307 26.9754 19.128C26.9754 18.9147 26.9167 18.7547 26.7994 18.648C26.682 18.5413 26.5167 18.488 26.3034 18.488C26.1007 18.488 25.9407 18.5413 25.8234 18.648C25.6954 18.7547 25.6314 18.9147 25.6314 19.128C25.6314 19.3307 25.6954 19.4907 25.8234 19.608C25.9407 19.7147 26.1007 19.768 26.3034 19.768ZM31.4521 31V29.864L32.3321 29.576V25.848C32.3321 25.656 32.3375 25.4853 32.3481 25.336C32.3695 25.1867 32.4121 25.0107 32.4761 24.808C32.8281 24.776 33.1001 24.68 33.2921 24.52C33.4841 24.36 33.5855 24.136 33.5961 23.848H33.8041C33.8041 24.296 33.6761 24.648 33.4201 24.904C33.1641 25.16 32.8121 25.288 32.3641 25.288C31.8521 25.288 31.4361 25.1333 31.1161 24.824C30.7961 24.5147 30.6361 24.1147 30.6361 23.624C30.6361 23.1013 30.8068 22.6907 31.1481 22.392C31.4895 22.0933 31.9428 21.944 32.5081 21.944C33.0735 21.944 33.5215 22.0933 33.8521 22.392C34.1828 22.6907 34.3481 23.1013 34.3481 23.624V29.56H36.7321C36.9561 29.56 37.1215 29.5067 37.2281 29.4C37.3455 29.2827 37.4041 29.112 37.4041 28.888V22.072H39.4201V29.208C39.4201 29.7947 39.2655 30.2427 38.9561 30.552C38.6575 30.8507 38.2148 31 37.6281 31H31.4521ZM32.4441 24.28C32.6681 24.28 32.8388 24.2213 32.9561 24.104C33.0735 23.9867 33.1321 23.8267 33.1321 23.624C33.1321 23.4107 33.0735 23.2453 32.9561 23.128C32.8388 23.0107 32.6681 22.952 32.4441 22.952C32.2308 22.952 32.0601 23.0107 31.9321 23.128C31.8148 23.2453 31.7561 23.4107 31.7561 23.624C31.7561 23.8267 31.8148 23.9867 31.9321 24.104C32.0601 24.2213 32.2308 24.28 32.4441 24.28ZM43.2306 31.128C42.612 31.128 42.132 30.952 41.7906 30.6C41.4493 30.248 41.2786 29.752 41.2786 29.112V27.592C41.2786 26.76 41.5026 26.12 41.9506 25.672C42.4093 25.224 43.0493 25 43.8706 25C44.2226 25 44.5586 25.0533 44.8786 25.16C45.1986 25.2667 45.5026 25.4267 45.7906 25.64C46.0786 25.8533 46.3293 26.1093 46.5426 26.408H46.6066V25.208C46.6066 24.5893 46.4253 24.1307 46.0626 23.832C45.7 23.5333 45.1346 23.384 44.3666 23.384C43.9186 23.384 43.4546 23.448 42.9746 23.576C42.4946 23.704 41.972 23.9013 41.4066 24.168V22.552C41.8546 22.3387 42.3826 22.1733 42.9906 22.056C43.6093 21.928 44.2173 21.864 44.8146 21.864C45.284 21.864 45.716 21.9333 46.1106 22.072C46.5053 22.2 46.8413 22.3813 47.1186 22.616C47.396 22.8507 47.5933 23.1333 47.7106 23.464C48.0413 23.656 48.276 23.9067 48.4146 24.216C48.5533 24.5253 48.6226 24.9413 48.6226 25.464V31H46.6066V29.368C46.6066 28.952 46.5426 28.5627 46.4146 28.2C46.2866 27.8373 46.1053 27.5173 45.8706 27.24C45.6466 26.9627 45.3853 26.7493 45.0866 26.6C44.788 26.44 44.4626 26.36 44.1106 26.36C43.78 26.36 43.5293 26.456 43.3586 26.648C43.1986 26.84 43.1186 27.128 43.1186 27.512V27.832C43.1186 27.928 43.108 28.0293 43.0866 28.136C43.076 28.232 43.06 28.3227 43.0386 28.408C42.772 28.408 42.548 28.5093 42.3666 28.712C42.1853 28.904 42.0946 29.1493 42.0946 29.448L41.8226 29.304C41.8546 28.8453 41.9986 28.4987 42.2546 28.264C42.5106 28.0187 42.868 27.896 43.3266 27.896C43.8493 27.896 44.26 28.0453 44.5586 28.344C44.868 28.632 45.0226 29.016 45.0226 29.496C45.0226 29.9973 44.8573 30.3973 44.5266 30.696C44.2066 30.984 43.7746 31.128 43.2306 31.128ZM43.2306 30.184C43.444 30.184 43.6093 30.1253 43.7266 30.008C43.8546 29.8907 43.9186 29.7253 43.9186 29.512C43.9186 29.3093 43.8546 29.1493 43.7266 29.032C43.6093 28.9147 43.444 28.856 43.2306 28.856C43.0066 28.856 42.8306 28.9147 42.7026 29.032C42.5853 29.1493 42.5266 29.3093 42.5266 29.512C42.5266 29.7253 42.5853 29.8907 42.7026 30.008C42.8306 30.1253 43.0066 30.184 43.2306 30.184ZM47.3746 24.376L46.5746 23.464C46.9586 23.2293 47.2626 22.9573 47.4866 22.648C47.7106 22.3387 47.8493 22.0027 47.9026 21.64H49.7906C49.7586 22.0987 49.54 22.552 49.1346 23C48.74 23.448 48.1533 23.9067 47.3746 24.376ZM40.8121 20.776V20.376C40.8121 19.864 40.9561 19.4 41.2441 18.984C41.5321 18.568 41.9535 18.232 42.5081 17.976C43.0628 17.7093 43.7295 17.576 44.5081 17.576C45.2975 17.576 45.9695 17.7093 46.5241 17.976C47.0681 18.232 47.4895 18.568 47.7881 18.984C48.0761 19.4 48.2201 19.864 48.2201 20.376V20.776H40.8121ZM42.4121 19.816H46.4921C46.4815 19.6667 46.4121 19.5067 46.2841 19.336C46.1455 19.1547 45.9321 19.0053 45.6441 18.888C45.3561 18.76 44.9775 18.696 44.5081 18.696C44.0068 18.696 43.6068 18.76 43.3081 18.888C43.0095 19.0053 42.7908 19.1547 42.6521 19.336C42.5135 19.5067 42.4335 19.6667 42.4121 19.816ZM51.2899 31V25.848C51.2899 25.656 51.3005 25.4853 51.3219 25.336C51.3432 25.1867 51.3805 25.0107 51.4339 24.808C51.7859 24.776 52.0579 24.68 52.2499 24.52C52.4419 24.36 52.5432 24.136 52.5539 23.848H52.7619C52.7619 24.296 52.6339 24.648 52.3779 24.904C52.1219 25.16 51.7699 25.288 51.3219 25.288C50.8205 25.288 50.4045 25.1333 50.0739 24.824C49.7539 24.504 49.5939 24.104 49.5939 23.624C49.5939 23.112 49.7645 22.7067 50.1059 22.408C50.4579 22.0987 50.9112 21.944 51.4659 21.944C52.0205 21.944 52.4632 22.0933 52.7939 22.392C53.1245 22.68 53.2899 23.0693 53.2899 23.56V23.992C53.2899 24.1093 53.2845 24.2267 53.2739 24.344C53.2632 24.4613 53.2472 24.6107 53.2259 24.792H53.2899C53.4285 24.408 53.5725 24.0667 53.7219 23.768C53.8712 23.4693 54.0205 23.2187 54.1699 23.016C54.7139 22.3013 55.4232 21.944 56.2979 21.944C57.1192 21.944 57.7325 22.1627 58.1379 22.6C58.5539 23.0267 58.7619 23.6667 58.7619 24.52V31H56.7459V24.632C56.7459 24.28 56.6659 24.008 56.5059 23.816C56.3565 23.624 56.1379 23.528 55.8499 23.528C55.5192 23.528 55.2045 23.672 54.9059 23.96C54.6072 24.2373 54.3192 24.664 54.0419 25.24C53.8925 25.5707 53.7592 25.9227 53.6419 26.296C53.5352 26.6693 53.4499 27.064 53.3859 27.48C53.3325 27.8853 53.3059 28.312 53.3059 28.76V31H51.2899ZM51.4019 24.28C51.6259 24.28 51.7965 24.2213 51.9139 24.104C52.0312 23.9867 52.0899 23.8267 52.0899 23.624C52.0899 23.4107 52.0312 23.2453 51.9139 23.128C51.7965 23.0107 51.6259 22.952 51.4019 22.952C51.1885 22.952 51.0179 23.0107 50.8899 23.128C50.7725 23.2453 50.7139 23.4107 50.7139 23.624C50.7139 23.8267 50.7725 23.9867 50.8899 24.104C51.0179 24.2213 51.1885 24.28 51.4019 24.28ZM60.4715 31V29.864L61.1275 29.64V26.584H63.0955V29.608H65.4155C65.6395 29.608 65.8048 29.5547 65.9115 29.448C66.0182 29.3307 66.0715 29.16 66.0715 28.936V27.048C66.0715 26.76 66.0182 26.552 65.9115 26.424C65.8155 26.2853 65.6182 26.2 65.3195 26.168L60.4555 25.56V24.504C60.4555 23.928 60.5888 23.448 60.8555 23.064C61.1222 22.68 61.4848 22.3973 61.9435 22.216C62.4022 22.024 62.9142 21.928 63.4795 21.928C63.9808 21.928 64.4128 21.96 64.7755 22.024C65.1382 22.088 65.4688 22.152 65.7675 22.216C66.0768 22.28 66.3915 22.312 66.7115 22.312C66.9462 22.312 67.1808 22.2853 67.4155 22.232C67.6608 22.1787 67.8848 22.1093 68.0875 22.024V23.464C67.9275 23.56 67.7355 23.64 67.5115 23.704C67.2982 23.7573 67.0582 23.784 66.7915 23.784C66.4715 23.784 66.1462 23.752 65.8155 23.688C65.4848 23.624 65.1435 23.5653 64.7915 23.512C64.4502 23.448 64.1035 23.416 63.7515 23.416C63.3355 23.416 63.0208 23.5013 62.8075 23.672C62.5942 23.832 62.4875 24.0827 62.4875 24.424V24.536L66.0715 25C66.5515 25.0533 66.9355 25.16 67.2235 25.32C67.5115 25.4693 67.7195 25.688 67.8475 25.976C67.9862 26.2533 68.0555 26.616 68.0555 27.064V29.208C68.0555 29.7947 67.9008 30.2427 67.5915 30.552C67.2822 30.8507 66.8395 31 66.2635 31H60.4715ZM60.3209 20.776V20.376C60.3209 19.864 60.4649 19.4 60.7529 18.984C61.0409 18.568 61.4622 18.232 62.0169 17.976C62.5715 17.7093 63.2382 17.576 64.0169 17.576C64.8062 17.576 65.4782 17.7093 66.0329 17.976C66.5769 18.232 66.9982 18.568 67.2969 18.984C67.5849 19.4 67.7289 19.864 67.7289 20.376V20.776H60.3209ZM61.9209 19.816H66.0009C65.9902 19.6667 65.9209 19.5067 65.7929 19.336C65.6542 19.1547 65.4409 19.0053 65.1529 18.888C64.8649 18.76 64.4862 18.696 64.0169 18.696C63.5155 18.696 63.1155 18.76 62.8169 18.888C62.5182 19.0053 62.2995 19.1547 62.1609 19.336C62.0222 19.5067 61.9422 19.6667 61.9209 19.816ZM70.3771 31V25.848C70.3771 25.6453 70.3825 25.4693 70.3931 25.32C70.4145 25.1707 70.4518 25 70.5051 24.808C70.8571 24.776 71.1291 24.68 71.3211 24.52C71.5131 24.36 71.6145 24.136 71.6251 23.848H71.8331C71.8331 24.296 71.7051 24.648 71.4491 24.904C71.1931 25.16 70.8411 25.288 70.3931 25.288C69.8918 25.288 69.4758 25.1333 69.1451 24.824C68.8251 24.5147 68.6651 24.1147 68.6651 23.624C68.6651 23.1013 68.8358 22.6907 69.1771 22.392C69.5185 22.0933 69.9718 21.944 70.5371 21.944C71.1025 21.944 71.5505 22.0933 71.8811 22.392C72.2118 22.6907 72.3771 23.1013 72.3771 23.624V26.552C72.3771 26.8187 72.3718 27.0853 72.3611 27.352C72.3611 27.608 72.3505 27.88 72.3291 28.168C72.3185 28.456 72.2918 28.776 72.2491 29.128H72.2971L73.9931 23.064H75.1451L76.8571 29.128H76.9211C76.8891 28.776 76.8625 28.456 76.8411 28.168C76.8198 27.88 76.8038 27.608 76.7931 27.352C76.7825 27.0853 76.7771 26.8187 76.7771 26.552V22.072H78.7451V31H76.2331L75.2091 27.528C75.1238 27.208 75.0438 26.936 74.9691 26.712C74.9051 26.4773 74.8465 26.2533 74.7931 26.04C74.7505 25.816 74.6918 25.56 74.6171 25.272H74.5531C74.4891 25.56 74.4251 25.816 74.3611 26.04C74.3078 26.2533 74.2438 26.4773 74.1691 26.712C74.1051 26.936 74.0251 27.208 73.9291 27.528L72.8091 31H70.3771ZM70.4731 24.28C70.6971 24.28 70.8678 24.2213 70.9851 24.104C71.1025 23.9867 71.1611 23.8267 71.1611 23.624C71.1611 23.4107 71.1025 23.2453 70.9851 23.128C70.8678 23.0107 70.6971 22.952 70.4731 22.952C70.2598 22.952 70.0891 23.0107 69.9611 23.128C69.8438 23.2453 69.7851 23.4107 69.7851 23.624C69.7851 23.8267 69.8438 23.9867 69.9611 24.104C70.0891 24.2213 70.2598 24.28 70.4731 24.28ZM71.0246 20.776V20.376C71.0246 19.864 71.1686 19.4 71.4566 18.984C71.7446 18.568 72.166 18.232 72.7206 17.976C73.2753 17.7093 73.942 17.576 74.7206 17.576C75.51 17.576 76.182 17.7093 76.7366 17.976C77.2806 18.232 77.702 18.568 78.0006 18.984C78.2886 19.4 78.4326 19.864 78.4326 20.376V20.776H71.0246ZM72.6246 19.816H76.7046C76.694 19.6667 76.6246 19.5067 76.4966 19.336C76.358 19.1547 76.1446 19.0053 75.8566 18.888C75.5686 18.76 75.19 18.696 74.7206 18.696C74.2193 18.696 73.8193 18.76 73.5206 18.888C73.222 19.0053 73.0033 19.1547 72.8646 19.336C72.726 19.5067 72.646 19.6667 72.6246 19.816ZM82.8326 31.128C82.246 31.128 81.7873 30.968 81.4566 30.648C81.126 30.328 80.9606 29.8907 80.9606 29.336V22.072H82.9926V27.4C82.9926 27.4853 82.9873 27.5707 82.9766 27.656C82.966 27.7413 82.95 27.8373 82.9286 27.944C82.918 28.04 82.8913 28.152 82.8486 28.28C82.4966 28.312 82.2246 28.408 82.0326 28.568C81.8406 28.728 81.734 28.952 81.7126 29.24H81.5046C81.5046 28.792 81.6326 28.44 81.8886 28.184C82.1446 27.928 82.502 27.8 82.9606 27.8C83.4726 27.8 83.8833 27.9547 84.1926 28.264C84.5126 28.5733 84.6726 28.9733 84.6726 29.464C84.6726 29.976 84.5073 30.3813 84.1766 30.68C83.846 30.9787 83.398 31.128 82.8326 31.128ZM82.8646 30.136C83.0886 30.136 83.2593 30.0773 83.3766 29.96C83.5046 29.8427 83.5686 29.6827 83.5686 29.48C83.5686 29.2667 83.5046 29.1013 83.3766 28.984C83.2593 28.8667 83.0886 28.808 82.8646 28.808C82.6513 28.808 82.4806 28.8667 82.3526 28.984C82.2353 29.1013 82.1766 29.2667 82.1766 29.48C82.1766 29.6827 82.2353 29.8427 82.3526 29.96C82.4806 30.0773 82.6513 30.136 82.8646 30.136ZM86.1224 31V29.864C86.1224 29.32 86.0797 28.84 85.9944 28.424C85.909 27.9973 85.8237 27.576 85.7384 27.16C85.653 26.7333 85.6104 26.2533 85.6104 25.72C85.6104 24.9093 85.7704 24.2213 86.0904 23.656C86.421 23.08 86.8957 22.6373 87.5144 22.328C88.133 22.0187 88.8797 21.864 89.7544 21.864C90.2984 21.864 90.7944 21.9387 91.2424 22.088C91.6904 22.2267 92.0637 22.424 92.3624 22.68C92.6717 22.936 92.8797 23.2453 92.9864 23.608C93.317 23.7467 93.557 23.992 93.7064 24.344C93.8664 24.696 93.9464 25.144 93.9464 25.688V31H91.9624V25.512C91.9624 24.8187 91.7704 24.296 91.3864 23.944C91.0024 23.5813 90.4637 23.4 89.7704 23.4C89.045 23.4 88.4744 23.5973 88.0584 23.992C87.653 24.376 87.4504 24.9147 87.4504 25.608V25.8C87.4504 26.0453 87.4557 26.2693 87.4664 26.472C87.477 26.6747 87.4824 26.8667 87.4824 27.048C87.493 27.2293 87.4984 27.4107 87.4984 27.592H87.5464C87.6744 27.08 87.8504 26.648 88.0744 26.296C88.309 25.944 88.581 25.6773 88.8904 25.496C89.1997 25.304 89.5464 25.208 89.9304 25.208C90.453 25.208 90.8637 25.3467 91.1624 25.624C91.4717 25.9013 91.6264 26.2853 91.6264 26.776C91.6264 27.256 91.4717 27.64 91.1624 27.928C90.8637 28.2053 90.4637 28.344 89.9624 28.344C89.557 28.344 89.2157 28.2427 88.9384 28.04C88.661 27.8267 88.5224 27.5707 88.5224 27.272C88.5224 26.8773 88.6824 26.6267 89.0024 26.52L89.1624 27.288C89.0024 27.416 88.853 27.576 88.7144 27.768C88.5757 27.9493 88.4584 28.1627 88.3624 28.408C88.277 28.6427 88.2077 28.8987 88.1544 29.176C88.101 29.4533 88.0744 29.7467 88.0744 30.056V31H86.1224ZM89.9464 27.432C90.1597 27.432 90.3197 27.3733 90.4264 27.256C90.5437 27.1387 90.6024 26.9787 90.6024 26.776C90.6024 26.5733 90.5437 26.4187 90.4264 26.312C90.309 26.1947 90.1437 26.136 89.9304 26.136C89.717 26.136 89.5517 26.1947 89.4344 26.312C89.317 26.4187 89.2584 26.5733 89.2584 26.776C89.2584 26.9787 89.317 27.1387 89.4344 27.256C89.5624 27.3733 89.733 27.432 89.9464 27.432ZM92.6344 24.472L91.8344 23.464C92.229 23.208 92.533 22.9253 92.7464 22.616C92.9597 22.296 93.093 21.9707 93.1464 21.64H95.0344C95.013 22.1093 94.7944 22.6 94.3784 23.112C93.973 23.6133 93.3917 24.0667 92.6344 24.472ZM96.2209 31V29.864L97.1009 29.576V25.848C97.1009 25.656 97.1062 25.4853 97.1169 25.336C97.1382 25.1867 97.1809 25.0107 97.2449 24.808C97.5969 24.776 97.8689 24.68 98.0609 24.52C98.2529 24.36 98.3542 24.136 98.3649 23.848H98.5729C98.5729 24.296 98.4449 24.648 98.1889 24.904C97.9329 25.16 97.5809 25.288 97.1329 25.288C96.6209 25.288 96.2049 25.1333 95.8849 24.824C95.5649 24.5147 95.4049 24.1147 95.4049 23.624C95.4049 23.1013 95.5755 22.6907 95.9169 22.392C96.2582 22.0933 96.7115 21.944 97.2769 21.944C97.8422 21.944 98.2902 22.0933 98.6209 22.392C98.9515 22.6907 99.1169 23.1013 99.1169 23.624V29.56H101.933C102.146 29.56 102.306 29.5067 102.413 29.4C102.53 29.2827 102.589 29.112 102.589 28.888V22.072H104.541V29.208C104.541 29.7947 104.386 30.2427 104.077 30.552C103.778 30.8507 103.336 31 102.749 31H96.2209ZM97.2129 24.28C97.4369 24.28 97.6075 24.2213 97.7249 24.104C97.8422 23.9867 97.9009 23.8267 97.9009 23.624C97.9009 23.4107 97.8422 23.2453 97.7249 23.128C97.6075 23.0107 97.4369 22.952 97.2129 22.952C96.9995 22.952 96.8289 23.0107 96.7009 23.128C96.5835 23.2453 96.5249 23.4107 96.5249 23.624C96.5249 23.8267 96.5835 23.9867 96.7009 24.104C96.8289 24.2213 96.9995 24.28 97.2129 24.28ZM101.037 27.736C100.696 27.736 100.381 27.704 100.093 27.64C99.8155 27.5653 99.5755 27.464 99.3729 27.336C98.8609 27.0053 98.6049 26.5413 98.6049 25.944C98.6049 25.464 98.7595 25.0747 99.0689 24.776C99.3889 24.4667 99.7995 24.312 100.301 24.312C100.824 24.312 101.234 24.4507 101.533 24.728C101.842 25.0053 101.997 25.3787 101.997 25.848C101.997 26.1787 101.901 26.456 101.709 26.68C101.528 26.904 101.282 27.032 100.973 27.064V26.552C101.037 26.5627 101.101 26.5787 101.165 26.6C101.24 26.6107 101.314 26.616 101.389 26.616C101.666 26.616 101.981 26.568 102.333 26.472C102.696 26.3653 103.069 26.2213 103.453 26.04C103.848 25.8587 104.232 25.6507 104.605 25.416C104.989 25.1707 105.341 24.9093 105.661 24.632H105.725V26.312C105.288 26.5893 104.802 26.8347 104.269 27.048C103.736 27.2613 103.186 27.432 102.621 27.56C102.056 27.6773 101.528 27.736 101.037 27.736ZM100.301 26.632C100.525 26.632 100.696 26.5733 100.813 26.456C100.941 26.3387 101.005 26.1733 101.005 25.96C101.005 25.7573 100.941 25.5973 100.813 25.48C100.696 25.3627 100.525 25.304 100.301 25.304C100.088 25.304 99.9169 25.3627 99.7889 25.48C99.6715 25.5973 99.6129 25.7573 99.6129 25.96C99.6129 26.1733 99.6715 26.3387 99.7889 26.456C99.9169 26.5733 100.088 26.632 100.301 26.632ZM107.667 31V25.848C107.667 25.656 107.678 25.4853 107.699 25.336C107.721 25.1867 107.758 25.0107 107.811 24.808C108.163 24.776 108.435 24.68 108.627 24.52C108.819 24.36 108.921 24.136 108.931 23.848H109.139C109.139 24.296 109.011 24.648 108.755 24.904C108.499 25.16 108.147 25.288 107.699 25.288C107.198 25.288 106.782 25.1333 106.451 24.824C106.131 24.504 105.971 24.104 105.971 23.624C105.971 23.112 106.142 22.7067 106.483 22.408C106.835 22.0987 107.289 21.944 107.843 21.944C108.398 21.944 108.841 22.0933 109.171 22.392C109.502 22.68 109.667 23.0693 109.667 23.56V23.992C109.667 24.1093 109.662 24.2267 109.651 24.344C109.641 24.4613 109.625 24.6107 109.603 24.792H109.667C109.806 24.408 109.95 24.0667 110.099 23.768C110.249 23.4693 110.398 23.2187 110.547 23.016C111.091 22.3013 111.801 21.944 112.675 21.944C113.497 21.944 114.11 22.1627 114.515 22.6C114.931 23.0267 115.139 23.6667 115.139 24.52V31H113.123V24.632C113.123 24.28 113.043 24.008 112.883 23.816C112.734 23.624 112.515 23.528 112.227 23.528C111.897 23.528 111.582 23.672 111.283 23.96C110.985 24.2373 110.697 24.664 110.419 25.24C110.27 25.5707 110.137 25.9227 110.019 26.296C109.913 26.6693 109.827 27.064 109.763 27.48C109.71 27.8853 109.683 28.312 109.683 28.76V31H107.667ZM107.779 24.28C108.003 24.28 108.174 24.2213 108.291 24.104C108.409 23.9867 108.467 23.8267 108.467 23.624C108.467 23.4107 108.409 23.2453 108.291 23.128C108.174 23.0107 108.003 22.952 107.779 22.952C107.566 22.952 107.395 23.0107 107.267 23.128C107.15 23.2453 107.091 23.4107 107.091 23.624C107.091 23.8267 107.15 23.9867 107.267 24.104C107.395 24.2213 107.566 24.28 107.779 24.28ZM111.797 20.872C111.466 20.872 111.162 20.8347 110.885 20.76C110.607 20.6853 110.373 20.584 110.181 20.456C109.957 20.3067 109.791 20.12 109.685 19.896C109.567 19.6613 109.509 19.4 109.509 19.112C109.509 18.6213 109.663 18.232 109.973 17.944C110.282 17.6453 110.703 17.496 111.237 17.496C111.77 17.496 112.197 17.6347 112.517 17.912C112.837 18.1787 112.997 18.5467 112.997 19.016C112.997 19.3787 112.901 19.6667 112.709 19.88C112.506 20.0827 112.213 20.1947 111.829 20.216V19.64C111.914 19.6507 112.021 19.6667 112.149 19.688C112.266 19.6987 112.383 19.704 112.501 19.704C112.842 19.704 113.221 19.6133 113.637 19.432C114.053 19.2507 114.458 19.0107 114.853 18.712C115.247 18.4027 115.583 18.0667 115.861 17.704H115.925V19.448C115.583 19.736 115.189 19.9867 114.741 20.2C114.282 20.4133 113.802 20.5787 113.301 20.696C112.799 20.8133 112.298 20.872 111.797 20.872ZM111.253 19.768C111.466 19.768 111.631 19.7147 111.749 19.608C111.866 19.4907 111.925 19.3307 111.925 19.128C111.925 18.9147 111.866 18.7547 111.749 18.648C111.631 18.5413 111.466 18.488 111.253 18.488C111.05 18.488 110.89 18.5413 110.773 18.648C110.645 18.7547 110.581 18.9147 110.581 19.128C110.581 19.3307 110.645 19.4907 110.773 19.608C110.89 19.7147 111.05 19.768 111.253 19.768ZM117.793 31V25.848C117.793 25.656 117.804 25.4853 117.825 25.336C117.846 25.176 117.884 25 117.937 24.808C118.289 24.776 118.561 24.68 118.753 24.52C118.945 24.36 119.046 24.136 119.057 23.848H119.265C119.265 24.296 119.137 24.648 118.881 24.904C118.625 25.16 118.273 25.288 117.825 25.288C117.324 25.288 116.908 25.1333 116.577 24.824C116.257 24.5147 116.097 24.1147 116.097 23.624C116.097 23.1013 116.268 22.6907 116.609 22.392C116.95 22.0933 117.404 21.944 117.969 21.944C118.534 21.944 118.982 22.0933 119.313 22.392C119.644 22.6907 119.809 23.1013 119.809 23.624V27.72C119.809 27.8587 119.809 27.9867 119.809 28.104C119.809 28.2213 119.809 28.3387 119.809 28.456C119.809 28.5733 119.804 28.696 119.793 28.824C119.793 28.952 119.788 29.0907 119.777 29.24H119.841C119.948 29.1227 120.097 29 120.289 28.872C120.481 28.7333 120.71 28.5893 120.977 28.44C121.244 28.28 121.542 28.12 121.873 27.96C122.118 27.8427 122.294 27.7413 122.401 27.656C122.518 27.56 122.593 27.448 122.625 27.32C122.657 27.1813 122.673 26.9947 122.673 26.76V22.072H124.705V26.536C124.705 26.8667 124.657 27.1493 124.561 27.384C124.476 27.608 124.321 27.8053 124.097 27.976C123.873 28.1467 123.553 28.3173 123.137 28.488L122.881 28.68C122.326 28.9573 121.846 29.224 121.441 29.48C121.046 29.7253 120.71 29.9707 120.433 30.216C120.156 30.4613 119.916 30.7227 119.713 31H117.793ZM117.905 24.28C118.118 24.28 118.284 24.2213 118.401 24.104C118.529 23.9867 118.593 23.8267 118.593 23.624C118.593 23.4107 118.529 23.2453 118.401 23.128C118.284 23.0107 118.118 22.952 117.905 22.952C117.681 22.952 117.505 23.0107 117.377 23.128C117.26 23.2453 117.201 23.4107 117.201 23.624C117.201 23.8267 117.26 23.9867 117.377 24.104C117.505 24.2213 117.681 24.28 117.905 24.28ZM123.505 31.128C122.972 31.128 122.54 30.9733 122.209 30.664C121.878 30.3547 121.713 29.9547 121.713 29.464C121.713 28.9733 121.878 28.5733 122.209 28.264C122.55 27.9547 122.988 27.8 123.521 27.8C124.054 27.8 124.486 27.9547 124.817 28.264C125.148 28.5733 125.313 28.9733 125.313 29.464C125.313 29.9547 125.148 30.3547 124.817 30.664C124.486 30.9733 124.049 31.128 123.505 31.128ZM123.521 30.12C123.734 30.12 123.9 30.0613 124.017 29.944C124.145 29.8267 124.209 29.6613 124.209 29.448C124.209 29.2453 124.145 29.0853 124.017 28.968C123.9 28.8507 123.734 28.792 123.521 28.792C123.308 28.792 123.137 28.8507 123.009 28.968C122.892 29.0853 122.833 29.2453 122.833 29.448C122.833 29.6613 122.892 29.8267 123.009 29.944C123.137 30.0613 123.308 30.12 123.521 30.12ZM127.754 31V25.848C127.754 25.656 127.765 25.4853 127.786 25.336C127.808 25.1867 127.845 25.0107 127.898 24.808C128.25 24.776 128.522 24.68 128.714 24.52C128.906 24.36 129.008 24.136 129.018 23.848H129.226C129.226 24.296 129.098 24.648 128.842 24.904C128.586 25.16 128.234 25.288 127.786 25.288C127.285 25.288 126.869 25.1333 126.538 24.824C126.218 24.504 126.058 24.104 126.058 23.624C126.058 23.112 126.229 22.7067 126.57 22.408C126.922 22.0987 127.376 21.944 127.93 21.944C128.485 21.944 128.928 22.0933 129.258 22.392C129.589 22.68 129.754 23.0693 129.754 23.56V23.992C129.754 24.1093 129.749 24.2267 129.738 24.344C129.728 24.4613 129.712 24.6107 129.69 24.792H129.754C129.893 24.408 130.037 24.0667 130.186 23.768C130.336 23.4693 130.485 23.2187 130.634 23.016C131.178 22.3013 131.888 21.944 132.762 21.944C133.584 21.944 134.197 22.1627 134.602 22.6C135.018 23.0267 135.226 23.6667 135.226 24.52V31H133.21V24.632C133.21 24.28 133.13 24.008 132.97 23.816C132.821 23.624 132.602 23.528 132.314 23.528C131.984 23.528 131.669 23.672 131.37 23.96C131.072 24.2373 130.784 24.664 130.506 25.24C130.357 25.5707 130.224 25.9227 130.106 26.296C130 26.6693 129.914 27.064 129.85 27.48C129.797 27.8853 129.77 28.312 129.77 28.76V31H127.754ZM127.866 24.28C128.09 24.28 128.261 24.2213 128.378 24.104C128.496 23.9867 128.554 23.8267 128.554 23.624C128.554 23.4107 128.496 23.2453 128.378 23.128C128.261 23.0107 128.09 22.952 127.866 22.952C127.653 22.952 127.482 23.0107 127.354 23.128C127.237 23.2453 127.178 23.4107 127.178 23.624C127.178 23.8267 127.237 23.9867 127.354 24.104C127.482 24.2213 127.653 24.28 127.866 24.28ZM127.34 20.776V20.216C127.34 19.704 127.446 19.2507 127.66 18.856C127.862 18.4613 128.166 18.152 128.572 17.928C128.977 17.6933 129.473 17.576 130.06 17.576C130.732 17.576 131.292 17.6987 131.74 17.944C132.188 18.1893 132.561 18.4613 132.86 18.76H132.924V17.48H134.748V20.776H127.34ZM128.988 19.816H132.812C132.62 19.624 132.396 19.4427 132.14 19.272C131.873 19.1013 131.59 18.9627 131.292 18.856C130.982 18.7493 130.668 18.696 130.348 18.696C129.889 18.696 129.548 18.808 129.324 19.032C129.1 19.256 128.988 19.5173 128.988 19.816Z" fill="#FF5DCA"/>
</svg>
