<svg width="295" height="132" viewBox="0 0 295 132" fill="none" xmlns="http://www.w3.org/2000/svg">
<path d="M40 16C40 7.16344 47.1634 0 56 0H238C246.837 0 254 7.16344 254 16V132H40V16Z" fill="#E5E5E5"/>
<path d="M52 32C52 27.5817 55.5817 24 60 24H234C238.418 24 242 27.5817 242 32V132H52V32Z" fill="white"/>
<rect width="0.1" height="20" transform="matrix(1 0 0 -1 83 108)" fill="#F9D1FF"/>
<path d="M78.2342 87.8154C83.4342 87.0154 88.5676 89.8788 90.2342 91.7121C88.5164 95.8086 99.1222 105.758 92.1222 105.759C90.5036 105.759 89.1211 109.999 83.2342 106.815C83.213 105.529 83.2342 101.074 83.2342 100.316C83.2342 89.8158 77.2342 88.4187 78.2342 87.8154Z" fill="#FCE4FF"/>
<path d="M83.0996 103.5C83.0996 100.246 83.0996 98.6195 83.4131 97.2751C84.4506 92.8254 87.925 89.351 92.3747 88.3135C93.7191 88 95.346 88 98.5996 88H207.6C210.853 88 212.48 88 213.825 88.3135C218.274 89.351 221.749 92.8254 222.786 97.2751C223.1 98.6195 223.1 100.246 223.1 103.5C223.1 106.754 223.1 108.38 222.786 109.725C221.749 114.175 218.274 117.649 213.825 118.687C212.48 119 210.853 119 207.6 119H98.5996C95.3459 119 93.7191 119 92.3747 118.687C87.925 117.649 84.4506 114.175 83.4131 109.725C83.0996 108.38 83.0996 106.754 83.0996 103.5Z" fill="#FCE4FF"/>
<path d="M93.0996 98.5C93.0996 97.1193 94.2189 96 95.5996 96H148.6C149.98 96 151.1 97.1193 151.1 98.5C151.1 99.8807 149.98 101 148.6 101H95.5996C94.2189 101 93.0996 99.8807 93.0996 98.5Z" fill="#F4A8FF"/>
<path d="M93.0996 108.5C93.0996 107.119 94.2189 106 95.5996 106H210.6C211.98 106 213.1 107.119 213.1 108.5C213.1 109.881 211.98 111 210.6 111H95.5996C94.2189 111 93.0996 109.881 93.0996 108.5Z" fill="#F4A8FF"/>
<path d="M85 51.5C85 48.2463 85 46.6195 85.3135 45.2751C86.351 40.8254 89.8254 37.351 94.2751 36.3135C95.6195 36 97.2463 36 100.5 36H173.5C176.754 36 178.38 36 179.725 36.3135C184.175 37.351 187.649 40.8254 188.687 45.2751C189 46.6195 189 48.2463 189 51.5C189 54.7537 189 56.3805 188.687 57.7249C187.649 62.1746 184.175 65.649 179.725 66.6865C178.38 67 176.754 67 173.5 67H100.5C97.2463 67 95.6195 67 94.2751 66.6865C89.8254 65.649 86.351 62.1746 85.3135 57.7249C85 56.3805 85 54.7537 85 51.5Z" fill="#F5F5F5"/>
<path d="M95 46.5C95 45.1193 96.1193 44 97.5 44H152.5C153.881 44 155 45.1193 155 46.5C155 47.8807 153.881 49 152.5 49H97.5C96.1193 49 95 47.8807 95 46.5Z" fill="#D9D9D9"/>
<path d="M95 56.5C95 55.1193 96.1193 54 97.5 54H176.5C177.881 54 179 55.1193 179 56.5C179 57.8807 177.881 59 176.5 59H97.5C96.1193 59 95 57.8807 95 56.5Z" fill="#D9D9D9"/>
<path d="M194.026 67.1846C188.826 67.9846 183.692 65.1212 182.026 63.2879C183.743 59.1914 173.138 49.2419 180.138 49.2415C181.756 49.2415 183.139 45.0014 189.026 48.1846C189.047 49.4714 189.026 53.9258 189.026 54.6842C189.026 65.1842 195.026 66.5813 194.026 67.1846Z" fill="#F5F5F5"/>
<path d="M200 53C200 44.7157 206.716 38 215 38C223.284 38 230 44.7157 230 53C230 61.2843 223.284 68 215 68C206.716 68 200 61.2843 200 53Z" fill="#F9D1FF"/>
<path d="M211.25 47.9079C211.25 50.0624 212.932 51.8158 215 51.8158C217.068 51.8158 218.75 50.0624 218.75 47.9079C218.75 45.7533 217.068 44 215 44C212.932 44 211.25 45.7533 211.25 47.9079ZM221.667 60.5H222.5V59.6316C222.5 56.2803 219.882 53.5526 216.667 53.5526H213.333C210.117 53.5526 207.5 56.2803 207.5 59.6316V60.5H221.667Z" fill="#F4A8FF"/>
<g clip-path="url(#clip0_4704_45045)">
<path d="M31 98C31 86.402 40.402 77 52 77C63.598 77 73 86.402 73 98C73 109.598 63.598 119 52 119C40.402 119 31 109.598 31 98Z" fill="#F9D1FF"/>
<path d="M38 93H66V132H38V93Z" fill="#F4A8FF"/>
<path d="M42 97H46V101H42V97Z" fill="white"/>
<path d="M42 104H46V108H42V104Z" fill="white"/>
<path d="M42 111H46V115H42V111Z" fill="white"/>
<path d="M58 97H62V101H58V97Z" fill="white"/>
<path d="M58 104H62V108H58V104Z" fill="white"/>
<path d="M58 111H62V115H58V111Z" fill="white"/>
<path d="M50 97H54V101H50V97Z" fill="white"/>
<path d="M50 104H54V108H50V104Z" fill="white"/>
<path d="M50 111H54V115H50V111Z" fill="white"/>
<path d="M53.6631 83.333H57V86.666H53.6631V90H50.3301V86.666H47V83.333H50.3301V80H53.6631V83.333Z" fill="#EF5261"/>
<path d="M36 93C36 92.4477 36.4477 92 37 92H67C67.5523 92 68 92.4477 68 93C68 93.5523 67.5523 94 67 94H37C36.4477 94 36 93.5523 36 93Z" fill="#DA47EF"/>
</g>
<defs>
<clipPath id="clip0_4704_45045">
<path d="M31 98C31 86.402 40.402 77 52 77C63.598 77 73 86.402 73 98C73 109.598 63.598 119 52 119C40.402 119 31 109.598 31 98Z" fill="white"/>
</clipPath>
</defs>
</svg>
