<svg width="291" height="75" viewBox="0 0 291 75" fill="none" xmlns="http://www.w3.org/2000/svg">
<path d="M0 44C0 26.8792 13.8792 13 31 13H260C277.121 13 291 26.8792 291 44C291 61.1208 277.121 75 260 75H31C13.8792 75 0 61.1208 0 44Z" fill="white"/>
<path d="M41 0V20H12L41 0Z" fill="white"/>
<path d="M39.344 57.256C38.2133 57.256 37.3067 56.9573 36.624 56.36C35.9627 55.7627 35.632 54.952 35.632 53.928C35.632 52.9253 35.952 52.1467 36.592 51.592C37.232 51.016 38 50.728 38.896 50.728C39.8133 50.728 40.5173 50.9733 41.008 51.464C41.4987 51.9333 41.7547 52.5093 41.776 53.192H41.36C41.2747 52.808 41.0507 52.456 40.688 52.136C40.3467 51.7947 39.92 51.624 39.408 51.624C39.3227 51.368 39.2587 51.1227 39.216 50.888C39.1733 50.6533 39.152 50.3867 39.152 50.088V48.776C39.152 48.264 39.0347 47.8907 38.8 47.656C38.5653 47.4213 38.16 47.2613 37.584 47.176L30.448 46.024V44.104C30.448 42.3333 30.9707 41.0213 32.016 40.168C33.0827 39.2933 34.416 38.856 36.016 38.856C36.8267 38.856 37.5307 38.92 38.128 39.048C38.7253 39.1547 39.28 39.272 39.792 39.4C40.3253 39.5067 40.8907 39.56 41.488 39.56C41.936 39.56 42.3627 39.5173 42.768 39.432C43.1947 39.3467 43.6213 39.2187 44.048 39.048V41.992C43.7707 42.12 43.4187 42.248 42.992 42.376C42.5867 42.4827 42.1173 42.536 41.584 42.536C40.7733 42.536 39.9627 42.4293 39.152 42.216C38.3413 42.0027 37.4987 41.896 36.624 41.896C35.1307 41.896 34.384 42.536 34.384 43.816V44.136L38.448 44.808C39.664 44.9787 40.6027 45.224 41.264 45.544C41.9467 45.864 42.4267 46.3013 42.704 46.856C42.9813 47.4107 43.12 48.136 43.12 49.032V53.48C43.12 54.696 42.7893 55.6347 42.128 56.296C41.488 56.936 40.56 57.256 39.344 57.256ZM39.248 55.304C39.696 55.304 40.0373 55.1867 40.272 54.952C40.5067 54.7173 40.624 54.3867 40.624 53.96C40.624 53.5333 40.5067 53.2133 40.272 53C40.0373 52.7653 39.696 52.648 39.248 52.648C38.8213 52.648 38.48 52.7653 38.224 53C37.9893 53.2133 37.872 53.5333 37.872 53.96C37.872 54.3867 37.9893 54.7173 38.224 54.952C38.48 55.1867 38.8213 55.304 39.248 55.304ZM37.6947 36.744C37.0334 36.744 36.4254 36.6693 35.8708 36.52C35.3161 36.3707 34.8467 36.168 34.4628 35.912C34.0148 35.6133 33.6841 35.24 33.4707 34.792C33.2361 34.3227 33.1187 33.8 33.1187 33.224C33.1187 32.2427 33.4281 31.464 34.0468 30.888C34.6654 30.2907 35.5081 29.992 36.5747 29.992C37.6414 29.992 38.4948 30.2693 39.1348 30.824C39.7748 31.3573 40.0948 32.0933 40.0948 33.032C40.0948 33.7573 39.9028 34.3333 39.5188 34.76C39.1134 35.1653 38.5268 35.3893 37.7587 35.432V34.28C37.9294 34.3013 38.1428 34.3333 38.3988 34.376C38.6334 34.3973 38.8681 34.408 39.1028 34.408C39.7854 34.408 40.5428 34.2267 41.3748 33.864C42.2068 33.5013 43.0174 33.0213 43.8068 32.424C44.5961 31.8053 45.2681 31.1333 45.8228 30.408H45.9508V33.896C45.2681 34.472 44.4788 34.9733 43.5828 35.4C42.6654 35.8267 41.7054 36.1573 40.7028 36.392C39.7001 36.6267 38.6974 36.744 37.6947 36.744ZM36.6068 34.536C37.0334 34.536 37.3641 34.4293 37.5988 34.216C37.8334 33.9813 37.9508 33.6613 37.9508 33.256C37.9508 32.8293 37.8334 32.5093 37.5988 32.296C37.3641 32.0827 37.0334 31.976 36.6068 31.976C36.2014 31.976 35.8814 32.0827 35.6468 32.296C35.3907 32.5093 35.2627 32.8293 35.2627 33.256C35.2627 33.6613 35.3907 33.9813 35.6468 34.216C35.8814 34.4293 36.2014 34.536 36.6068 34.536ZM46.9043 57V54.728L48.6643 54.152V46.696C48.6643 46.312 48.6749 45.9707 48.6963 45.672C48.7389 45.3733 48.8243 45.0213 48.9523 44.616C49.6563 44.552 50.2003 44.36 50.5843 44.04C50.9683 43.72 51.1709 43.272 51.1923 42.696H51.6083C51.6083 43.592 51.3523 44.296 50.8403 44.808C50.3283 45.32 49.6243 45.576 48.7283 45.576C47.7043 45.576 46.8723 45.2667 46.2323 44.648C45.5923 44.0293 45.2723 43.2293 45.2723 42.248C45.2723 41.2027 45.6136 40.3813 46.2963 39.784C46.9789 39.1867 47.8856 38.888 49.0163 38.888C50.1469 38.888 51.0429 39.1867 51.7043 39.784C52.3656 40.3813 52.6963 41.2027 52.6963 42.248V54.12H57.4643C57.9123 54.12 58.2429 54.0133 58.4563 53.8C58.6909 53.5653 58.8083 53.224 58.8083 52.776V39.144H62.8403V53.416C62.8403 54.5893 62.5309 55.4853 61.9123 56.104C61.3149 56.7013 60.4296 57 59.2563 57H46.9043ZM48.8883 43.56C49.3363 43.56 49.6776 43.4427 49.9123 43.208C50.1469 42.9733 50.2643 42.6533 50.2643 42.248C50.2643 41.8213 50.1469 41.4907 49.9123 41.256C49.6776 41.0213 49.3363 40.904 48.8883 40.904C48.4616 40.904 48.1203 41.0213 47.8643 41.256C47.6296 41.4907 47.5123 41.8213 47.5123 42.248C47.5123 42.6533 47.6296 42.9733 47.8643 43.208C48.1203 43.4427 48.4616 43.56 48.8883 43.56ZM70.4613 57.256C69.2239 57.256 68.2639 56.904 67.5813 56.2C66.8986 55.496 66.5573 54.504 66.5573 53.224V50.184C66.5573 48.52 67.0053 47.24 67.9013 46.344C68.8186 45.448 70.0986 45 71.7413 45C72.4453 45 73.1173 45.1067 73.7573 45.32C74.3973 45.5333 75.0053 45.8533 75.5813 46.28C76.1573 46.7067 76.6586 47.2187 77.0853 47.816H77.2133V45.416C77.2133 44.1787 76.8506 43.2613 76.1253 42.664C75.3999 42.0667 74.2693 41.768 72.7333 41.768C71.8373 41.768 70.9093 41.896 69.9493 42.152C68.9893 42.408 67.9439 42.8027 66.8133 43.336V40.104C67.7093 39.6773 68.7653 39.3467 69.9813 39.112C71.2186 38.856 72.4346 38.728 73.6293 38.728C74.5679 38.728 75.4319 38.8667 76.2213 39.144C77.0106 39.4 77.6826 39.7627 78.2373 40.232C78.7919 40.7013 79.1866 41.2667 79.4213 41.928C80.0826 42.312 80.5519 42.8133 80.8293 43.432C81.1066 44.0507 81.2453 44.8827 81.2453 45.928V57H77.2133V53.736C77.2133 52.904 77.0853 52.1253 76.8293 51.4C76.5733 50.6747 76.2106 50.0347 75.7413 49.48C75.2933 48.9253 74.7706 48.4987 74.1733 48.2C73.5759 47.88 72.9253 47.72 72.2213 47.72C71.5599 47.72 71.0586 47.912 70.7173 48.296C70.3973 48.68 70.2373 49.256 70.2373 50.024V50.664C70.2373 50.856 70.2159 51.0587 70.1733 51.272C70.1519 51.464 70.1199 51.6453 70.0773 51.816C69.5439 51.816 69.0959 52.0187 68.7333 52.424C68.3706 52.808 68.1893 53.2987 68.1893 53.896L67.6453 53.608C67.7093 52.6907 67.9973 51.9973 68.5093 51.528C69.0213 51.0373 69.7359 50.792 70.6533 50.792C71.6986 50.792 72.5199 51.0907 73.1173 51.688C73.7359 52.264 74.0453 53.032 74.0453 53.992C74.0453 54.9947 73.7146 55.7947 73.0533 56.392C72.4133 56.968 71.5493 57.256 70.4613 57.256ZM70.4613 55.368C70.8879 55.368 71.2186 55.2507 71.4533 55.016C71.7093 54.7813 71.8373 54.4507 71.8373 54.024C71.8373 53.6187 71.7093 53.2987 71.4533 53.064C71.2186 52.8293 70.8879 52.712 70.4613 52.712C70.0133 52.712 69.6613 52.8293 69.4053 53.064C69.1706 53.2987 69.0533 53.6187 69.0533 54.024C69.0533 54.4507 69.1706 54.7813 69.4053 55.016C69.6613 55.2507 70.0133 55.368 70.4613 55.368ZM78.7493 43.752L77.1493 41.928C77.9173 41.4587 78.5253 40.9147 78.9733 40.296C79.4213 39.6773 79.6986 39.0053 79.8053 38.28H83.5813C83.5173 39.1973 83.0799 40.104 82.2693 41C81.4799 41.896 80.3066 42.8133 78.7493 43.752ZM65.6242 36.552V35.752C65.6242 34.728 65.9122 33.8 66.4882 32.968C67.0642 32.136 67.9069 31.464 69.0162 30.952C70.1256 30.4187 71.4589 30.152 73.0162 30.152C74.5949 30.152 75.9389 30.4187 77.0482 30.952C78.1362 31.464 78.9789 32.136 79.5762 32.968C80.1522 33.8 80.4402 34.728 80.4402 35.752V36.552H65.6242ZM68.8242 34.632H76.9842C76.9629 34.3333 76.8242 34.0133 76.5682 33.672C76.2909 33.3093 75.8642 33.0107 75.2882 32.776C74.7122 32.52 73.9549 32.392 73.0162 32.392C72.0136 32.392 71.2136 32.52 70.6162 32.776C70.0189 33.0107 69.5816 33.3093 69.3042 33.672C69.0269 34.0133 68.8669 34.3333 68.8242 34.632ZM86.5797 57V46.696C86.5797 46.312 86.6011 45.9707 86.6437 45.672C86.6864 45.3733 86.7611 45.0213 86.8677 44.616C87.5717 44.552 88.1157 44.36 88.4997 44.04C88.8837 43.72 89.0864 43.272 89.1077 42.696H89.5237C89.5237 43.592 89.2677 44.296 88.7557 44.808C88.2437 45.32 87.5397 45.576 86.6437 45.576C85.6411 45.576 84.8091 45.2667 84.1477 44.648C83.5077 44.008 83.1877 43.208 83.1877 42.248C83.1877 41.224 83.5291 40.4133 84.2117 39.816C84.9157 39.1973 85.8224 38.888 86.9317 38.888C88.0411 38.888 88.9264 39.1867 89.5877 39.784C90.2491 40.36 90.5797 41.1387 90.5797 42.12V42.984C90.5797 43.2187 90.5691 43.4533 90.5477 43.688C90.5264 43.9227 90.4944 44.2213 90.4517 44.584H90.5797C90.8571 43.816 91.1451 43.1333 91.4437 42.536C91.7424 41.9387 92.0411 41.4373 92.3397 41.032C93.4277 39.6027 94.8464 38.888 96.5957 38.888C98.2384 38.888 99.4651 39.3253 100.276 40.2C101.108 41.0533 101.524 42.3333 101.524 44.04V57H97.4917V44.264C97.4917 43.56 97.3317 43.016 97.0118 42.632C96.7131 42.248 96.2758 42.056 95.6997 42.056C95.0384 42.056 94.4091 42.344 93.8117 42.92C93.2144 43.4747 92.6384 44.328 92.0837 45.48C91.7851 46.1413 91.5184 46.8453 91.2837 47.592C91.0704 48.3387 90.8997 49.128 90.7717 49.96C90.6651 50.7707 90.6117 51.624 90.6117 52.52V57H86.5797ZM86.8037 43.56C87.2517 43.56 87.5931 43.4427 87.8277 43.208C88.0624 42.9733 88.1797 42.6533 88.1797 42.248C88.1797 41.8213 88.0624 41.4907 87.8277 41.256C87.5931 41.0213 87.2517 40.904 86.8037 40.904C86.3771 40.904 86.0357 41.0213 85.7797 41.256C85.5451 41.4907 85.4277 41.8213 85.4277 42.248C85.4277 42.6533 85.5451 42.9733 85.7797 43.208C86.0357 43.4427 86.3771 43.56 86.8037 43.56ZM104.943 57V54.728L106.255 54.28V48.168H110.191V54.216H114.831C115.279 54.216 115.61 54.1093 115.823 53.896C116.036 53.6613 116.143 53.32 116.143 52.872V49.096C116.143 48.52 116.036 48.104 115.823 47.848C115.631 47.5707 115.236 47.4 114.639 47.336L104.911 46.12V44.008C104.911 42.856 105.178 41.896 105.711 41.128C106.244 40.36 106.97 39.7947 107.887 39.432C108.804 39.048 109.828 38.856 110.959 38.856C111.962 38.856 112.826 38.92 113.551 39.048C114.276 39.176 114.938 39.304 115.535 39.432C116.154 39.56 116.783 39.624 117.423 39.624C117.892 39.624 118.362 39.5707 118.831 39.464C119.322 39.3573 119.77 39.2187 120.175 39.048V41.928C119.855 42.12 119.471 42.28 119.023 42.408C118.596 42.5147 118.116 42.568 117.583 42.568C116.943 42.568 116.292 42.504 115.631 42.376C114.97 42.248 114.287 42.1307 113.583 42.024C112.9 41.896 112.207 41.832 111.503 41.832C110.671 41.832 110.042 42.0027 109.615 42.344C109.188 42.664 108.975 43.1653 108.975 43.848V44.072L116.143 45C117.103 45.1067 117.871 45.32 118.447 45.64C119.023 45.9387 119.439 46.376 119.695 46.952C119.972 47.5067 120.111 48.232 120.111 49.128V53.416C120.111 54.5893 119.802 55.4853 119.183 56.104C118.564 56.7013 117.679 57 116.527 57H104.943ZM104.642 36.552V35.752C104.642 34.728 104.93 33.8 105.506 32.968C106.082 32.136 106.924 31.464 108.034 30.952C109.143 30.4187 110.476 30.152 112.034 30.152C113.612 30.152 114.956 30.4187 116.066 30.952C117.154 31.464 117.996 32.136 118.594 32.968C119.17 33.8 119.458 34.728 119.458 35.752V36.552H104.642ZM107.842 34.632H116.002C115.98 34.3333 115.842 34.0133 115.586 33.672C115.308 33.3093 114.882 33.0107 114.306 32.776C113.73 32.52 112.972 32.392 112.034 32.392C111.031 32.392 110.231 32.52 109.634 32.776C109.036 33.0107 108.599 33.3093 108.322 33.672C108.044 34.0133 107.884 34.3333 107.842 34.632ZM124.754 57V46.696C124.754 46.2907 124.765 45.9387 124.786 45.64C124.829 45.3413 124.904 45 125.01 44.616C125.714 44.552 126.258 44.36 126.642 44.04C127.026 43.72 127.229 43.272 127.25 42.696H127.666C127.666 43.592 127.41 44.296 126.898 44.808C126.386 45.32 125.682 45.576 124.786 45.576C123.784 45.576 122.952 45.2667 122.29 44.648C121.65 44.0293 121.33 43.2293 121.33 42.248C121.33 41.2027 121.672 40.3813 122.354 39.784C123.037 39.1867 123.944 38.888 125.074 38.888C126.205 38.888 127.101 39.1867 127.762 39.784C128.424 40.3813 128.754 41.2027 128.754 42.248V48.104C128.754 48.6373 128.744 49.1707 128.722 49.704C128.722 50.216 128.701 50.76 128.658 51.336C128.637 51.912 128.584 52.552 128.498 53.256H128.594L131.986 41.128H134.29L137.714 53.256H137.842C137.778 52.552 137.725 51.912 137.682 51.336C137.64 50.76 137.608 50.216 137.586 49.704C137.565 49.1707 137.554 48.6373 137.554 48.104V39.144H141.49V57H136.466L134.418 50.056C134.248 49.416 134.088 48.872 133.938 48.424C133.81 47.9547 133.693 47.5067 133.586 47.08C133.501 46.632 133.384 46.12 133.234 45.544H133.106C132.978 46.12 132.85 46.632 132.722 47.08C132.616 47.5067 132.488 47.9547 132.338 48.424C132.21 48.872 132.05 49.416 131.858 50.056L129.618 57H124.754ZM124.946 43.56C125.394 43.56 125.736 43.4427 125.97 43.208C126.205 42.9733 126.322 42.6533 126.322 42.248C126.322 41.8213 126.205 41.4907 125.97 41.256C125.736 41.0213 125.394 40.904 124.946 40.904C124.52 40.904 124.178 41.0213 123.922 41.256C123.688 41.4907 123.57 41.8213 123.57 42.248C123.57 42.6533 123.688 42.9733 123.922 43.208C124.178 43.4427 124.52 43.56 124.946 43.56ZM126.049 36.552V35.752C126.049 34.728 126.337 33.8 126.913 32.968C127.489 32.136 128.332 31.464 129.441 30.952C130.551 30.4187 131.884 30.152 133.441 30.152C135.02 30.152 136.364 30.4187 137.473 30.952C138.561 31.464 139.404 32.136 140.001 32.968C140.577 33.8 140.865 34.728 140.865 35.752V36.552H126.049ZM129.249 34.632H137.409C137.388 34.3333 137.249 34.0133 136.993 33.672C136.716 33.3093 136.289 33.0107 135.713 32.776C135.137 32.52 134.38 32.392 133.441 32.392C132.439 32.392 131.639 32.52 131.041 32.776C130.444 33.0107 130.007 33.3093 129.729 33.672C129.452 34.0133 129.292 34.3333 129.249 34.632ZM149.665 57.256C148.492 57.256 147.575 56.936 146.913 56.296C146.252 55.656 145.921 54.7813 145.921 53.672V39.144H149.985V49.8C149.985 49.9707 149.975 50.1413 149.953 50.312C149.932 50.4827 149.9 50.6747 149.857 50.888C149.836 51.08 149.783 51.304 149.697 51.56C148.993 51.624 148.449 51.816 148.065 52.136C147.681 52.456 147.468 52.904 147.425 53.48H147.009C147.009 52.584 147.265 51.88 147.777 51.368C148.289 50.856 149.004 50.6 149.921 50.6C150.945 50.6 151.767 50.9093 152.385 51.528C153.025 52.1467 153.345 52.9467 153.345 53.928C153.345 54.952 153.015 55.7627 152.353 56.36C151.692 56.9573 150.796 57.256 149.665 57.256ZM149.729 55.272C150.177 55.272 150.519 55.1547 150.753 54.92C151.009 54.6853 151.137 54.3653 151.137 53.96C151.137 53.5333 151.009 53.2027 150.753 52.968C150.519 52.7333 150.177 52.616 149.729 52.616C149.303 52.616 148.961 52.7333 148.705 52.968C148.471 53.2027 148.353 53.5333 148.353 53.96C148.353 54.3653 148.471 54.6853 148.705 54.92C148.961 55.1547 149.303 55.272 149.729 55.272ZM156.245 57V54.728C156.245 53.64 156.159 52.68 155.989 51.848C155.818 50.9947 155.647 50.152 155.477 49.32C155.306 48.4667 155.221 47.5067 155.221 46.44C155.221 44.8187 155.541 43.4427 156.181 42.312C156.842 41.16 157.791 40.2747 159.029 39.656C160.266 39.0373 161.759 38.728 163.509 38.728C164.597 38.728 165.589 38.8773 166.485 39.176C167.381 39.4533 168.127 39.848 168.725 40.36C169.343 40.872 169.759 41.4907 169.973 42.216C170.634 42.4933 171.114 42.984 171.413 43.688C171.733 44.392 171.893 45.288 171.893 46.376V57H167.925V46.024C167.925 44.6373 167.541 43.592 166.773 42.888C166.005 42.1627 164.927 41.8 163.541 41.8C162.09 41.8 160.949 42.1947 160.117 42.984C159.306 43.752 158.901 44.8293 158.901 46.216V46.6C158.901 47.0907 158.911 47.5387 158.933 47.944C158.954 48.3493 158.965 48.7333 158.965 49.096C158.986 49.4587 158.997 49.8213 158.997 50.184H159.093C159.349 49.16 159.701 48.296 160.149 47.592C160.618 46.888 161.162 46.3547 161.781 45.992C162.399 45.608 163.093 45.416 163.861 45.416C164.906 45.416 165.727 45.6933 166.325 46.248C166.943 46.8027 167.253 47.5707 167.253 48.552C167.253 49.512 166.943 50.28 166.325 50.856C165.727 51.4107 164.927 51.688 163.925 51.688C163.114 51.688 162.431 51.4853 161.877 51.08C161.322 50.6533 161.045 50.1413 161.045 49.544C161.045 48.7547 161.365 48.2533 162.005 48.04L162.325 49.576C162.005 49.832 161.706 50.152 161.429 50.536C161.151 50.8987 160.917 51.3253 160.725 51.816C160.554 52.2853 160.415 52.7973 160.309 53.352C160.202 53.9067 160.149 54.4933 160.149 55.112V57H156.245ZM163.893 49.864C164.319 49.864 164.639 49.7467 164.853 49.512C165.087 49.2773 165.205 48.9573 165.205 48.552C165.205 48.1467 165.087 47.8373 164.853 47.624C164.618 47.3893 164.287 47.272 163.861 47.272C163.434 47.272 163.103 47.3893 162.869 47.624C162.634 47.8373 162.517 48.1467 162.517 48.552C162.517 48.9573 162.634 49.2773 162.869 49.512C163.125 49.7467 163.466 49.864 163.893 49.864ZM169.269 43.944L167.669 41.928C168.458 41.416 169.066 40.8507 169.493 40.232C169.919 39.592 170.186 38.9413 170.293 38.28H174.069C174.026 39.2187 173.589 40.2 172.757 41.224C171.946 42.2267 170.783 43.1333 169.269 43.944ZM176.442 57V54.728L178.202 54.152V46.696C178.202 46.312 178.212 45.9707 178.234 45.672C178.276 45.3733 178.362 45.0213 178.49 44.616C179.194 44.552 179.738 44.36 180.122 44.04C180.506 43.72 180.708 43.272 180.73 42.696H181.146C181.146 43.592 180.89 44.296 180.378 44.808C179.866 45.32 179.162 45.576 178.266 45.576C177.242 45.576 176.41 45.2667 175.77 44.648C175.13 44.0293 174.81 43.2293 174.81 42.248C174.81 41.2027 175.151 40.3813 175.834 39.784C176.516 39.1867 177.423 38.888 178.554 38.888C179.684 38.888 180.58 39.1867 181.242 39.784C181.903 40.3813 182.234 41.2027 182.234 42.248V54.12H187.866C188.292 54.12 188.612 54.0133 188.826 53.8C189.06 53.5653 189.178 53.224 189.178 52.776V39.144H193.082V53.416C193.082 54.5893 192.772 55.4853 192.154 56.104C191.556 56.7013 190.671 57 189.498 57H176.442ZM178.426 43.56C178.874 43.56 179.215 43.4427 179.45 43.208C179.684 42.9733 179.802 42.6533 179.802 42.248C179.802 41.8213 179.684 41.4907 179.45 41.256C179.215 41.0213 178.874 40.904 178.426 40.904C177.999 40.904 177.658 41.0213 177.402 41.256C177.167 41.4907 177.05 41.8213 177.05 42.248C177.05 42.6533 177.167 42.9733 177.402 43.208C177.658 43.4427 177.999 43.56 178.426 43.56ZM186.074 50.472C185.391 50.472 184.762 50.408 184.186 50.28C183.631 50.1307 183.151 49.928 182.746 49.672C181.722 49.0107 181.21 48.0827 181.21 46.888C181.21 45.928 181.519 45.1493 182.138 44.552C182.778 43.9333 183.599 43.624 184.602 43.624C185.647 43.624 186.468 43.9013 187.066 44.456C187.684 45.0107 187.994 45.7573 187.994 46.696C187.994 47.3573 187.802 47.912 187.418 48.36C187.055 48.808 186.564 49.064 185.946 49.128V48.104C186.074 48.1253 186.202 48.1573 186.33 48.2C186.479 48.2213 186.628 48.232 186.778 48.232C187.332 48.232 187.962 48.136 188.666 47.944C189.391 47.7307 190.138 47.4427 190.906 47.08C191.695 46.7173 192.463 46.3013 193.21 45.832C193.978 45.3413 194.682 44.8187 195.322 44.264H195.45V47.624C194.575 48.1787 193.604 48.6693 192.538 49.096C191.471 49.5227 190.372 49.864 189.242 50.12C188.111 50.3547 187.055 50.472 186.074 50.472ZM184.602 48.264C185.05 48.264 185.391 48.1467 185.626 47.912C185.882 47.6773 186.01 47.3467 186.01 46.92C186.01 46.5147 185.882 46.1947 185.626 45.96C185.391 45.7253 185.05 45.608 184.602 45.608C184.175 45.608 183.834 45.7253 183.578 45.96C183.343 46.1947 183.226 46.5147 183.226 46.92C183.226 47.3467 183.343 47.6773 183.578 47.912C183.834 48.1467 184.175 48.264 184.602 48.264ZM199.335 57V46.696C199.335 46.312 199.356 45.9707 199.399 45.672C199.441 45.3733 199.516 45.0213 199.623 44.616C200.327 44.552 200.871 44.36 201.255 44.04C201.639 43.72 201.841 43.272 201.863 42.696H202.279C202.279 43.592 202.023 44.296 201.511 44.808C200.999 45.32 200.295 45.576 199.399 45.576C198.396 45.576 197.564 45.2667 196.903 44.648C196.263 44.008 195.943 43.208 195.943 42.248C195.943 41.224 196.284 40.4133 196.967 39.816C197.671 39.1973 198.577 38.888 199.687 38.888C200.796 38.888 201.681 39.1867 202.343 39.784C203.004 40.36 203.335 41.1387 203.335 42.12V42.984C203.335 43.2187 203.324 43.4533 203.303 43.688C203.281 43.9227 203.249 44.2213 203.207 44.584H203.335C203.612 43.816 203.9 43.1333 204.199 42.536C204.497 41.9387 204.796 41.4373 205.095 41.032C206.183 39.6027 207.601 38.888 209.351 38.888C210.993 38.888 212.22 39.3253 213.031 40.2C213.863 41.0533 214.279 42.3333 214.279 44.04V57H210.247V44.264C210.247 43.56 210.087 43.016 209.767 42.632C209.468 42.248 209.031 42.056 208.455 42.056C207.793 42.056 207.164 42.344 206.567 42.92C205.969 43.4747 205.393 44.328 204.839 45.48C204.54 46.1413 204.273 46.8453 204.039 47.592C203.825 48.3387 203.655 49.128 203.527 49.96C203.42 50.7707 203.367 51.624 203.367 52.52V57H199.335ZM199.559 43.56C200.007 43.56 200.348 43.4427 200.583 43.208C200.817 42.9733 200.935 42.6533 200.935 42.248C200.935 41.8213 200.817 41.4907 200.583 41.256C200.348 41.0213 200.007 40.904 199.559 40.904C199.132 40.904 198.791 41.0213 198.535 41.256C198.3 41.4907 198.183 41.8213 198.183 42.248C198.183 42.6533 198.3 42.9733 198.535 43.208C198.791 43.4427 199.132 43.56 199.559 43.56ZM207.593 36.744C206.932 36.744 206.324 36.6693 205.769 36.52C205.215 36.3707 204.745 36.168 204.361 35.912C203.913 35.6133 203.583 35.24 203.369 34.792C203.135 34.3227 203.017 33.8 203.017 33.224C203.017 32.2427 203.327 31.464 203.945 30.888C204.564 30.2907 205.407 29.992 206.473 29.992C207.54 29.992 208.393 30.2693 209.033 30.824C209.673 31.3573 209.993 32.0933 209.993 33.032C209.993 33.7573 209.801 34.3333 209.417 34.76C209.012 35.1653 208.425 35.3893 207.657 35.432V34.28C207.828 34.3013 208.041 34.3333 208.297 34.376C208.532 34.3973 208.767 34.408 209.001 34.408C209.684 34.408 210.441 34.2267 211.273 33.864C212.105 33.5013 212.916 33.0213 213.705 32.424C214.495 31.8053 215.167 31.1333 215.721 30.408H215.849V33.896C215.167 34.472 214.377 34.9733 213.481 35.4C212.564 35.8267 211.604 36.1573 210.601 36.392C209.599 36.6267 208.596 36.744 207.593 36.744ZM206.505 34.536C206.932 34.536 207.263 34.4293 207.497 34.216C207.732 33.9813 207.849 33.6613 207.849 33.256C207.849 32.8293 207.732 32.5093 207.497 32.296C207.263 32.0827 206.932 31.976 206.505 31.976C206.1 31.976 205.78 32.0827 205.545 32.296C205.289 32.5093 205.161 32.8293 205.161 33.256C205.161 33.6613 205.289 33.9813 205.545 34.216C205.78 34.4293 206.1 34.536 206.505 34.536ZM219.586 57V46.696C219.586 46.312 219.607 45.9707 219.65 45.672C219.693 45.352 219.767 45 219.874 44.616C220.578 44.552 221.122 44.36 221.506 44.04C221.89 43.72 222.093 43.272 222.114 42.696H222.53C222.53 43.592 222.274 44.296 221.762 44.808C221.25 45.32 220.546 45.576 219.65 45.576C218.647 45.576 217.815 45.2667 217.154 44.648C216.514 44.0293 216.194 43.2293 216.194 42.248C216.194 41.2027 216.535 40.3813 217.218 39.784C217.901 39.1867 218.807 38.888 219.938 38.888C221.069 38.888 221.965 39.1867 222.626 39.784C223.287 40.3813 223.618 41.2027 223.618 42.248V50.44C223.618 50.7173 223.618 50.9733 223.618 51.208C223.618 51.4427 223.618 51.6773 223.618 51.912C223.618 52.1467 223.607 52.392 223.586 52.648C223.586 52.904 223.575 53.1813 223.554 53.48H223.682C223.895 53.2453 224.194 53 224.578 52.744C224.962 52.4667 225.421 52.1787 225.954 51.88C226.487 51.56 227.085 51.24 227.746 50.92C228.237 50.6853 228.589 50.4827 228.802 50.312C229.037 50.12 229.186 49.896 229.25 49.64C229.314 49.3627 229.346 48.9893 229.346 48.52V39.144H233.41V48.072C233.41 48.7333 233.314 49.2987 233.122 49.768C232.951 50.216 232.642 50.6107 232.194 50.952C231.746 51.2933 231.106 51.6347 230.274 51.976L229.762 52.36C228.653 52.9147 227.693 53.448 226.882 53.96C226.093 54.4507 225.421 54.9413 224.866 55.432C224.311 55.9227 223.831 56.4453 223.426 57H219.586ZM219.81 43.56C220.237 43.56 220.567 43.4427 220.802 43.208C221.058 42.9733 221.186 42.6533 221.186 42.248C221.186 41.8213 221.058 41.4907 220.802 41.256C220.567 41.0213 220.237 40.904 219.81 40.904C219.362 40.904 219.01 41.0213 218.754 41.256C218.519 41.4907 218.402 41.8213 218.402 42.248C218.402 42.6533 218.519 42.9733 218.754 43.208C219.01 43.4427 219.362 43.56 219.81 43.56ZM231.01 57.256C229.943 57.256 229.079 56.9467 228.418 56.328C227.757 55.7093 227.426 54.9093 227.426 53.928C227.426 52.9467 227.757 52.1467 228.418 51.528C229.101 50.9093 229.975 50.6 231.042 50.6C232.109 50.6 232.973 50.9093 233.634 51.528C234.295 52.1467 234.626 52.9467 234.626 53.928C234.626 54.9093 234.295 55.7093 233.634 56.328C232.973 56.9467 232.098 57.256 231.01 57.256ZM231.042 55.24C231.469 55.24 231.799 55.1227 232.034 54.888C232.29 54.6533 232.418 54.3227 232.418 53.896C232.418 53.4907 232.29 53.1707 232.034 52.936C231.799 52.7013 231.469 52.584 231.042 52.584C230.615 52.584 230.274 52.7013 230.018 52.936C229.783 53.1707 229.666 53.4907 229.666 53.896C229.666 54.3227 229.783 54.6533 230.018 54.888C230.274 55.1227 230.615 55.24 231.042 55.24ZM239.508 57V46.696C239.508 46.312 239.53 45.9707 239.572 45.672C239.615 45.3733 239.69 45.0213 239.796 44.616C240.5 44.552 241.044 44.36 241.428 44.04C241.812 43.72 242.015 43.272 242.036 42.696H242.452C242.452 43.592 242.196 44.296 241.684 44.808C241.172 45.32 240.468 45.576 239.572 45.576C238.57 45.576 237.738 45.2667 237.076 44.648C236.436 44.008 236.116 43.208 236.116 42.248C236.116 41.224 236.458 40.4133 237.14 39.816C237.844 39.1973 238.751 38.888 239.86 38.888C240.97 38.888 241.855 39.1867 242.516 39.784C243.178 40.36 243.508 41.1387 243.508 42.12V42.984C243.508 43.2187 243.498 43.4533 243.476 43.688C243.455 43.9227 243.423 44.2213 243.38 44.584H243.508C243.786 43.816 244.074 43.1333 244.372 42.536C244.671 41.9387 244.97 41.4373 245.268 41.032C246.356 39.6027 247.775 38.888 249.524 38.888C251.167 38.888 252.394 39.3253 253.204 40.2C254.036 41.0533 254.452 42.3333 254.452 44.04V57H250.42V44.264C250.42 43.56 250.26 43.016 249.94 42.632C249.642 42.248 249.204 42.056 248.628 42.056C247.967 42.056 247.338 42.344 246.74 42.92C246.143 43.4747 245.567 44.328 245.012 45.48C244.714 46.1413 244.447 46.8453 244.212 47.592C243.999 48.3387 243.828 49.128 243.7 49.96C243.594 50.7707 243.54 51.624 243.54 52.52V57H239.508ZM239.732 43.56C240.18 43.56 240.522 43.4427 240.756 43.208C240.991 42.9733 241.108 42.6533 241.108 42.248C241.108 41.8213 240.991 41.4907 240.756 41.256C240.522 41.0213 240.18 40.904 239.732 40.904C239.306 40.904 238.964 41.0213 238.708 41.256C238.474 41.4907 238.356 41.8213 238.356 42.248C238.356 42.6533 238.474 42.9733 238.708 43.208C238.964 43.4427 239.306 43.56 239.732 43.56ZM238.679 36.552V35.432C238.679 34.408 238.893 33.5013 239.319 32.712C239.725 31.9227 240.333 31.304 241.143 30.856C241.954 30.3867 242.946 30.152 244.119 30.152C245.463 30.152 246.583 30.3973 247.479 30.888C248.375 31.3787 249.122 31.9227 249.719 32.52H249.847V29.96H253.495V36.552H238.679ZM241.975 34.632H249.623C249.239 34.248 248.791 33.8853 248.279 33.544C247.746 33.2027 247.181 32.9253 246.583 32.712C245.965 32.4987 245.335 32.392 244.695 32.392C243.778 32.392 243.095 32.616 242.647 33.064C242.199 33.512 241.975 34.0347 241.975 34.632Z" fill="#FF5DCA"/>
</svg>
