<svg width="317" height="45" viewBox="0 0 317 45" fill="none" xmlns="http://www.w3.org/2000/svg">
<path d="M13.4081 44.1466C11.0981 44.1466 9.05807 43.7566 7.28807 42.9766C5.51807 42.1966 4.15307 41.1016 3.19307 39.6916C2.23307 38.2216 1.75307 36.5716 1.75307 34.7416C1.75307 33.5116 1.93307 32.3416 2.29307 31.2316C2.65307 30.1516 3.22307 29.1016 4.00307 28.0816C4.78307 27.0616 5.77307 26.0716 6.97307 25.1116C6.94307 25.0516 6.85307 24.9316 6.70307 24.7516C6.55307 24.5416 6.40307 24.3316 6.25307 24.1216C5.92307 23.7016 5.51807 23.2066 5.03807 22.6366C4.55807 22.0366 4.06307 21.4816 3.55307 20.9716C3.28307 20.7316 3.01307 20.4916 2.74307 20.2516C2.50307 20.0116 2.26307 19.7866 2.02307 19.5766L1.16807 20.1616C0.388067 19.2916 -0.00193334 18.3316 -0.00193334 17.2816C-0.00193334 16.5916 0.193067 15.9766 0.583067 15.4366C0.973067 14.8666 1.54307 14.3566 2.29307 13.9066C3.04307 13.4566 3.94307 13.0516 4.99307 12.6916C6.52307 12.1216 8.02307 11.8366 9.49307 11.8366C10.8431 11.8366 12.0731 12.1366 13.1831 12.7366C14.3231 13.3066 15.2381 14.0716 15.9281 15.0316C16.6181 15.9916 16.9631 17.0566 16.9631 18.2266C16.9631 19.3366 16.6481 20.4166 16.0181 21.4666C15.3881 22.5166 14.4581 23.5516 13.2281 24.5716C13.9181 24.6916 14.6981 24.7816 15.5681 24.8416C16.4681 24.8716 17.4881 24.8866 18.6281 24.8866C18.9581 24.8866 19.1231 25.0216 19.1231 25.2916V29.7916C19.1231 30.0616 18.9581 30.1966 18.6281 30.1966C17.2781 30.1966 16.0331 30.1066 14.8931 29.9266C13.7531 29.7166 12.7031 29.4016 11.7431 28.9816C10.7831 28.5316 9.88307 27.9616 9.04307 27.2716C7.39307 28.3216 6.14807 29.4016 5.30807 30.5116C4.49807 31.5916 4.09307 32.7016 4.09307 33.8416C4.09307 35.4916 4.87307 36.7516 6.43307 37.6216C7.99307 38.5216 10.2581 38.9716 13.2281 38.9716C14.0081 38.9716 14.8481 38.9266 15.7481 38.8366C16.6781 38.7466 17.6681 38.6116 18.7181 38.4316C19.7981 38.2516 20.9381 38.0266 22.1381 37.7566L22.7231 39.6916C20.8931 40.7716 19.3781 41.6416 18.1781 42.3016C17.0081 42.9616 16.0481 43.4266 15.2981 43.6966C14.5481 43.9966 13.9181 44.1466 13.4081 44.1466ZM9.89807 22.9966C10.4081 22.6066 10.8281 22.2466 11.1581 21.9166C11.5181 21.5566 11.8031 21.2116 12.0131 20.8816C12.3131 20.3716 12.4631 19.8316 12.4631 19.2616C12.4631 18.4816 12.1781 17.8816 11.6081 17.4616C11.0681 17.0416 10.4081 16.8316 9.62807 16.8316C8.87807 16.8316 8.14307 16.9066 7.42307 17.0566C6.70307 17.2066 5.86307 17.4916 4.90307 17.9116C5.11307 18.0916 5.32307 18.2716 5.53307 18.4516C5.74307 18.6316 5.96807 18.8416 6.20807 19.0816C6.59807 19.4416 7.00307 19.8616 7.42307 20.3416C7.84307 20.7916 8.29307 21.2866 8.77307 21.8266L9.89807 22.9966ZM28.7478 40.0266C28.1178 39.5166 27.5478 39.0366 27.0378 38.5866C26.5278 38.1366 26.0628 37.6866 25.6428 37.2366C26.2128 36.7266 26.7378 36.2016 27.2178 35.6616C27.7278 35.1516 28.2078 34.6266 28.6578 34.0866C28.9278 34.3866 29.3028 34.7616 29.7828 35.2116C30.2628 35.6616 30.8328 36.2166 31.4928 36.8766C30.6828 37.9866 29.7678 39.0366 28.7478 40.0266ZM22.7178 40.7016C22.0578 40.1916 21.4728 39.6966 20.9628 39.2166C20.4528 38.7366 20.0028 38.2866 19.6128 37.8666C20.1228 37.3566 20.6328 36.8316 21.1428 36.2916C21.6528 35.7816 22.1628 35.2716 22.6728 34.7616C22.9428 35.0616 23.3028 35.4516 23.7528 35.9316C24.2328 36.4116 24.8028 36.9516 25.4628 37.5516C25.0728 38.0916 24.6528 38.6166 24.2028 39.1266C23.7528 39.6666 23.2578 40.1916 22.7178 40.7016ZM18.3384 30.1966C18.0984 30.1966 17.9784 30.0766 17.9784 29.8366V25.2466C17.9784 25.0066 18.0984 24.8866 18.3384 24.8866C19.9284 24.8866 21.4584 24.8416 22.9284 24.7516C24.3984 24.6316 25.7034 24.4666 26.8434 24.2566C28.0134 24.0466 28.8834 23.8216 29.4534 23.5816C29.1534 22.8916 28.7634 22.1266 28.2834 21.2866C27.8034 20.4166 27.4434 19.7416 27.2034 19.2616C26.9034 18.6916 26.6484 18.1816 26.4384 17.7316C26.2284 17.2516 26.1234 16.8166 26.1234 16.4266C26.1234 15.7066 26.5284 14.9116 27.3384 14.0416C28.1484 13.1416 29.1084 12.4066 30.2184 11.8366C30.6684 14.0866 31.0284 15.9016 31.2984 17.2816C31.5684 18.6316 31.7634 19.6966 31.8834 20.4766C32.0034 21.2266 32.0634 21.8266 32.0634 22.2766C32.0634 22.9666 31.8984 23.8066 31.5684 24.7966C31.2384 25.7866 30.8184 26.7616 30.3084 27.7216C29.4984 28.2016 28.4334 28.6366 27.1134 29.0266C25.8234 29.3866 24.4134 29.6716 22.8834 29.8816C21.3534 30.0916 19.8384 30.1966 18.3384 30.1966ZM38.3532 39.3766C38.0232 39.3766 37.5432 39.2266 36.9132 38.9266C36.2832 38.6266 35.5632 38.1916 34.7532 37.6216C33.9432 37.0816 33.1032 36.4516 32.2332 35.7316L32.9532 33.8416C33.7632 34.0516 34.5432 34.2016 35.2932 34.2916C36.0732 34.4116 36.8082 34.4716 37.4982 34.4716C39.7182 34.4716 41.5932 33.9166 43.1232 32.8066C44.6532 31.6966 45.7632 30.0916 46.4532 27.9916C46.2432 27.5416 46.0032 27.0916 45.7332 26.6416C45.4932 26.1616 45.2232 25.6966 44.9232 25.2466C44.2632 24.1966 43.7082 23.2966 43.2582 22.5466C42.8082 21.7666 42.4632 21.1366 42.2232 20.6566C41.7732 19.6666 41.5482 18.8116 41.5482 18.0916C41.5482 17.2216 41.8932 16.3666 42.5832 15.5266C43.2732 14.6566 44.1732 13.9366 45.2832 13.3666C45.4332 13.9366 45.5832 14.5066 45.7332 15.0766C45.9132 15.6466 46.1082 16.2316 46.3182 16.8316C46.6782 17.8516 46.9932 18.7816 47.2632 19.6216C47.5332 20.4616 47.7732 21.1966 47.9832 21.8266C48.1332 22.3066 48.2532 22.7416 48.3432 23.1316C48.4632 23.4916 48.5382 23.7916 48.5682 24.0316C49.5882 24.6016 50.7132 24.8866 51.9432 24.8866C52.1832 24.8866 52.3032 25.0066 52.3032 25.2466V29.8366C52.3032 30.0766 52.1832 30.1966 51.9432 30.1966C50.8332 30.1966 49.7232 29.9116 48.6132 29.3416C48.2832 31.3216 47.6382 33.0616 46.6782 34.5616C45.7182 36.0916 44.5182 37.2766 43.0782 38.1166C41.6682 38.9566 40.0932 39.3766 38.3532 39.3766ZM61.8671 30.6016C61.1171 30.6016 60.3071 30.4816 59.4371 30.2416C58.5971 30.0016 57.6821 29.6416 56.6921 29.1616C56.0921 29.4616 55.3121 29.7166 54.3521 29.9266C53.4221 30.1066 52.4771 30.1966 51.5171 30.1966C51.2771 30.1966 51.1571 30.0766 51.1571 29.8366V25.2466C51.1571 25.0066 51.2771 24.8866 51.5171 24.8866C52.8971 24.8866 53.9321 24.7966 54.6221 24.6166C55.3121 24.4366 55.8671 24.1366 56.2871 23.7166C56.6171 23.3866 56.9321 22.9966 57.2321 22.5466C57.5321 22.0666 57.9671 21.3166 58.5371 20.2966C58.7171 19.9666 58.9721 19.6966 59.3021 19.4866C59.6621 19.2766 60.0371 19.1716 60.4271 19.1716C60.8471 19.1716 61.3121 19.3366 61.8221 19.6666C61.4321 20.5666 61.0571 21.4666 60.6971 22.3666C60.3671 23.2666 60.0221 24.1816 59.6621 25.1116C60.0821 25.1416 60.4871 25.1716 60.8771 25.2016C61.2971 25.2316 61.7021 25.2466 62.0921 25.2466C62.6921 25.2466 63.1721 25.2316 63.5321 25.2016C63.8921 25.1416 64.4921 24.9916 65.3321 24.7516C65.4821 24.5116 65.6621 24.1516 65.8721 23.6716C66.0821 23.1916 66.3371 22.5466 66.6371 21.7366C66.9671 20.8966 67.3571 19.8766 67.8071 18.6766C67.9571 18.2866 68.2271 17.9716 68.6171 17.7316C69.0071 17.4616 69.4721 17.3266 70.0121 17.3266C70.6421 17.3266 71.1671 17.4916 71.5871 17.8216C71.4071 18.2716 71.1221 19.0816 70.7321 20.2516C70.3721 21.4216 69.8471 23.1316 69.1571 25.3816C69.3671 25.3816 69.5621 25.3816 69.7421 25.3816C69.9521 25.3816 70.1621 25.3966 70.3721 25.4266C71.4521 25.4266 72.5321 25.2616 73.6121 24.9316C73.7021 24.7816 73.8221 24.5266 73.9721 24.1666C74.1221 23.8066 74.3321 23.2666 74.6021 22.5466C74.7821 22.0366 75.0071 21.4366 75.2771 20.7466C75.5471 20.0566 75.8471 19.2466 76.1771 18.3166C76.3571 17.8966 76.6421 17.5666 77.0321 17.3266C77.4521 17.0566 77.9171 16.9216 78.4271 16.9216C78.9671 16.9216 79.4771 17.0866 79.9571 17.4166C79.7771 17.8966 79.5371 18.5866 79.2371 19.4866C78.9371 20.3866 78.4871 21.7816 77.8871 23.6716C78.5771 24.0616 79.3571 24.3616 80.2271 24.5716C81.1271 24.7816 82.1471 24.8866 83.2871 24.8866C83.5271 24.8866 83.6471 25.0066 83.6471 25.2466V29.8366C83.6471 30.0766 83.5271 30.1966 83.2871 30.1966C82.0871 30.1966 80.8571 29.9416 79.5971 29.4316C78.3371 28.8916 77.3621 28.2466 76.6721 27.4966C76.4321 28.1566 76.1771 28.7266 75.9071 29.2066C75.6371 29.6566 75.0671 30.0016 74.1971 30.2416C73.7771 30.3616 73.2821 30.4516 72.7121 30.5116C72.1721 30.5716 71.5721 30.6016 70.9121 30.6016C70.0121 30.6016 68.7971 30.2716 67.2671 29.6116C66.9971 29.7916 66.5621 29.9566 65.9621 30.1066C65.3921 30.2566 64.7471 30.3766 64.0271 30.4666C63.3071 30.5566 62.5871 30.6016 61.8671 30.6016ZM82.894 30.1966C82.654 30.1966 82.534 30.0766 82.534 29.8366V25.2466C82.534 25.0066 82.654 24.8866 82.894 24.8866C84.214 24.8866 85.789 24.5416 87.619 23.8516C87.499 22.9816 87.379 22.1116 87.259 21.2416C87.169 20.3416 87.049 19.4566 86.899 18.5866C86.779 17.7166 86.479 15.9916 85.999 13.4116C85.519 10.8016 84.889 7.32156 84.109 2.97156C84.889 2.43156 85.729 1.92156 86.629 1.44156C87.559 0.961561 88.504 0.481561 89.464 0.00156218C89.524 2.46156 89.584 4.80156 89.644 7.02156C89.704 9.21156 89.764 11.2666 89.824 13.1866C89.884 15.1066 89.929 16.8916 89.959 18.5416C89.989 20.1616 90.004 21.6766 90.004 23.0866C90.004 24.1066 89.854 25.0966 89.554 26.0566C89.284 27.0166 88.849 27.9316 88.249 28.8016C87.949 29.2216 87.304 29.5666 86.314 29.8366C85.354 30.0766 84.214 30.1966 82.894 30.1966ZM98.0949 30.1966C97.9449 27.1066 97.7949 24.3916 97.6449 22.0516C97.4949 19.7116 97.3449 17.5666 97.1949 15.6166C97.0449 13.6366 96.8799 11.7166 96.6999 9.85656C96.5199 7.99656 96.3249 5.98656 96.1149 3.82656C96.0249 3.07656 96.1899 2.41656 96.6099 1.84656C97.0599 1.27656 97.6599 0.82656 98.4099 0.496561C99.1899 0.166562 100.03 0.00156218 100.93 0.00156218C101.17 0.931561 101.44 1.86156 101.74 2.79156C102.07 3.72156 102.415 4.63656 102.775 5.53656L101.2 6.70656C101.26 8.35656 101.29 10.3366 101.29 12.6466C101.29 14.9266 101.26 17.5066 101.2 20.3866C101.17 23.2666 101.095 26.4166 100.975 29.8366L98.0949 30.1966ZM124.416 11.3916C122.886 10.1316 121.731 9.05156 120.951 8.15156C121.641 7.46156 122.256 6.83156 122.796 6.26156C123.366 5.66156 123.876 5.09156 124.326 4.55156C124.656 4.91156 125.091 5.36156 125.631 5.90156C126.171 6.44156 126.816 7.07156 127.566 7.79156C127.206 8.30156 126.756 8.85656 126.216 9.45656C125.706 10.0566 125.106 10.7016 124.416 11.3916ZM119.96 39.3766C119.63 39.3766 119.15 39.2266 118.52 38.9266C117.89 38.6266 117.17 38.1916 116.36 37.6216C115.55 37.0816 114.71 36.4516 113.84 35.7316L114.56 33.8416C115.37 34.0516 116.15 34.2016 116.9 34.2916C117.68 34.4116 118.415 34.4716 119.105 34.4716C121.325 34.4716 123.2 33.9166 124.73 32.8066C126.26 31.6966 127.37 30.0916 128.06 27.9916C127.85 27.5416 127.61 27.0916 127.34 26.6416C127.1 26.1616 126.83 25.6966 126.53 25.2466C125.87 24.1966 125.315 23.2966 124.865 22.5466C124.415 21.7666 124.07 21.1366 123.83 20.6566C123.38 19.6666 123.155 18.8116 123.155 18.0916C123.155 17.2216 123.5 16.3666 124.19 15.5266C124.88 14.6566 125.78 13.9366 126.89 13.3666C127.04 13.9366 127.19 14.5066 127.34 15.0766C127.52 15.6466 127.715 16.2316 127.925 16.8316C128.285 17.8516 128.6 18.7816 128.87 19.6216C129.14 20.4616 129.38 21.1966 129.59 21.8266C129.74 22.3066 129.86 22.7416 129.95 23.1316C130.07 23.4916 130.145 23.7916 130.175 24.0316C131.195 24.6016 132.32 24.8866 133.55 24.8866C133.79 24.8866 133.91 25.0066 133.91 25.2466V29.8366C133.91 30.0766 133.79 30.1966 133.55 30.1966C132.44 30.1966 131.33 29.9116 130.22 29.3416C129.89 31.3216 129.245 33.0616 128.285 34.5616C127.325 36.0916 126.125 37.2766 124.685 38.1166C123.275 38.9566 121.7 39.3766 119.96 39.3766ZM148.586 38.9266C147.056 37.6666 145.901 36.5866 145.121 35.6866C145.811 34.9966 146.426 34.3516 146.966 33.7516C147.536 33.1816 148.046 32.6266 148.496 32.0866C148.826 32.4466 149.261 32.8966 149.801 33.4366C150.341 33.9766 150.986 34.6066 151.736 35.3266C151.376 35.8366 150.926 36.3916 150.386 36.9916C149.876 37.5916 149.276 38.2366 148.586 38.9266ZM133.124 30.1966C132.884 30.1966 132.764 30.0766 132.764 29.8366V25.2466C132.764 25.0066 132.884 24.8866 133.124 24.8866C135.314 24.8866 137.174 24.8566 138.704 24.7966C140.234 24.7066 141.719 24.4516 143.159 24.0316C144.449 23.6416 145.544 23.3266 146.444 23.0866C147.374 22.8466 148.094 22.6666 148.604 22.5466C148.214 22.3066 147.809 22.0666 147.389 21.8266C146.999 21.5566 146.594 21.2866 146.174 21.0166C145.214 20.3866 144.404 19.9366 143.744 19.6666C143.114 19.3966 142.469 19.2616 141.809 19.2616C140.909 19.2616 140.054 19.3966 139.244 19.6666C138.434 19.9066 137.519 20.3566 136.499 21.0166C136.229 20.7466 135.989 20.3566 135.779 19.8466C135.569 19.3066 135.464 18.7966 135.464 18.3166C135.464 16.9966 136.049 15.9316 137.219 15.1216C138.389 14.2816 139.859 13.8616 141.629 13.8616C142.589 13.8616 143.504 14.0266 144.374 14.3566C145.274 14.6866 146.279 15.2266 147.389 15.9766C148.739 16.9066 149.984 17.6566 151.124 18.2266C152.264 18.7666 153.614 19.2466 155.174 19.6666C155.954 19.8466 156.809 19.9966 157.739 20.1166C158.669 20.2066 159.689 20.2516 160.799 20.2516L158.819 24.0316C158.579 24.0016 158.339 23.9866 158.099 23.9866C157.859 23.9866 157.619 23.9866 157.379 23.9866C157.139 23.9566 156.899 23.9416 156.659 23.9416C156.959 24.2116 157.289 24.4066 157.649 24.5266C158.009 24.6166 158.414 24.6916 158.864 24.7516C159.554 24.7816 160.259 24.8116 160.979 24.8416C161.729 24.8416 162.434 24.8566 163.094 24.8866C163.334 24.8866 163.454 25.0066 163.454 25.2466V29.8366C163.454 30.0766 163.334 30.1966 163.094 30.1966C162.014 30.1966 160.889 30.1516 159.719 30.0616C158.549 29.9416 157.469 29.7766 156.479 29.5666C155.519 29.3266 154.814 29.0566 154.364 28.7566C153.764 28.3066 153.329 27.6616 153.059 26.8216C152.819 25.9816 152.609 25.1866 152.429 24.4366C151.859 24.5566 151.334 24.7366 150.854 24.9766C150.404 25.1866 149.894 25.4866 149.324 25.8766C148.754 26.2366 148.019 26.7166 147.119 27.3166C146.039 28.0366 144.989 28.5916 143.969 28.9816C142.949 29.3716 141.899 29.6566 140.819 29.8366C139.739 30.0166 138.569 30.1216 137.309 30.1516C136.049 30.1816 134.654 30.1966 133.124 30.1966ZM162.699 30.1966C162.459 30.1966 162.339 30.0766 162.339 29.8366V25.2466C162.339 25.0066 162.459 24.8866 162.699 24.8866C164.889 24.8866 166.749 24.8566 168.279 24.7966C169.809 24.7066 171.294 24.4516 172.734 24.0316C174.024 23.6416 175.119 23.3266 176.019 23.0866C176.949 22.8466 177.669 22.6666 178.179 22.5466C177.789 22.3066 177.384 22.0666 176.964 21.8266C176.574 21.5566 176.169 21.2866 175.749 21.0166C174.789 20.3866 173.979 19.9366 173.319 19.6666C172.689 19.3966 172.044 19.2616 171.384 19.2616C170.484 19.2616 169.629 19.3966 168.819 19.6666C168.009 19.9066 167.094 20.3566 166.074 21.0166C165.804 20.7466 165.564 20.3566 165.354 19.8466C165.144 19.3066 165.039 18.7966 165.039 18.3166C165.039 16.9966 165.624 15.9316 166.794 15.1216C167.964 14.2816 169.434 13.8616 171.204 13.8616C172.164 13.8616 173.079 14.0266 173.949 14.3566C174.849 14.6866 175.854 15.2266 176.964 15.9766C178.314 16.9066 179.559 17.6566 180.699 18.2266C181.839 18.7666 183.189 19.2466 184.749 19.6666C185.529 19.8466 186.384 19.9966 187.314 20.1166C188.244 20.2066 189.264 20.2516 190.374 20.2516L188.394 24.0316C188.154 24.0016 187.914 23.9866 187.674 23.9866C187.434 23.9866 187.194 23.9866 186.954 23.9866C186.714 23.9566 186.474 23.9416 186.234 23.9416C186.534 24.2116 186.864 24.4066 187.224 24.5266C187.584 24.6166 187.989 24.6916 188.439 24.7516C189.129 24.7816 189.834 24.8116 190.554 24.8416C191.304 24.8416 192.009 24.8566 192.669 24.8866C192.909 24.8866 193.029 25.0066 193.029 25.2466V29.8366C193.029 30.0766 192.909 30.1966 192.669 30.1966C191.589 30.1966 190.464 30.1516 189.294 30.0616C188.124 29.9416 187.044 29.7766 186.054 29.5666C185.094 29.3266 184.389 29.0566 183.939 28.7566C183.339 28.3066 182.904 27.6616 182.634 26.8216C182.394 25.9816 182.184 25.1866 182.004 24.4366C181.434 24.5566 180.909 24.7366 180.429 24.9766C179.979 25.1866 179.469 25.4866 178.899 25.8766C178.329 26.2366 177.594 26.7166 176.694 27.3166C175.614 28.0366 174.564 28.5916 173.544 28.9816C172.524 29.3716 171.474 29.6566 170.394 29.8366C169.314 30.0166 168.144 30.1216 166.884 30.1516C165.624 30.1816 164.229 30.1966 162.699 30.1966ZM192.274 30.1966C192.034 30.1966 191.914 30.0766 191.914 29.8366V25.2466C191.914 25.0066 192.034 24.8866 192.274 24.8866C193.594 24.8866 195.169 24.5416 196.999 23.8516C196.879 22.9816 196.759 22.1116 196.639 21.2416C196.549 20.3416 196.429 19.4566 196.279 18.5866C196.159 17.7166 195.859 15.9916 195.379 13.4116C194.899 10.8016 194.269 7.32156 193.489 2.97156C194.269 2.43156 195.109 1.92156 196.009 1.44156C196.939 0.961561 197.884 0.481561 198.844 0.00156218C198.904 2.46156 198.964 4.80156 199.024 7.02156C199.084 9.21156 199.144 11.2666 199.204 13.1866C199.264 15.1066 199.309 16.8916 199.339 18.5416C199.369 20.1616 199.384 21.6766 199.384 23.0866C199.384 24.1066 199.234 25.0966 198.934 26.0566C198.664 27.0166 198.229 27.9316 197.629 28.8016C197.329 29.2216 196.684 29.5666 195.694 29.8366C194.734 30.0766 193.594 30.1966 192.274 30.1966ZM207.475 30.1966C207.325 27.1066 207.175 24.3916 207.025 22.0516C206.875 19.7116 206.725 17.5666 206.575 15.6166C206.425 13.6366 206.26 11.7166 206.08 9.85656C205.9 7.99656 205.705 5.98656 205.495 3.82656C205.405 3.07656 205.57 2.41656 205.99 1.84656C206.44 1.27656 207.04 0.82656 207.79 0.496561C208.57 0.166562 209.41 0.00156218 210.31 0.00156218C210.55 0.931561 210.82 1.86156 211.12 2.79156C211.45 3.72156 211.795 4.63656 212.155 5.53656L210.58 6.70656C210.64 8.35656 210.67 10.3366 210.67 12.6466C210.67 14.9266 210.64 17.5066 210.58 20.3866C210.55 23.2666 210.475 26.4166 210.355 29.8366L207.475 30.1966ZM237.487 19.3916C235.957 18.1316 234.802 17.0516 234.022 16.1516C234.712 15.4616 235.327 14.8316 235.867 14.2616C236.437 13.6616 236.947 13.0916 237.397 12.5516C237.727 12.9116 238.162 13.3616 238.702 13.9016C239.242 14.4416 239.887 15.0716 240.637 15.7916C240.277 16.3016 239.827 16.8566 239.287 17.4566C238.777 18.0566 238.177 18.7016 237.487 19.3916ZM236.045 41.9416C233.375 41.9416 231.335 41.1466 229.925 39.5566C228.515 37.9966 227.81 35.7166 227.81 32.7166C227.81 32.2066 227.84 31.6216 227.9 30.9616C227.99 30.3316 228.125 29.6116 228.305 28.8016C228.485 27.9916 228.695 27.1216 228.935 26.1916L230.915 26.6866C230.495 28.0966 230.285 29.2966 230.285 30.2866C230.285 32.4166 230.765 34.0066 231.725 35.0566C232.685 36.1066 234.17 36.6316 236.18 36.6316C237.77 36.6316 239.18 36.4966 240.41 36.2266C241.67 35.9566 242.84 35.5216 243.92 34.9216C245 34.3516 246.065 33.5866 247.115 32.6266C246.095 30.6466 245.195 28.9366 244.415 27.4966C243.665 26.0266 243.29 24.9916 243.29 24.3916C243.29 23.1316 243.65 22.0216 244.37 21.0616C245.12 20.0716 246.275 19.2016 247.835 18.4516C247.925 19.0516 248.03 19.7566 248.15 20.5666C248.3 21.3466 248.435 22.1416 248.555 22.9516C248.705 23.7616 248.825 24.4666 248.915 25.0666C249.095 26.1466 249.245 27.1966 249.365 28.2166C249.515 29.2066 249.59 30.1066 249.59 30.9166C249.59 32.9266 248.99 34.7866 247.79 36.4966C246.59 38.2066 244.955 39.5416 242.885 40.5016C241.865 40.9816 240.77 41.3416 239.6 41.5816C238.46 41.8216 237.275 41.9416 236.045 41.9416ZM265.273 30.1966C263.473 30.1966 262.018 29.8966 260.908 29.2966C259.828 28.6966 259.018 27.9016 258.478 26.9116C257.968 25.8916 257.638 24.7366 257.488 23.4466C257.428 22.8766 257.323 21.9316 257.173 20.6116C257.023 19.2616 256.858 17.7316 256.678 16.0216C256.528 14.3116 256.363 12.5866 256.183 10.8466C256.003 9.10656 255.838 7.53156 255.688 6.12156C255.538 4.71156 255.418 3.66156 255.328 2.97156C256.198 2.40156 257.068 1.87656 257.938 1.39656C258.838 0.886562 259.753 0.421562 260.683 0.00156218C260.773 2.25156 260.833 4.50156 260.863 6.75156C260.923 8.97156 260.983 11.2066 261.043 13.4566C261.103 15.7066 261.193 17.9566 261.313 20.2066L261.493 23.7166C262.033 24.1666 262.603 24.4816 263.203 24.6616C263.803 24.8116 264.523 24.8866 265.363 24.8866C265.543 24.8866 265.633 25.0066 265.633 25.2466V29.8366C265.633 30.0766 265.513 30.1966 265.273 30.1966ZM279.047 30.6016C277.127 30.6016 275.342 30.4366 273.692 30.1066C272.072 29.7466 270.737 29.2816 269.687 28.7116C268.847 29.2816 268.052 29.6716 267.302 29.8816C266.552 30.0916 265.742 30.1966 264.872 30.1966C264.632 30.1966 264.512 30.0766 264.512 29.8366V25.2466C264.512 25.0066 264.632 24.8866 264.872 24.8866C265.292 24.8866 265.682 24.8716 266.042 24.8416C266.402 24.7816 266.792 24.6916 267.212 24.5716C267.212 24.5116 267.212 24.4516 267.212 24.3916C267.242 24.3016 267.257 24.2116 267.257 24.1216C267.407 23.0716 267.692 22.0066 268.112 20.9266C268.562 19.8466 269.117 18.8416 269.777 17.9116C270.467 16.9816 271.217 16.2166 272.027 15.6166C273.287 14.6266 274.577 14.1316 275.897 14.1316C276.197 14.1316 276.482 14.2366 276.752 14.4466C277.052 14.6266 277.337 14.9116 277.607 15.3016C277.847 15.6916 278.117 16.2466 278.417 16.9666C278.747 17.6566 279.092 18.4966 279.452 19.4866C279.812 20.5066 280.172 21.3916 280.532 22.1416C280.922 22.8616 281.312 23.4316 281.702 23.8516C282.332 24.5416 283.007 24.8866 283.727 24.8866C284.057 24.8866 284.222 25.0216 284.222 25.2916V29.7016C284.222 30.0316 284.057 30.1966 283.727 30.1966C282.227 30.1966 280.877 29.6266 279.677 28.4866L279.047 30.6016ZM277.652 25.6066C277.172 24.6166 276.767 23.5666 276.437 22.4566C276.137 21.3466 275.912 20.1616 275.762 18.9016C274.892 19.2316 274.082 19.6066 273.332 20.0266C272.612 20.4466 271.952 20.9116 271.352 21.4216C270.752 21.9016 270.227 22.4266 269.777 22.9966C270.617 23.6566 271.682 24.1966 272.972 24.6166C274.292 25.0366 275.852 25.3666 277.652 25.6066ZM301.779 9.39156C300.249 8.13156 299.094 7.05156 298.314 6.15156C299.004 5.46156 299.619 4.83156 300.159 4.26156C300.729 3.66156 301.239 3.09156 301.689 2.55156C302.019 2.91156 302.454 3.36156 302.994 3.90156C303.534 4.44156 304.179 5.07156 304.929 5.79156C304.569 6.30156 304.119 6.85656 303.579 7.45656C303.069 8.05656 302.469 8.70156 301.779 9.39156ZM301.685 30.6016C300.365 30.6016 298.985 30.5266 297.545 30.3766C296.105 30.1966 294.695 29.9416 293.315 29.6116C291.935 29.2516 290.645 28.7866 289.445 28.2166C289.325 28.3366 289.19 28.4716 289.04 28.6216C288.92 28.7416 288.77 28.8616 288.59 28.9816C287.96 29.3716 287.18 29.6716 286.25 29.8816C285.35 30.0916 284.42 30.1966 283.46 30.1966C283.22 30.1966 283.1 30.0766 283.1 29.8366V25.2466C283.1 25.0066 283.22 24.8866 283.46 24.8866C284.6 24.8866 285.485 24.8266 286.115 24.7066C286.775 24.5566 287.33 24.2566 287.78 23.8066C288.23 23.3266 288.725 22.6066 289.265 21.6466C289.385 21.4366 289.505 21.2266 289.625 21.0166C289.775 20.8066 289.91 20.5666 290.03 20.2966C290.48 19.4866 291.155 19.0816 292.055 19.0816C292.505 19.0816 292.985 19.2316 293.495 19.5316C293.195 20.2816 292.895 21.0166 292.595 21.7366C292.325 22.4566 292.04 23.1766 291.74 23.8966C292.07 24.0166 292.385 24.1216 292.685 24.2116C292.985 24.3016 293.285 24.4066 293.585 24.5266C296.675 20.4166 299.405 17.4016 301.775 15.4816C304.055 13.5616 306.08 12.6016 307.85 12.6016C308.6 12.6016 309.425 12.8266 310.325 13.2766C311.255 13.7266 312.17 14.3116 313.07 15.0316C313.97 15.7516 314.75 16.5316 315.41 17.3716C316.43 18.6016 316.94 19.6216 316.94 20.4316C316.94 22.4116 316.31 24.1516 315.05 25.6516C313.82 27.1216 311.96 28.3216 309.47 29.2516C307.01 30.1516 304.415 30.6016 301.685 30.6016ZM302.135 25.6516C304.295 25.6516 306.32 25.3966 308.21 24.8866C310.1 24.3766 312.14 23.5966 314.33 22.5466C312.98 20.9866 311.675 19.8316 310.415 19.0816C309.155 18.3016 307.925 17.9116 306.725 17.9116C305.405 17.9116 303.86 18.5416 302.09 19.8016C300.35 21.0616 298.505 22.8466 296.555 25.1566C297.515 25.3066 298.46 25.4266 299.39 25.5166C300.32 25.6066 301.235 25.6516 302.135 25.6516Z" fill="url(#paint0_linear_4073_36794)"/>
<defs>
<linearGradient id="paint0_linear_4073_36794" x1="-15.9375" y1="22.6016" x2="332.062" y2="22.6016" gradientUnits="userSpaceOnUse">
<stop stop-color="#3E57E2"/>
<stop offset="0.4" stop-color="#B133FF"/>
<stop offset="1" stop-color="#FF5DCA"/>
</linearGradient>
</defs>
</svg>
