<svg width="484" height="71" viewBox="0 0 484 71" fill="none" xmlns="http://www.w3.org/2000/svg">
<path d="M21.7492 6.29961H56.9242V8.39961H22.4242L21.7492 6.29961ZM20.6992 29.6246H42.8242L46.9492 23.8496C46.9492 23.8496 47.3742 24.2246 48.2242 24.9746C49.0742 25.6746 50.0742 26.5496 51.2242 27.5996C52.3742 28.6496 53.3992 29.6246 54.2992 30.5246C54.0992 31.3246 53.3992 31.7246 52.1992 31.7246H21.2992L20.6992 29.6246ZM32.8492 9.67461L43.9492 10.7996C43.8992 11.2996 43.6742 11.7496 43.2742 12.1496C42.8742 12.4996 42.1742 12.7246 41.1742 12.8246V55.8746C41.1742 56.1246 40.8242 56.4496 40.1242 56.8496C39.4242 57.2496 38.5492 57.5996 37.4992 57.8996C36.4992 58.1996 35.4492 58.3496 34.3492 58.3496H32.8492V9.67461ZM52.7992 6.29961H51.9742L56.1742 1.57461L64.4992 8.24961C64.2992 8.49961 63.9242 8.74961 63.3742 8.99961C62.8242 9.24961 62.1492 9.44961 61.3492 9.59961C61.1492 11.9996 61.0242 14.6496 60.9742 17.5496C60.9242 20.4496 60.9492 23.3996 61.0492 26.3996C61.1992 29.3496 61.4242 32.1746 61.7242 34.8746C62.0242 37.5246 62.4242 39.8496 62.9242 41.8496C63.4242 43.7996 64.0742 45.1996 64.8742 46.0496C65.1742 46.3496 65.4242 46.4746 65.6242 46.4246C65.8242 46.3246 65.9992 46.0496 66.1492 45.5996C66.5992 44.4996 66.9992 43.3246 67.3492 42.0746C67.7492 40.7746 68.1242 39.4496 68.4742 38.0996L69.2992 38.2496L68.5492 49.7246C69.3492 51.4746 69.7992 52.9996 69.8992 54.2996C70.0492 55.5996 69.7992 56.5746 69.1492 57.2246C68.3492 58.0246 67.4242 58.4246 66.3742 58.4246C65.3242 58.4246 64.2742 58.1496 63.2242 57.5996C62.2242 56.9996 61.2992 56.2746 60.4492 55.4246C58.5492 53.5246 57.0492 50.8246 55.9492 47.3246C54.8492 43.7746 54.0742 39.7496 53.6242 35.2496C53.1742 30.7496 52.8992 26.0246 52.7992 21.0746C52.6992 16.0746 52.6992 11.1496 52.7992 6.29961ZM18.1492 54.9746C19.4492 56.2746 20.7742 57.3246 22.1242 58.1246C23.4742 58.8746 25.0242 59.4496 26.7742 59.8496C28.5742 60.2496 30.6992 60.5246 33.1492 60.6746C35.5992 60.7746 38.5242 60.8246 41.9242 60.8246C44.6742 60.8246 47.6992 60.8246 50.9992 60.8246C54.2992 60.8246 57.6242 60.7996 60.9742 60.7496C64.3742 60.6996 67.5992 60.6246 70.6492 60.5246V61.4246C67.2492 62.2746 65.3492 64.7746 64.9492 68.9246C62.8492 68.9246 60.4742 68.9246 57.8242 68.9246C55.1742 68.9246 52.4742 68.9246 49.7242 68.9246C47.0242 68.9246 44.4242 68.9246 41.9242 68.9246C38.4242 68.9246 35.3992 68.7496 32.8492 68.3996C30.2992 68.0496 28.0742 67.3996 26.1742 66.4496C24.3242 65.5496 22.6742 64.2746 21.2242 62.6246C19.8242 60.9246 18.4992 58.7496 17.2492 56.0996C16.1492 57.4996 14.9242 58.9996 13.5742 60.5996C12.2242 62.1496 10.8742 63.6496 9.52422 65.0996C8.22422 66.5496 7.02422 67.7746 5.92422 68.7746C5.97422 69.2746 5.87422 69.6746 5.62422 69.9746C5.42422 70.2746 5.12422 70.5246 4.72422 70.7246L-0.000781173 60.8246C1.49922 60.3246 3.29922 59.6996 5.39922 58.9496C7.49922 58.1496 9.67422 57.2746 11.9242 56.3246C14.1742 55.3746 16.2492 54.4996 18.1492 53.6996V54.9746ZM18.1492 36.2996V54.7496L9.89922 59.2496V35.1746H0.524219L0.0742188 32.9996H8.69922L12.8992 27.4496L21.9742 34.7246C21.6742 35.0246 21.2242 35.3246 20.6242 35.6246C20.0242 35.9246 19.1992 36.1496 18.1492 36.2996ZM3.97422 2.62461C7.72422 3.22461 10.6992 4.14961 12.8992 5.39961C15.0992 6.59961 16.6492 7.92461 17.5492 9.37461C18.4992 10.8246 18.9492 12.2246 18.8992 13.5746C18.8492 14.8746 18.4492 15.9746 17.6992 16.8746C16.9492 17.7746 15.9492 18.2996 14.6992 18.4496C13.4992 18.5496 12.1992 18.0746 10.7992 17.0246C10.5492 15.3746 10.0242 13.7246 9.22422 12.0746C8.42422 10.3746 7.52422 8.74961 6.52422 7.19961C5.52422 5.59961 4.47422 4.22461 3.37422 3.07461L3.97422 2.62461ZM121.649 38.1746C125.899 38.6246 129.399 39.3996 132.149 40.4996C134.899 41.5496 136.999 42.7746 138.449 44.1746C139.949 45.5246 140.874 46.8746 141.224 48.2246C141.624 49.5746 141.599 50.7496 141.149 51.7496C140.699 52.7496 139.924 53.4496 138.824 53.8496C137.774 54.1996 136.524 54.0746 135.074 53.4746C134.324 52.2246 133.374 50.9246 132.224 49.5746C131.124 48.2246 129.924 46.8996 128.624 45.5996C127.374 44.2996 126.099 43.0746 124.799 41.9246C123.499 40.7246 122.249 39.6746 121.049 38.7746L121.649 38.1746ZM94.5742 10.0496H129.599L134.399 4.12461C134.399 4.12461 134.674 4.34961 135.224 4.79961C135.824 5.24961 136.574 5.82461 137.474 6.52461C138.374 7.22461 139.324 7.97461 140.324 8.7746C141.324 9.52461 142.224 10.2496 143.024 10.9496C142.874 11.7496 142.174 12.1496 140.924 12.1496H95.1742L94.5742 10.0496ZM130.424 19.3496H129.674L133.499 15.0746L141.824 21.3746C141.624 21.6746 141.249 21.9746 140.699 22.2746C140.199 22.5246 139.574 22.7246 138.824 22.8746V34.6496C138.824 34.8496 138.424 35.1246 137.624 35.4746C136.824 35.8246 135.899 36.1496 134.849 36.4496C133.799 36.7496 132.799 36.8996 131.849 36.8996H130.424V19.3496ZM102.299 32.0996H133.724V34.1996H102.299V32.0996ZM97.2742 19.3496V15.8996L106.049 19.3496H132.374V21.5246H105.599V35.7746C105.599 36.0246 105.224 36.3496 104.474 36.7496C103.774 37.1496 102.874 37.5246 101.774 37.8746C100.724 38.1746 99.6242 38.3246 98.4742 38.3246H97.2742V19.3496ZM113.549 -0.000393987L124.874 1.1246C124.824 1.6246 124.599 2.0746 124.199 2.47461C123.849 2.82461 123.149 3.07461 122.099 3.2246V56.5496C122.099 56.8496 121.749 57.2246 121.049 57.6746C120.349 58.1246 119.474 58.5246 118.424 58.8746C117.374 59.1746 116.299 59.3246 115.199 59.3246H113.549V-0.000393987ZM111.449 32.0996H121.349V33.2996C118.699 38.1496 114.949 42.3996 110.099 46.0496C105.249 49.6996 99.6492 52.6996 93.2992 55.0496L92.6992 54.1496C96.9992 51.3996 100.749 48.0746 103.949 44.1746C107.199 40.2246 109.699 36.1996 111.449 32.0996ZM91.6492 54.9746C92.9492 56.2746 94.2742 57.3246 95.6242 58.1246C97.0242 58.8746 98.6242 59.4496 100.424 59.8496C102.224 60.2496 104.349 60.5246 106.799 60.6746C109.249 60.7746 112.199 60.8246 115.649 60.8246C118.499 60.8246 121.599 60.8246 124.949 60.8246C128.299 60.8246 131.674 60.7996 135.074 60.7496C138.524 60.6996 141.799 60.6246 144.899 60.5246V61.4246C141.449 62.3746 139.524 64.8746 139.124 68.9246C136.974 68.9246 134.549 68.9246 131.849 68.9246C129.199 68.9246 126.474 68.9246 123.674 68.9246C120.924 68.9246 118.299 68.9246 115.799 68.9246C112.199 68.9246 109.099 68.7496 106.499 68.3996C103.949 68.0496 101.724 67.3996 99.8242 66.4496C97.9242 65.5496 96.2492 64.2746 94.7992 62.6246C93.3492 60.9246 91.9992 58.7496 90.7492 56.0996C89.6492 57.4996 88.4242 58.9996 87.0742 60.5996C85.7242 62.1496 84.3742 63.6496 83.0242 65.0996C81.7242 66.5496 80.5242 67.7746 79.4242 68.7746C79.4742 69.2746 79.3742 69.6746 79.1242 69.9746C78.9242 70.2746 78.6242 70.5246 78.2242 70.7246L73.4992 60.8246C74.9992 60.3246 76.7992 59.6996 78.8992 58.9496C80.9992 58.1496 83.1742 57.2746 85.4242 56.3246C87.6742 55.3746 89.7492 54.4996 91.6492 53.6996V54.9746ZM91.6492 36.2996V54.7496L83.3992 59.2496V35.1746H74.0242L73.5742 32.9996H82.1992L86.3992 27.4496L95.4742 34.7246C95.1742 35.0246 94.7242 35.3246 94.1242 35.6246C93.5242 35.9246 92.6992 36.1496 91.6492 36.2996ZM76.7992 2.62461C80.5492 3.22461 83.5242 4.14961 85.7242 5.39961C87.9742 6.59961 89.5492 7.92461 90.4492 9.37461C91.3992 10.7746 91.8492 12.1496 91.7992 13.4996C91.7992 14.8496 91.3992 15.9746 90.5992 16.8746C89.8492 17.7246 88.8742 18.2246 87.6742 18.3746C86.4742 18.4746 85.1492 18.0246 83.6992 17.0246C83.4492 15.3746 82.9242 13.7246 82.1242 12.0746C81.3242 10.3746 80.3992 8.74961 79.3492 7.19961C78.3492 5.59961 77.2992 4.22461 76.1992 3.07461L76.7992 2.62461ZM177.674 29.9246H186.824V59.6246C186.824 61.6746 186.524 63.4746 185.924 65.0246C185.324 66.5746 184.099 67.8246 182.249 68.7746C180.449 69.7746 177.674 70.4246 173.924 70.7246C173.874 69.2746 173.649 67.9996 173.249 66.8996C172.899 65.7996 172.349 64.9246 171.599 64.2746C170.799 63.5746 169.774 62.9746 168.524 62.4746C167.274 61.9246 165.399 61.4746 162.899 61.1246V60.1496C162.899 60.1496 163.449 60.1996 164.549 60.2996C165.699 60.3496 167.049 60.4246 168.599 60.5246C170.149 60.6246 171.624 60.6996 173.024 60.7496C174.424 60.7996 175.374 60.8246 175.874 60.8246C176.574 60.8246 177.049 60.6996 177.299 60.4496C177.549 60.1996 177.674 59.8246 177.674 59.3246V29.9246ZM166.949 14.0246C171.549 14.2746 175.374 14.8496 178.424 15.7496C181.474 16.5996 183.899 17.6246 185.699 18.8246C187.549 20.0246 188.849 21.2746 189.599 22.5746C190.349 23.8746 190.674 25.1246 190.574 26.3246C190.524 27.4746 190.149 28.4496 189.449 29.2496C188.749 30.0496 187.849 30.5496 186.749 30.7496C185.649 30.9496 184.449 30.7246 183.149 30.0746C182.449 28.7746 181.324 27.2746 179.774 25.5746C178.274 23.8246 176.399 22.0246 174.149 20.1746C171.949 18.2746 169.449 16.5246 166.649 14.9246L166.949 14.0246ZM197.249 6.59961H196.349L201.449 1.79961L209.699 9.67461C209.349 9.97461 208.949 10.1996 208.499 10.3496C208.049 10.4496 207.374 10.5246 206.474 10.5746C204.974 11.4246 203.249 12.3496 201.299 13.3496C199.349 14.2996 197.274 15.2246 195.074 16.1246C192.924 17.0246 190.774 17.8746 188.624 18.6746C186.474 19.4246 184.499 20.0996 182.699 20.6996L182.099 20.0996C183.349 19.2496 184.674 18.2496 186.074 17.0996C187.524 15.8996 188.949 14.6996 190.349 13.4996C191.749 12.2496 193.049 11.0246 194.249 9.8246C195.449 8.62461 196.449 7.54961 197.249 6.59961ZM205.124 29.9246H204.224L209.324 24.8996L217.949 33.0746C217.599 33.4246 217.199 33.6746 216.749 33.8246C216.299 33.9246 215.649 33.9996 214.799 34.0496C213.299 35.5496 211.499 37.1996 209.399 38.9996C207.299 40.7496 205.074 42.4246 202.724 44.0246C200.424 45.6246 198.224 47.0246 196.124 48.2246L195.524 47.6246C196.674 45.9746 197.849 44.0996 199.049 41.9996C200.299 39.8496 201.474 37.6996 202.574 35.5496C203.674 33.3996 204.524 31.5246 205.124 29.9246ZM156.299 6.59961H201.899V8.69961H156.974L156.299 6.59961ZM147.224 29.9246H210.599V32.0246H147.899L147.224 29.9246ZM257.624 0.524608L269.174 4.04961C268.974 4.54961 268.649 4.94961 268.199 5.24961C267.749 5.49961 267.099 5.62461 266.249 5.62461C264.399 10.9246 262.124 15.7246 259.424 20.0246C256.774 24.3246 253.724 27.9746 250.274 30.9746L249.299 30.2996C250.549 27.7996 251.699 24.9246 252.749 21.6746C253.799 18.4246 254.749 14.9996 255.599 11.3996C256.499 7.74961 257.174 4.12461 257.624 0.524608ZM258.524 27.8246C261.924 29.1246 264.574 30.5996 266.474 32.2496C268.374 33.8996 269.699 35.5496 270.449 37.1996C271.199 38.7996 271.499 40.2746 271.349 41.6246C271.249 42.9746 270.799 44.0746 269.999 44.9246C269.249 45.7746 268.299 46.1996 267.149 46.1996C265.999 46.1996 264.799 45.6496 263.549 44.5496C263.449 42.6996 263.099 40.7996 262.499 38.8496C261.899 36.8996 261.174 35.0246 260.324 33.2246C259.524 31.3746 258.674 29.7246 257.774 28.2746L258.524 27.8246ZM260.099 16.4996H283.724V18.5996H258.899L260.099 16.4996ZM279.299 16.4996H278.399L283.274 11.5496L291.374 18.6746C291.074 19.0246 290.649 19.3246 290.099 19.5746C289.599 19.8246 288.899 19.9996 287.999 20.0996C287.799 26.9496 287.524 33.0246 287.174 38.3246C286.874 43.5746 286.474 48.0996 285.974 51.8996C285.474 55.6996 284.824 58.8246 284.024 61.2746C283.224 63.6746 282.274 65.4496 281.174 66.5996C279.774 67.9996 278.174 68.9996 276.374 69.5996C274.574 70.2496 272.324 70.5746 269.624 70.5746C269.674 69.1746 269.549 67.9246 269.249 66.8246C268.999 65.7246 268.549 64.8746 267.899 64.2746C267.149 63.5746 265.974 62.9246 264.374 62.3246C262.824 61.6746 261.074 61.1496 259.124 60.7496L259.199 59.7746C260.549 59.8746 262.024 59.9996 263.624 60.1496C265.224 60.2496 266.724 60.3496 268.124 60.4496C269.524 60.4996 270.574 60.5246 271.274 60.5246C272.024 60.5246 272.599 60.4496 272.999 60.2996C273.449 60.1496 273.874 59.8996 274.274 59.5496C275.024 58.8496 275.674 57.3746 276.224 55.1246C276.774 52.8246 277.249 49.8246 277.649 46.1246C278.049 42.3746 278.374 38.0246 278.624 33.0746C278.874 28.0746 279.099 22.5496 279.299 16.4996ZM232.424 0.299607L243.599 3.97461C243.449 4.42461 243.124 4.79961 242.624 5.09961C242.124 5.39961 241.474 5.52461 240.674 5.47461C238.974 7.77461 237.074 9.97461 234.974 12.0746C232.874 14.1746 230.799 15.9496 228.749 17.3996L227.774 16.7996C228.574 14.7996 229.374 12.2996 230.174 9.29961C231.024 6.24961 231.774 3.24961 232.424 0.299607ZM240.899 9.74961L251.624 13.7996C251.424 14.1996 251.074 14.5246 250.574 14.7746C250.124 15.0246 249.474 15.0996 248.624 14.9996C247.224 16.9496 245.474 19.0996 243.374 21.4496C241.324 23.7996 239.099 26.1496 236.699 28.4996C234.349 30.7996 231.974 32.9246 229.574 34.8746H228.299C229.899 32.4746 231.474 29.8246 233.024 26.9246C234.624 23.9746 236.099 20.9996 237.449 17.9996C238.849 14.9996 239.999 12.2496 240.899 9.74961ZM220.574 32.6996C222.124 32.6496 224.274 32.5746 227.024 32.4746C229.774 32.3246 232.899 32.1746 236.399 32.0246C239.949 31.8246 243.574 31.5996 247.274 31.3496L247.349 32.3996C244.849 33.2496 241.749 34.2746 238.049 35.4746C234.399 36.6746 230.074 37.9996 225.074 39.4496C224.574 40.3996 223.874 40.9496 222.974 41.0996L220.574 32.6996ZM222.149 12.3746C225.299 12.8746 227.799 13.6246 229.649 14.6246C231.499 15.6246 232.824 16.7246 233.624 17.9246C234.474 19.1246 234.899 20.2746 234.899 21.3746C234.899 22.4746 234.574 23.3996 233.924 24.1496C233.274 24.8996 232.449 25.3496 231.449 25.4996C230.449 25.5996 229.374 25.2496 228.224 24.4496C227.924 23.0996 227.399 21.7246 226.649 20.3246C225.949 18.8746 225.149 17.4996 224.249 16.1996C223.349 14.8996 222.424 13.7996 221.474 12.8996L222.149 12.3746ZM241.574 24.7496C244.674 25.8496 247.074 27.0746 248.774 28.4246C250.524 29.7746 251.749 31.1746 252.449 32.6246C253.149 34.0246 253.424 35.3246 253.274 36.5246C253.174 37.7246 252.774 38.6746 252.074 39.3746C251.374 40.0746 250.499 40.4496 249.449 40.4996C248.399 40.4996 247.324 40.0246 246.224 39.0746C246.024 37.5246 245.624 35.9246 245.024 34.2746C244.474 32.6246 243.824 30.9996 243.074 29.3996C242.324 27.7996 241.574 26.3996 240.824 25.1996L241.574 24.7496ZM242.249 41.6246C245.199 42.8746 247.474 44.2496 249.074 45.7496C250.724 47.2496 251.849 48.7246 252.449 50.1746C253.049 51.5746 253.249 52.8746 253.049 54.0746C252.849 55.2746 252.349 56.2246 251.549 56.9246C250.799 57.6246 249.899 57.9746 248.849 57.9746C247.799 57.9246 246.724 57.3746 245.624 56.3246C245.574 54.7246 245.324 53.0746 244.874 51.3746C244.474 49.6746 243.974 48.0246 243.374 46.4246C242.774 44.8246 242.124 43.3746 241.424 42.0746L242.249 41.6246ZM233.024 34.3496L241.049 33.7496V68.3246C241.049 68.5746 240.449 68.9996 239.249 69.5996C238.099 70.2496 236.499 70.5746 234.449 70.5746H233.024V34.3496ZM224.849 42.3746L234.749 44.6996C234.599 45.1996 234.299 45.5996 233.849 45.8996C233.449 46.1996 232.849 46.3996 232.049 46.4996C230.749 50.0496 229.199 53.3746 227.399 56.4746C225.649 59.5246 223.649 62.0996 221.399 64.1996L220.349 63.5996C221.399 60.8496 222.324 57.5746 223.124 53.7746C223.974 49.9746 224.549 46.1746 224.849 42.3746ZM343.199 68.2496C343.199 68.3996 342.899 68.6746 342.299 69.0746C341.699 69.5246 340.874 69.8996 339.824 70.1996C338.774 70.5496 337.499 70.7246 335.999 70.7246H334.424V26.0996H343.199V68.2496ZM348.149 5.47461L352.274 0.899608L361.049 7.49961C360.799 7.84961 360.399 8.17461 359.849 8.47461C359.299 8.77461 358.599 8.99961 357.749 9.14961V28.2746C357.749 28.4246 357.324 28.6746 356.474 29.0246C355.674 29.3746 354.699 29.6746 353.549 29.9246C352.399 30.1746 351.349 30.2996 350.399 30.2996H348.974V5.47461H348.149ZM328.874 29.4746C328.874 29.7246 328.499 30.0746 327.749 30.5246C326.999 30.9746 326.049 31.3746 324.899 31.7246C323.799 32.0746 322.624 32.2496 321.374 32.2496H320.099V5.47461V1.79961L329.249 5.47461H353.474V7.57461H328.874V29.4746ZM319.874 4.04961C319.724 4.49961 319.399 4.87461 318.899 5.17461C318.399 5.47461 317.724 5.59961 316.874 5.54961C315.074 10.4996 312.999 15.0746 310.649 19.2746C308.299 23.4746 305.724 27.2746 302.924 30.6746C300.124 34.0246 297.074 36.9996 293.774 39.5996L292.874 38.9996C294.874 35.8496 296.799 32.1996 298.649 28.0496C300.549 23.8496 302.274 19.3746 303.824 14.6246C305.424 9.82461 306.699 5.02461 307.649 0.224608L319.874 4.04961ZM313.424 21.9746C313.274 22.3246 313.024 22.6246 312.674 22.8746C312.324 23.0746 311.774 23.2496 311.024 23.3996V68.0996C311.024 68.2996 310.674 68.5996 309.974 68.9996C309.274 69.4496 308.399 69.8246 307.349 70.1246C306.299 70.4746 305.199 70.6496 304.049 70.6496H302.474V23.6996L305.849 19.1996L313.424 21.9746ZM352.874 24.8996V27.0746H324.974V24.8996H352.874ZM343.124 38.0246C344.624 40.9246 346.574 43.6246 348.974 46.1246C351.374 48.5746 353.999 50.7246 356.849 52.5746C359.749 54.4246 362.599 55.8996 365.399 56.9996L365.249 57.8246C363.599 58.2246 362.174 59.0746 360.974 60.3746C359.824 61.6746 358.949 63.3996 358.349 65.5496C355.799 63.5496 353.499 61.2246 351.449 58.5746C349.449 55.8746 347.674 52.8496 346.124 49.4996C344.624 46.0996 343.349 42.4246 342.299 38.4746L343.124 38.0246ZM341.249 39.0746C338.849 44.9246 335.224 50.1496 330.374 54.7496C325.574 59.2996 319.899 63.1246 313.349 66.2246L312.674 65.3246C315.574 63.0246 318.174 60.3746 320.474 57.3746C322.824 54.3746 324.874 51.1996 326.624 47.8496C328.374 44.4996 329.799 41.1746 330.899 37.8746H341.249V39.0746ZM355.274 31.1996C355.274 31.1996 355.574 31.4496 356.174 31.9496C356.774 32.4496 357.524 33.0746 358.424 33.8246C359.374 34.5246 360.349 35.2996 361.349 36.1496C362.349 36.9496 363.274 37.7496 364.124 38.5496C363.924 39.3496 363.224 39.7496 362.024 39.7496H313.499L312.899 37.5746H350.399L355.274 31.1996ZM398.099 7.79961H424.949L429.299 1.94961C429.299 1.94961 429.574 2.17461 430.124 2.62461C430.674 3.02461 431.374 3.5746 432.224 4.2746C433.074 4.9746 433.949 5.72461 434.849 6.52461C435.799 7.32461 436.624 8.04961 437.324 8.69961C437.174 9.49961 436.499 9.89961 435.299 9.89961H398.624L398.099 7.79961ZM394.499 64.7996H425.999L430.574 58.7246C430.574 58.7246 430.849 58.9496 431.399 59.3996C431.949 59.8496 432.649 60.4496 433.499 61.1996C434.349 61.8996 435.249 62.6496 436.199 63.4496C437.149 64.2496 437.974 65.0246 438.674 65.7746C438.524 66.5746 437.849 66.9746 436.649 66.9746H395.099L394.499 64.7996ZM413.699 7.79961H422.099V66.1496H413.699V7.79961ZM417.824 33.7496H425.399L429.524 27.7496C429.524 27.7496 429.774 27.9746 430.274 28.4246C430.774 28.8746 431.399 29.4496 432.149 30.1496C432.949 30.8496 433.774 31.6246 434.624 32.4746C435.474 33.2746 436.224 33.9996 436.874 34.6496C436.674 35.4496 435.999 35.8496 434.849 35.8496H417.824V33.7496ZM399.899 23.0996L410.249 24.0746C410.199 24.5746 409.999 24.9996 409.649 25.3496C409.299 25.6496 408.674 25.8746 407.774 26.0246V65.6246H399.899V23.0996ZM371.174 5.84961H383.924L387.824 0.749605C387.824 0.749605 388.224 1.07461 389.024 1.72461C389.824 2.37461 390.774 3.17461 391.874 4.12461C393.024 5.07461 394.024 5.94961 394.874 6.74961C394.674 7.54961 394.024 7.94961 392.924 7.94961H371.774L371.174 5.84961ZM370.949 25.0496H384.524L388.274 20.0996C388.274 20.0996 388.649 20.4246 389.399 21.0746C390.199 21.7246 391.124 22.4996 392.174 23.3996C393.224 24.2996 394.174 25.1746 395.024 26.0246C394.874 26.7746 394.224 27.1496 393.074 27.1496H371.549L370.949 25.0496ZM370.949 34.7996H384.524L388.274 29.8496C388.274 29.8496 388.649 30.1746 389.399 30.8246C390.199 31.4746 391.124 32.2496 392.174 33.1496C393.224 34.0496 394.174 34.9246 395.024 35.7746C394.874 36.5246 394.224 36.8996 393.074 36.8996H371.549L370.949 34.7996ZM367.424 15.2996H387.749L391.649 10.1996C391.649 10.1996 392.049 10.5246 392.849 11.1746C393.649 11.8246 394.599 12.6246 395.699 13.5746C396.849 14.5246 397.874 15.4246 398.774 16.2746C398.574 17.0746 397.899 17.4746 396.749 17.4746H368.024L367.424 15.2996ZM370.949 44.9246V41.6996L379.049 44.9246H390.299V47.0996H378.749V68.1746C378.749 68.3746 378.424 68.6746 377.774 69.0746C377.124 69.4746 376.299 69.8246 375.299 70.1246C374.299 70.4746 373.224 70.6496 372.074 70.6496H370.949V44.9246ZM385.874 44.9246H385.199L388.799 41.0246L396.524 46.8746C396.274 47.1246 395.899 47.3996 395.399 47.6996C394.949 47.9496 394.374 48.1246 393.674 48.2246V65.5496C393.674 65.7496 393.299 66.0246 392.549 66.3746C391.849 66.7246 390.999 67.0496 389.999 67.3496C389.049 67.6496 388.099 67.7996 387.149 67.7996H385.874V44.9246ZM374.924 61.1996H390.149V63.3746H374.924V61.1996ZM452.099 65.0996C450.349 65.0996 448.874 64.4996 447.674 63.2996C446.474 62.0996 445.874 60.6496 445.874 58.9496C445.874 57.2496 446.474 55.7996 447.674 54.5996C448.874 53.3996 450.349 52.7996 452.099 52.7996C453.899 52.7996 455.399 53.3996 456.599 54.5996C457.799 55.7996 458.399 57.2496 458.399 58.9496C458.399 60.6496 457.799 62.0996 456.599 63.2996C455.399 64.4996 453.899 65.0996 452.099 65.0996ZM452.099 7.27461C453.949 7.27461 455.424 7.79961 456.524 8.84961C457.674 9.89961 458.249 11.4496 458.249 13.4996C458.249 15.3496 457.974 17.8246 457.424 20.9246C456.924 24.0246 456.074 28.3246 454.874 33.8246L453.224 45.4496H450.974L449.474 33.8246C448.274 28.3246 447.399 24.0246 446.849 20.9246C446.299 17.8246 446.024 15.3496 446.024 13.4996C446.024 11.4496 446.574 9.89961 447.674 8.84961C448.774 7.79961 450.249 7.27461 452.099 7.27461ZM477.259 65.0996C475.509 65.0996 474.034 64.4996 472.834 63.2996C471.634 62.0996 471.034 60.6496 471.034 58.9496C471.034 57.2496 471.634 55.7996 472.834 54.5996C474.034 53.3996 475.509 52.7996 477.259 52.7996C479.059 52.7996 480.559 53.3996 481.759 54.5996C482.959 55.7996 483.559 57.2496 483.559 58.9496C483.559 60.6496 482.959 62.0996 481.759 63.2996C480.559 64.4996 479.059 65.0996 477.259 65.0996ZM477.259 7.27461C479.109 7.27461 480.584 7.79961 481.684 8.84961C482.834 9.89961 483.409 11.4496 483.409 13.4996C483.409 15.3496 483.134 17.8246 482.584 20.9246C482.084 24.0246 481.234 28.3246 480.034 33.8246L478.384 45.4496H476.134L474.634 33.8246C473.434 28.3246 472.559 24.0246 472.009 20.9246C471.459 17.8246 471.184 15.3496 471.184 13.4996C471.184 11.4496 471.734 9.89961 472.834 8.84961C473.934 7.79961 475.409 7.27461 477.259 7.27461Z" fill="#FF5DCA"/>
<path d="M21.7492 6.29961H56.9242V8.39961H22.4242L21.7492 6.29961ZM20.6992 29.6246H42.8242L46.9492 23.8496C46.9492 23.8496 47.3742 24.2246 48.2242 24.9746C49.0742 25.6746 50.0742 26.5496 51.2242 27.5996C52.3742 28.6496 53.3992 29.6246 54.2992 30.5246C54.0992 31.3246 53.3992 31.7246 52.1992 31.7246H21.2992L20.6992 29.6246ZM32.8492 9.67461L43.9492 10.7996C43.8992 11.2996 43.6742 11.7496 43.2742 12.1496C42.8742 12.4996 42.1742 12.7246 41.1742 12.8246V55.8746C41.1742 56.1246 40.8242 56.4496 40.1242 56.8496C39.4242 57.2496 38.5492 57.5996 37.4992 57.8996C36.4992 58.1996 35.4492 58.3496 34.3492 58.3496H32.8492V9.67461ZM52.7992 6.29961H51.9742L56.1742 1.57461L64.4992 8.24961C64.2992 8.49961 63.9242 8.74961 63.3742 8.99961C62.8242 9.24961 62.1492 9.44961 61.3492 9.59961C61.1492 11.9996 61.0242 14.6496 60.9742 17.5496C60.9242 20.4496 60.9492 23.3996 61.0492 26.3996C61.1992 29.3496 61.4242 32.1746 61.7242 34.8746C62.0242 37.5246 62.4242 39.8496 62.9242 41.8496C63.4242 43.7996 64.0742 45.1996 64.8742 46.0496C65.1742 46.3496 65.4242 46.4746 65.6242 46.4246C65.8242 46.3246 65.9992 46.0496 66.1492 45.5996C66.5992 44.4996 66.9992 43.3246 67.3492 42.0746C67.7492 40.7746 68.1242 39.4496 68.4742 38.0996L69.2992 38.2496L68.5492 49.7246C69.3492 51.4746 69.7992 52.9996 69.8992 54.2996C70.0492 55.5996 69.7992 56.5746 69.1492 57.2246C68.3492 58.0246 67.4242 58.4246 66.3742 58.4246C65.3242 58.4246 64.2742 58.1496 63.2242 57.5996C62.2242 56.9996 61.2992 56.2746 60.4492 55.4246C58.5492 53.5246 57.0492 50.8246 55.9492 47.3246C54.8492 43.7746 54.0742 39.7496 53.6242 35.2496C53.1742 30.7496 52.8992 26.0246 52.7992 21.0746C52.6992 16.0746 52.6992 11.1496 52.7992 6.29961ZM18.1492 54.9746C19.4492 56.2746 20.7742 57.3246 22.1242 58.1246C23.4742 58.8746 25.0242 59.4496 26.7742 59.8496C28.5742 60.2496 30.6992 60.5246 33.1492 60.6746C35.5992 60.7746 38.5242 60.8246 41.9242 60.8246C44.6742 60.8246 47.6992 60.8246 50.9992 60.8246C54.2992 60.8246 57.6242 60.7996 60.9742 60.7496C64.3742 60.6996 67.5992 60.6246 70.6492 60.5246V61.4246C67.2492 62.2746 65.3492 64.7746 64.9492 68.9246C62.8492 68.9246 60.4742 68.9246 57.8242 68.9246C55.1742 68.9246 52.4742 68.9246 49.7242 68.9246C47.0242 68.9246 44.4242 68.9246 41.9242 68.9246C38.4242 68.9246 35.3992 68.7496 32.8492 68.3996C30.2992 68.0496 28.0742 67.3996 26.1742 66.4496C24.3242 65.5496 22.6742 64.2746 21.2242 62.6246C19.8242 60.9246 18.4992 58.7496 17.2492 56.0996C16.1492 57.4996 14.9242 58.9996 13.5742 60.5996C12.2242 62.1496 10.8742 63.6496 9.52422 65.0996C8.22422 66.5496 7.02422 67.7746 5.92422 68.7746C5.97422 69.2746 5.87422 69.6746 5.62422 69.9746C5.42422 70.2746 5.12422 70.5246 4.72422 70.7246L-0.000781173 60.8246C1.49922 60.3246 3.29922 59.6996 5.39922 58.9496C7.49922 58.1496 9.67422 57.2746 11.9242 56.3246C14.1742 55.3746 16.2492 54.4996 18.1492 53.6996V54.9746ZM18.1492 36.2996V54.7496L9.89922 59.2496V35.1746H0.524219L0.0742188 32.9996H8.69922L12.8992 27.4496L21.9742 34.7246C21.6742 35.0246 21.2242 35.3246 20.6242 35.6246C20.0242 35.9246 19.1992 36.1496 18.1492 36.2996ZM3.97422 2.62461C7.72422 3.22461 10.6992 4.14961 12.8992 5.39961C15.0992 6.59961 16.6492 7.92461 17.5492 9.37461C18.4992 10.8246 18.9492 12.2246 18.8992 13.5746C18.8492 14.8746 18.4492 15.9746 17.6992 16.8746C16.9492 17.7746 15.9492 18.2996 14.6992 18.4496C13.4992 18.5496 12.1992 18.0746 10.7992 17.0246C10.5492 15.3746 10.0242 13.7246 9.22422 12.0746C8.42422 10.3746 7.52422 8.74961 6.52422 7.19961C5.52422 5.59961 4.47422 4.22461 3.37422 3.07461L3.97422 2.62461ZM121.649 38.1746C125.899 38.6246 129.399 39.3996 132.149 40.4996C134.899 41.5496 136.999 42.7746 138.449 44.1746C139.949 45.5246 140.874 46.8746 141.224 48.2246C141.624 49.5746 141.599 50.7496 141.149 51.7496C140.699 52.7496 139.924 53.4496 138.824 53.8496C137.774 54.1996 136.524 54.0746 135.074 53.4746C134.324 52.2246 133.374 50.9246 132.224 49.5746C131.124 48.2246 129.924 46.8996 128.624 45.5996C127.374 44.2996 126.099 43.0746 124.799 41.9246C123.499 40.7246 122.249 39.6746 121.049 38.7746L121.649 38.1746ZM94.5742 10.0496H129.599L134.399 4.12461C134.399 4.12461 134.674 4.34961 135.224 4.79961C135.824 5.24961 136.574 5.82461 137.474 6.52461C138.374 7.22461 139.324 7.97461 140.324 8.7746C141.324 9.52461 142.224 10.2496 143.024 10.9496C142.874 11.7496 142.174 12.1496 140.924 12.1496H95.1742L94.5742 10.0496ZM130.424 19.3496H129.674L133.499 15.0746L141.824 21.3746C141.624 21.6746 141.249 21.9746 140.699 22.2746C140.199 22.5246 139.574 22.7246 138.824 22.8746V34.6496C138.824 34.8496 138.424 35.1246 137.624 35.4746C136.824 35.8246 135.899 36.1496 134.849 36.4496C133.799 36.7496 132.799 36.8996 131.849 36.8996H130.424V19.3496ZM102.299 32.0996H133.724V34.1996H102.299V32.0996ZM97.2742 19.3496V15.8996L106.049 19.3496H132.374V21.5246H105.599V35.7746C105.599 36.0246 105.224 36.3496 104.474 36.7496C103.774 37.1496 102.874 37.5246 101.774 37.8746C100.724 38.1746 99.6242 38.3246 98.4742 38.3246H97.2742V19.3496ZM113.549 -0.000393987L124.874 1.1246C124.824 1.6246 124.599 2.0746 124.199 2.47461C123.849 2.82461 123.149 3.07461 122.099 3.2246V56.5496C122.099 56.8496 121.749 57.2246 121.049 57.6746C120.349 58.1246 119.474 58.5246 118.424 58.8746C117.374 59.1746 116.299 59.3246 115.199 59.3246H113.549V-0.000393987ZM111.449 32.0996H121.349V33.2996C118.699 38.1496 114.949 42.3996 110.099 46.0496C105.249 49.6996 99.6492 52.6996 93.2992 55.0496L92.6992 54.1496C96.9992 51.3996 100.749 48.0746 103.949 44.1746C107.199 40.2246 109.699 36.1996 111.449 32.0996ZM91.6492 54.9746C92.9492 56.2746 94.2742 57.3246 95.6242 58.1246C97.0242 58.8746 98.6242 59.4496 100.424 59.8496C102.224 60.2496 104.349 60.5246 106.799 60.6746C109.249 60.7746 112.199 60.8246 115.649 60.8246C118.499 60.8246 121.599 60.8246 124.949 60.8246C128.299 60.8246 131.674 60.7996 135.074 60.7496C138.524 60.6996 141.799 60.6246 144.899 60.5246V61.4246C141.449 62.3746 139.524 64.8746 139.124 68.9246C136.974 68.9246 134.549 68.9246 131.849 68.9246C129.199 68.9246 126.474 68.9246 123.674 68.9246C120.924 68.9246 118.299 68.9246 115.799 68.9246C112.199 68.9246 109.099 68.7496 106.499 68.3996C103.949 68.0496 101.724 67.3996 99.8242 66.4496C97.9242 65.5496 96.2492 64.2746 94.7992 62.6246C93.3492 60.9246 91.9992 58.7496 90.7492 56.0996C89.6492 57.4996 88.4242 58.9996 87.0742 60.5996C85.7242 62.1496 84.3742 63.6496 83.0242 65.0996C81.7242 66.5496 80.5242 67.7746 79.4242 68.7746C79.4742 69.2746 79.3742 69.6746 79.1242 69.9746C78.9242 70.2746 78.6242 70.5246 78.2242 70.7246L73.4992 60.8246C74.9992 60.3246 76.7992 59.6996 78.8992 58.9496C80.9992 58.1496 83.1742 57.2746 85.4242 56.3246C87.6742 55.3746 89.7492 54.4996 91.6492 53.6996V54.9746ZM91.6492 36.2996V54.7496L83.3992 59.2496V35.1746H74.0242L73.5742 32.9996H82.1992L86.3992 27.4496L95.4742 34.7246C95.1742 35.0246 94.7242 35.3246 94.1242 35.6246C93.5242 35.9246 92.6992 36.1496 91.6492 36.2996ZM76.7992 2.62461C80.5492 3.22461 83.5242 4.14961 85.7242 5.39961C87.9742 6.59961 89.5492 7.92461 90.4492 9.37461C91.3992 10.7746 91.8492 12.1496 91.7992 13.4996C91.7992 14.8496 91.3992 15.9746 90.5992 16.8746C89.8492 17.7246 88.8742 18.2246 87.6742 18.3746C86.4742 18.4746 85.1492 18.0246 83.6992 17.0246C83.4492 15.3746 82.9242 13.7246 82.1242 12.0746C81.3242 10.3746 80.3992 8.74961 79.3492 7.19961C78.3492 5.59961 77.2992 4.22461 76.1992 3.07461L76.7992 2.62461ZM177.674 29.9246H186.824V59.6246C186.824 61.6746 186.524 63.4746 185.924 65.0246C185.324 66.5746 184.099 67.8246 182.249 68.7746C180.449 69.7746 177.674 70.4246 173.924 70.7246C173.874 69.2746 173.649 67.9996 173.249 66.8996C172.899 65.7996 172.349 64.9246 171.599 64.2746C170.799 63.5746 169.774 62.9746 168.524 62.4746C167.274 61.9246 165.399 61.4746 162.899 61.1246V60.1496C162.899 60.1496 163.449 60.1996 164.549 60.2996C165.699 60.3496 167.049 60.4246 168.599 60.5246C170.149 60.6246 171.624 60.6996 173.024 60.7496C174.424 60.7996 175.374 60.8246 175.874 60.8246C176.574 60.8246 177.049 60.6996 177.299 60.4496C177.549 60.1996 177.674 59.8246 177.674 59.3246V29.9246ZM166.949 14.0246C171.549 14.2746 175.374 14.8496 178.424 15.7496C181.474 16.5996 183.899 17.6246 185.699 18.8246C187.549 20.0246 188.849 21.2746 189.599 22.5746C190.349 23.8746 190.674 25.1246 190.574 26.3246C190.524 27.4746 190.149 28.4496 189.449 29.2496C188.749 30.0496 187.849 30.5496 186.749 30.7496C185.649 30.9496 184.449 30.7246 183.149 30.0746C182.449 28.7746 181.324 27.2746 179.774 25.5746C178.274 23.8246 176.399 22.0246 174.149 20.1746C171.949 18.2746 169.449 16.5246 166.649 14.9246L166.949 14.0246ZM197.249 6.59961H196.349L201.449 1.79961L209.699 9.67461C209.349 9.97461 208.949 10.1996 208.499 10.3496C208.049 10.4496 207.374 10.5246 206.474 10.5746C204.974 11.4246 203.249 12.3496 201.299 13.3496C199.349 14.2996 197.274 15.2246 195.074 16.1246C192.924 17.0246 190.774 17.8746 188.624 18.6746C186.474 19.4246 184.499 20.0996 182.699 20.6996L182.099 20.0996C183.349 19.2496 184.674 18.2496 186.074 17.0996C187.524 15.8996 188.949 14.6996 190.349 13.4996C191.749 12.2496 193.049 11.0246 194.249 9.8246C195.449 8.62461 196.449 7.54961 197.249 6.59961ZM205.124 29.9246H204.224L209.324 24.8996L217.949 33.0746C217.599 33.4246 217.199 33.6746 216.749 33.8246C216.299 33.9246 215.649 33.9996 214.799 34.0496C213.299 35.5496 211.499 37.1996 209.399 38.9996C207.299 40.7496 205.074 42.4246 202.724 44.0246C200.424 45.6246 198.224 47.0246 196.124 48.2246L195.524 47.6246C196.674 45.9746 197.849 44.0996 199.049 41.9996C200.299 39.8496 201.474 37.6996 202.574 35.5496C203.674 33.3996 204.524 31.5246 205.124 29.9246ZM156.299 6.59961H201.899V8.69961H156.974L156.299 6.59961ZM147.224 29.9246H210.599V32.0246H147.899L147.224 29.9246ZM257.624 0.524608L269.174 4.04961C268.974 4.54961 268.649 4.94961 268.199 5.24961C267.749 5.49961 267.099 5.62461 266.249 5.62461C264.399 10.9246 262.124 15.7246 259.424 20.0246C256.774 24.3246 253.724 27.9746 250.274 30.9746L249.299 30.2996C250.549 27.7996 251.699 24.9246 252.749 21.6746C253.799 18.4246 254.749 14.9996 255.599 11.3996C256.499 7.74961 257.174 4.12461 257.624 0.524608ZM258.524 27.8246C261.924 29.1246 264.574 30.5996 266.474 32.2496C268.374 33.8996 269.699 35.5496 270.449 37.1996C271.199 38.7996 271.499 40.2746 271.349 41.6246C271.249 42.9746 270.799 44.0746 269.999 44.9246C269.249 45.7746 268.299 46.1996 267.149 46.1996C265.999 46.1996 264.799 45.6496 263.549 44.5496C263.449 42.6996 263.099 40.7996 262.499 38.8496C261.899 36.8996 261.174 35.0246 260.324 33.2246C259.524 31.3746 258.674 29.7246 257.774 28.2746L258.524 27.8246ZM260.099 16.4996H283.724V18.5996H258.899L260.099 16.4996ZM279.299 16.4996H278.399L283.274 11.5496L291.374 18.6746C291.074 19.0246 290.649 19.3246 290.099 19.5746C289.599 19.8246 288.899 19.9996 287.999 20.0996C287.799 26.9496 287.524 33.0246 287.174 38.3246C286.874 43.5746 286.474 48.0996 285.974 51.8996C285.474 55.6996 284.824 58.8246 284.024 61.2746C283.224 63.6746 282.274 65.4496 281.174 66.5996C279.774 67.9996 278.174 68.9996 276.374 69.5996C274.574 70.2496 272.324 70.5746 269.624 70.5746C269.674 69.1746 269.549 67.9246 269.249 66.8246C268.999 65.7246 268.549 64.8746 267.899 64.2746C267.149 63.5746 265.974 62.9246 264.374 62.3246C262.824 61.6746 261.074 61.1496 259.124 60.7496L259.199 59.7746C260.549 59.8746 262.024 59.9996 263.624 60.1496C265.224 60.2496 266.724 60.3496 268.124 60.4496C269.524 60.4996 270.574 60.5246 271.274 60.5246C272.024 60.5246 272.599 60.4496 272.999 60.2996C273.449 60.1496 273.874 59.8996 274.274 59.5496C275.024 58.8496 275.674 57.3746 276.224 55.1246C276.774 52.8246 277.249 49.8246 277.649 46.1246C278.049 42.3746 278.374 38.0246 278.624 33.0746C278.874 28.0746 279.099 22.5496 279.299 16.4996ZM232.424 0.299607L243.599 3.97461C243.449 4.42461 243.124 4.79961 242.624 5.09961C242.124 5.39961 241.474 5.52461 240.674 5.47461C238.974 7.77461 237.074 9.97461 234.974 12.0746C232.874 14.1746 230.799 15.9496 228.749 17.3996L227.774 16.7996C228.574 14.7996 229.374 12.2996 230.174 9.29961C231.024 6.24961 231.774 3.24961 232.424 0.299607ZM240.899 9.74961L251.624 13.7996C251.424 14.1996 251.074 14.5246 250.574 14.7746C250.124 15.0246 249.474 15.0996 248.624 14.9996C247.224 16.9496 245.474 19.0996 243.374 21.4496C241.324 23.7996 239.099 26.1496 236.699 28.4996C234.349 30.7996 231.974 32.9246 229.574 34.8746H228.299C229.899 32.4746 231.474 29.8246 233.024 26.9246C234.624 23.9746 236.099 20.9996 237.449 17.9996C238.849 14.9996 239.999 12.2496 240.899 9.74961ZM220.574 32.6996C222.124 32.6496 224.274 32.5746 227.024 32.4746C229.774 32.3246 232.899 32.1746 236.399 32.0246C239.949 31.8246 243.574 31.5996 247.274 31.3496L247.349 32.3996C244.849 33.2496 241.749 34.2746 238.049 35.4746C234.399 36.6746 230.074 37.9996 225.074 39.4496C224.574 40.3996 223.874 40.9496 222.974 41.0996L220.574 32.6996ZM222.149 12.3746C225.299 12.8746 227.799 13.6246 229.649 14.6246C231.499 15.6246 232.824 16.7246 233.624 17.9246C234.474 19.1246 234.899 20.2746 234.899 21.3746C234.899 22.4746 234.574 23.3996 233.924 24.1496C233.274 24.8996 232.449 25.3496 231.449 25.4996C230.449 25.5996 229.374 25.2496 228.224 24.4496C227.924 23.0996 227.399 21.7246 226.649 20.3246C225.949 18.8746 225.149 17.4996 224.249 16.1996C223.349 14.8996 222.424 13.7996 221.474 12.8996L222.149 12.3746ZM241.574 24.7496C244.674 25.8496 247.074 27.0746 248.774 28.4246C250.524 29.7746 251.749 31.1746 252.449 32.6246C253.149 34.0246 253.424 35.3246 253.274 36.5246C253.174 37.7246 252.774 38.6746 252.074 39.3746C251.374 40.0746 250.499 40.4496 249.449 40.4996C248.399 40.4996 247.324 40.0246 246.224 39.0746C246.024 37.5246 245.624 35.9246 245.024 34.2746C244.474 32.6246 243.824 30.9996 243.074 29.3996C242.324 27.7996 241.574 26.3996 240.824 25.1996L241.574 24.7496ZM242.249 41.6246C245.199 42.8746 247.474 44.2496 249.074 45.7496C250.724 47.2496 251.849 48.7246 252.449 50.1746C253.049 51.5746 253.249 52.8746 253.049 54.0746C252.849 55.2746 252.349 56.2246 251.549 56.9246C250.799 57.6246 249.899 57.9746 248.849 57.9746C247.799 57.9246 246.724 57.3746 245.624 56.3246C245.574 54.7246 245.324 53.0746 244.874 51.3746C244.474 49.6746 243.974 48.0246 243.374 46.4246C242.774 44.8246 242.124 43.3746 241.424 42.0746L242.249 41.6246ZM233.024 34.3496L241.049 33.7496V68.3246C241.049 68.5746 240.449 68.9996 239.249 69.5996C238.099 70.2496 236.499 70.5746 234.449 70.5746H233.024V34.3496ZM224.849 42.3746L234.749 44.6996C234.599 45.1996 234.299 45.5996 233.849 45.8996C233.449 46.1996 232.849 46.3996 232.049 46.4996C230.749 50.0496 229.199 53.3746 227.399 56.4746C225.649 59.5246 223.649 62.0996 221.399 64.1996L220.349 63.5996C221.399 60.8496 222.324 57.5746 223.124 53.7746C223.974 49.9746 224.549 46.1746 224.849 42.3746ZM343.199 68.2496C343.199 68.3996 342.899 68.6746 342.299 69.0746C341.699 69.5246 340.874 69.8996 339.824 70.1996C338.774 70.5496 337.499 70.7246 335.999 70.7246H334.424V26.0996H343.199V68.2496ZM348.149 5.47461L352.274 0.899608L361.049 7.49961C360.799 7.84961 360.399 8.17461 359.849 8.47461C359.299 8.77461 358.599 8.99961 357.749 9.14961V28.2746C357.749 28.4246 357.324 28.6746 356.474 29.0246C355.674 29.3746 354.699 29.6746 353.549 29.9246C352.399 30.1746 351.349 30.2996 350.399 30.2996H348.974V5.47461H348.149ZM328.874 29.4746C328.874 29.7246 328.499 30.0746 327.749 30.5246C326.999 30.9746 326.049 31.3746 324.899 31.7246C323.799 32.0746 322.624 32.2496 321.374 32.2496H320.099V5.47461V1.79961L329.249 5.47461H353.474V7.57461H328.874V29.4746ZM319.874 4.04961C319.724 4.49961 319.399 4.87461 318.899 5.17461C318.399 5.47461 317.724 5.59961 316.874 5.54961C315.074 10.4996 312.999 15.0746 310.649 19.2746C308.299 23.4746 305.724 27.2746 302.924 30.6746C300.124 34.0246 297.074 36.9996 293.774 39.5996L292.874 38.9996C294.874 35.8496 296.799 32.1996 298.649 28.0496C300.549 23.8496 302.274 19.3746 303.824 14.6246C305.424 9.82461 306.699 5.02461 307.649 0.224608L319.874 4.04961ZM313.424 21.9746C313.274 22.3246 313.024 22.6246 312.674 22.8746C312.324 23.0746 311.774 23.2496 311.024 23.3996V68.0996C311.024 68.2996 310.674 68.5996 309.974 68.9996C309.274 69.4496 308.399 69.8246 307.349 70.1246C306.299 70.4746 305.199 70.6496 304.049 70.6496H302.474V23.6996L305.849 19.1996L313.424 21.9746ZM352.874 24.8996V27.0746H324.974V24.8996H352.874ZM343.124 38.0246C344.624 40.9246 346.574 43.6246 348.974 46.1246C351.374 48.5746 353.999 50.7246 356.849 52.5746C359.749 54.4246 362.599 55.8996 365.399 56.9996L365.249 57.8246C363.599 58.2246 362.174 59.0746 360.974 60.3746C359.824 61.6746 358.949 63.3996 358.349 65.5496C355.799 63.5496 353.499 61.2246 351.449 58.5746C349.449 55.8746 347.674 52.8496 346.124 49.4996C344.624 46.0996 343.349 42.4246 342.299 38.4746L343.124 38.0246ZM341.249 39.0746C338.849 44.9246 335.224 50.1496 330.374 54.7496C325.574 59.2996 319.899 63.1246 313.349 66.2246L312.674 65.3246C315.574 63.0246 318.174 60.3746 320.474 57.3746C322.824 54.3746 324.874 51.1996 326.624 47.8496C328.374 44.4996 329.799 41.1746 330.899 37.8746H341.249V39.0746ZM355.274 31.1996C355.274 31.1996 355.574 31.4496 356.174 31.9496C356.774 32.4496 357.524 33.0746 358.424 33.8246C359.374 34.5246 360.349 35.2996 361.349 36.1496C362.349 36.9496 363.274 37.7496 364.124 38.5496C363.924 39.3496 363.224 39.7496 362.024 39.7496H313.499L312.899 37.5746H350.399L355.274 31.1996ZM398.099 7.79961H424.949L429.299 1.94961C429.299 1.94961 429.574 2.17461 430.124 2.62461C430.674 3.02461 431.374 3.5746 432.224 4.2746C433.074 4.9746 433.949 5.72461 434.849 6.52461C435.799 7.32461 436.624 8.04961 437.324 8.69961C437.174 9.49961 436.499 9.89961 435.299 9.89961H398.624L398.099 7.79961ZM394.499 64.7996H425.999L430.574 58.7246C430.574 58.7246 430.849 58.9496 431.399 59.3996C431.949 59.8496 432.649 60.4496 433.499 61.1996C434.349 61.8996 435.249 62.6496 436.199 63.4496C437.149 64.2496 437.974 65.0246 438.674 65.7746C438.524 66.5746 437.849 66.9746 436.649 66.9746H395.099L394.499 64.7996ZM413.699 7.79961H422.099V66.1496H413.699V7.79961ZM417.824 33.7496H425.399L429.524 27.7496C429.524 27.7496 429.774 27.9746 430.274 28.4246C430.774 28.8746 431.399 29.4496 432.149 30.1496C432.949 30.8496 433.774 31.6246 434.624 32.4746C435.474 33.2746 436.224 33.9996 436.874 34.6496C436.674 35.4496 435.999 35.8496 434.849 35.8496H417.824V33.7496ZM399.899 23.0996L410.249 24.0746C410.199 24.5746 409.999 24.9996 409.649 25.3496C409.299 25.6496 408.674 25.8746 407.774 26.0246V65.6246H399.899V23.0996ZM371.174 5.84961H383.924L387.824 0.749605C387.824 0.749605 388.224 1.07461 389.024 1.72461C389.824 2.37461 390.774 3.17461 391.874 4.12461C393.024 5.07461 394.024 5.94961 394.874 6.74961C394.674 7.54961 394.024 7.94961 392.924 7.94961H371.774L371.174 5.84961ZM370.949 25.0496H384.524L388.274 20.0996C388.274 20.0996 388.649 20.4246 389.399 21.0746C390.199 21.7246 391.124 22.4996 392.174 23.3996C393.224 24.2996 394.174 25.1746 395.024 26.0246C394.874 26.7746 394.224 27.1496 393.074 27.1496H371.549L370.949 25.0496ZM370.949 34.7996H384.524L388.274 29.8496C388.274 29.8496 388.649 30.1746 389.399 30.8246C390.199 31.4746 391.124 32.2496 392.174 33.1496C393.224 34.0496 394.174 34.9246 395.024 35.7746C394.874 36.5246 394.224 36.8996 393.074 36.8996H371.549L370.949 34.7996ZM367.424 15.2996H387.749L391.649 10.1996C391.649 10.1996 392.049 10.5246 392.849 11.1746C393.649 11.8246 394.599 12.6246 395.699 13.5746C396.849 14.5246 397.874 15.4246 398.774 16.2746C398.574 17.0746 397.899 17.4746 396.749 17.4746H368.024L367.424 15.2996ZM370.949 44.9246V41.6996L379.049 44.9246H390.299V47.0996H378.749V68.1746C378.749 68.3746 378.424 68.6746 377.774 69.0746C377.124 69.4746 376.299 69.8246 375.299 70.1246C374.299 70.4746 373.224 70.6496 372.074 70.6496H370.949V44.9246ZM385.874 44.9246H385.199L388.799 41.0246L396.524 46.8746C396.274 47.1246 395.899 47.3996 395.399 47.6996C394.949 47.9496 394.374 48.1246 393.674 48.2246V65.5496C393.674 65.7496 393.299 66.0246 392.549 66.3746C391.849 66.7246 390.999 67.0496 389.999 67.3496C389.049 67.6496 388.099 67.7996 387.149 67.7996H385.874V44.9246ZM374.924 61.1996H390.149V63.3746H374.924V61.1996ZM452.099 65.0996C450.349 65.0996 448.874 64.4996 447.674 63.2996C446.474 62.0996 445.874 60.6496 445.874 58.9496C445.874 57.2496 446.474 55.7996 447.674 54.5996C448.874 53.3996 450.349 52.7996 452.099 52.7996C453.899 52.7996 455.399 53.3996 456.599 54.5996C457.799 55.7996 458.399 57.2496 458.399 58.9496C458.399 60.6496 457.799 62.0996 456.599 63.2996C455.399 64.4996 453.899 65.0996 452.099 65.0996ZM452.099 7.27461C453.949 7.27461 455.424 7.79961 456.524 8.84961C457.674 9.89961 458.249 11.4496 458.249 13.4996C458.249 15.3496 457.974 17.8246 457.424 20.9246C456.924 24.0246 456.074 28.3246 454.874 33.8246L453.224 45.4496H450.974L449.474 33.8246C448.274 28.3246 447.399 24.0246 446.849 20.9246C446.299 17.8246 446.024 15.3496 446.024 13.4996C446.024 11.4496 446.574 9.89961 447.674 8.84961C448.774 7.79961 450.249 7.27461 452.099 7.27461ZM477.259 65.0996C475.509 65.0996 474.034 64.4996 472.834 63.2996C471.634 62.0996 471.034 60.6496 471.034 58.9496C471.034 57.2496 471.634 55.7996 472.834 54.5996C474.034 53.3996 475.509 52.7996 477.259 52.7996C479.059 52.7996 480.559 53.3996 481.759 54.5996C482.959 55.7996 483.559 57.2496 483.559 58.9496C483.559 60.6496 482.959 62.0996 481.759 63.2996C480.559 64.4996 479.059 65.0996 477.259 65.0996ZM477.259 7.27461C479.109 7.27461 480.584 7.79961 481.684 8.84961C482.834 9.89961 483.409 11.4496 483.409 13.4996C483.409 15.3496 483.134 17.8246 482.584 20.9246C482.084 24.0246 481.234 28.3246 480.034 33.8246L478.384 45.4496H476.134L474.634 33.8246C473.434 28.3246 472.559 24.0246 472.009 20.9246C471.459 17.8246 471.184 15.3496 471.184 13.4996C471.184 11.4496 471.734 9.89961 472.834 8.84961C473.934 7.79961 475.409 7.27461 477.259 7.27461Z" fill="url(#paint0_linear_2709_30383)"/>
<defs>
<linearGradient id="paint0_linear_2709_30383" x1="88.5917" y1="12.4098" x2="451.236" y2="164.905" gradientUnits="userSpaceOnUse">
<stop stop-color="#3E57E2"/>
<stop offset="0.4" stop-color="#B133FF"/>
<stop offset="1" stop-color="#FF5DCA"/>
</linearGradient>
</defs>
</svg>
