<svg width="485" height="72" viewBox="0 0 485 72" fill="none" xmlns="http://www.w3.org/2000/svg">
<path d="M49.1977 45.15C53.6477 47 57.2477 49.025 59.9977 51.225C62.7477 53.425 64.7727 55.6 66.0727 57.75C67.4227 59.85 68.1727 61.775 68.3227 63.525C68.5227 65.275 68.2977 66.7 67.6477 67.8C66.9977 68.95 66.0477 69.6 64.7977 69.75C63.5977 69.9 62.2727 69.4 60.8227 68.25C60.3227 66.4 59.6227 64.475 58.7227 62.475C57.8727 60.475 56.8727 58.5 55.7227 56.55C54.5727 54.55 53.3477 52.625 52.0477 50.775C50.7977 48.925 49.5727 47.2 48.3727 45.6L49.1977 45.15ZM49.3477 1.575C49.2977 2.075 49.0727 2.525 48.6727 2.925C48.2727 3.325 47.5727 3.575 46.5727 3.675V28.725C46.5727 33.125 46.1977 37.375 45.4477 41.475C44.6977 45.575 43.4227 49.475 41.6227 53.175C39.8727 56.825 37.3977 60.15 34.1977 63.15C31.0477 66.1 27.0227 68.625 22.1227 70.725L21.4477 69.975C24.7977 67.425 27.5227 64.6 29.6227 61.5C31.7727 58.35 33.4227 55.025 34.5727 51.525C35.7227 47.975 36.5227 44.3 36.9727 40.5C37.4227 36.65 37.6477 32.725 37.6477 28.725V0.449997L49.3477 1.575ZM52.5727 14.4L56.6977 10.05L64.8727 16.275C64.6727 16.575 64.2977 16.875 63.7477 17.175C63.2477 17.425 62.5977 17.625 61.7977 17.775V38.85H53.3227V14.4H52.5727ZM65.3227 32.025C65.3227 32.025 65.7227 32.425 66.5227 33.225C67.3227 33.975 68.2477 34.875 69.2977 35.925C70.3977 36.975 71.3477 37.975 72.1477 38.925C71.9477 39.725 71.2727 40.125 70.1227 40.125H23.7727L23.1727 37.95H61.5727L65.3227 32.025ZM58.4227 14.4V16.575H28.0477L27.3727 14.4H58.4227ZM20.3977 13.8C23.0477 15.35 24.9477 16.95 26.0977 18.6C27.2977 20.2 27.9227 21.7 27.9727 23.1C28.0727 24.5 27.7977 25.65 27.1477 26.55C26.5477 27.4 25.7227 27.875 24.6727 27.975C23.6727 28.075 22.6977 27.6 21.7477 26.55C21.9477 24.5 21.7977 22.35 21.2977 20.1C20.7977 17.8 20.1977 15.825 19.4977 14.175L20.3977 13.8ZM6.67266 14.625C8.22266 18.725 8.94766 22.375 8.84766 25.575C8.79766 28.725 8.29766 31.1 7.34766 32.7C6.89766 33.45 6.24766 34 5.39766 34.35C4.59766 34.7 3.77266 34.8 2.92266 34.65C2.12266 34.5 1.47266 34.075 0.972656 33.375C0.322656 32.425 0.147656 31.45 0.447656 30.45C0.797656 29.45 1.39766 28.575 2.24766 27.825C2.84766 27.025 3.42266 25.925 3.97266 24.525C4.52266 23.075 4.94766 21.5 5.24766 19.8C5.54766 18.05 5.62266 16.325 5.47266 14.625H6.67266ZM21.7477 1.65C21.6477 2.15 21.3977 2.575 20.9977 2.925C20.6477 3.275 19.9727 3.525 18.9727 3.675V68.4C18.9727 68.65 18.6477 68.95 17.9977 69.3C17.3477 69.7 16.5227 70.05 15.5227 70.35C14.5227 70.65 13.4727 70.8 12.3727 70.8H10.7227V0.449997L21.7477 1.65ZM89.3227 51.225C91.0227 54.075 93.0477 56.2 95.3977 57.6C97.7977 58.95 100.723 59.85 104.173 60.3C107.623 60.7 111.798 60.9 116.698 60.9C118.348 60.9 120.423 60.9 122.923 60.9C125.473 60.9 128.148 60.9 130.948 60.9C133.798 60.85 136.498 60.825 139.048 60.825C141.648 60.775 143.773 60.725 145.423 60.675V61.575C143.873 61.975 142.698 62.9 141.898 64.35C141.148 65.8 140.748 67.4 140.698 69.15C139.398 69.15 137.673 69.15 135.523 69.15C133.423 69.15 131.148 69.15 128.698 69.15C126.298 69.15 124.023 69.15 121.873 69.15C119.723 69.15 117.973 69.15 116.623 69.15C111.373 69.15 106.948 68.65 103.348 67.65C99.7477 66.7 96.7727 64.975 94.4227 62.475C92.1227 59.925 90.1977 56.325 88.6477 51.675L89.3227 51.225ZM95.3227 23.25C94.7227 24.2 93.9727 25.425 93.0727 26.925C92.1727 28.375 91.1977 29.925 90.1477 31.575C89.1477 33.175 88.1477 34.725 87.1477 36.225C86.1977 37.675 85.3477 38.925 84.5977 39.975H85.1977L82.4977 42.45L75.8227 37.725C76.4227 37.325 77.1477 36.95 77.9977 36.6C78.8977 36.2 79.7227 35.925 80.4727 35.775L77.5477 37.95C78.3477 36.9 79.2477 35.625 80.2477 34.125C81.2977 32.575 82.3227 30.95 83.3227 29.25C84.3727 27.5 85.3477 25.85 86.2477 24.3C87.1477 22.75 87.8727 21.425 88.4227 20.325L95.3227 23.25ZM87.2977 20.25L91.1977 16.35L98.9977 23.4C98.5477 23.85 97.7727 24.175 96.6727 24.375C95.6227 24.575 94.4227 24.675 93.0727 24.675C91.7727 24.625 90.4727 24.5 89.1727 24.3L88.2727 20.25H87.2977ZM89.0977 38.025L93.5227 33.525L101.098 40.05C100.698 40.65 99.7477 41.025 98.2477 41.175C97.0977 44.925 95.4727 48.625 93.3727 52.275C91.3227 55.925 88.7727 59.35 85.7227 62.55C82.6727 65.75 79.0477 68.525 74.8477 70.875L74.1727 69.975C76.9727 67.275 79.4227 64.175 81.5227 60.675C83.6727 57.125 85.4227 53.4 86.7727 49.5C88.1727 45.6 89.1977 41.775 89.8477 38.025H89.0977ZM92.0977 20.25V22.425H76.1977L75.5227 20.25H92.0977ZM94.7227 38.025V40.125H81.6727L82.4977 38.025H94.7227ZM79.6477 0.674999C83.2977 0.874996 86.2227 1.45 88.4227 2.4C90.6727 3.3 92.2977 4.4 93.2977 5.7C94.3477 6.95 94.9227 8.2 95.0227 9.45C95.1227 10.7 94.8227 11.8 94.1227 12.75C93.4727 13.65 92.5727 14.225 91.4227 14.475C90.2727 14.725 88.9727 14.45 87.5227 13.65C87.1227 12.1 86.4477 10.575 85.4977 9.075C84.5977 7.575 83.5727 6.15 82.4227 4.8C81.2727 3.4 80.1477 2.2 79.0477 1.2L79.6477 0.674999ZM122.773 33.45C120.373 38.25 116.973 42.5 112.573 46.2C108.173 49.85 103.098 52.925 97.3477 55.425L96.6727 54.375C100.523 51.625 103.923 48.275 106.873 44.325C109.823 40.325 112.123 36.3 113.773 32.25H122.773V33.45ZM126.523 1.275C126.473 1.775 126.248 2.225 125.848 2.625C125.498 2.975 124.798 3.225 123.748 3.375V56.775C123.748 57.025 123.398 57.375 122.698 57.825C122.048 58.275 121.198 58.675 120.148 59.025C119.098 59.375 118.023 59.55 116.923 59.55H115.348V0.149997L126.523 1.275ZM109.123 35.7C109.123 35.9 108.773 36.2 108.073 36.6C107.423 37 106.573 37.35 105.523 37.65C104.523 37.9 103.498 38.025 102.448 38.025H101.323V19.725V16.425L109.573 19.725H135.148V21.9H109.123V35.7ZM134.698 31.875V34.05H104.398V31.875H134.698ZM129.448 19.725L133.198 15.675L141.223 21.675C141.023 21.975 140.648 22.275 140.098 22.575C139.548 22.825 138.873 23.025 138.073 23.175V34.425C138.073 34.625 137.698 34.9 136.948 35.25C136.198 35.55 135.323 35.85 134.323 36.15C133.323 36.4 132.398 36.525 131.548 36.525H130.198V19.725H129.448ZM134.773 4.8C134.773 4.8 135.048 5.025 135.598 5.475C136.198 5.875 136.923 6.425 137.773 7.125C138.673 7.775 139.598 8.5 140.548 9.3C141.498 10.05 142.373 10.775 143.173 11.475C142.973 12.275 142.273 12.675 141.073 12.675H98.0977L97.4977 10.5H130.198L134.773 4.8ZM122.923 36.525C126.873 37.425 130.048 38.575 132.448 39.975C134.898 41.325 136.723 42.75 137.923 44.25C139.123 45.75 139.823 47.175 140.023 48.525C140.223 49.875 140.023 51.025 139.423 51.975C138.873 52.875 138.048 53.425 136.948 53.625C135.898 53.825 134.698 53.525 133.348 52.725C132.748 50.925 131.823 49.1 130.573 47.25C129.323 45.35 127.948 43.525 126.448 41.775C124.998 39.975 123.573 38.425 122.173 37.125L122.923 36.525ZM152.623 13.35C156.423 13.6 159.473 14.225 161.773 15.225C164.123 16.225 165.848 17.375 166.948 18.675C168.098 19.975 168.748 21.275 168.898 22.575C169.098 23.875 168.898 25 168.298 25.95C167.698 26.9 166.848 27.5 165.748 27.75C164.648 27.95 163.423 27.675 162.073 26.925C161.623 25.325 160.873 23.725 159.823 22.125C158.773 20.475 157.548 18.95 156.148 17.55C154.798 16.1 153.423 14.875 152.023 13.875L152.623 13.35ZM149.173 6.525H172.423V8.7H149.848L149.173 6.525ZM147.898 28.65H174.673V30.75H148.573L147.898 28.65ZM158.473 28.65H166.723V60.45C166.723 62.3 166.473 63.95 165.973 65.4C165.523 66.9 164.573 68.1 163.123 69C161.673 69.95 159.423 70.55 156.373 70.8C156.323 69.5 156.198 68.35 155.998 67.35C155.848 66.35 155.498 65.525 154.948 64.875C154.498 64.225 153.823 63.675 152.923 63.225C152.073 62.775 150.823 62.4 149.173 62.1V61.125C149.173 61.125 149.498 61.15 150.148 61.2C150.798 61.25 151.598 61.3 152.548 61.35C153.498 61.35 154.398 61.375 155.248 61.425C156.098 61.475 156.698 61.5 157.048 61.5C157.648 61.5 158.023 61.4 158.173 61.2C158.373 60.95 158.473 60.625 158.473 60.225V28.65ZM171.823 28.65H170.998L175.348 24.3L182.923 31.5C182.623 31.85 182.248 32.1 181.798 32.25C181.398 32.35 180.798 32.425 179.998 32.475C179.248 33.625 178.298 34.95 177.148 36.45C175.998 37.9 174.823 39.325 173.623 40.725C172.423 42.125 171.298 43.35 170.248 44.4L169.498 43.95C169.798 42.5 170.098 40.85 170.398 39C170.698 37.1 170.973 35.225 171.223 33.375C171.523 31.475 171.723 29.9 171.823 28.65ZM169.123 6.525H168.223L172.798 2.02499L180.598 9.525C180.348 9.825 179.973 10.025 179.473 10.125C179.023 10.225 178.398 10.3 177.598 10.35C176.398 11.4 174.898 12.525 173.098 13.725C171.348 14.875 169.498 15.975 167.548 17.025C165.648 18.075 163.848 18.975 162.148 19.725L161.473 19.2C162.373 18.05 163.323 16.725 164.323 15.225C165.323 13.675 166.248 12.125 167.098 10.575C167.998 9.025 168.673 7.675 169.123 6.525ZM177.748 6.975H205.648L210.448 0.749998C210.448 0.749998 210.748 0.974998 211.348 1.425C211.948 1.875 212.698 2.475 213.598 3.225C214.498 3.975 215.448 4.775 216.448 5.625C217.448 6.425 218.348 7.175 219.148 7.875C219.098 8.275 218.873 8.575 218.473 8.775C218.123 8.975 217.673 9.075 217.123 9.075H178.348L177.748 6.975ZM186.673 28.725H209.173V30.825H186.673V28.725ZM186.673 39.975H209.173V42.075H186.673V39.975ZM186.673 51.225H209.023V53.325H186.673V51.225ZM193.798 6.975H204.898C203.498 8.925 201.823 11.025 199.873 13.275C197.973 15.475 196.173 17.225 194.473 18.525H193.048C193.198 17.575 193.298 16.425 193.348 15.075C193.448 13.675 193.523 12.275 193.573 10.875C193.673 9.425 193.748 8.125 193.798 6.975ZM198.823 55.65C202.823 55.95 206.073 56.6 208.573 57.6C211.123 58.6 213.048 59.75 214.348 61.05C215.698 62.35 216.523 63.65 216.823 64.95C217.123 66.3 217.023 67.475 216.523 68.475C216.023 69.475 215.223 70.15 214.123 70.5C213.073 70.9 211.823 70.775 210.373 70.125C209.573 68.475 208.498 66.8 207.148 65.1C205.798 63.4 204.323 61.775 202.723 60.225C201.173 58.675 199.673 57.35 198.223 56.25L198.823 55.65ZM181.498 17.7V14.025L190.348 17.7H208.798V19.8H189.973V54.525C189.973 54.825 189.623 55.2 188.923 55.65C188.273 56.1 187.398 56.5 186.298 56.85C185.198 57.2 184.048 57.375 182.848 57.375H181.498V17.7ZM205.198 17.7H204.523L208.423 13.5L216.298 19.575C216.098 19.825 215.773 20.075 215.323 20.325C214.923 20.575 214.398 20.775 213.748 20.925V54C213.748 54.2 213.348 54.5 212.548 54.9C211.798 55.25 210.873 55.575 209.773 55.875C208.673 56.175 207.623 56.325 206.623 56.325H205.198V17.7ZM189.373 55.125L198.898 61.05C198.548 61.65 197.748 61.8 196.498 61.5C194.748 62.75 192.548 63.975 189.898 65.175C187.248 66.425 184.398 67.525 181.348 68.475C178.298 69.475 175.348 70.25 172.498 70.8L171.973 69.825C174.173 68.625 176.398 67.175 178.648 65.475C180.898 63.825 182.948 62.1 184.798 60.3C186.698 58.45 188.223 56.725 189.373 55.125ZM272.848 3.675C272.698 4.125 272.373 4.5 271.873 4.8C271.423 5.1 270.773 5.275 269.923 5.325C268.473 9.325 266.798 13.075 264.898 16.575C263.048 20.075 260.998 23.275 258.748 26.175C256.548 29.075 254.148 31.65 251.548 33.9L250.573 33.375C251.973 30.625 253.348 27.45 254.698 23.85C256.048 20.25 257.248 16.45 258.298 12.45C259.398 8.4 260.273 4.375 260.923 0.374998L272.848 3.675ZM280.123 14.85L284.773 10.05L292.573 16.95C292.223 17.3 291.773 17.6 291.223 17.85C290.723 18.1 290.023 18.275 289.123 18.375C288.873 25.925 288.548 32.5 288.148 38.1C287.798 43.65 287.323 48.375 286.723 52.275C286.173 56.125 285.473 59.225 284.623 61.575C283.773 63.925 282.773 65.7 281.623 66.9C280.223 68.3 278.648 69.3 276.898 69.9C275.198 70.5 273.198 70.8 270.898 70.8C270.898 69.45 270.798 68.275 270.598 67.275C270.398 66.275 270.023 65.475 269.473 64.875C268.873 64.175 267.948 63.575 266.698 63.075C265.448 62.525 263.998 62.075 262.348 61.725L262.423 60.675C263.473 60.725 264.623 60.825 265.873 60.975C267.173 61.075 268.398 61.15 269.548 61.2C270.698 61.25 271.573 61.275 272.173 61.275C272.873 61.275 273.448 61.2 273.898 61.05C274.348 60.9 274.773 60.625 275.173 60.225C276.273 59.275 277.198 56.95 277.948 53.25C278.698 49.5 279.323 44.425 279.823 38.025C280.323 31.625 280.723 23.9 281.023 14.85H280.123ZM285.073 14.85V16.95H261.373L262.498 14.85H285.073ZM261.448 27.3C264.798 28.85 267.423 30.525 269.323 32.325C271.273 34.125 272.623 35.9 273.373 37.65C274.123 39.4 274.398 41 274.198 42.45C273.998 43.9 273.498 45.05 272.698 45.9C271.948 46.75 270.973 47.175 269.773 47.175C268.573 47.125 267.348 46.525 266.098 45.375C266.098 43.375 265.823 41.35 265.273 39.3C264.723 37.2 264.023 35.15 263.173 33.15C262.373 31.15 261.523 29.35 260.623 27.75L261.448 27.3ZM254.848 20.4C254.598 20.8 254.073 21.1 253.273 21.3C252.523 21.45 251.548 21.225 250.348 20.625L252.673 20.25C251.423 21.9 249.773 23.725 247.723 25.725C245.673 27.675 243.423 29.7 240.973 31.8C238.523 33.85 235.998 35.8 233.398 37.65C230.798 39.45 228.298 41 225.898 42.3L225.823 41.475H229.798C229.548 43.925 229.048 45.85 228.298 47.25C227.598 48.6 226.748 49.45 225.748 49.8L222.148 40.2C222.148 40.2 222.498 40.125 223.198 39.975C223.948 39.775 224.548 39.55 224.998 39.3C226.698 38.1 228.548 36.475 230.548 34.425C232.548 32.375 234.498 30.125 236.398 27.675C238.298 25.225 240.023 22.8 241.573 20.4C243.123 17.95 244.298 15.775 245.098 13.875L254.848 20.4ZM246.523 5.55C246.323 6 245.848 6.35 245.098 6.6C244.348 6.8 243.373 6.65 242.173 6.15L244.498 5.7C243.498 7.05 242.248 8.55 240.748 10.2C239.298 11.85 237.698 13.525 235.948 15.225C234.198 16.875 232.423 18.425 230.623 19.875C228.873 21.325 227.173 22.55 225.523 23.55L225.448 22.725H229.573C229.373 25.075 228.923 26.95 228.223 28.35C227.573 29.7 226.773 30.575 225.823 30.975L221.923 21.525C221.923 21.525 222.248 21.45 222.898 21.3C223.548 21.1 224.048 20.9 224.398 20.7C225.448 19.8 226.548 18.5 227.698 16.8C228.898 15.1 230.048 13.25 231.148 11.25C232.248 9.2 233.248 7.2 234.148 5.25C235.048 3.25 235.698 1.5 236.098 -1.43051e-06L246.523 5.55ZM230.248 50.625C231.598 54.675 232.098 58.175 231.748 61.125C231.398 64.025 230.573 66.225 229.273 67.725C228.673 68.375 227.873 68.8 226.873 69C225.923 69.2 224.973 69.125 224.023 68.775C223.123 68.425 222.448 67.825 221.998 66.975C221.398 65.775 221.348 64.625 221.848 63.525C222.398 62.375 223.198 61.45 224.248 60.75C224.948 60.15 225.673 59.3 226.423 58.2C227.223 57.1 227.873 55.875 228.373 54.525C228.923 53.175 229.198 51.85 229.198 50.55L230.248 50.625ZM244.723 48C247.623 48.9 249.873 49.975 251.473 51.225C253.073 52.475 254.173 53.775 254.773 55.125C255.373 56.425 255.598 57.65 255.448 58.8C255.298 59.9 254.873 60.8 254.173 61.5C253.473 62.2 252.598 62.55 251.548 62.55C250.548 62.55 249.523 62.1 248.473 61.2C248.423 59.75 248.173 58.25 247.723 56.7C247.323 55.15 246.773 53.65 246.073 52.2C245.423 50.75 244.723 49.475 243.973 48.375L244.723 48ZM236.698 49.275C238.998 50.925 240.698 52.6 241.798 54.3C242.898 55.95 243.548 57.525 243.748 59.025C243.998 60.475 243.898 61.75 243.448 62.85C243.048 63.95 242.398 64.775 241.498 65.325C240.648 65.875 239.723 66.05 238.723 65.85C237.773 65.65 236.848 65 235.948 63.9C236.398 61.5 236.598 59.025 236.548 56.475C236.498 53.925 236.248 51.6 235.798 49.5L236.698 49.275ZM243.373 31.35C246.273 32.55 248.523 33.875 250.123 35.325C251.773 36.725 252.898 38.125 253.498 39.525C254.098 40.875 254.323 42.125 254.173 43.275C254.023 44.375 253.598 45.275 252.898 45.975C252.198 46.625 251.323 46.95 250.273 46.95C249.273 46.9 248.248 46.4 247.198 45.45C247.148 43.9 246.873 42.325 246.373 40.725C245.923 39.075 245.348 37.475 244.648 35.925C243.998 34.325 243.298 32.925 242.548 31.725L243.373 31.35ZM224.023 40.275C225.523 40.225 227.623 40.125 230.323 39.975C233.023 39.825 236.073 39.65 239.473 39.45C242.873 39.2 246.348 38.95 249.898 38.7L249.973 39.6C247.673 40.6 244.473 41.925 240.373 43.575C236.273 45.175 231.723 46.8 226.723 48.45L224.023 40.275ZM222.898 21.6C224.248 21.65 226.048 21.7 228.298 21.75C230.598 21.75 233.173 21.725 236.023 21.675C238.923 21.625 241.823 21.575 244.723 21.525L244.798 22.5C242.998 23.3 240.423 24.375 237.073 25.725C233.773 27.025 230.098 28.35 226.048 29.7L222.898 21.6ZM343.723 68.325C343.723 68.575 343.073 69.05 341.773 69.75C340.523 70.45 338.773 70.8 336.523 70.8H334.948V25.875H343.723V68.325ZM320.923 4.05C320.723 4.55 320.373 4.95 319.873 5.25C319.423 5.55 318.773 5.675 317.923 5.625C316.073 10.575 313.948 15.15 311.548 19.35C309.148 23.5 306.523 27.275 303.673 30.675C300.873 34.025 297.798 37 294.448 39.6L293.548 39.075C295.598 35.925 297.598 32.275 299.548 28.125C301.498 23.925 303.273 19.45 304.873 14.7C306.523 9.95 307.823 5.175 308.773 0.374998L320.923 4.05ZM314.473 22.725C314.323 23.075 314.073 23.375 313.723 23.625C313.373 23.875 312.848 24.05 312.148 24.15V68.325C312.148 68.525 311.773 68.825 311.023 69.225C310.323 69.625 309.448 69.975 308.398 70.275C307.348 70.625 306.248 70.8 305.098 70.8H303.448V24.375L306.823 19.95L314.473 22.725ZM321.448 3.74999L330.673 7.275H348.223L352.273 2.625L360.148 8.625C359.948 8.975 359.623 9.275 359.173 9.525C358.723 9.725 358.098 9.875 357.298 9.975V29.55C357.298 29.75 356.648 30.125 355.348 30.675C354.048 31.175 352.273 31.425 350.023 31.425H348.448V9.45H329.923V30.75C329.923 31.05 329.298 31.475 328.048 32.025C326.798 32.525 325.098 32.775 322.948 32.775H321.448V7.275V3.74999ZM353.923 25.575V27.675H326.473V25.575H353.923ZM356.998 32.325C356.998 32.325 357.298 32.575 357.898 33.075C358.498 33.525 359.273 34.125 360.223 34.875C361.173 35.575 362.148 36.35 363.148 37.2C364.148 38 365.073 38.8 365.923 39.6C365.823 40 365.573 40.3 365.173 40.5C364.823 40.7 364.373 40.8 363.823 40.8H315.598L314.998 38.625H352.198L356.998 32.325ZM335.998 47.925C335.798 48.375 335.423 48.725 334.873 48.975C334.373 49.225 333.698 49.3 332.848 49.2C330.148 53 327.123 56.375 323.773 59.325C320.473 62.275 317.048 64.725 313.498 66.675L312.748 65.925C314.148 64.175 315.598 62.075 317.098 59.625C318.598 57.125 320.023 54.45 321.373 51.6C322.773 48.75 323.998 45.9 325.048 43.05L335.998 47.925ZM346.273 45.225C350.523 46.425 353.973 47.85 356.623 49.5C359.273 51.15 361.248 52.825 362.548 54.525C363.848 56.225 364.598 57.85 364.798 59.4C364.998 60.95 364.773 62.25 364.123 63.3C363.523 64.35 362.623 64.975 361.423 65.175C360.223 65.375 358.898 65.025 357.448 64.125C356.898 62.575 356.173 61 355.273 59.4C354.373 57.8 353.373 56.2 352.273 54.6C351.173 52.95 350.048 51.375 348.898 49.875C347.748 48.325 346.623 46.95 345.523 45.75L346.273 45.225ZM407.698 50.475C407.698 50.675 407.373 50.975 406.723 51.375C406.123 51.725 405.348 52.05 404.398 52.35C403.448 52.6 402.448 52.725 401.398 52.725H400.423V35.025V31.95L407.998 35.025H425.323V37.125H407.698V50.475ZM438.448 15.375C438.198 15.775 437.848 16.025 437.398 16.125C436.998 16.225 436.348 16.175 435.448 15.975C433.698 16.875 431.823 17.725 429.823 18.525C427.873 19.325 426.173 19.95 424.723 20.4L423.973 19.35C424.973 18.25 426.123 16.875 427.423 15.225C428.773 13.525 429.973 11.9 431.023 10.35L438.448 15.375ZM433.648 8.1C433.398 8.55 433.023 8.825 432.523 8.925C432.073 9.025 431.398 8.95 430.498 8.7C428.848 9.6 427.148 10.45 425.398 11.25C423.648 12 422.023 12.6 420.523 13.05L419.773 12C420.723 10.9 421.748 9.525 422.848 7.875C423.948 6.175 424.948 4.55 425.848 3L433.648 8.1ZM431.023 54.525C430.873 54.975 430.573 55.35 430.123 55.65C429.673 55.95 429.023 56.075 428.173 56.025C427.073 57.725 425.598 59.625 423.748 61.725C421.948 63.825 420.098 65.725 418.198 67.425H417.073C417.573 65.975 418.023 64.35 418.423 62.55C418.873 60.7 419.273 58.875 419.623 57.075C419.973 55.225 420.223 53.525 420.373 51.975L431.023 54.525ZM417.898 3.075C419.098 6.775 420.748 10.225 422.848 13.425C424.998 16.575 427.448 19.325 430.198 21.675C432.998 24.025 435.948 25.85 439.048 27.15L438.898 27.975C437.498 28.325 436.248 29.075 435.148 30.225C434.098 31.375 433.323 32.9 432.823 34.8C428.523 31.55 425.098 27.35 422.548 22.2C420.048 17 418.148 10.75 416.848 3.45L417.898 3.075ZM407.098 5.925L411.223 1.8L418.498 7.875C418.248 8.225 417.923 8.475 417.523 8.625C417.123 8.775 416.498 8.9 415.648 9C414.648 12.4 413.198 15.725 411.298 18.975C409.448 22.225 407.123 25.25 404.323 28.05C401.523 30.8 398.173 33.2 394.273 35.25L393.598 34.35C396.298 31.95 398.598 29.2 400.498 26.1C402.448 23 404.023 19.725 405.223 16.275C406.423 12.825 407.298 9.375 407.848 5.925H407.098ZM411.898 5.925V8.1H396.223L395.548 5.925H411.898ZM403.573 52.5C406.373 53.3 408.523 54.25 410.023 55.35C411.523 56.4 412.498 57.5 412.948 58.65C413.448 59.8 413.548 60.85 413.248 61.8C412.998 62.75 412.473 63.525 411.673 64.125C410.923 64.725 410.023 64.975 408.973 64.875C407.923 64.825 406.873 64.325 405.823 63.375C405.823 61.575 405.498 59.725 404.848 57.825C404.248 55.875 403.573 54.225 402.823 52.875L403.573 52.5ZM397.048 10.725C399.848 11.325 401.873 12.15 403.123 13.2C404.423 14.25 405.173 15.3 405.373 16.35C405.573 17.4 405.373 18.325 404.773 19.125C404.223 19.925 403.448 20.4 402.448 20.55C401.448 20.65 400.423 20.275 399.373 19.425C399.373 17.975 399.048 16.5 398.398 15C397.748 13.45 397.048 12.175 396.298 11.175L397.048 10.725ZM430.948 60.3C430.948 60.3 431.223 60.525 431.773 60.975C432.323 61.425 432.998 62 433.798 62.7C434.598 63.35 435.448 64.075 436.348 64.875C437.248 65.675 438.048 66.4 438.748 67.05C438.548 67.85 437.873 68.25 436.723 68.25H395.173L394.573 66.15H426.673L430.948 60.3ZM419.398 22.2C419.398 22.2 419.748 22.5 420.448 23.1C421.148 23.65 421.973 24.35 422.923 25.2C423.873 26.05 424.723 26.85 425.473 27.6C425.273 28.4 424.623 28.8 423.523 28.8H406.123L405.523 26.625H416.098L419.398 22.2ZM421.573 35.025L425.023 31.125L432.748 36.9C432.498 37.2 432.098 37.5 431.548 37.8C430.998 38.1 430.348 38.325 429.598 38.475V50.4C429.598 50.55 429.248 50.775 428.548 51.075C427.848 51.325 427.023 51.575 426.073 51.825C425.173 52.025 424.323 52.125 423.523 52.125H422.323V35.025H421.573ZM425.323 47.55V49.65H403.648V47.55H425.323ZM375.673 1.725C378.923 1.825 381.473 2.275 383.323 3.075C385.173 3.875 386.473 4.825 387.223 5.925C387.973 7.025 388.298 8.125 388.198 9.225C388.098 10.325 387.673 11.275 386.923 12.075C386.173 12.825 385.198 13.25 383.998 13.35C382.848 13.45 381.623 13.075 380.323 12.225C380.173 11.025 379.798 9.8 379.198 8.55C378.648 7.3 377.998 6.125 377.248 5.025C376.548 3.925 375.823 2.95 375.073 2.1L375.673 1.725ZM390.073 61.35V63.45H376.348V61.35H390.073ZM385.873 44.4L389.548 40.5L397.048 46.2C396.798 46.45 396.423 46.725 395.923 47.025C395.473 47.275 394.923 47.45 394.273 47.55V65.1C394.273 65.3 393.923 65.55 393.223 65.85C392.523 66.2 391.673 66.525 390.673 66.825C389.723 67.125 388.798 67.275 387.898 67.275H386.623V44.4H385.873ZM379.498 68.025C379.498 68.225 379.173 68.525 378.523 68.925C377.923 69.325 377.123 69.675 376.123 69.975C375.173 70.275 374.173 70.425 373.123 70.425H371.923V44.4V41.175L379.873 44.4H389.698V46.5H379.498V68.025ZM391.648 10.2C391.648 10.2 392.023 10.5 392.773 11.1C393.523 11.7 394.423 12.45 395.473 13.35C396.523 14.2 397.448 15.025 398.248 15.825C398.048 16.625 397.373 17.025 396.223 17.025H369.148L368.548 14.925H387.973L391.648 10.2ZM389.998 29.925C389.998 29.925 390.348 30.225 391.048 30.825C391.798 31.375 392.673 32.075 393.673 32.925C394.673 33.725 395.548 34.525 396.298 35.325C396.098 36.125 395.448 36.525 394.348 36.525H372.073L371.473 34.35H386.548L389.998 29.925ZM389.998 20.25C389.998 20.25 390.348 20.55 391.048 21.15C391.798 21.7 392.673 22.4 393.673 23.25C394.673 24.05 395.548 24.825 396.298 25.575C396.098 26.375 395.448 26.775 394.348 26.775H372.073L371.473 24.675H386.548L389.998 20.25ZM452.998 65.25C451.248 65.25 449.773 64.65 448.573 63.45C447.373 62.25 446.773 60.8 446.773 59.1C446.773 57.4 447.373 55.95 448.573 54.75C449.773 53.55 451.248 52.95 452.998 52.95C454.798 52.95 456.298 53.55 457.498 54.75C458.698 55.95 459.298 57.4 459.298 59.1C459.298 60.8 458.698 62.25 457.498 63.45C456.298 64.65 454.798 65.25 452.998 65.25ZM452.998 7.425C454.848 7.425 456.323 7.95 457.423 9C458.573 10.05 459.148 11.6 459.148 13.65C459.148 15.5 458.873 17.975 458.323 21.075C457.823 24.175 456.973 28.475 455.773 33.975L454.123 45.6H451.873L450.373 33.975C449.173 28.475 448.298 24.175 447.748 21.075C447.198 17.975 446.923 15.5 446.923 13.65C446.923 11.6 447.473 10.05 448.573 9C449.673 7.95 451.148 7.425 452.998 7.425ZM478.158 65.25C476.408 65.25 474.933 64.65 473.733 63.45C472.533 62.25 471.933 60.8 471.933 59.1C471.933 57.4 472.533 55.95 473.733 54.75C474.933 53.55 476.408 52.95 478.158 52.95C479.958 52.95 481.458 53.55 482.658 54.75C483.858 55.95 484.458 57.4 484.458 59.1C484.458 60.8 483.858 62.25 482.658 63.45C481.458 64.65 479.958 65.25 478.158 65.25ZM478.158 7.425C480.008 7.425 481.483 7.95 482.583 9C483.733 10.05 484.308 11.6 484.308 13.65C484.308 15.5 484.033 17.975 483.483 21.075C482.983 24.175 482.133 28.475 480.933 33.975L479.283 45.6H477.033L475.533 33.975C474.333 28.475 473.458 24.175 472.908 21.075C472.358 17.975 472.083 15.5 472.083 13.65C472.083 11.6 472.633 10.05 473.733 9C474.833 7.95 476.308 7.425 478.158 7.425Z" fill="#FF5DCA"/>
<path d="M49.1977 45.15C53.6477 47 57.2477 49.025 59.9977 51.225C62.7477 53.425 64.7727 55.6 66.0727 57.75C67.4227 59.85 68.1727 61.775 68.3227 63.525C68.5227 65.275 68.2977 66.7 67.6477 67.8C66.9977 68.95 66.0477 69.6 64.7977 69.75C63.5977 69.9 62.2727 69.4 60.8227 68.25C60.3227 66.4 59.6227 64.475 58.7227 62.475C57.8727 60.475 56.8727 58.5 55.7227 56.55C54.5727 54.55 53.3477 52.625 52.0477 50.775C50.7977 48.925 49.5727 47.2 48.3727 45.6L49.1977 45.15ZM49.3477 1.575C49.2977 2.075 49.0727 2.525 48.6727 2.925C48.2727 3.325 47.5727 3.575 46.5727 3.675V28.725C46.5727 33.125 46.1977 37.375 45.4477 41.475C44.6977 45.575 43.4227 49.475 41.6227 53.175C39.8727 56.825 37.3977 60.15 34.1977 63.15C31.0477 66.1 27.0227 68.625 22.1227 70.725L21.4477 69.975C24.7977 67.425 27.5227 64.6 29.6227 61.5C31.7727 58.35 33.4227 55.025 34.5727 51.525C35.7227 47.975 36.5227 44.3 36.9727 40.5C37.4227 36.65 37.6477 32.725 37.6477 28.725V0.449997L49.3477 1.575ZM52.5727 14.4L56.6977 10.05L64.8727 16.275C64.6727 16.575 64.2977 16.875 63.7477 17.175C63.2477 17.425 62.5977 17.625 61.7977 17.775V38.85H53.3227V14.4H52.5727ZM65.3227 32.025C65.3227 32.025 65.7227 32.425 66.5227 33.225C67.3227 33.975 68.2477 34.875 69.2977 35.925C70.3977 36.975 71.3477 37.975 72.1477 38.925C71.9477 39.725 71.2727 40.125 70.1227 40.125H23.7727L23.1727 37.95H61.5727L65.3227 32.025ZM58.4227 14.4V16.575H28.0477L27.3727 14.4H58.4227ZM20.3977 13.8C23.0477 15.35 24.9477 16.95 26.0977 18.6C27.2977 20.2 27.9227 21.7 27.9727 23.1C28.0727 24.5 27.7977 25.65 27.1477 26.55C26.5477 27.4 25.7227 27.875 24.6727 27.975C23.6727 28.075 22.6977 27.6 21.7477 26.55C21.9477 24.5 21.7977 22.35 21.2977 20.1C20.7977 17.8 20.1977 15.825 19.4977 14.175L20.3977 13.8ZM6.67266 14.625C8.22266 18.725 8.94766 22.375 8.84766 25.575C8.79766 28.725 8.29766 31.1 7.34766 32.7C6.89766 33.45 6.24766 34 5.39766 34.35C4.59766 34.7 3.77266 34.8 2.92266 34.65C2.12266 34.5 1.47266 34.075 0.972656 33.375C0.322656 32.425 0.147656 31.45 0.447656 30.45C0.797656 29.45 1.39766 28.575 2.24766 27.825C2.84766 27.025 3.42266 25.925 3.97266 24.525C4.52266 23.075 4.94766 21.5 5.24766 19.8C5.54766 18.05 5.62266 16.325 5.47266 14.625H6.67266ZM21.7477 1.65C21.6477 2.15 21.3977 2.575 20.9977 2.925C20.6477 3.275 19.9727 3.525 18.9727 3.675V68.4C18.9727 68.65 18.6477 68.95 17.9977 69.3C17.3477 69.7 16.5227 70.05 15.5227 70.35C14.5227 70.65 13.4727 70.8 12.3727 70.8H10.7227V0.449997L21.7477 1.65ZM89.3227 51.225C91.0227 54.075 93.0477 56.2 95.3977 57.6C97.7977 58.95 100.723 59.85 104.173 60.3C107.623 60.7 111.798 60.9 116.698 60.9C118.348 60.9 120.423 60.9 122.923 60.9C125.473 60.9 128.148 60.9 130.948 60.9C133.798 60.85 136.498 60.825 139.048 60.825C141.648 60.775 143.773 60.725 145.423 60.675V61.575C143.873 61.975 142.698 62.9 141.898 64.35C141.148 65.8 140.748 67.4 140.698 69.15C139.398 69.15 137.673 69.15 135.523 69.15C133.423 69.15 131.148 69.15 128.698 69.15C126.298 69.15 124.023 69.15 121.873 69.15C119.723 69.15 117.973 69.15 116.623 69.15C111.373 69.15 106.948 68.65 103.348 67.65C99.7477 66.7 96.7727 64.975 94.4227 62.475C92.1227 59.925 90.1977 56.325 88.6477 51.675L89.3227 51.225ZM95.3227 23.25C94.7227 24.2 93.9727 25.425 93.0727 26.925C92.1727 28.375 91.1977 29.925 90.1477 31.575C89.1477 33.175 88.1477 34.725 87.1477 36.225C86.1977 37.675 85.3477 38.925 84.5977 39.975H85.1977L82.4977 42.45L75.8227 37.725C76.4227 37.325 77.1477 36.95 77.9977 36.6C78.8977 36.2 79.7227 35.925 80.4727 35.775L77.5477 37.95C78.3477 36.9 79.2477 35.625 80.2477 34.125C81.2977 32.575 82.3227 30.95 83.3227 29.25C84.3727 27.5 85.3477 25.85 86.2477 24.3C87.1477 22.75 87.8727 21.425 88.4227 20.325L95.3227 23.25ZM87.2977 20.25L91.1977 16.35L98.9977 23.4C98.5477 23.85 97.7727 24.175 96.6727 24.375C95.6227 24.575 94.4227 24.675 93.0727 24.675C91.7727 24.625 90.4727 24.5 89.1727 24.3L88.2727 20.25H87.2977ZM89.0977 38.025L93.5227 33.525L101.098 40.05C100.698 40.65 99.7477 41.025 98.2477 41.175C97.0977 44.925 95.4727 48.625 93.3727 52.275C91.3227 55.925 88.7727 59.35 85.7227 62.55C82.6727 65.75 79.0477 68.525 74.8477 70.875L74.1727 69.975C76.9727 67.275 79.4227 64.175 81.5227 60.675C83.6727 57.125 85.4227 53.4 86.7727 49.5C88.1727 45.6 89.1977 41.775 89.8477 38.025H89.0977ZM92.0977 20.25V22.425H76.1977L75.5227 20.25H92.0977ZM94.7227 38.025V40.125H81.6727L82.4977 38.025H94.7227ZM79.6477 0.674999C83.2977 0.874996 86.2227 1.45 88.4227 2.4C90.6727 3.3 92.2977 4.4 93.2977 5.7C94.3477 6.95 94.9227 8.2 95.0227 9.45C95.1227 10.7 94.8227 11.8 94.1227 12.75C93.4727 13.65 92.5727 14.225 91.4227 14.475C90.2727 14.725 88.9727 14.45 87.5227 13.65C87.1227 12.1 86.4477 10.575 85.4977 9.075C84.5977 7.575 83.5727 6.15 82.4227 4.8C81.2727 3.4 80.1477 2.2 79.0477 1.2L79.6477 0.674999ZM122.773 33.45C120.373 38.25 116.973 42.5 112.573 46.2C108.173 49.85 103.098 52.925 97.3477 55.425L96.6727 54.375C100.523 51.625 103.923 48.275 106.873 44.325C109.823 40.325 112.123 36.3 113.773 32.25H122.773V33.45ZM126.523 1.275C126.473 1.775 126.248 2.225 125.848 2.625C125.498 2.975 124.798 3.225 123.748 3.375V56.775C123.748 57.025 123.398 57.375 122.698 57.825C122.048 58.275 121.198 58.675 120.148 59.025C119.098 59.375 118.023 59.55 116.923 59.55H115.348V0.149997L126.523 1.275ZM109.123 35.7C109.123 35.9 108.773 36.2 108.073 36.6C107.423 37 106.573 37.35 105.523 37.65C104.523 37.9 103.498 38.025 102.448 38.025H101.323V19.725V16.425L109.573 19.725H135.148V21.9H109.123V35.7ZM134.698 31.875V34.05H104.398V31.875H134.698ZM129.448 19.725L133.198 15.675L141.223 21.675C141.023 21.975 140.648 22.275 140.098 22.575C139.548 22.825 138.873 23.025 138.073 23.175V34.425C138.073 34.625 137.698 34.9 136.948 35.25C136.198 35.55 135.323 35.85 134.323 36.15C133.323 36.4 132.398 36.525 131.548 36.525H130.198V19.725H129.448ZM134.773 4.8C134.773 4.8 135.048 5.025 135.598 5.475C136.198 5.875 136.923 6.425 137.773 7.125C138.673 7.775 139.598 8.5 140.548 9.3C141.498 10.05 142.373 10.775 143.173 11.475C142.973 12.275 142.273 12.675 141.073 12.675H98.0977L97.4977 10.5H130.198L134.773 4.8ZM122.923 36.525C126.873 37.425 130.048 38.575 132.448 39.975C134.898 41.325 136.723 42.75 137.923 44.25C139.123 45.75 139.823 47.175 140.023 48.525C140.223 49.875 140.023 51.025 139.423 51.975C138.873 52.875 138.048 53.425 136.948 53.625C135.898 53.825 134.698 53.525 133.348 52.725C132.748 50.925 131.823 49.1 130.573 47.25C129.323 45.35 127.948 43.525 126.448 41.775C124.998 39.975 123.573 38.425 122.173 37.125L122.923 36.525ZM152.623 13.35C156.423 13.6 159.473 14.225 161.773 15.225C164.123 16.225 165.848 17.375 166.948 18.675C168.098 19.975 168.748 21.275 168.898 22.575C169.098 23.875 168.898 25 168.298 25.95C167.698 26.9 166.848 27.5 165.748 27.75C164.648 27.95 163.423 27.675 162.073 26.925C161.623 25.325 160.873 23.725 159.823 22.125C158.773 20.475 157.548 18.95 156.148 17.55C154.798 16.1 153.423 14.875 152.023 13.875L152.623 13.35ZM149.173 6.525H172.423V8.7H149.848L149.173 6.525ZM147.898 28.65H174.673V30.75H148.573L147.898 28.65ZM158.473 28.65H166.723V60.45C166.723 62.3 166.473 63.95 165.973 65.4C165.523 66.9 164.573 68.1 163.123 69C161.673 69.95 159.423 70.55 156.373 70.8C156.323 69.5 156.198 68.35 155.998 67.35C155.848 66.35 155.498 65.525 154.948 64.875C154.498 64.225 153.823 63.675 152.923 63.225C152.073 62.775 150.823 62.4 149.173 62.1V61.125C149.173 61.125 149.498 61.15 150.148 61.2C150.798 61.25 151.598 61.3 152.548 61.35C153.498 61.35 154.398 61.375 155.248 61.425C156.098 61.475 156.698 61.5 157.048 61.5C157.648 61.5 158.023 61.4 158.173 61.2C158.373 60.95 158.473 60.625 158.473 60.225V28.65ZM171.823 28.65H170.998L175.348 24.3L182.923 31.5C182.623 31.85 182.248 32.1 181.798 32.25C181.398 32.35 180.798 32.425 179.998 32.475C179.248 33.625 178.298 34.95 177.148 36.45C175.998 37.9 174.823 39.325 173.623 40.725C172.423 42.125 171.298 43.35 170.248 44.4L169.498 43.95C169.798 42.5 170.098 40.85 170.398 39C170.698 37.1 170.973 35.225 171.223 33.375C171.523 31.475 171.723 29.9 171.823 28.65ZM169.123 6.525H168.223L172.798 2.02499L180.598 9.525C180.348 9.825 179.973 10.025 179.473 10.125C179.023 10.225 178.398 10.3 177.598 10.35C176.398 11.4 174.898 12.525 173.098 13.725C171.348 14.875 169.498 15.975 167.548 17.025C165.648 18.075 163.848 18.975 162.148 19.725L161.473 19.2C162.373 18.05 163.323 16.725 164.323 15.225C165.323 13.675 166.248 12.125 167.098 10.575C167.998 9.025 168.673 7.675 169.123 6.525ZM177.748 6.975H205.648L210.448 0.749998C210.448 0.749998 210.748 0.974998 211.348 1.425C211.948 1.875 212.698 2.475 213.598 3.225C214.498 3.975 215.448 4.775 216.448 5.625C217.448 6.425 218.348 7.175 219.148 7.875C219.098 8.275 218.873 8.575 218.473 8.775C218.123 8.975 217.673 9.075 217.123 9.075H178.348L177.748 6.975ZM186.673 28.725H209.173V30.825H186.673V28.725ZM186.673 39.975H209.173V42.075H186.673V39.975ZM186.673 51.225H209.023V53.325H186.673V51.225ZM193.798 6.975H204.898C203.498 8.925 201.823 11.025 199.873 13.275C197.973 15.475 196.173 17.225 194.473 18.525H193.048C193.198 17.575 193.298 16.425 193.348 15.075C193.448 13.675 193.523 12.275 193.573 10.875C193.673 9.425 193.748 8.125 193.798 6.975ZM198.823 55.65C202.823 55.95 206.073 56.6 208.573 57.6C211.123 58.6 213.048 59.75 214.348 61.05C215.698 62.35 216.523 63.65 216.823 64.95C217.123 66.3 217.023 67.475 216.523 68.475C216.023 69.475 215.223 70.15 214.123 70.5C213.073 70.9 211.823 70.775 210.373 70.125C209.573 68.475 208.498 66.8 207.148 65.1C205.798 63.4 204.323 61.775 202.723 60.225C201.173 58.675 199.673 57.35 198.223 56.25L198.823 55.65ZM181.498 17.7V14.025L190.348 17.7H208.798V19.8H189.973V54.525C189.973 54.825 189.623 55.2 188.923 55.65C188.273 56.1 187.398 56.5 186.298 56.85C185.198 57.2 184.048 57.375 182.848 57.375H181.498V17.7ZM205.198 17.7H204.523L208.423 13.5L216.298 19.575C216.098 19.825 215.773 20.075 215.323 20.325C214.923 20.575 214.398 20.775 213.748 20.925V54C213.748 54.2 213.348 54.5 212.548 54.9C211.798 55.25 210.873 55.575 209.773 55.875C208.673 56.175 207.623 56.325 206.623 56.325H205.198V17.7ZM189.373 55.125L198.898 61.05C198.548 61.65 197.748 61.8 196.498 61.5C194.748 62.75 192.548 63.975 189.898 65.175C187.248 66.425 184.398 67.525 181.348 68.475C178.298 69.475 175.348 70.25 172.498 70.8L171.973 69.825C174.173 68.625 176.398 67.175 178.648 65.475C180.898 63.825 182.948 62.1 184.798 60.3C186.698 58.45 188.223 56.725 189.373 55.125ZM272.848 3.675C272.698 4.125 272.373 4.5 271.873 4.8C271.423 5.1 270.773 5.275 269.923 5.325C268.473 9.325 266.798 13.075 264.898 16.575C263.048 20.075 260.998 23.275 258.748 26.175C256.548 29.075 254.148 31.65 251.548 33.9L250.573 33.375C251.973 30.625 253.348 27.45 254.698 23.85C256.048 20.25 257.248 16.45 258.298 12.45C259.398 8.4 260.273 4.375 260.923 0.374998L272.848 3.675ZM280.123 14.85L284.773 10.05L292.573 16.95C292.223 17.3 291.773 17.6 291.223 17.85C290.723 18.1 290.023 18.275 289.123 18.375C288.873 25.925 288.548 32.5 288.148 38.1C287.798 43.65 287.323 48.375 286.723 52.275C286.173 56.125 285.473 59.225 284.623 61.575C283.773 63.925 282.773 65.7 281.623 66.9C280.223 68.3 278.648 69.3 276.898 69.9C275.198 70.5 273.198 70.8 270.898 70.8C270.898 69.45 270.798 68.275 270.598 67.275C270.398 66.275 270.023 65.475 269.473 64.875C268.873 64.175 267.948 63.575 266.698 63.075C265.448 62.525 263.998 62.075 262.348 61.725L262.423 60.675C263.473 60.725 264.623 60.825 265.873 60.975C267.173 61.075 268.398 61.15 269.548 61.2C270.698 61.25 271.573 61.275 272.173 61.275C272.873 61.275 273.448 61.2 273.898 61.05C274.348 60.9 274.773 60.625 275.173 60.225C276.273 59.275 277.198 56.95 277.948 53.25C278.698 49.5 279.323 44.425 279.823 38.025C280.323 31.625 280.723 23.9 281.023 14.85H280.123ZM285.073 14.85V16.95H261.373L262.498 14.85H285.073ZM261.448 27.3C264.798 28.85 267.423 30.525 269.323 32.325C271.273 34.125 272.623 35.9 273.373 37.65C274.123 39.4 274.398 41 274.198 42.45C273.998 43.9 273.498 45.05 272.698 45.9C271.948 46.75 270.973 47.175 269.773 47.175C268.573 47.125 267.348 46.525 266.098 45.375C266.098 43.375 265.823 41.35 265.273 39.3C264.723 37.2 264.023 35.15 263.173 33.15C262.373 31.15 261.523 29.35 260.623 27.75L261.448 27.3ZM254.848 20.4C254.598 20.8 254.073 21.1 253.273 21.3C252.523 21.45 251.548 21.225 250.348 20.625L252.673 20.25C251.423 21.9 249.773 23.725 247.723 25.725C245.673 27.675 243.423 29.7 240.973 31.8C238.523 33.85 235.998 35.8 233.398 37.65C230.798 39.45 228.298 41 225.898 42.3L225.823 41.475H229.798C229.548 43.925 229.048 45.85 228.298 47.25C227.598 48.6 226.748 49.45 225.748 49.8L222.148 40.2C222.148 40.2 222.498 40.125 223.198 39.975C223.948 39.775 224.548 39.55 224.998 39.3C226.698 38.1 228.548 36.475 230.548 34.425C232.548 32.375 234.498 30.125 236.398 27.675C238.298 25.225 240.023 22.8 241.573 20.4C243.123 17.95 244.298 15.775 245.098 13.875L254.848 20.4ZM246.523 5.55C246.323 6 245.848 6.35 245.098 6.6C244.348 6.8 243.373 6.65 242.173 6.15L244.498 5.7C243.498 7.05 242.248 8.55 240.748 10.2C239.298 11.85 237.698 13.525 235.948 15.225C234.198 16.875 232.423 18.425 230.623 19.875C228.873 21.325 227.173 22.55 225.523 23.55L225.448 22.725H229.573C229.373 25.075 228.923 26.95 228.223 28.35C227.573 29.7 226.773 30.575 225.823 30.975L221.923 21.525C221.923 21.525 222.248 21.45 222.898 21.3C223.548 21.1 224.048 20.9 224.398 20.7C225.448 19.8 226.548 18.5 227.698 16.8C228.898 15.1 230.048 13.25 231.148 11.25C232.248 9.2 233.248 7.2 234.148 5.25C235.048 3.25 235.698 1.5 236.098 -1.43051e-06L246.523 5.55ZM230.248 50.625C231.598 54.675 232.098 58.175 231.748 61.125C231.398 64.025 230.573 66.225 229.273 67.725C228.673 68.375 227.873 68.8 226.873 69C225.923 69.2 224.973 69.125 224.023 68.775C223.123 68.425 222.448 67.825 221.998 66.975C221.398 65.775 221.348 64.625 221.848 63.525C222.398 62.375 223.198 61.45 224.248 60.75C224.948 60.15 225.673 59.3 226.423 58.2C227.223 57.1 227.873 55.875 228.373 54.525C228.923 53.175 229.198 51.85 229.198 50.55L230.248 50.625ZM244.723 48C247.623 48.9 249.873 49.975 251.473 51.225C253.073 52.475 254.173 53.775 254.773 55.125C255.373 56.425 255.598 57.65 255.448 58.8C255.298 59.9 254.873 60.8 254.173 61.5C253.473 62.2 252.598 62.55 251.548 62.55C250.548 62.55 249.523 62.1 248.473 61.2C248.423 59.75 248.173 58.25 247.723 56.7C247.323 55.15 246.773 53.65 246.073 52.2C245.423 50.75 244.723 49.475 243.973 48.375L244.723 48ZM236.698 49.275C238.998 50.925 240.698 52.6 241.798 54.3C242.898 55.95 243.548 57.525 243.748 59.025C243.998 60.475 243.898 61.75 243.448 62.85C243.048 63.95 242.398 64.775 241.498 65.325C240.648 65.875 239.723 66.05 238.723 65.85C237.773 65.65 236.848 65 235.948 63.9C236.398 61.5 236.598 59.025 236.548 56.475C236.498 53.925 236.248 51.6 235.798 49.5L236.698 49.275ZM243.373 31.35C246.273 32.55 248.523 33.875 250.123 35.325C251.773 36.725 252.898 38.125 253.498 39.525C254.098 40.875 254.323 42.125 254.173 43.275C254.023 44.375 253.598 45.275 252.898 45.975C252.198 46.625 251.323 46.95 250.273 46.95C249.273 46.9 248.248 46.4 247.198 45.45C247.148 43.9 246.873 42.325 246.373 40.725C245.923 39.075 245.348 37.475 244.648 35.925C243.998 34.325 243.298 32.925 242.548 31.725L243.373 31.35ZM224.023 40.275C225.523 40.225 227.623 40.125 230.323 39.975C233.023 39.825 236.073 39.65 239.473 39.45C242.873 39.2 246.348 38.95 249.898 38.7L249.973 39.6C247.673 40.6 244.473 41.925 240.373 43.575C236.273 45.175 231.723 46.8 226.723 48.45L224.023 40.275ZM222.898 21.6C224.248 21.65 226.048 21.7 228.298 21.75C230.598 21.75 233.173 21.725 236.023 21.675C238.923 21.625 241.823 21.575 244.723 21.525L244.798 22.5C242.998 23.3 240.423 24.375 237.073 25.725C233.773 27.025 230.098 28.35 226.048 29.7L222.898 21.6ZM343.723 68.325C343.723 68.575 343.073 69.05 341.773 69.75C340.523 70.45 338.773 70.8 336.523 70.8H334.948V25.875H343.723V68.325ZM320.923 4.05C320.723 4.55 320.373 4.95 319.873 5.25C319.423 5.55 318.773 5.675 317.923 5.625C316.073 10.575 313.948 15.15 311.548 19.35C309.148 23.5 306.523 27.275 303.673 30.675C300.873 34.025 297.798 37 294.448 39.6L293.548 39.075C295.598 35.925 297.598 32.275 299.548 28.125C301.498 23.925 303.273 19.45 304.873 14.7C306.523 9.95 307.823 5.175 308.773 0.374998L320.923 4.05ZM314.473 22.725C314.323 23.075 314.073 23.375 313.723 23.625C313.373 23.875 312.848 24.05 312.148 24.15V68.325C312.148 68.525 311.773 68.825 311.023 69.225C310.323 69.625 309.448 69.975 308.398 70.275C307.348 70.625 306.248 70.8 305.098 70.8H303.448V24.375L306.823 19.95L314.473 22.725ZM321.448 3.74999L330.673 7.275H348.223L352.273 2.625L360.148 8.625C359.948 8.975 359.623 9.275 359.173 9.525C358.723 9.725 358.098 9.875 357.298 9.975V29.55C357.298 29.75 356.648 30.125 355.348 30.675C354.048 31.175 352.273 31.425 350.023 31.425H348.448V9.45H329.923V30.75C329.923 31.05 329.298 31.475 328.048 32.025C326.798 32.525 325.098 32.775 322.948 32.775H321.448V7.275V3.74999ZM353.923 25.575V27.675H326.473V25.575H353.923ZM356.998 32.325C356.998 32.325 357.298 32.575 357.898 33.075C358.498 33.525 359.273 34.125 360.223 34.875C361.173 35.575 362.148 36.35 363.148 37.2C364.148 38 365.073 38.8 365.923 39.6C365.823 40 365.573 40.3 365.173 40.5C364.823 40.7 364.373 40.8 363.823 40.8H315.598L314.998 38.625H352.198L356.998 32.325ZM335.998 47.925C335.798 48.375 335.423 48.725 334.873 48.975C334.373 49.225 333.698 49.3 332.848 49.2C330.148 53 327.123 56.375 323.773 59.325C320.473 62.275 317.048 64.725 313.498 66.675L312.748 65.925C314.148 64.175 315.598 62.075 317.098 59.625C318.598 57.125 320.023 54.45 321.373 51.6C322.773 48.75 323.998 45.9 325.048 43.05L335.998 47.925ZM346.273 45.225C350.523 46.425 353.973 47.85 356.623 49.5C359.273 51.15 361.248 52.825 362.548 54.525C363.848 56.225 364.598 57.85 364.798 59.4C364.998 60.95 364.773 62.25 364.123 63.3C363.523 64.35 362.623 64.975 361.423 65.175C360.223 65.375 358.898 65.025 357.448 64.125C356.898 62.575 356.173 61 355.273 59.4C354.373 57.8 353.373 56.2 352.273 54.6C351.173 52.95 350.048 51.375 348.898 49.875C347.748 48.325 346.623 46.95 345.523 45.75L346.273 45.225ZM407.698 50.475C407.698 50.675 407.373 50.975 406.723 51.375C406.123 51.725 405.348 52.05 404.398 52.35C403.448 52.6 402.448 52.725 401.398 52.725H400.423V35.025V31.95L407.998 35.025H425.323V37.125H407.698V50.475ZM438.448 15.375C438.198 15.775 437.848 16.025 437.398 16.125C436.998 16.225 436.348 16.175 435.448 15.975C433.698 16.875 431.823 17.725 429.823 18.525C427.873 19.325 426.173 19.95 424.723 20.4L423.973 19.35C424.973 18.25 426.123 16.875 427.423 15.225C428.773 13.525 429.973 11.9 431.023 10.35L438.448 15.375ZM433.648 8.1C433.398 8.55 433.023 8.825 432.523 8.925C432.073 9.025 431.398 8.95 430.498 8.7C428.848 9.6 427.148 10.45 425.398 11.25C423.648 12 422.023 12.6 420.523 13.05L419.773 12C420.723 10.9 421.748 9.525 422.848 7.875C423.948 6.175 424.948 4.55 425.848 3L433.648 8.1ZM431.023 54.525C430.873 54.975 430.573 55.35 430.123 55.65C429.673 55.95 429.023 56.075 428.173 56.025C427.073 57.725 425.598 59.625 423.748 61.725C421.948 63.825 420.098 65.725 418.198 67.425H417.073C417.573 65.975 418.023 64.35 418.423 62.55C418.873 60.7 419.273 58.875 419.623 57.075C419.973 55.225 420.223 53.525 420.373 51.975L431.023 54.525ZM417.898 3.075C419.098 6.775 420.748 10.225 422.848 13.425C424.998 16.575 427.448 19.325 430.198 21.675C432.998 24.025 435.948 25.85 439.048 27.15L438.898 27.975C437.498 28.325 436.248 29.075 435.148 30.225C434.098 31.375 433.323 32.9 432.823 34.8C428.523 31.55 425.098 27.35 422.548 22.2C420.048 17 418.148 10.75 416.848 3.45L417.898 3.075ZM407.098 5.925L411.223 1.8L418.498 7.875C418.248 8.225 417.923 8.475 417.523 8.625C417.123 8.775 416.498 8.9 415.648 9C414.648 12.4 413.198 15.725 411.298 18.975C409.448 22.225 407.123 25.25 404.323 28.05C401.523 30.8 398.173 33.2 394.273 35.25L393.598 34.35C396.298 31.95 398.598 29.2 400.498 26.1C402.448 23 404.023 19.725 405.223 16.275C406.423 12.825 407.298 9.375 407.848 5.925H407.098ZM411.898 5.925V8.1H396.223L395.548 5.925H411.898ZM403.573 52.5C406.373 53.3 408.523 54.25 410.023 55.35C411.523 56.4 412.498 57.5 412.948 58.65C413.448 59.8 413.548 60.85 413.248 61.8C412.998 62.75 412.473 63.525 411.673 64.125C410.923 64.725 410.023 64.975 408.973 64.875C407.923 64.825 406.873 64.325 405.823 63.375C405.823 61.575 405.498 59.725 404.848 57.825C404.248 55.875 403.573 54.225 402.823 52.875L403.573 52.5ZM397.048 10.725C399.848 11.325 401.873 12.15 403.123 13.2C404.423 14.25 405.173 15.3 405.373 16.35C405.573 17.4 405.373 18.325 404.773 19.125C404.223 19.925 403.448 20.4 402.448 20.55C401.448 20.65 400.423 20.275 399.373 19.425C399.373 17.975 399.048 16.5 398.398 15C397.748 13.45 397.048 12.175 396.298 11.175L397.048 10.725ZM430.948 60.3C430.948 60.3 431.223 60.525 431.773 60.975C432.323 61.425 432.998 62 433.798 62.7C434.598 63.35 435.448 64.075 436.348 64.875C437.248 65.675 438.048 66.4 438.748 67.05C438.548 67.85 437.873 68.25 436.723 68.25H395.173L394.573 66.15H426.673L430.948 60.3ZM419.398 22.2C419.398 22.2 419.748 22.5 420.448 23.1C421.148 23.65 421.973 24.35 422.923 25.2C423.873 26.05 424.723 26.85 425.473 27.6C425.273 28.4 424.623 28.8 423.523 28.8H406.123L405.523 26.625H416.098L419.398 22.2ZM421.573 35.025L425.023 31.125L432.748 36.9C432.498 37.2 432.098 37.5 431.548 37.8C430.998 38.1 430.348 38.325 429.598 38.475V50.4C429.598 50.55 429.248 50.775 428.548 51.075C427.848 51.325 427.023 51.575 426.073 51.825C425.173 52.025 424.323 52.125 423.523 52.125H422.323V35.025H421.573ZM425.323 47.55V49.65H403.648V47.55H425.323ZM375.673 1.725C378.923 1.825 381.473 2.275 383.323 3.075C385.173 3.875 386.473 4.825 387.223 5.925C387.973 7.025 388.298 8.125 388.198 9.225C388.098 10.325 387.673 11.275 386.923 12.075C386.173 12.825 385.198 13.25 383.998 13.35C382.848 13.45 381.623 13.075 380.323 12.225C380.173 11.025 379.798 9.8 379.198 8.55C378.648 7.3 377.998 6.125 377.248 5.025C376.548 3.925 375.823 2.95 375.073 2.1L375.673 1.725ZM390.073 61.35V63.45H376.348V61.35H390.073ZM385.873 44.4L389.548 40.5L397.048 46.2C396.798 46.45 396.423 46.725 395.923 47.025C395.473 47.275 394.923 47.45 394.273 47.55V65.1C394.273 65.3 393.923 65.55 393.223 65.85C392.523 66.2 391.673 66.525 390.673 66.825C389.723 67.125 388.798 67.275 387.898 67.275H386.623V44.4H385.873ZM379.498 68.025C379.498 68.225 379.173 68.525 378.523 68.925C377.923 69.325 377.123 69.675 376.123 69.975C375.173 70.275 374.173 70.425 373.123 70.425H371.923V44.4V41.175L379.873 44.4H389.698V46.5H379.498V68.025ZM391.648 10.2C391.648 10.2 392.023 10.5 392.773 11.1C393.523 11.7 394.423 12.45 395.473 13.35C396.523 14.2 397.448 15.025 398.248 15.825C398.048 16.625 397.373 17.025 396.223 17.025H369.148L368.548 14.925H387.973L391.648 10.2ZM389.998 29.925C389.998 29.925 390.348 30.225 391.048 30.825C391.798 31.375 392.673 32.075 393.673 32.925C394.673 33.725 395.548 34.525 396.298 35.325C396.098 36.125 395.448 36.525 394.348 36.525H372.073L371.473 34.35H386.548L389.998 29.925ZM389.998 20.25C389.998 20.25 390.348 20.55 391.048 21.15C391.798 21.7 392.673 22.4 393.673 23.25C394.673 24.05 395.548 24.825 396.298 25.575C396.098 26.375 395.448 26.775 394.348 26.775H372.073L371.473 24.675H386.548L389.998 20.25ZM452.998 65.25C451.248 65.25 449.773 64.65 448.573 63.45C447.373 62.25 446.773 60.8 446.773 59.1C446.773 57.4 447.373 55.95 448.573 54.75C449.773 53.55 451.248 52.95 452.998 52.95C454.798 52.95 456.298 53.55 457.498 54.75C458.698 55.95 459.298 57.4 459.298 59.1C459.298 60.8 458.698 62.25 457.498 63.45C456.298 64.65 454.798 65.25 452.998 65.25ZM452.998 7.425C454.848 7.425 456.323 7.95 457.423 9C458.573 10.05 459.148 11.6 459.148 13.65C459.148 15.5 458.873 17.975 458.323 21.075C457.823 24.175 456.973 28.475 455.773 33.975L454.123 45.6H451.873L450.373 33.975C449.173 28.475 448.298 24.175 447.748 21.075C447.198 17.975 446.923 15.5 446.923 13.65C446.923 11.6 447.473 10.05 448.573 9C449.673 7.95 451.148 7.425 452.998 7.425ZM478.158 65.25C476.408 65.25 474.933 64.65 473.733 63.45C472.533 62.25 471.933 60.8 471.933 59.1C471.933 57.4 472.533 55.95 473.733 54.75C474.933 53.55 476.408 52.95 478.158 52.95C479.958 52.95 481.458 53.55 482.658 54.75C483.858 55.95 484.458 57.4 484.458 59.1C484.458 60.8 483.858 62.25 482.658 63.45C481.458 64.65 479.958 65.25 478.158 65.25ZM478.158 7.425C480.008 7.425 481.483 7.95 482.583 9C483.733 10.05 484.308 11.6 484.308 13.65C484.308 15.5 484.033 17.975 483.483 21.075C482.983 24.175 482.133 28.475 480.933 33.975L479.283 45.6H477.033L475.533 33.975C474.333 28.475 473.458 24.175 472.908 21.075C472.358 17.975 472.083 15.5 472.083 13.65C472.083 11.6 472.633 10.05 473.733 9C474.833 7.95 476.308 7.425 478.158 7.425Z" fill="url(#paint0_linear_2709_30382)"/>
<defs>
<linearGradient id="paint0_linear_2709_30382" x1="89.4902" y1="12.5602" x2="452.134" y2="165.055" gradientUnits="userSpaceOnUse">
<stop stop-color="#3E57E2"/>
<stop offset="0.4" stop-color="#B133FF"/>
<stop offset="1" stop-color="#FF5DCA"/>
</linearGradient>
</defs>
</svg>
