<svg width="688" height="52" viewBox="0 0 688 52" fill="none" xmlns="http://www.w3.org/2000/svg">
<path d="M33.5817 21.7487C35.4763 23.3341 36.4237 25.3641 36.4237 27.8387C36.4237 28.3801 36.3657 28.9794 36.2497 29.6367L32.4217 51.3867H24.5917L24.7657 50.5167C25.307 47.5781 25.5777 45.0261 25.5777 42.8607C25.5777 39.1874 24.8817 36.3841 23.4897 34.4507C22.1363 32.5174 20.145 31.5507 17.5157 31.5507C15.389 31.5507 13.4363 32.3434 11.6577 33.9287C9.879 35.4754 8.62234 37.5054 7.88767 40.0187C8.23567 39.7481 8.75767 39.5161 9.45367 39.3227C10.1497 39.0907 10.7683 38.9747 11.3097 38.9747C13.1657 38.9747 14.6543 39.4581 15.7757 40.4247C16.897 41.3914 17.4577 42.6674 17.4577 44.2527C17.4577 45.6834 17.0517 46.9981 16.2397 48.1967C15.4663 49.3567 14.3837 50.2847 12.9917 50.9807C11.5997 51.6381 10.0723 51.9667 8.40967 51.9667C5.78034 51.9667 3.71167 51.2707 2.20367 49.8787C0.734335 48.4867 -0.000331759 46.5921 -0.000331759 44.1947C-0.000331759 41.4881 0.676335 39.0327 2.02967 36.8287C3.42167 34.5861 5.31634 32.7881 7.71367 31.4347C10.1497 30.0427 12.895 29.2307 15.9497 28.9987C19.507 27.0267 22.7357 24.6681 25.6357 21.9227C24.2823 21.1881 22.6583 20.8207 20.7637 20.8207C17.9023 20.8207 15.3697 21.4781 13.1657 22.7927C11.0003 24.1074 9.473 25.9054 8.58367 28.1867H1.73967C2.861 25.1707 5.16167 22.7734 8.64167 20.9947C12.1217 19.216 16.2977 18.3267 21.1697 18.3267C23.799 18.3267 26.1577 18.5974 28.2457 19.1387C29.2123 17.9401 29.889 16.8574 30.2757 15.8907H38.8017C38.299 17.3987 36.559 19.3514 33.5817 21.7487ZM28.4777 29.1727C28.5937 28.5154 28.6517 27.8967 28.6517 27.3167C28.6517 26.5821 28.5743 25.9634 28.4197 25.4607C25.9063 27.0461 23.3737 28.3414 20.8217 29.3467C22.4457 29.7721 23.8183 30.4874 24.9397 31.4927C26.0997 32.4594 26.931 33.6774 27.4337 35.1467L28.4777 29.1727ZM11.0197 41.0627C9.55034 41.0627 8.29367 41.5847 7.24967 42.6287C6.20567 43.6727 5.68367 44.9294 5.68367 46.3987C5.68367 47.4814 6.01234 48.3514 6.66967 49.0087C7.36567 49.6274 8.29367 49.9367 9.45367 49.9367C10.923 49.9367 12.1603 49.4147 13.1657 48.3707C14.2097 47.3267 14.7317 46.0507 14.7317 44.5427C14.7317 43.4987 14.3837 42.6674 13.6877 42.0487C13.0303 41.3914 12.141 41.0627 11.0197 41.0627ZM6.16171 12.9907C6.70305 10.7867 7.80505 8.81472 9.46771 7.07472C11.1304 5.29605 13.199 3.92338 15.6737 2.95672C18.1097 1.99005 20.7584 1.50672 23.6197 1.50672C26.481 1.50672 29.0137 1.95138 31.2177 2.84072C33.383 3.69138 35.065 4.90938 36.2637 6.49472C37.4624 8.04138 38.0617 9.83938 38.0617 11.8887C38.0617 12.3914 38.0424 12.7587 38.0037 12.9907H6.16171ZM32.1457 10.5547C32.223 8.69872 31.4304 7.19072 29.7677 6.03071C28.105 4.83205 25.901 4.23272 23.1557 4.23272C20.449 4.23272 18.071 4.81272 16.0217 5.97272C13.9337 7.13272 12.5997 8.66005 12.0197 10.5547H32.1457ZM72.6864 18.9067C74.6197 18.9067 76.1084 19.2741 77.1524 20.0087C78.235 20.7434 78.7764 21.8067 78.7764 23.1987C78.7764 23.3921 78.7377 23.7594 78.6604 24.3007L73.9044 51.3287H66.0744L70.8304 24.3007L70.8884 23.9527C70.8884 23.6047 70.7724 23.3341 70.5404 23.1407C70.3084 22.9474 69.999 22.8507 69.6124 22.8507H67.9884L50.9944 51.3287H43.3384L46.9344 30.7967C46.161 31.1447 45.291 31.3187 44.3244 31.3187C42.5844 31.3187 41.1924 30.8547 40.1484 29.9267C39.1044 28.9601 38.5824 27.7034 38.5824 26.1567C38.5824 24.6874 38.969 23.3534 39.7424 22.1547C40.5157 20.9561 41.579 20.0281 42.9324 19.3707C44.3244 18.6747 45.8517 18.3267 47.5144 18.3267C50.0664 18.3267 52.0577 18.9067 53.4884 20.0667C54.9577 21.2267 55.6924 22.8314 55.6924 24.8807C55.6924 25.4607 55.6344 26.0407 55.5184 26.6207L52.6764 42.4547L66.5384 18.9067H72.6864ZM44.9624 29.2307C46.4317 29.2307 47.6884 28.7087 48.7324 27.6647C49.7764 26.6207 50.2984 25.3641 50.2984 23.8947C50.2984 22.8507 49.9504 22.0001 49.2544 21.3427C48.597 20.6854 47.6884 20.3567 46.5284 20.3567C45.059 20.3567 43.8024 20.8981 42.7584 21.9807C41.753 23.0247 41.2504 24.2814 41.2504 25.7507C41.2504 26.7947 41.579 27.6454 42.2364 28.3027C42.9324 28.9214 43.841 29.2307 44.9624 29.2307ZM83.3516 35.3207H91.1236L88.8036 48.5447H103.014L105.972 31.7827H81.8436C82.6556 27.4521 84.3182 24.1267 86.8316 21.8067C89.3836 19.4867 92.6509 18.3267 96.6336 18.3267C98.0256 18.3267 99.2822 18.4814 100.404 18.7907C101.564 19.0614 102.782 19.5447 104.058 20.2407C105.063 20.7821 105.778 21.1494 106.204 21.3427C106.668 21.4974 107.151 21.5747 107.654 21.5747C108.504 21.5747 109.239 21.2847 109.858 20.7047C110.476 20.1247 110.902 19.3514 111.134 18.3847H117.456C117.03 20.3954 116.006 21.9807 114.382 23.1407C112.796 24.3007 110.844 24.8807 108.524 24.8807C107.441 24.8807 106.397 24.7647 105.392 24.5327C104.386 24.2621 103.323 23.8174 102.202 23.1987C101.042 22.5801 100.114 22.1741 99.4176 21.9807C98.7602 21.7874 97.9869 21.6907 97.0976 21.6907C93.6176 21.6907 91.3362 24.1074 90.2536 28.9407H114.208L110.264 51.3867H80.5096L83.3516 35.3207ZM84.1309 12.9907C84.6723 10.7867 85.7743 8.81472 87.4369 7.07472C89.0996 5.29605 91.1683 3.92338 93.6429 2.95672C96.0789 1.99005 98.7276 1.50672 101.589 1.50672C104.45 1.50672 106.983 1.95138 109.187 2.84072C111.352 3.69138 113.034 4.90938 114.233 6.49472C115.432 8.04138 116.031 9.83938 116.031 11.8887C116.031 12.3914 116.012 12.7587 115.973 12.9907H84.1309ZM110.115 10.5547C110.192 8.69872 109.4 7.19072 107.737 6.03071C106.074 4.83205 103.87 4.23272 101.125 4.23272C98.4183 4.23272 96.0403 4.81272 93.9909 5.97272C91.9029 7.13272 90.5689 8.66005 89.9889 10.5547H110.115ZM118.155 38.8007C118.735 35.5141 120.611 33.2134 123.781 31.8987H117.575C118.426 27.6841 120.611 24.3781 124.129 21.9807C127.687 19.5447 132.095 18.3267 137.353 18.3267C141.839 18.3267 145.357 19.1774 147.909 20.8787C150.461 22.5414 151.737 24.8421 151.737 27.7807C151.737 28.3994 151.679 29.0374 151.563 29.6947L147.735 51.3867H139.905L143.849 29.1147C143.965 28.4187 144.023 27.7421 144.023 27.0847C144.023 25.0354 143.405 23.4694 142.167 22.3867C140.93 21.3041 139.151 20.7627 136.831 20.7627C133.854 20.7627 131.36 21.4781 129.349 22.9087C127.377 24.3394 126.043 26.3694 125.347 28.9987H133.409L133.003 31.2027C130.838 31.3961 129.233 32.0147 128.189 33.0587C127.184 34.0641 126.527 35.4947 126.217 37.3507L123.723 51.3867H115.893L118.155 38.8007ZM176.326 28.6507C176.442 27.9547 176.5 27.2781 176.5 26.6207C176.5 24.7647 175.978 23.3341 174.934 22.3287C173.89 21.2847 172.382 20.7627 170.41 20.7627C168.283 20.7627 166.408 21.4781 164.784 22.9087C163.199 24.3007 162.077 26.2727 161.42 28.8247H154.634C155.33 25.5767 157.128 23.0247 160.028 21.1687C162.928 19.274 166.543 18.3267 170.874 18.3267C175.011 18.3267 178.259 19.1387 180.618 20.7627C182.977 22.3867 184.156 24.6681 184.156 27.6067C184.156 28.2641 184.098 28.9407 183.982 29.6367L180.154 51.3867H172.382L176.326 28.6507ZM203.998 51.9667C202.065 51.9667 200.537 51.4834 199.416 50.5167C198.295 49.5501 197.734 48.2547 197.734 46.6307C197.734 45.2387 198.101 43.9627 198.836 42.8027C199.571 41.6041 200.576 40.6761 201.852 40.0187C203.128 39.3227 204.52 38.9747 206.028 38.9747C206.84 38.9747 207.555 39.1487 208.174 39.4967L209.566 31.7827H186.366C187.139 27.4521 188.783 24.1267 191.296 21.8067C193.848 19.4867 197.115 18.3267 201.098 18.3267C202.49 18.3267 203.766 18.4814 204.926 18.7907C206.086 19.0614 207.285 19.5447 208.522 20.2407C210.146 21.1301 211.345 21.5747 212.118 21.5747C212.969 21.5747 213.703 21.2847 214.322 20.7047C214.979 20.0861 215.405 19.2934 215.598 18.3267H221.92C221.533 20.2987 220.528 21.884 218.904 23.0827C217.28 24.2814 215.327 24.8807 213.046 24.8807C211.925 24.8807 210.861 24.7647 209.856 24.5327C208.889 24.2621 207.826 23.8174 206.666 23.1987C205.545 22.5801 204.636 22.1741 203.94 21.9807C203.244 21.7874 202.471 21.6907 201.62 21.6907C198.14 21.6907 195.839 24.1074 194.718 28.9407H217.86L215.308 43.5567C214.844 46.2247 213.607 48.2934 211.596 49.7627C209.624 51.2321 207.091 51.9667 203.998 51.9667ZM204.172 49.9367C205.603 49.9367 206.84 49.4147 207.884 48.3707C208.928 47.2881 209.45 46.0121 209.45 44.5427C209.45 43.4987 209.102 42.6674 208.406 42.0487C207.71 41.3914 206.801 41.0627 205.68 41.0627C204.211 41.0627 202.954 41.5847 201.91 42.6287C200.866 43.6727 200.344 44.9294 200.344 46.3987C200.344 47.4427 200.692 48.2934 201.388 48.9507C202.084 49.6081 203.012 49.9367 204.172 49.9367ZM239.583 18.3267C244.494 18.3267 248.303 19.2934 251.009 21.2267C253.755 23.1214 255.127 25.7894 255.127 29.2307C255.127 30.9321 254.528 33.7354 253.329 37.6407C252.208 41.3914 251.357 44.8907 250.777 48.1387L250.197 51.3867H241.671L237.727 41.2947C236.915 42.0294 236.026 42.6094 235.059 43.0347C234.093 43.4601 233.145 43.6727 232.217 43.6727C230.4 43.6727 228.95 43.1894 227.867 42.2227C226.785 41.2561 226.243 39.9994 226.243 38.4527C226.243 37.0221 226.63 35.7267 227.403 34.5667C228.177 33.3681 229.221 32.4207 230.535 31.7247C231.889 31.0287 233.339 30.6807 234.885 30.6807C236.625 30.6807 238.075 31.0867 239.235 31.8987C240.434 32.7107 241.304 33.9094 241.845 35.4947L244.513 42.9187C244.823 41.3721 245.151 39.9027 245.499 38.5107L245.905 36.8867C246.408 34.8374 246.775 33.1747 247.007 31.8987C247.278 30.5841 247.413 29.5207 247.413 28.7087C247.413 26.2341 246.659 24.3007 245.151 22.9087C243.643 21.4781 241.555 20.7627 238.887 20.7627C235.717 20.7627 233.049 21.5941 230.883 23.2567C228.757 24.9194 227.384 27.2007 226.765 30.1007H220.037C220.695 26.4661 222.763 23.6047 226.243 21.5167C229.762 19.39 234.209 18.3267 239.583 18.3267ZM232.507 41.6427C233.977 41.6427 235.233 41.1207 236.277 40.0767C237.321 38.9941 237.843 37.6987 237.843 36.1907C237.843 35.1467 237.495 34.3154 236.799 33.6967C236.142 33.0394 235.233 32.7107 234.073 32.7107C232.604 32.7107 231.347 33.2521 230.303 34.3347C229.259 35.3787 228.737 36.6354 228.737 38.1047C228.737 39.1487 229.085 39.9994 229.781 40.6567C230.477 41.3141 231.386 41.6427 232.507 41.6427ZM257.544 39.4387C258.008 36.8481 259.207 34.8181 261.14 33.3487C263.112 31.8794 265.567 31.1447 268.506 31.1447C270.478 31.1447 272.063 31.6474 273.262 32.6527C274.499 33.6581 275.118 34.9534 275.118 36.5387C275.118 37.8921 274.751 39.1681 274.016 40.3667C273.32 41.5267 272.353 42.4547 271.116 43.1507C269.879 43.8081 268.525 44.1367 267.056 44.1367C266.553 44.1367 266.07 44.0787 265.606 43.9627C265.142 43.8467 264.794 43.7114 264.562 43.5567L263.692 48.6027H281.092L284.34 30.1587C284.456 29.4627 284.514 28.8054 284.514 28.1867C284.514 25.8667 283.741 24.0494 282.194 22.7347C280.647 21.4201 278.482 20.7627 275.698 20.7627C272.643 20.7627 270.014 21.5554 267.81 23.1407C265.606 24.6874 264.156 26.8141 263.46 29.5207H256.732C257.66 26.0794 259.864 23.3534 263.344 21.3427C266.824 19.332 271.135 18.3267 276.278 18.3267C281.227 18.3267 285.113 19.274 287.936 21.1687C290.759 23.0247 292.17 25.6154 292.17 28.9407C292.17 29.5981 292.112 30.3134 291.996 31.0867L288.4 51.3867H255.456L257.544 39.4387ZM267.172 42.1067C268.641 42.1067 269.879 41.5847 270.884 40.5407C271.928 39.4967 272.45 38.2207 272.45 36.7127C272.45 35.6687 272.102 34.8374 271.406 34.2187C270.749 33.5614 269.859 33.2327 268.738 33.2327C267.269 33.2327 266.012 33.7547 264.968 34.7987C263.924 35.8427 263.402 37.0994 263.402 38.5687C263.402 39.6127 263.731 40.4634 264.388 41.1207C265.084 41.7781 266.012 42.1067 267.172 42.1067ZM302.295 51.3867C302.373 47.7521 301.715 44.1561 300.323 40.5987C298.97 37.0414 297.095 34.0641 294.697 31.6667L301.599 27.3167C303.997 29.2501 305.853 32.0534 307.167 35.7267C308.521 39.3614 309.255 43.6341 309.371 48.5447H316.157L319.289 30.7967C318.516 31.1447 317.665 31.3187 316.737 31.3187C314.959 31.3187 313.547 30.8547 312.503 29.9267C311.459 28.9601 310.937 27.7034 310.937 26.1567C310.937 24.6874 311.324 23.3534 312.097 22.1547C312.909 20.9561 313.992 20.0281 315.345 19.3707C316.699 18.6747 318.207 18.3267 319.869 18.3267C322.46 18.3267 324.451 18.9067 325.843 20.0667C327.274 21.2267 327.989 22.8314 327.989 24.8807C327.989 25.3834 327.931 25.9634 327.815 26.6207L323.465 51.3867H302.295ZM317.317 29.2307C318.787 29.2307 320.024 28.7087 321.029 27.6647C322.073 26.6207 322.595 25.3641 322.595 23.8947C322.595 22.8507 322.247 22.0001 321.551 21.3427C320.894 20.6854 320.005 20.3567 318.883 20.3567C317.453 20.3567 316.215 20.8981 315.171 21.9807C314.127 23.0247 313.605 24.2814 313.605 25.7507C313.605 26.7947 313.934 27.6454 314.591 28.3027C315.287 28.9214 316.196 29.2307 317.317 29.2307ZM340.343 51.9667C337.791 51.9667 335.781 51.4061 334.311 50.2847C332.881 49.1247 332.165 47.5007 332.165 45.4127C332.165 44.8327 332.223 44.2527 332.339 43.6727L336.689 18.9067H344.519L340.865 39.5547C341.523 39.1681 342.393 38.9747 343.475 38.9747C345.215 38.9747 346.607 39.4581 347.651 40.4247C348.734 41.3527 349.275 42.5901 349.275 44.1367C349.275 45.6061 348.869 46.9401 348.057 48.1387C347.284 49.3374 346.221 50.2847 344.867 50.9807C343.514 51.6381 342.006 51.9667 340.343 51.9667ZM360.179 51.9667C357.627 51.9667 355.617 51.4061 354.147 50.2847C352.717 49.1247 352.001 47.5007 352.001 45.4127C352.001 44.8327 352.059 44.2527 352.175 43.6727L356.583 18.9067H364.413L360.759 39.5547C361.417 39.1681 362.267 38.9747 363.311 38.9747C365.09 38.9747 366.501 39.4581 367.545 40.4247C368.589 41.3527 369.111 42.5901 369.111 44.1367C369.111 45.6061 368.705 46.9401 367.893 48.1387C367.12 49.3374 366.057 50.2847 364.703 50.9807C363.35 51.6381 361.842 51.9667 360.179 51.9667ZM341.271 49.9367C342.741 49.9367 343.997 49.4147 345.041 48.3707C346.085 47.3267 346.607 46.0507 346.607 44.5427C346.607 43.4987 346.259 42.6674 345.563 42.0487C344.906 41.3914 343.997 41.0627 342.837 41.0627C341.368 41.0627 340.111 41.5847 339.067 42.6287C338.062 43.6727 337.559 44.9294 337.559 46.3987C337.559 47.4427 337.888 48.2934 338.545 48.9507C339.241 49.6081 340.15 49.9367 341.271 49.9367ZM361.165 49.9367C362.635 49.9367 363.891 49.4147 364.935 48.3707C365.979 47.3267 366.501 46.0507 366.501 44.5427C366.501 43.4987 366.153 42.6674 365.457 42.0487C364.761 41.3914 363.853 41.0627 362.731 41.0627C361.262 41.0627 360.005 41.5847 358.961 42.6287C357.917 43.6727 357.395 44.9294 357.395 46.3987C357.395 47.4427 357.743 48.2934 358.439 48.9507C359.135 49.6081 360.044 49.9367 361.165 49.9367ZM381.125 30.7387C380.429 31.1254 379.559 31.3187 378.515 31.3187C376.775 31.3187 375.383 30.8547 374.339 29.9267C373.295 28.9601 372.773 27.7034 372.773 26.1567C372.773 24.6874 373.16 23.3534 373.933 22.1547C374.707 20.9561 375.77 20.0281 377.123 19.3707C378.515 18.6747 380.043 18.3267 381.705 18.3267C384.257 18.3267 386.249 18.9067 387.679 20.0667C389.149 21.2267 389.883 22.8314 389.883 24.8807C389.883 25.4607 389.825 26.0407 389.709 26.6207L385.823 48.6607H399.685L404.905 18.9067H412.735L406.993 51.3867H377.529L381.125 30.7387ZM379.153 29.2307C380.623 29.2307 381.879 28.7087 382.923 27.6647C383.967 26.6207 384.489 25.3641 384.489 23.8947C384.489 22.8507 384.141 22.0001 383.445 21.3427C382.788 20.6854 381.879 20.3567 380.719 20.3567C379.25 20.3567 377.993 20.8981 376.949 21.9807C375.944 23.0247 375.441 24.2814 375.441 25.7507C375.441 26.7947 375.77 27.6454 376.427 28.3027C377.123 28.9214 378.032 29.2307 379.153 29.2307ZM422.672 30.7387C421.976 31.1254 421.106 31.3187 420.062 31.3187C418.322 31.3187 416.93 30.8547 415.886 29.9267C414.842 28.9601 414.32 27.7034 414.32 26.1567C414.32 24.6874 414.707 23.3534 415.48 22.1547C416.254 20.9561 417.317 20.0281 418.67 19.3707C420.062 18.6747 421.59 18.3267 423.252 18.3267C425.804 18.3267 427.796 18.9067 429.226 20.0667C430.696 21.2267 431.43 22.8314 431.43 24.8807C431.43 25.4607 431.372 26.0407 431.256 26.6207L427.37 48.6607H441.232L446.452 18.9067H454.282L448.54 51.3867H419.076L422.672 30.7387ZM420.7 29.2307C422.17 29.2307 423.426 28.7087 424.47 27.6647C425.514 26.6207 426.036 25.3641 426.036 23.8947C426.036 22.8507 425.688 22.0001 424.992 21.3427C424.335 20.6854 423.426 20.3567 422.266 20.3567C420.797 20.3567 419.54 20.8981 418.496 21.9807C417.491 23.0247 416.988 24.2814 416.988 25.7507C416.988 26.7947 417.317 27.6454 417.974 28.3027C418.67 28.9214 419.579 29.2307 420.7 29.2307ZM465.437 51.9667C462.885 51.9667 460.875 51.4061 459.405 50.2847C457.975 49.1247 457.259 47.5007 457.259 45.4127C457.259 44.8327 457.317 44.2527 457.433 43.6727L461.783 18.9067H469.613L465.959 39.5547C466.617 39.1681 467.487 38.9747 468.569 38.9747C470.309 38.9747 471.701 39.4581 472.745 40.4247C473.828 41.3527 474.369 42.5901 474.369 44.1367C474.369 45.6061 473.963 46.9401 473.151 48.1387C472.378 49.3374 471.315 50.2847 469.961 50.9807C468.608 51.6381 467.1 51.9667 465.437 51.9667ZM466.365 49.9367C467.835 49.9367 469.091 49.4147 470.135 48.3707C471.179 47.3267 471.701 46.0507 471.701 44.5427C471.701 43.4987 471.353 42.6674 470.657 42.0487C470 41.3914 469.091 41.0627 467.931 41.0627C466.462 41.0627 465.205 41.5847 464.161 42.6287C463.156 43.6727 462.653 44.9294 462.653 46.3987C462.653 47.4427 462.982 48.2934 463.639 48.9507C464.335 49.6081 465.244 49.9367 466.365 49.9367ZM494.573 51.9667C492.64 51.9667 491.113 51.4834 489.991 50.5167C488.87 49.5501 488.309 48.2547 488.309 46.6307C488.309 45.2387 488.677 43.9627 489.411 42.8027C490.146 41.6041 491.151 40.6761 492.427 40.0187C493.703 39.3227 495.095 38.9747 496.603 38.9747C497.415 38.9747 498.131 39.1487 498.749 39.4967L500.141 31.7827H476.941C477.715 27.4521 479.358 24.1267 481.871 21.8067C484.423 19.4867 487.691 18.3267 491.673 18.3267C493.065 18.3267 494.341 18.4814 495.501 18.7907C496.661 19.0614 497.86 19.5447 499.097 20.2407C500.721 21.1301 501.92 21.5747 502.693 21.5747C503.544 21.5747 504.279 21.2847 504.897 20.7047C505.555 20.0861 505.98 19.2934 506.173 18.3267H512.495C512.109 20.2987 511.103 21.884 509.479 23.0827C507.855 24.2814 505.903 24.8807 503.621 24.8807C502.5 24.8807 501.437 24.7647 500.431 24.5327C499.465 24.2621 498.401 23.8174 497.241 23.1987C496.12 22.5801 495.211 22.1741 494.515 21.9807C493.819 21.7874 493.046 21.6907 492.195 21.6907C488.715 21.6907 486.415 24.1074 485.293 28.9407H508.435L505.883 43.5567C505.419 46.2247 504.182 48.2934 502.171 49.7627C500.199 51.2321 497.667 51.9667 494.573 51.9667ZM494.747 49.9367C496.178 49.9367 497.415 49.4147 498.459 48.3707C499.503 47.2881 500.025 46.0121 500.025 44.5427C500.025 43.4987 499.677 42.6674 498.981 42.0487C498.285 41.3914 497.377 41.0627 496.255 41.0627C494.786 41.0627 493.529 41.5847 492.485 42.6287C491.441 43.6727 490.919 44.9294 490.919 46.3987C490.919 47.4427 491.267 48.2934 491.963 48.9507C492.659 49.6081 493.587 49.9367 494.747 49.9367ZM505.046 -0.00128341H511.948L509.628 12.9907H502.726L505.046 -0.00128341ZM517.283 51.3867C517.36 47.7521 516.703 44.1561 515.311 40.5987C513.957 37.0414 512.082 34.0641 509.685 31.6667L516.587 27.3167C518.984 29.2501 520.84 32.0534 522.155 35.7267C523.508 39.3614 524.243 43.6341 524.359 48.5447H531.145L534.277 30.7967C533.503 31.1447 532.653 31.3187 531.725 31.3187C529.946 31.3187 528.535 30.8547 527.491 29.9267C526.447 28.9601 525.925 27.7034 525.925 26.1567C525.925 24.6874 526.311 23.3534 527.085 22.1547C527.897 20.9561 528.979 20.0281 530.333 19.3707C531.686 18.6747 533.194 18.3267 534.857 18.3267C537.447 18.3267 539.439 18.9067 540.831 20.0667C542.261 21.2267 542.977 22.8314 542.977 24.8807C542.977 25.3834 542.919 25.9634 542.803 26.6207L538.453 51.3867H517.283ZM532.305 29.2307C533.774 29.2307 535.011 28.7087 536.017 27.6647C537.061 26.6207 537.583 25.3641 537.583 23.8947C537.583 22.8507 537.235 22.0001 536.539 21.3427C535.881 20.6854 534.992 20.3567 533.871 20.3567C532.44 20.3567 531.203 20.8981 530.159 21.9807C529.115 23.0247 528.593 24.2814 528.593 25.7507C528.593 26.7947 528.921 27.6454 529.579 28.3027C530.275 28.9214 531.183 29.2307 532.305 29.2307ZM544.891 48.1387C545.625 43.8081 546.07 40.3474 546.225 37.7567C546.457 34.9341 546.689 32.8847 546.921 31.6087C547.655 27.5101 549.801 24.2814 553.359 21.9227C556.955 19.5254 561.517 18.3267 567.047 18.3267C571.88 18.3267 575.631 19.1774 578.299 20.8787C581.005 22.5801 582.359 24.9001 582.359 27.8387C582.359 28.3801 582.301 28.9794 582.185 29.6367L578.357 51.3867H570.527L574.471 29.1147C574.587 28.5347 574.645 27.9547 574.645 27.3747C574.645 25.3254 573.91 23.7207 572.441 22.5607C571.01 21.3621 569.019 20.7627 566.467 20.7627C563.373 20.7627 560.802 21.6714 558.753 23.4887C556.742 25.2674 555.427 27.8194 554.809 31.1447C554.615 32.4981 554.441 33.9094 554.287 35.3787L554.055 37.2927C553.591 41.2367 553.107 44.7167 552.605 47.7327C555.35 46.5341 557.709 45.2967 559.681 44.0207C561.653 42.7447 563.431 41.2754 565.017 39.6127C564.475 39.8834 563.818 40.0187 563.045 40.0187C561.189 40.0187 559.719 39.5547 558.637 38.6267C557.554 37.6601 557.013 36.3841 557.013 34.7987C557.013 33.4067 557.38 32.1307 558.115 30.9707C558.849 29.7721 559.835 28.8247 561.073 28.1287C562.31 27.4327 563.663 27.0847 565.133 27.0847C566.95 27.0847 568.4 27.5874 569.483 28.5927C570.565 29.5981 571.107 30.9514 571.107 32.6527C571.107 34.8567 570.217 37.1574 568.439 39.5547C566.699 41.9134 564.282 44.1367 561.189 46.2247C558.095 48.3127 554.577 50.0334 550.633 51.3867H544.311L544.891 48.1387ZM563.219 37.9887C564.688 37.9887 565.945 37.4667 566.989 36.4227C568.033 35.3787 568.555 34.1221 568.555 32.6527C568.555 31.6087 568.207 30.7581 567.511 30.1007C566.853 29.4434 565.945 29.1147 564.785 29.1147C563.315 29.1147 562.059 29.6367 561.015 30.6807C559.971 31.7247 559.449 32.9814 559.449 34.4507C559.449 35.5334 559.777 36.4034 560.435 37.0607C561.131 37.6794 562.059 37.9887 563.219 37.9887ZM578.371 -0.00128341H585.273L582.953 12.9907H576.051L578.371 -0.00128341ZM600.339 51.9667C598.444 51.9667 596.936 51.4834 595.815 50.5167C594.694 49.5501 594.133 48.2547 594.133 46.6307C594.133 45.2387 594.5 43.9627 595.235 42.8027C595.97 41.6041 596.956 40.6761 598.193 40.0187C599.469 39.3227 600.861 38.9747 602.369 38.9747C603.181 38.9747 603.916 39.1681 604.573 39.5547L606.429 29.1727C606.545 28.4767 606.603 27.8194 606.603 27.2007C606.603 25.1901 606.042 23.6241 604.921 22.5027C603.8 21.3814 602.195 20.8207 600.107 20.8207C597.71 20.8207 595.622 21.5941 593.843 23.1407C592.103 24.6874 590.924 26.8141 590.305 29.5207H583.519C584.331 26.0407 586.284 23.3147 589.377 21.3427C592.509 19.332 596.356 18.3267 600.919 18.3267C605.134 18.3267 608.42 19.1387 610.779 20.7627C613.138 22.3867 614.317 24.6487 614.317 27.5487C614.317 28.1674 614.259 28.8634 614.143 29.6367L611.707 43.5567C611.243 46.1861 610.006 48.2547 607.995 49.7627C606.023 51.2321 603.471 51.9667 600.339 51.9667ZM600.455 49.9367C601.963 49.9367 603.22 49.4147 604.225 48.3707C605.269 47.3267 605.791 46.0507 605.791 44.5427C605.791 43.4987 605.443 42.6674 604.747 42.0487C604.09 41.3914 603.2 41.0627 602.079 41.0627C600.61 41.0627 599.353 41.5847 598.309 42.6287C597.265 43.6727 596.743 44.9294 596.743 46.3987C596.743 47.4427 597.072 48.2934 597.729 48.9507C598.425 49.6081 599.334 49.9367 600.455 49.9367ZM651.775 39.3227C652.703 39.7481 653.418 40.3861 653.921 41.2367C654.423 42.0487 654.675 42.9961 654.675 44.0787C654.675 45.5094 654.307 46.8434 653.573 48.0807C652.877 49.2794 651.891 50.2267 650.615 50.9227C649.377 51.6187 648.005 51.9667 646.497 51.9667C644.679 51.9667 643.229 51.4834 642.147 50.5167C641.103 49.5501 640.581 48.2547 640.581 46.6307C640.581 45.3547 640.89 44.1367 641.509 42.9767C636.907 45.2967 633.06 48.1001 629.967 51.3867H622.369L625.965 30.7967C625.191 31.1447 624.321 31.3187 623.355 31.3187C621.615 31.3187 620.223 30.8547 619.179 29.9267C618.135 28.9601 617.613 27.7034 617.613 26.1567C617.613 24.6874 617.999 23.3534 618.773 22.1547C619.546 20.9561 620.609 20.0281 621.963 19.3707C623.316 18.6747 624.824 18.3267 626.487 18.3267C629.116 18.3267 631.127 18.9067 632.519 20.0667C633.949 21.2267 634.665 22.8314 634.665 24.8807C634.665 25.3834 634.607 25.9634 634.491 26.6207L631.185 45.5287C633.273 43.8661 635.709 42.3387 638.493 40.9467C641.315 39.5161 644.061 38.4334 646.729 37.6987L650.093 18.9067H657.865L654.327 38.9747C653.476 39.0521 652.625 39.1681 651.775 39.3227ZM623.993 29.2307C625.462 29.2307 626.719 28.7087 627.763 27.6647C628.807 26.6207 629.329 25.3641 629.329 23.8947C629.329 22.8507 628.981 22.0001 628.285 21.3427C627.627 20.6854 626.719 20.3567 625.559 20.3567C624.089 20.3567 622.833 20.8981 621.789 21.9807C620.783 23.0247 620.281 24.2814 620.281 25.7507C620.281 26.7947 620.609 27.6454 621.267 28.3027C621.963 28.9214 622.871 29.2307 623.993 29.2307ZM646.845 49.7627C648.353 49.7627 649.629 49.2601 650.673 48.2547C651.755 47.2107 652.297 45.9541 652.297 44.4847C652.297 43.4021 651.929 42.5321 651.195 41.8747C650.499 41.2174 649.571 40.8887 648.411 40.8887C646.941 40.8887 645.665 41.4107 644.583 42.4547C643.539 43.4987 643.017 44.7554 643.017 46.2247C643.017 47.3074 643.365 48.1774 644.061 48.8347C644.757 49.4534 645.685 49.7627 646.845 49.7627ZM662.633 41.2947C662.942 38.8974 663.136 36.3261 663.213 33.5807C663.329 30.7967 663.406 29.1341 663.445 28.5927C663.561 25.1514 663.696 22.2321 663.851 19.8347C664.044 17.4374 664.354 15.2334 664.779 13.2227C665.05 12.1014 665.61 11.212 666.461 10.5547C667.312 9.85872 668.336 9.51072 669.535 9.51072C670.579 9.51072 671.41 9.78138 672.029 10.3227C672.648 10.8641 672.957 11.5794 672.957 12.4687C672.957 12.7781 672.938 13.0294 672.899 13.2227C672.551 15.1174 672.068 17.1861 671.449 19.4287C670.869 21.6714 670.038 24.5327 668.955 28.0127C667.215 33.5807 665.958 38.0081 665.185 41.2947H662.633ZM661.995 51.9667C660.912 51.9667 660.062 51.6767 659.443 51.0967C658.824 50.4781 658.515 49.6854 658.515 48.7187C658.515 47.3267 658.998 46.1474 659.965 45.1807C660.932 44.2141 662.092 43.7307 663.445 43.7307C664.528 43.7307 665.378 44.0207 665.997 44.6007C666.616 45.1807 666.925 45.9734 666.925 46.9787C666.925 48.3707 666.442 49.5501 665.475 50.5167C664.508 51.4834 663.348 51.9667 661.995 51.9667ZM676.766 41.2947C677.075 38.8974 677.269 36.3261 677.346 33.5807C677.462 30.7967 677.539 29.1341 677.578 28.5927C677.694 25.1514 677.829 22.2321 677.984 19.8347C678.177 17.4374 678.487 15.2334 678.912 13.2227C679.183 12.1014 679.743 11.212 680.594 10.5547C681.445 9.85872 682.469 9.51072 683.668 9.51072C684.712 9.51072 685.543 9.78138 686.162 10.3227C686.781 10.8641 687.09 11.5794 687.09 12.4687C687.09 12.7781 687.071 13.0294 687.032 13.2227C686.684 15.1174 686.201 17.1861 685.582 19.4287C685.002 21.6714 684.171 24.5327 683.088 28.0127C681.348 33.5807 680.091 38.0081 679.318 41.2947H676.766ZM676.128 51.9667C675.045 51.9667 674.195 51.6767 673.576 51.0967C672.957 50.4781 672.648 49.6854 672.648 48.7187C672.648 47.3267 673.131 46.1474 674.098 45.1807C675.065 44.2141 676.225 43.7307 677.578 43.7307C678.661 43.7307 679.511 44.0207 680.13 44.6007C680.749 45.1807 681.058 45.9734 681.058 46.9787C681.058 48.3707 680.575 49.5501 679.608 50.5167C678.641 51.4834 677.481 51.9667 676.128 51.9667Z" fill="#FF5DCA"/>
<path d="M33.5817 21.7487C35.4763 23.3341 36.4237 25.3641 36.4237 27.8387C36.4237 28.3801 36.3657 28.9794 36.2497 29.6367L32.4217 51.3867H24.5917L24.7657 50.5167C25.307 47.5781 25.5777 45.0261 25.5777 42.8607C25.5777 39.1874 24.8817 36.3841 23.4897 34.4507C22.1363 32.5174 20.145 31.5507 17.5157 31.5507C15.389 31.5507 13.4363 32.3434 11.6577 33.9287C9.879 35.4754 8.62234 37.5054 7.88767 40.0187C8.23567 39.7481 8.75767 39.5161 9.45367 39.3227C10.1497 39.0907 10.7683 38.9747 11.3097 38.9747C13.1657 38.9747 14.6543 39.4581 15.7757 40.4247C16.897 41.3914 17.4577 42.6674 17.4577 44.2527C17.4577 45.6834 17.0517 46.9981 16.2397 48.1967C15.4663 49.3567 14.3837 50.2847 12.9917 50.9807C11.5997 51.6381 10.0723 51.9667 8.40967 51.9667C5.78034 51.9667 3.71167 51.2707 2.20367 49.8787C0.734335 48.4867 -0.000331759 46.5921 -0.000331759 44.1947C-0.000331759 41.4881 0.676335 39.0327 2.02967 36.8287C3.42167 34.5861 5.31634 32.7881 7.71367 31.4347C10.1497 30.0427 12.895 29.2307 15.9497 28.9987C19.507 27.0267 22.7357 24.6681 25.6357 21.9227C24.2823 21.1881 22.6583 20.8207 20.7637 20.8207C17.9023 20.8207 15.3697 21.4781 13.1657 22.7927C11.0003 24.1074 9.473 25.9054 8.58367 28.1867H1.73967C2.861 25.1707 5.16167 22.7734 8.64167 20.9947C12.1217 19.216 16.2977 18.3267 21.1697 18.3267C23.799 18.3267 26.1577 18.5974 28.2457 19.1387C29.2123 17.9401 29.889 16.8574 30.2757 15.8907H38.8017C38.299 17.3987 36.559 19.3514 33.5817 21.7487ZM28.4777 29.1727C28.5937 28.5154 28.6517 27.8967 28.6517 27.3167C28.6517 26.5821 28.5743 25.9634 28.4197 25.4607C25.9063 27.0461 23.3737 28.3414 20.8217 29.3467C22.4457 29.7721 23.8183 30.4874 24.9397 31.4927C26.0997 32.4594 26.931 33.6774 27.4337 35.1467L28.4777 29.1727ZM11.0197 41.0627C9.55034 41.0627 8.29367 41.5847 7.24967 42.6287C6.20567 43.6727 5.68367 44.9294 5.68367 46.3987C5.68367 47.4814 6.01234 48.3514 6.66967 49.0087C7.36567 49.6274 8.29367 49.9367 9.45367 49.9367C10.923 49.9367 12.1603 49.4147 13.1657 48.3707C14.2097 47.3267 14.7317 46.0507 14.7317 44.5427C14.7317 43.4987 14.3837 42.6674 13.6877 42.0487C13.0303 41.3914 12.141 41.0627 11.0197 41.0627ZM6.16171 12.9907C6.70305 10.7867 7.80505 8.81472 9.46771 7.07472C11.1304 5.29605 13.199 3.92338 15.6737 2.95672C18.1097 1.99005 20.7584 1.50672 23.6197 1.50672C26.481 1.50672 29.0137 1.95138 31.2177 2.84072C33.383 3.69138 35.065 4.90938 36.2637 6.49472C37.4624 8.04138 38.0617 9.83938 38.0617 11.8887C38.0617 12.3914 38.0424 12.7587 38.0037 12.9907H6.16171ZM32.1457 10.5547C32.223 8.69872 31.4304 7.19072 29.7677 6.03071C28.105 4.83205 25.901 4.23272 23.1557 4.23272C20.449 4.23272 18.071 4.81272 16.0217 5.97272C13.9337 7.13272 12.5997 8.66005 12.0197 10.5547H32.1457ZM72.6864 18.9067C74.6197 18.9067 76.1084 19.2741 77.1524 20.0087C78.235 20.7434 78.7764 21.8067 78.7764 23.1987C78.7764 23.3921 78.7377 23.7594 78.6604 24.3007L73.9044 51.3287H66.0744L70.8304 24.3007L70.8884 23.9527C70.8884 23.6047 70.7724 23.3341 70.5404 23.1407C70.3084 22.9474 69.999 22.8507 69.6124 22.8507H67.9884L50.9944 51.3287H43.3384L46.9344 30.7967C46.161 31.1447 45.291 31.3187 44.3244 31.3187C42.5844 31.3187 41.1924 30.8547 40.1484 29.9267C39.1044 28.9601 38.5824 27.7034 38.5824 26.1567C38.5824 24.6874 38.969 23.3534 39.7424 22.1547C40.5157 20.9561 41.579 20.0281 42.9324 19.3707C44.3244 18.6747 45.8517 18.3267 47.5144 18.3267C50.0664 18.3267 52.0577 18.9067 53.4884 20.0667C54.9577 21.2267 55.6924 22.8314 55.6924 24.8807C55.6924 25.4607 55.6344 26.0407 55.5184 26.6207L52.6764 42.4547L66.5384 18.9067H72.6864ZM44.9624 29.2307C46.4317 29.2307 47.6884 28.7087 48.7324 27.6647C49.7764 26.6207 50.2984 25.3641 50.2984 23.8947C50.2984 22.8507 49.9504 22.0001 49.2544 21.3427C48.597 20.6854 47.6884 20.3567 46.5284 20.3567C45.059 20.3567 43.8024 20.8981 42.7584 21.9807C41.753 23.0247 41.2504 24.2814 41.2504 25.7507C41.2504 26.7947 41.579 27.6454 42.2364 28.3027C42.9324 28.9214 43.841 29.2307 44.9624 29.2307ZM83.3516 35.3207H91.1236L88.8036 48.5447H103.014L105.972 31.7827H81.8436C82.6556 27.4521 84.3182 24.1267 86.8316 21.8067C89.3836 19.4867 92.6509 18.3267 96.6336 18.3267C98.0256 18.3267 99.2822 18.4814 100.404 18.7907C101.564 19.0614 102.782 19.5447 104.058 20.2407C105.063 20.7821 105.778 21.1494 106.204 21.3427C106.668 21.4974 107.151 21.5747 107.654 21.5747C108.504 21.5747 109.239 21.2847 109.858 20.7047C110.476 20.1247 110.902 19.3514 111.134 18.3847H117.456C117.03 20.3954 116.006 21.9807 114.382 23.1407C112.796 24.3007 110.844 24.8807 108.524 24.8807C107.441 24.8807 106.397 24.7647 105.392 24.5327C104.386 24.2621 103.323 23.8174 102.202 23.1987C101.042 22.5801 100.114 22.1741 99.4176 21.9807C98.7602 21.7874 97.9869 21.6907 97.0976 21.6907C93.6176 21.6907 91.3362 24.1074 90.2536 28.9407H114.208L110.264 51.3867H80.5096L83.3516 35.3207ZM84.1309 12.9907C84.6723 10.7867 85.7743 8.81472 87.4369 7.07472C89.0996 5.29605 91.1683 3.92338 93.6429 2.95672C96.0789 1.99005 98.7276 1.50672 101.589 1.50672C104.45 1.50672 106.983 1.95138 109.187 2.84072C111.352 3.69138 113.034 4.90938 114.233 6.49472C115.432 8.04138 116.031 9.83938 116.031 11.8887C116.031 12.3914 116.012 12.7587 115.973 12.9907H84.1309ZM110.115 10.5547C110.192 8.69872 109.4 7.19072 107.737 6.03071C106.074 4.83205 103.87 4.23272 101.125 4.23272C98.4183 4.23272 96.0403 4.81272 93.9909 5.97272C91.9029 7.13272 90.5689 8.66005 89.9889 10.5547H110.115ZM118.155 38.8007C118.735 35.5141 120.611 33.2134 123.781 31.8987H117.575C118.426 27.6841 120.611 24.3781 124.129 21.9807C127.687 19.5447 132.095 18.3267 137.353 18.3267C141.839 18.3267 145.357 19.1774 147.909 20.8787C150.461 22.5414 151.737 24.8421 151.737 27.7807C151.737 28.3994 151.679 29.0374 151.563 29.6947L147.735 51.3867H139.905L143.849 29.1147C143.965 28.4187 144.023 27.7421 144.023 27.0847C144.023 25.0354 143.405 23.4694 142.167 22.3867C140.93 21.3041 139.151 20.7627 136.831 20.7627C133.854 20.7627 131.36 21.4781 129.349 22.9087C127.377 24.3394 126.043 26.3694 125.347 28.9987H133.409L133.003 31.2027C130.838 31.3961 129.233 32.0147 128.189 33.0587C127.184 34.0641 126.527 35.4947 126.217 37.3507L123.723 51.3867H115.893L118.155 38.8007ZM176.326 28.6507C176.442 27.9547 176.5 27.2781 176.5 26.6207C176.5 24.7647 175.978 23.3341 174.934 22.3287C173.89 21.2847 172.382 20.7627 170.41 20.7627C168.283 20.7627 166.408 21.4781 164.784 22.9087C163.199 24.3007 162.077 26.2727 161.42 28.8247H154.634C155.33 25.5767 157.128 23.0247 160.028 21.1687C162.928 19.274 166.543 18.3267 170.874 18.3267C175.011 18.3267 178.259 19.1387 180.618 20.7627C182.977 22.3867 184.156 24.6681 184.156 27.6067C184.156 28.2641 184.098 28.9407 183.982 29.6367L180.154 51.3867H172.382L176.326 28.6507ZM203.998 51.9667C202.065 51.9667 200.537 51.4834 199.416 50.5167C198.295 49.5501 197.734 48.2547 197.734 46.6307C197.734 45.2387 198.101 43.9627 198.836 42.8027C199.571 41.6041 200.576 40.6761 201.852 40.0187C203.128 39.3227 204.52 38.9747 206.028 38.9747C206.84 38.9747 207.555 39.1487 208.174 39.4967L209.566 31.7827H186.366C187.139 27.4521 188.783 24.1267 191.296 21.8067C193.848 19.4867 197.115 18.3267 201.098 18.3267C202.49 18.3267 203.766 18.4814 204.926 18.7907C206.086 19.0614 207.285 19.5447 208.522 20.2407C210.146 21.1301 211.345 21.5747 212.118 21.5747C212.969 21.5747 213.703 21.2847 214.322 20.7047C214.979 20.0861 215.405 19.2934 215.598 18.3267H221.92C221.533 20.2987 220.528 21.884 218.904 23.0827C217.28 24.2814 215.327 24.8807 213.046 24.8807C211.925 24.8807 210.861 24.7647 209.856 24.5327C208.889 24.2621 207.826 23.8174 206.666 23.1987C205.545 22.5801 204.636 22.1741 203.94 21.9807C203.244 21.7874 202.471 21.6907 201.62 21.6907C198.14 21.6907 195.839 24.1074 194.718 28.9407H217.86L215.308 43.5567C214.844 46.2247 213.607 48.2934 211.596 49.7627C209.624 51.2321 207.091 51.9667 203.998 51.9667ZM204.172 49.9367C205.603 49.9367 206.84 49.4147 207.884 48.3707C208.928 47.2881 209.45 46.0121 209.45 44.5427C209.45 43.4987 209.102 42.6674 208.406 42.0487C207.71 41.3914 206.801 41.0627 205.68 41.0627C204.211 41.0627 202.954 41.5847 201.91 42.6287C200.866 43.6727 200.344 44.9294 200.344 46.3987C200.344 47.4427 200.692 48.2934 201.388 48.9507C202.084 49.6081 203.012 49.9367 204.172 49.9367ZM239.583 18.3267C244.494 18.3267 248.303 19.2934 251.009 21.2267C253.755 23.1214 255.127 25.7894 255.127 29.2307C255.127 30.9321 254.528 33.7354 253.329 37.6407C252.208 41.3914 251.357 44.8907 250.777 48.1387L250.197 51.3867H241.671L237.727 41.2947C236.915 42.0294 236.026 42.6094 235.059 43.0347C234.093 43.4601 233.145 43.6727 232.217 43.6727C230.4 43.6727 228.95 43.1894 227.867 42.2227C226.785 41.2561 226.243 39.9994 226.243 38.4527C226.243 37.0221 226.63 35.7267 227.403 34.5667C228.177 33.3681 229.221 32.4207 230.535 31.7247C231.889 31.0287 233.339 30.6807 234.885 30.6807C236.625 30.6807 238.075 31.0867 239.235 31.8987C240.434 32.7107 241.304 33.9094 241.845 35.4947L244.513 42.9187C244.823 41.3721 245.151 39.9027 245.499 38.5107L245.905 36.8867C246.408 34.8374 246.775 33.1747 247.007 31.8987C247.278 30.5841 247.413 29.5207 247.413 28.7087C247.413 26.2341 246.659 24.3007 245.151 22.9087C243.643 21.4781 241.555 20.7627 238.887 20.7627C235.717 20.7627 233.049 21.5941 230.883 23.2567C228.757 24.9194 227.384 27.2007 226.765 30.1007H220.037C220.695 26.4661 222.763 23.6047 226.243 21.5167C229.762 19.39 234.209 18.3267 239.583 18.3267ZM232.507 41.6427C233.977 41.6427 235.233 41.1207 236.277 40.0767C237.321 38.9941 237.843 37.6987 237.843 36.1907C237.843 35.1467 237.495 34.3154 236.799 33.6967C236.142 33.0394 235.233 32.7107 234.073 32.7107C232.604 32.7107 231.347 33.2521 230.303 34.3347C229.259 35.3787 228.737 36.6354 228.737 38.1047C228.737 39.1487 229.085 39.9994 229.781 40.6567C230.477 41.3141 231.386 41.6427 232.507 41.6427ZM257.544 39.4387C258.008 36.8481 259.207 34.8181 261.14 33.3487C263.112 31.8794 265.567 31.1447 268.506 31.1447C270.478 31.1447 272.063 31.6474 273.262 32.6527C274.499 33.6581 275.118 34.9534 275.118 36.5387C275.118 37.8921 274.751 39.1681 274.016 40.3667C273.32 41.5267 272.353 42.4547 271.116 43.1507C269.879 43.8081 268.525 44.1367 267.056 44.1367C266.553 44.1367 266.07 44.0787 265.606 43.9627C265.142 43.8467 264.794 43.7114 264.562 43.5567L263.692 48.6027H281.092L284.34 30.1587C284.456 29.4627 284.514 28.8054 284.514 28.1867C284.514 25.8667 283.741 24.0494 282.194 22.7347C280.647 21.4201 278.482 20.7627 275.698 20.7627C272.643 20.7627 270.014 21.5554 267.81 23.1407C265.606 24.6874 264.156 26.8141 263.46 29.5207H256.732C257.66 26.0794 259.864 23.3534 263.344 21.3427C266.824 19.332 271.135 18.3267 276.278 18.3267C281.227 18.3267 285.113 19.274 287.936 21.1687C290.759 23.0247 292.17 25.6154 292.17 28.9407C292.17 29.5981 292.112 30.3134 291.996 31.0867L288.4 51.3867H255.456L257.544 39.4387ZM267.172 42.1067C268.641 42.1067 269.879 41.5847 270.884 40.5407C271.928 39.4967 272.45 38.2207 272.45 36.7127C272.45 35.6687 272.102 34.8374 271.406 34.2187C270.749 33.5614 269.859 33.2327 268.738 33.2327C267.269 33.2327 266.012 33.7547 264.968 34.7987C263.924 35.8427 263.402 37.0994 263.402 38.5687C263.402 39.6127 263.731 40.4634 264.388 41.1207C265.084 41.7781 266.012 42.1067 267.172 42.1067ZM302.295 51.3867C302.373 47.7521 301.715 44.1561 300.323 40.5987C298.97 37.0414 297.095 34.0641 294.697 31.6667L301.599 27.3167C303.997 29.2501 305.853 32.0534 307.167 35.7267C308.521 39.3614 309.255 43.6341 309.371 48.5447H316.157L319.289 30.7967C318.516 31.1447 317.665 31.3187 316.737 31.3187C314.959 31.3187 313.547 30.8547 312.503 29.9267C311.459 28.9601 310.937 27.7034 310.937 26.1567C310.937 24.6874 311.324 23.3534 312.097 22.1547C312.909 20.9561 313.992 20.0281 315.345 19.3707C316.699 18.6747 318.207 18.3267 319.869 18.3267C322.46 18.3267 324.451 18.9067 325.843 20.0667C327.274 21.2267 327.989 22.8314 327.989 24.8807C327.989 25.3834 327.931 25.9634 327.815 26.6207L323.465 51.3867H302.295ZM317.317 29.2307C318.787 29.2307 320.024 28.7087 321.029 27.6647C322.073 26.6207 322.595 25.3641 322.595 23.8947C322.595 22.8507 322.247 22.0001 321.551 21.3427C320.894 20.6854 320.005 20.3567 318.883 20.3567C317.453 20.3567 316.215 20.8981 315.171 21.9807C314.127 23.0247 313.605 24.2814 313.605 25.7507C313.605 26.7947 313.934 27.6454 314.591 28.3027C315.287 28.9214 316.196 29.2307 317.317 29.2307ZM340.343 51.9667C337.791 51.9667 335.781 51.4061 334.311 50.2847C332.881 49.1247 332.165 47.5007 332.165 45.4127C332.165 44.8327 332.223 44.2527 332.339 43.6727L336.689 18.9067H344.519L340.865 39.5547C341.523 39.1681 342.393 38.9747 343.475 38.9747C345.215 38.9747 346.607 39.4581 347.651 40.4247C348.734 41.3527 349.275 42.5901 349.275 44.1367C349.275 45.6061 348.869 46.9401 348.057 48.1387C347.284 49.3374 346.221 50.2847 344.867 50.9807C343.514 51.6381 342.006 51.9667 340.343 51.9667ZM360.179 51.9667C357.627 51.9667 355.617 51.4061 354.147 50.2847C352.717 49.1247 352.001 47.5007 352.001 45.4127C352.001 44.8327 352.059 44.2527 352.175 43.6727L356.583 18.9067H364.413L360.759 39.5547C361.417 39.1681 362.267 38.9747 363.311 38.9747C365.09 38.9747 366.501 39.4581 367.545 40.4247C368.589 41.3527 369.111 42.5901 369.111 44.1367C369.111 45.6061 368.705 46.9401 367.893 48.1387C367.12 49.3374 366.057 50.2847 364.703 50.9807C363.35 51.6381 361.842 51.9667 360.179 51.9667ZM341.271 49.9367C342.741 49.9367 343.997 49.4147 345.041 48.3707C346.085 47.3267 346.607 46.0507 346.607 44.5427C346.607 43.4987 346.259 42.6674 345.563 42.0487C344.906 41.3914 343.997 41.0627 342.837 41.0627C341.368 41.0627 340.111 41.5847 339.067 42.6287C338.062 43.6727 337.559 44.9294 337.559 46.3987C337.559 47.4427 337.888 48.2934 338.545 48.9507C339.241 49.6081 340.15 49.9367 341.271 49.9367ZM361.165 49.9367C362.635 49.9367 363.891 49.4147 364.935 48.3707C365.979 47.3267 366.501 46.0507 366.501 44.5427C366.501 43.4987 366.153 42.6674 365.457 42.0487C364.761 41.3914 363.853 41.0627 362.731 41.0627C361.262 41.0627 360.005 41.5847 358.961 42.6287C357.917 43.6727 357.395 44.9294 357.395 46.3987C357.395 47.4427 357.743 48.2934 358.439 48.9507C359.135 49.6081 360.044 49.9367 361.165 49.9367ZM381.125 30.7387C380.429 31.1254 379.559 31.3187 378.515 31.3187C376.775 31.3187 375.383 30.8547 374.339 29.9267C373.295 28.9601 372.773 27.7034 372.773 26.1567C372.773 24.6874 373.16 23.3534 373.933 22.1547C374.707 20.9561 375.77 20.0281 377.123 19.3707C378.515 18.6747 380.043 18.3267 381.705 18.3267C384.257 18.3267 386.249 18.9067 387.679 20.0667C389.149 21.2267 389.883 22.8314 389.883 24.8807C389.883 25.4607 389.825 26.0407 389.709 26.6207L385.823 48.6607H399.685L404.905 18.9067H412.735L406.993 51.3867H377.529L381.125 30.7387ZM379.153 29.2307C380.623 29.2307 381.879 28.7087 382.923 27.6647C383.967 26.6207 384.489 25.3641 384.489 23.8947C384.489 22.8507 384.141 22.0001 383.445 21.3427C382.788 20.6854 381.879 20.3567 380.719 20.3567C379.25 20.3567 377.993 20.8981 376.949 21.9807C375.944 23.0247 375.441 24.2814 375.441 25.7507C375.441 26.7947 375.77 27.6454 376.427 28.3027C377.123 28.9214 378.032 29.2307 379.153 29.2307ZM422.672 30.7387C421.976 31.1254 421.106 31.3187 420.062 31.3187C418.322 31.3187 416.93 30.8547 415.886 29.9267C414.842 28.9601 414.32 27.7034 414.32 26.1567C414.32 24.6874 414.707 23.3534 415.48 22.1547C416.254 20.9561 417.317 20.0281 418.67 19.3707C420.062 18.6747 421.59 18.3267 423.252 18.3267C425.804 18.3267 427.796 18.9067 429.226 20.0667C430.696 21.2267 431.43 22.8314 431.43 24.8807C431.43 25.4607 431.372 26.0407 431.256 26.6207L427.37 48.6607H441.232L446.452 18.9067H454.282L448.54 51.3867H419.076L422.672 30.7387ZM420.7 29.2307C422.17 29.2307 423.426 28.7087 424.47 27.6647C425.514 26.6207 426.036 25.3641 426.036 23.8947C426.036 22.8507 425.688 22.0001 424.992 21.3427C424.335 20.6854 423.426 20.3567 422.266 20.3567C420.797 20.3567 419.54 20.8981 418.496 21.9807C417.491 23.0247 416.988 24.2814 416.988 25.7507C416.988 26.7947 417.317 27.6454 417.974 28.3027C418.67 28.9214 419.579 29.2307 420.7 29.2307ZM465.437 51.9667C462.885 51.9667 460.875 51.4061 459.405 50.2847C457.975 49.1247 457.259 47.5007 457.259 45.4127C457.259 44.8327 457.317 44.2527 457.433 43.6727L461.783 18.9067H469.613L465.959 39.5547C466.617 39.1681 467.487 38.9747 468.569 38.9747C470.309 38.9747 471.701 39.4581 472.745 40.4247C473.828 41.3527 474.369 42.5901 474.369 44.1367C474.369 45.6061 473.963 46.9401 473.151 48.1387C472.378 49.3374 471.315 50.2847 469.961 50.9807C468.608 51.6381 467.1 51.9667 465.437 51.9667ZM466.365 49.9367C467.835 49.9367 469.091 49.4147 470.135 48.3707C471.179 47.3267 471.701 46.0507 471.701 44.5427C471.701 43.4987 471.353 42.6674 470.657 42.0487C470 41.3914 469.091 41.0627 467.931 41.0627C466.462 41.0627 465.205 41.5847 464.161 42.6287C463.156 43.6727 462.653 44.9294 462.653 46.3987C462.653 47.4427 462.982 48.2934 463.639 48.9507C464.335 49.6081 465.244 49.9367 466.365 49.9367ZM494.573 51.9667C492.64 51.9667 491.113 51.4834 489.991 50.5167C488.87 49.5501 488.309 48.2547 488.309 46.6307C488.309 45.2387 488.677 43.9627 489.411 42.8027C490.146 41.6041 491.151 40.6761 492.427 40.0187C493.703 39.3227 495.095 38.9747 496.603 38.9747C497.415 38.9747 498.131 39.1487 498.749 39.4967L500.141 31.7827H476.941C477.715 27.4521 479.358 24.1267 481.871 21.8067C484.423 19.4867 487.691 18.3267 491.673 18.3267C493.065 18.3267 494.341 18.4814 495.501 18.7907C496.661 19.0614 497.86 19.5447 499.097 20.2407C500.721 21.1301 501.92 21.5747 502.693 21.5747C503.544 21.5747 504.279 21.2847 504.897 20.7047C505.555 20.0861 505.98 19.2934 506.173 18.3267H512.495C512.109 20.2987 511.103 21.884 509.479 23.0827C507.855 24.2814 505.903 24.8807 503.621 24.8807C502.5 24.8807 501.437 24.7647 500.431 24.5327C499.465 24.2621 498.401 23.8174 497.241 23.1987C496.12 22.5801 495.211 22.1741 494.515 21.9807C493.819 21.7874 493.046 21.6907 492.195 21.6907C488.715 21.6907 486.415 24.1074 485.293 28.9407H508.435L505.883 43.5567C505.419 46.2247 504.182 48.2934 502.171 49.7627C500.199 51.2321 497.667 51.9667 494.573 51.9667ZM494.747 49.9367C496.178 49.9367 497.415 49.4147 498.459 48.3707C499.503 47.2881 500.025 46.0121 500.025 44.5427C500.025 43.4987 499.677 42.6674 498.981 42.0487C498.285 41.3914 497.377 41.0627 496.255 41.0627C494.786 41.0627 493.529 41.5847 492.485 42.6287C491.441 43.6727 490.919 44.9294 490.919 46.3987C490.919 47.4427 491.267 48.2934 491.963 48.9507C492.659 49.6081 493.587 49.9367 494.747 49.9367ZM505.046 -0.00128341H511.948L509.628 12.9907H502.726L505.046 -0.00128341ZM517.283 51.3867C517.36 47.7521 516.703 44.1561 515.311 40.5987C513.957 37.0414 512.082 34.0641 509.685 31.6667L516.587 27.3167C518.984 29.2501 520.84 32.0534 522.155 35.7267C523.508 39.3614 524.243 43.6341 524.359 48.5447H531.145L534.277 30.7967C533.503 31.1447 532.653 31.3187 531.725 31.3187C529.946 31.3187 528.535 30.8547 527.491 29.9267C526.447 28.9601 525.925 27.7034 525.925 26.1567C525.925 24.6874 526.311 23.3534 527.085 22.1547C527.897 20.9561 528.979 20.0281 530.333 19.3707C531.686 18.6747 533.194 18.3267 534.857 18.3267C537.447 18.3267 539.439 18.9067 540.831 20.0667C542.261 21.2267 542.977 22.8314 542.977 24.8807C542.977 25.3834 542.919 25.9634 542.803 26.6207L538.453 51.3867H517.283ZM532.305 29.2307C533.774 29.2307 535.011 28.7087 536.017 27.6647C537.061 26.6207 537.583 25.3641 537.583 23.8947C537.583 22.8507 537.235 22.0001 536.539 21.3427C535.881 20.6854 534.992 20.3567 533.871 20.3567C532.44 20.3567 531.203 20.8981 530.159 21.9807C529.115 23.0247 528.593 24.2814 528.593 25.7507C528.593 26.7947 528.921 27.6454 529.579 28.3027C530.275 28.9214 531.183 29.2307 532.305 29.2307ZM544.891 48.1387C545.625 43.8081 546.07 40.3474 546.225 37.7567C546.457 34.9341 546.689 32.8847 546.921 31.6087C547.655 27.5101 549.801 24.2814 553.359 21.9227C556.955 19.5254 561.517 18.3267 567.047 18.3267C571.88 18.3267 575.631 19.1774 578.299 20.8787C581.005 22.5801 582.359 24.9001 582.359 27.8387C582.359 28.3801 582.301 28.9794 582.185 29.6367L578.357 51.3867H570.527L574.471 29.1147C574.587 28.5347 574.645 27.9547 574.645 27.3747C574.645 25.3254 573.91 23.7207 572.441 22.5607C571.01 21.3621 569.019 20.7627 566.467 20.7627C563.373 20.7627 560.802 21.6714 558.753 23.4887C556.742 25.2674 555.427 27.8194 554.809 31.1447C554.615 32.4981 554.441 33.9094 554.287 35.3787L554.055 37.2927C553.591 41.2367 553.107 44.7167 552.605 47.7327C555.35 46.5341 557.709 45.2967 559.681 44.0207C561.653 42.7447 563.431 41.2754 565.017 39.6127C564.475 39.8834 563.818 40.0187 563.045 40.0187C561.189 40.0187 559.719 39.5547 558.637 38.6267C557.554 37.6601 557.013 36.3841 557.013 34.7987C557.013 33.4067 557.38 32.1307 558.115 30.9707C558.849 29.7721 559.835 28.8247 561.073 28.1287C562.31 27.4327 563.663 27.0847 565.133 27.0847C566.95 27.0847 568.4 27.5874 569.483 28.5927C570.565 29.5981 571.107 30.9514 571.107 32.6527C571.107 34.8567 570.217 37.1574 568.439 39.5547C566.699 41.9134 564.282 44.1367 561.189 46.2247C558.095 48.3127 554.577 50.0334 550.633 51.3867H544.311L544.891 48.1387ZM563.219 37.9887C564.688 37.9887 565.945 37.4667 566.989 36.4227C568.033 35.3787 568.555 34.1221 568.555 32.6527C568.555 31.6087 568.207 30.7581 567.511 30.1007C566.853 29.4434 565.945 29.1147 564.785 29.1147C563.315 29.1147 562.059 29.6367 561.015 30.6807C559.971 31.7247 559.449 32.9814 559.449 34.4507C559.449 35.5334 559.777 36.4034 560.435 37.0607C561.131 37.6794 562.059 37.9887 563.219 37.9887ZM578.371 -0.00128341H585.273L582.953 12.9907H576.051L578.371 -0.00128341ZM600.339 51.9667C598.444 51.9667 596.936 51.4834 595.815 50.5167C594.694 49.5501 594.133 48.2547 594.133 46.6307C594.133 45.2387 594.5 43.9627 595.235 42.8027C595.97 41.6041 596.956 40.6761 598.193 40.0187C599.469 39.3227 600.861 38.9747 602.369 38.9747C603.181 38.9747 603.916 39.1681 604.573 39.5547L606.429 29.1727C606.545 28.4767 606.603 27.8194 606.603 27.2007C606.603 25.1901 606.042 23.6241 604.921 22.5027C603.8 21.3814 602.195 20.8207 600.107 20.8207C597.71 20.8207 595.622 21.5941 593.843 23.1407C592.103 24.6874 590.924 26.8141 590.305 29.5207H583.519C584.331 26.0407 586.284 23.3147 589.377 21.3427C592.509 19.332 596.356 18.3267 600.919 18.3267C605.134 18.3267 608.42 19.1387 610.779 20.7627C613.138 22.3867 614.317 24.6487 614.317 27.5487C614.317 28.1674 614.259 28.8634 614.143 29.6367L611.707 43.5567C611.243 46.1861 610.006 48.2547 607.995 49.7627C606.023 51.2321 603.471 51.9667 600.339 51.9667ZM600.455 49.9367C601.963 49.9367 603.22 49.4147 604.225 48.3707C605.269 47.3267 605.791 46.0507 605.791 44.5427C605.791 43.4987 605.443 42.6674 604.747 42.0487C604.09 41.3914 603.2 41.0627 602.079 41.0627C600.61 41.0627 599.353 41.5847 598.309 42.6287C597.265 43.6727 596.743 44.9294 596.743 46.3987C596.743 47.4427 597.072 48.2934 597.729 48.9507C598.425 49.6081 599.334 49.9367 600.455 49.9367ZM651.775 39.3227C652.703 39.7481 653.418 40.3861 653.921 41.2367C654.423 42.0487 654.675 42.9961 654.675 44.0787C654.675 45.5094 654.307 46.8434 653.573 48.0807C652.877 49.2794 651.891 50.2267 650.615 50.9227C649.377 51.6187 648.005 51.9667 646.497 51.9667C644.679 51.9667 643.229 51.4834 642.147 50.5167C641.103 49.5501 640.581 48.2547 640.581 46.6307C640.581 45.3547 640.89 44.1367 641.509 42.9767C636.907 45.2967 633.06 48.1001 629.967 51.3867H622.369L625.965 30.7967C625.191 31.1447 624.321 31.3187 623.355 31.3187C621.615 31.3187 620.223 30.8547 619.179 29.9267C618.135 28.9601 617.613 27.7034 617.613 26.1567C617.613 24.6874 617.999 23.3534 618.773 22.1547C619.546 20.9561 620.609 20.0281 621.963 19.3707C623.316 18.6747 624.824 18.3267 626.487 18.3267C629.116 18.3267 631.127 18.9067 632.519 20.0667C633.949 21.2267 634.665 22.8314 634.665 24.8807C634.665 25.3834 634.607 25.9634 634.491 26.6207L631.185 45.5287C633.273 43.8661 635.709 42.3387 638.493 40.9467C641.315 39.5161 644.061 38.4334 646.729 37.6987L650.093 18.9067H657.865L654.327 38.9747C653.476 39.0521 652.625 39.1681 651.775 39.3227ZM623.993 29.2307C625.462 29.2307 626.719 28.7087 627.763 27.6647C628.807 26.6207 629.329 25.3641 629.329 23.8947C629.329 22.8507 628.981 22.0001 628.285 21.3427C627.627 20.6854 626.719 20.3567 625.559 20.3567C624.089 20.3567 622.833 20.8981 621.789 21.9807C620.783 23.0247 620.281 24.2814 620.281 25.7507C620.281 26.7947 620.609 27.6454 621.267 28.3027C621.963 28.9214 622.871 29.2307 623.993 29.2307ZM646.845 49.7627C648.353 49.7627 649.629 49.2601 650.673 48.2547C651.755 47.2107 652.297 45.9541 652.297 44.4847C652.297 43.4021 651.929 42.5321 651.195 41.8747C650.499 41.2174 649.571 40.8887 648.411 40.8887C646.941 40.8887 645.665 41.4107 644.583 42.4547C643.539 43.4987 643.017 44.7554 643.017 46.2247C643.017 47.3074 643.365 48.1774 644.061 48.8347C644.757 49.4534 645.685 49.7627 646.845 49.7627ZM662.633 41.2947C662.942 38.8974 663.136 36.3261 663.213 33.5807C663.329 30.7967 663.406 29.1341 663.445 28.5927C663.561 25.1514 663.696 22.2321 663.851 19.8347C664.044 17.4374 664.354 15.2334 664.779 13.2227C665.05 12.1014 665.61 11.212 666.461 10.5547C667.312 9.85872 668.336 9.51072 669.535 9.51072C670.579 9.51072 671.41 9.78138 672.029 10.3227C672.648 10.8641 672.957 11.5794 672.957 12.4687C672.957 12.7781 672.938 13.0294 672.899 13.2227C672.551 15.1174 672.068 17.1861 671.449 19.4287C670.869 21.6714 670.038 24.5327 668.955 28.0127C667.215 33.5807 665.958 38.0081 665.185 41.2947H662.633ZM661.995 51.9667C660.912 51.9667 660.062 51.6767 659.443 51.0967C658.824 50.4781 658.515 49.6854 658.515 48.7187C658.515 47.3267 658.998 46.1474 659.965 45.1807C660.932 44.2141 662.092 43.7307 663.445 43.7307C664.528 43.7307 665.378 44.0207 665.997 44.6007C666.616 45.1807 666.925 45.9734 666.925 46.9787C666.925 48.3707 666.442 49.5501 665.475 50.5167C664.508 51.4834 663.348 51.9667 661.995 51.9667ZM676.766 41.2947C677.075 38.8974 677.269 36.3261 677.346 33.5807C677.462 30.7967 677.539 29.1341 677.578 28.5927C677.694 25.1514 677.829 22.2321 677.984 19.8347C678.177 17.4374 678.487 15.2334 678.912 13.2227C679.183 12.1014 679.743 11.212 680.594 10.5547C681.445 9.85872 682.469 9.51072 683.668 9.51072C684.712 9.51072 685.543 9.78138 686.162 10.3227C686.781 10.8641 687.09 11.5794 687.09 12.4687C687.09 12.7781 687.071 13.0294 687.032 13.2227C686.684 15.1174 686.201 17.1861 685.582 19.4287C685.002 21.6714 684.171 24.5327 683.088 28.0127C681.348 33.5807 680.091 38.0081 679.318 41.2947H676.766ZM676.128 51.9667C675.045 51.9667 674.195 51.6767 673.576 51.0967C672.957 50.4781 672.648 49.6854 672.648 48.7187C672.648 47.3267 673.131 46.1474 674.098 45.1807C675.065 44.2141 676.225 43.7307 677.578 43.7307C678.661 43.7307 679.511 44.0207 680.13 44.6007C680.749 45.1807 681.058 45.9734 681.058 46.9787C681.058 48.3707 680.575 49.5501 679.608 50.5167C678.641 51.4834 677.481 51.9667 676.128 51.9667Z" fill="url(#paint0_linear_6205_33893)"/>
<defs>
<linearGradient id="paint0_linear_6205_33893" x1="124.593" y1="14.0966" x2="502.682" y2="301.422" gradientUnits="userSpaceOnUse">
<stop stop-color="#3E57E2"/>
<stop offset="0.4" stop-color="#B133FF"/>
<stop offset="1" stop-color="#FF5DCA"/>
</linearGradient>
</defs>
</svg>
