<svg width="690" height="42" viewBox="0 0 690 42" fill="none" xmlns="http://www.w3.org/2000/svg">
<path d="M0.000124761 40.6016L0.116125 40.0216L1.39212 39.4996C2.66812 38.9582 3.44146 38.0302 3.71212 36.7156L6.78612 20.3016C7.17279 18.2522 7.57879 15.9902 8.00412 13.5156C8.42946 11.0022 8.83546 8.62423 9.22213 6.38156C9.49279 4.83489 8.89346 3.77156 7.42413 3.19156L6.84413 2.90156L6.96013 2.32156H33.7561L32.1321 12.4136H31.5521L30.2761 7.48356C29.8508 6.01423 29.2515 4.98956 28.4781 4.40956C27.7048 3.79089 26.5255 3.48156 24.9401 3.48156H17.8061L14.6161 20.3016H18.9661C20.0488 20.3016 20.9381 20.1276 21.6341 19.7796C22.3688 19.3929 23.0455 18.7742 23.6641 17.9236L25.9261 14.9656H26.5061L24.2441 27.0876H23.6641L22.7361 24.4776C22.3881 23.4336 21.9241 22.6796 21.3441 22.2156C20.8028 21.7129 19.9715 21.4616 18.8501 21.4616H14.3841C14.1135 22.8922 13.8041 24.4969 13.4561 26.2756C13.1468 28.0156 12.8375 29.7942 12.5281 31.6116C12.2188 33.3902 11.9288 35.0529 11.6581 36.5996C11.4261 38.0302 11.9675 38.9969 13.2821 39.4996L14.6741 40.0216L14.5581 40.6016H0.000124761ZM35.468 41.4716C34.3854 41.4716 33.3607 41.2202 32.394 40.7176C31.4274 40.2149 30.6347 39.3836 30.016 38.2236C29.436 37.0636 29.146 35.5362 29.146 33.6416C29.146 31.5922 29.552 29.5429 30.364 27.4936C31.176 25.4056 32.2587 23.4336 33.612 21.5776C34.9654 19.6829 36.4734 18.0202 38.136 16.5896C39.7987 15.1202 41.5194 13.9602 43.298 13.1096C45.0767 12.2589 46.7587 11.8336 48.344 11.8336C49.1174 11.8336 49.8327 11.9882 50.49 12.2976C51.186 12.5682 51.8434 12.9549 52.462 13.4576L57.16 11.6596L57.624 11.9496L52.578 34.1636C52.3074 35.2462 52.172 36.1356 52.172 36.8316C52.172 37.6436 52.5394 38.0496 53.274 38.0496C53.8154 38.0496 54.434 37.7982 55.13 37.2956C55.8647 36.7929 56.696 36.1162 57.624 35.2656L58.088 35.7296C57.508 36.6576 56.7734 37.5662 55.884 38.4556C55.0334 39.3062 54.0667 40.0216 52.984 40.6016C51.94 41.1816 50.8187 41.4716 49.62 41.4716C48.3054 41.4716 47.242 41.0849 46.43 40.3116C45.618 39.4996 45.212 38.2622 45.212 36.5996C45.212 36.0582 45.2314 35.5362 45.27 35.0336C43.7234 36.7736 42.08 38.2816 40.34 39.5576C38.6387 40.8336 37.0147 41.4716 35.468 41.4716ZM35.99 31.0316C35.99 33.0809 36.3187 34.5696 36.976 35.4976C37.672 36.3869 38.5807 36.8316 39.702 36.8316C40.63 36.8316 41.558 36.5416 42.486 35.9616C43.414 35.3816 44.4194 34.5502 45.502 33.4676C45.5794 33.0036 45.676 32.5202 45.792 32.0176L49.446 15.3136C48.9434 14.6949 48.344 14.2696 47.648 14.0376C46.952 13.8056 46.3334 13.6896 45.792 13.6896C44.1294 13.6896 42.3894 14.6756 40.572 16.6476C39.1414 18.2329 38.02 20.3209 37.208 22.9116C36.396 25.5022 35.99 28.2089 35.99 31.0316ZM67.5212 41.4716C65.0852 41.4716 63.1132 40.9882 61.6052 40.0216C60.0972 39.0549 59.3432 37.6822 59.3432 35.9036C59.3432 34.9756 59.6719 34.1636 60.3292 33.4676C60.9865 32.7716 61.8372 32.4236 62.8812 32.4236C64.8145 32.4236 66.0132 33.6029 66.4772 35.9616L66.8252 37.5856C67.0185 38.3976 67.2505 39.0549 67.5212 39.5576C67.8305 40.0602 68.4105 40.3116 69.2612 40.3116C70.2279 40.3116 71.0785 39.9056 71.8132 39.0936C72.5479 38.2816 72.9152 37.1602 72.9152 35.7296C72.9152 34.6469 72.5672 33.6029 71.8712 32.5976C71.2139 31.5922 70.0925 30.4902 68.5072 29.2916C66.9219 28.0542 65.6459 26.7782 64.6792 25.4636C63.7125 24.1102 63.2292 22.5056 63.2292 20.6496C63.2292 19.0256 63.6352 17.5562 64.4472 16.2416C65.2979 14.8882 66.5159 13.8249 68.1012 13.0516C69.6865 12.2396 71.5619 11.8336 73.7272 11.8336C76.2405 11.8336 78.2125 12.3362 79.6432 13.3416C81.1125 14.3469 81.8472 15.6422 81.8472 17.2276C81.8472 18.0782 81.5959 18.7936 81.0932 19.3736C80.5905 19.9149 79.8365 20.1856 78.8312 20.1856C76.9752 20.1856 75.7185 19.0642 75.0612 16.8216L74.4812 15.1976C74.2879 14.4242 74.0559 13.8829 73.7852 13.5736C73.5145 13.2642 73.0892 13.1096 72.5092 13.1096C71.8905 13.1096 71.2525 13.4576 70.5952 14.1536C69.9379 14.8109 69.6092 15.8742 69.6092 17.3436C69.6092 18.7356 70.0152 20.0116 70.8272 21.1716C71.6779 22.2929 72.9345 23.4722 74.5972 24.7096C76.2985 25.9856 77.5359 27.2229 78.3092 28.4216C79.1212 29.6202 79.5272 31.0702 79.5272 32.7716C79.5272 34.3569 79.0632 35.8069 78.1352 37.1216C77.2072 38.4362 75.8539 39.4996 74.0752 40.3116C72.2965 41.0849 70.1119 41.4716 67.5212 41.4716ZM88.4143 41.4716C87.2157 41.4716 86.2103 41.1622 85.3983 40.5436C84.625 39.8862 84.2383 38.9389 84.2383 37.7016C84.2383 36.9282 84.3157 36.0969 84.4703 35.2076C84.625 34.2796 84.799 33.2936 84.9923 32.2496L88.9943 13.9216H84.1803L84.3543 13.2256L86.4423 12.9936C87.525 12.8776 88.4723 12.6069 89.2843 12.1816C90.0963 11.7562 90.8697 11.1569 91.6043 10.3836L97.1723 4.75756H98.0423L96.4183 12.7036H102.74L102.45 13.9216H96.1283L92.1263 33.2356C91.9717 33.9702 91.8557 34.6082 91.7783 35.1496C91.701 35.6522 91.6623 36.0776 91.6623 36.4256C91.6623 36.8122 91.7783 37.1216 92.0103 37.3536C92.2423 37.5856 92.4937 37.7016 92.7643 37.7016C93.3057 37.7016 93.8857 37.4889 94.5043 37.0636C95.123 36.5996 95.8963 35.9229 96.8243 35.0336L97.5203 35.6136C96.5537 37.0442 95.297 38.3782 93.7503 39.6156C92.2037 40.8529 90.425 41.4716 88.4143 41.4716ZM110.483 40.6016L110.599 40.0216L111.527 39.6736C113.074 39.0549 113.983 37.9722 114.253 36.4256L117.269 20.3016C117.656 18.0976 118.062 15.8162 118.487 13.4576C118.913 11.0602 119.319 8.72089 119.705 6.43956C120.015 4.85423 119.415 3.75223 117.907 3.13356L117.327 2.90156L117.443 2.32156H132.059C136.429 2.32156 139.657 3.13356 141.745 4.75756C143.833 6.34289 144.877 8.50823 144.877 11.2536C144.877 13.6122 144.065 15.7002 142.441 17.5176C140.817 19.3349 138.497 20.6882 135.481 21.5776L141.397 36.6576C142.016 38.1269 142.983 39.1709 144.297 39.7896L144.703 40.0216L144.529 40.6016H134.147L128.289 22.9696H124.577C124.191 24.9802 123.804 27.1069 123.417 29.3496C123.031 31.5922 122.625 33.9702 122.199 36.4836C121.929 38.0302 122.528 39.0936 123.997 39.6736L124.693 40.0216L124.577 40.6016H110.483ZM124.809 21.8096H127.709C130.841 21.7322 133.181 20.7849 134.727 18.9676C136.313 17.1116 137.105 14.5982 137.105 11.4276C137.105 6.13023 134.901 3.48156 130.493 3.48156H128.289L124.809 21.8096ZM158.274 41.4716C155.374 41.4716 153.015 40.5242 151.198 38.6296C149.381 36.7349 148.472 34.0476 148.472 30.5676C148.472 28.0929 148.897 25.7342 149.748 23.4916C150.599 21.2489 151.778 19.2576 153.286 17.5176C154.833 15.7389 156.611 14.3469 158.622 13.3416C160.633 12.3362 162.817 11.8336 165.176 11.8336C167.612 11.8336 169.468 12.3942 170.744 13.5156C172.059 14.5982 172.716 16.0482 172.716 17.8656C172.716 19.3736 172.001 20.8622 170.57 22.3316C169.178 23.8009 167.206 25.1349 164.654 26.3336C162.102 27.4936 159.105 28.3829 155.664 29.0016C155.703 31.6696 156.283 33.6222 157.404 34.8596C158.525 36.0969 160.072 36.7156 162.044 36.7156C163.707 36.7156 165.234 36.2709 166.626 35.3816C168.018 34.4536 169.197 33.3709 170.164 32.1336L170.744 32.5396C169.971 34.0476 168.965 35.4782 167.728 36.8316C166.529 38.1849 165.137 39.3062 163.552 40.1956C161.967 41.0462 160.207 41.4716 158.274 41.4716ZM164.77 13.3996C163.881 13.3996 162.914 13.7862 161.87 14.5596C160.865 15.3329 159.898 16.3962 158.97 17.7496C158.081 19.0642 157.327 20.5916 156.708 22.3316C156.128 24.0329 155.78 25.8502 155.664 27.7836C159.917 26.6236 162.933 25.0962 164.712 23.2016C166.529 21.3069 167.438 19.1609 167.438 16.7636C167.438 15.6036 167.187 14.7529 166.684 14.2116C166.181 13.6702 165.543 13.3996 164.77 13.3996ZM180.1 41.4716C177.664 41.4716 175.692 40.9882 174.184 40.0216C172.676 39.0549 171.922 37.6822 171.922 35.9036C171.922 34.9756 172.251 34.1636 172.908 33.4676C173.565 32.7716 174.416 32.4236 175.46 32.4236C177.393 32.4236 178.592 33.6029 179.056 35.9616L179.404 37.5856C179.597 38.3976 179.829 39.0549 180.1 39.5576C180.409 40.0602 180.989 40.3116 181.84 40.3116C182.807 40.3116 183.657 39.9056 184.392 39.0936C185.127 38.2816 185.494 37.1602 185.494 35.7296C185.494 34.6469 185.146 33.6029 184.45 32.5976C183.793 31.5922 182.671 30.4902 181.086 29.2916C179.501 28.0542 178.225 26.7782 177.258 25.4636C176.291 24.1102 175.808 22.5056 175.808 20.6496C175.808 19.0256 176.214 17.5562 177.026 16.2416C177.877 14.8882 179.095 13.8249 180.68 13.0516C182.265 12.2396 184.141 11.8336 186.306 11.8336C188.819 11.8336 190.791 12.3362 192.222 13.3416C193.691 14.3469 194.426 15.6422 194.426 17.2276C194.426 18.0782 194.175 18.7936 193.672 19.3736C193.169 19.9149 192.415 20.1856 191.41 20.1856C189.554 20.1856 188.297 19.0642 187.64 16.8216L187.06 15.1976C186.867 14.4242 186.635 13.8829 186.364 13.5736C186.093 13.2642 185.668 13.1096 185.088 13.1096C184.469 13.1096 183.831 13.4576 183.174 14.1536C182.517 14.8109 182.188 15.8742 182.188 17.3436C182.188 18.7356 182.594 20.0116 183.406 21.1716C184.257 22.2929 185.513 23.4722 187.176 24.7096C188.877 25.9856 190.115 27.2229 190.888 28.4216C191.7 29.6202 192.106 31.0702 192.106 32.7716C192.106 34.3569 191.642 35.8069 190.714 37.1216C189.786 38.4362 188.433 39.4996 186.654 40.3116C184.875 41.0849 182.691 41.4716 180.1 41.4716ZM205.061 41.4716C202.161 41.4716 199.803 40.5242 197.985 38.6296C196.168 36.7349 195.259 34.0476 195.259 30.5676C195.259 28.0929 195.685 25.7342 196.535 23.4916C197.386 21.2489 198.565 19.2576 200.073 17.5176C201.62 15.7389 203.399 14.3469 205.409 13.3416C207.42 12.3362 209.605 11.8336 211.963 11.8336C214.399 11.8336 216.255 12.3942 217.531 13.5156C218.846 14.5982 219.503 16.0482 219.503 17.8656C219.503 19.3736 218.788 20.8622 217.357 22.3316C215.965 23.8009 213.993 25.1349 211.441 26.3336C208.889 27.4936 205.893 28.3829 202.451 29.0016C202.49 31.6696 203.07 33.6222 204.191 34.8596C205.313 36.0969 206.859 36.7156 208.831 36.7156C210.494 36.7156 212.021 36.2709 213.413 35.3816C214.805 34.4536 215.985 33.3709 216.951 32.1336L217.531 32.5396C216.758 34.0476 215.753 35.4782 214.515 36.8316C213.317 38.1849 211.925 39.3062 210.339 40.1956C208.754 41.0462 206.995 41.4716 205.061 41.4716ZM211.557 13.3996C210.668 13.3996 209.701 13.7862 208.657 14.5596C207.652 15.3329 206.685 16.3962 205.757 17.7496C204.868 19.0642 204.114 20.5916 203.495 22.3316C202.915 24.0329 202.567 25.8502 202.451 27.7836C206.705 26.6236 209.721 25.0962 211.499 23.2016C213.317 21.3069 214.225 19.1609 214.225 16.7636C214.225 15.6036 213.974 14.7529 213.471 14.2116C212.969 13.6702 212.331 13.3996 211.557 13.3996ZM220.261 41.0076L219.681 40.6016L224.089 19.3736C224.282 18.3682 224.224 17.6336 223.915 17.1696C223.605 16.6669 223.083 16.2609 222.349 15.9516L221.479 15.5456L221.595 14.9656L231.687 11.7756L232.267 12.2976L230.701 21.8676C231.513 20.0116 232.46 18.3296 233.543 16.8216C234.625 15.3136 235.766 14.1149 236.965 13.2256C238.163 12.2976 239.362 11.8336 240.561 11.8336C241.759 11.8336 242.726 12.1622 243.461 12.8196C244.195 13.4382 244.563 14.2696 244.563 15.3136C244.563 16.3962 244.234 17.2856 243.577 17.9816C242.958 18.6776 242.107 19.0256 241.025 19.0256C240.174 19.0256 239.362 18.8129 238.589 18.3876C237.815 17.9236 237.061 17.2662 236.327 16.4156C234.973 17.4209 233.813 18.7356 232.847 20.3596C231.88 21.9449 230.991 23.6849 230.179 25.5796L229.599 28.2476C229.173 30.2969 228.767 32.3462 228.381 34.3956C227.994 36.4449 227.607 38.5136 227.221 40.6016L220.261 41.0076ZM251.974 41.1236L251.394 40.6596C251.046 36.4062 250.679 32.4622 250.292 28.8276C249.905 25.1542 249.519 21.5582 249.132 18.0396C249.055 17.1502 248.881 16.5896 248.61 16.3576C248.339 16.0869 248.03 15.9516 247.682 15.9516C246.986 15.9516 246.019 16.6862 244.782 18.1556L244.086 17.4596C245.439 15.6036 246.735 14.2116 247.972 13.2836C249.248 12.3169 250.543 11.8336 251.858 11.8336C254.565 11.8336 256.092 13.6316 256.44 17.2276C256.672 19.9729 256.904 22.9309 257.136 26.1016C257.407 29.2722 257.658 32.6556 257.89 36.2516C259.359 34.4729 260.732 32.7716 262.008 31.1476C263.323 29.4849 264.56 27.7642 265.72 25.9856C266.377 24.9802 266.745 24.0136 266.822 23.0856C266.899 22.1189 266.725 21.0942 266.3 20.0116L265.314 17.2856C264.811 15.7776 264.889 14.4629 265.546 13.3416C266.242 12.2202 267.247 11.6596 268.562 11.6596C269.915 11.6596 270.863 12.0656 271.404 12.8776C271.984 13.6896 272.274 14.6562 272.274 15.7776C272.274 16.5509 272.061 17.4982 271.636 18.6196C271.249 19.7409 270.495 21.2489 269.374 23.1436C267.866 25.6569 265.933 28.4602 263.574 31.5536C261.215 34.6469 258.547 37.7016 255.57 40.7176L251.974 41.1236ZM277.165 41.4716C276.082 41.4716 275.058 41.2202 274.091 40.7176C273.124 40.2149 272.332 39.3836 271.713 38.2236C271.133 37.0636 270.843 35.5362 270.843 33.6416C270.843 31.5922 271.249 29.5429 272.061 27.4936C272.873 25.4056 273.956 23.4336 275.309 21.5776C276.662 19.6829 278.17 18.0202 279.833 16.5896C281.496 15.1202 283.216 13.9602 284.995 13.1096C286.774 12.2589 288.456 11.8336 290.041 11.8336C290.814 11.8336 291.53 11.9882 292.187 12.2976C292.883 12.5682 293.54 12.9549 294.159 13.4576L298.857 11.6596L299.321 11.9496L294.275 34.1636C294.004 35.2462 293.869 36.1356 293.869 36.8316C293.869 37.6436 294.236 38.0496 294.971 38.0496C295.512 38.0496 296.131 37.7982 296.827 37.2956C297.562 36.7929 298.393 36.1162 299.321 35.2656L299.785 35.7296C299.205 36.6576 298.47 37.5662 297.581 38.4556C296.73 39.3062 295.764 40.0216 294.681 40.6016C293.637 41.1816 292.516 41.4716 291.317 41.4716C290.002 41.4716 288.939 41.0849 288.127 40.3116C287.315 39.4996 286.909 38.2622 286.909 36.5996C286.909 36.0582 286.928 35.5362 286.967 35.0336C285.42 36.7736 283.777 38.2816 282.037 39.5576C280.336 40.8336 278.712 41.4716 277.165 41.4716ZM277.687 31.0316C277.687 33.0809 278.016 34.5696 278.673 35.4976C279.369 36.3869 280.278 36.8316 281.399 36.8316C282.327 36.8316 283.255 36.5416 284.183 35.9616C285.111 35.3816 286.116 34.5502 287.199 33.4676C287.276 33.0036 287.373 32.5202 287.489 32.0176L291.143 15.3136C290.64 14.6949 290.041 14.2696 289.345 14.0376C288.649 13.8056 288.03 13.6896 287.489 13.6896C285.826 13.6896 284.086 14.6756 282.269 16.6476C280.838 18.2329 279.717 20.3209 278.905 22.9116C278.093 25.5022 277.687 28.2089 277.687 31.0316ZM307.652 41.4716C306.453 41.4716 305.448 41.1622 304.636 40.5436C303.863 39.8862 303.476 38.9389 303.476 37.7016C303.476 36.9282 303.553 36.0969 303.708 35.2076C303.863 34.2796 304.037 33.2936 304.23 32.2496L308.232 13.9216H303.418L303.592 13.2256L305.68 12.9936C306.763 12.8776 307.71 12.6069 308.522 12.1816C309.334 11.7562 310.107 11.1569 310.842 10.3836L316.41 4.75756H317.28L315.656 12.7036H321.978L321.688 13.9216H315.366L311.364 33.2356C311.209 33.9702 311.093 34.6082 311.016 35.1496C310.939 35.6522 310.9 36.0776 310.9 36.4256C310.9 36.8122 311.016 37.1216 311.248 37.3536C311.48 37.5856 311.731 37.7016 312.002 37.7016C312.543 37.7016 313.123 37.4889 313.742 37.0636C314.361 36.5996 315.134 35.9229 316.062 35.0336L316.758 35.6136C315.791 37.0442 314.535 38.3782 312.988 39.6156C311.441 40.8529 309.663 41.4716 307.652 41.4716ZM330.55 8.58556C329.468 8.58556 328.52 8.23756 327.708 7.54156C326.935 6.80689 326.548 5.84023 326.548 4.64156C326.548 3.28823 327.012 2.18623 327.94 1.33556C328.907 0.446226 329.99 0.00155973 331.188 0.00155973C332.348 0.00155973 333.296 0.368893 334.03 1.10356C334.765 1.83823 335.132 2.78556 335.132 3.94556C335.132 5.26023 334.668 6.36223 333.74 7.25156C332.812 8.14089 331.749 8.58556 330.55 8.58556ZM325.156 41.4716C323.958 41.4716 322.972 41.1622 322.198 40.5436C321.425 39.9249 321.038 39.0162 321.038 37.8176C321.038 37.1216 321.116 36.2902 321.27 35.3236C321.425 34.3569 321.599 33.3902 321.792 32.4236L324.518 19.3736C324.866 17.7882 324.306 16.6669 322.836 16.0096L321.908 15.5456L321.966 14.9076L332.87 11.7756L333.45 12.2976L328.926 33.2936C328.772 33.9896 328.656 34.5889 328.578 35.0916C328.501 35.5556 328.462 36.0196 328.462 36.4836C328.462 37.3342 328.849 37.7596 329.622 37.7596C330.202 37.7596 330.782 37.5856 331.362 37.2376C331.942 36.8509 332.677 36.2322 333.566 35.3816L334.088 35.9036C333.122 37.3342 331.884 38.6296 330.376 39.7896C328.907 40.9109 327.167 41.4716 325.156 41.4716ZM347.031 41.4716C345.021 41.4716 343.184 41.0849 341.521 40.3116C339.859 39.4996 338.544 38.3009 337.577 36.7156C336.611 35.0916 336.127 33.0422 336.127 30.5676C336.127 28.0929 336.533 25.7342 337.345 23.4916C338.196 21.2489 339.375 19.2576 340.883 17.5176C342.391 15.7389 344.151 14.3469 346.161 13.3416C348.172 12.3362 350.357 11.8336 352.715 11.8336C354.765 11.8336 356.582 12.2396 358.167 13.0516C359.791 13.8249 361.067 15.0042 361.995 16.5896C362.962 18.1749 363.445 20.2049 363.445 22.6796C363.445 25.1156 363.02 27.4742 362.169 29.7556C361.357 31.9982 360.197 34.0089 358.689 35.7876C357.22 37.5276 355.48 38.9196 353.469 39.9636C351.497 40.9689 349.351 41.4716 347.031 41.4716ZM347.727 40.3116C348.926 40.3116 350.009 39.7702 350.975 38.6876C351.981 37.5662 352.851 36.0969 353.585 34.2796C354.32 32.4236 354.881 30.3936 355.267 28.1896C355.654 25.9469 355.847 23.7236 355.847 21.5196C355.847 18.3102 355.519 16.0869 354.861 14.8496C354.204 13.6122 353.353 12.9936 352.309 12.9936C351.072 12.9936 349.931 13.5349 348.887 14.6176C347.843 15.7002 346.935 17.1502 346.161 18.9676C345.388 20.7849 344.789 22.7956 344.363 24.9996C343.938 27.2036 343.725 29.4076 343.725 31.6116C343.725 34.8982 344.112 37.1796 344.885 38.4556C345.659 39.6929 346.606 40.3116 347.727 40.3116ZM365.153 41.0076L364.631 40.6016L369.097 19.2576C369.445 17.7496 368.903 16.6669 367.473 16.0096L366.487 15.5456L366.545 14.9656L377.333 11.7756L377.855 12.2396L376.521 19.2576C378.531 16.9762 380.581 15.1782 382.669 13.8636C384.757 12.5102 386.729 11.8336 388.585 11.8336C389.822 11.8336 390.847 12.2202 391.659 12.9936C392.471 13.7282 392.877 14.8882 392.877 16.4736C392.877 17.2856 392.799 18.1362 392.645 19.0256C392.49 19.8762 392.297 20.7656 392.065 21.6936L388.991 34.0476C388.836 34.6662 388.72 35.1882 388.643 35.6136C388.565 36.0002 388.527 36.3482 388.527 36.6576C388.527 37.4696 388.855 37.8756 389.513 37.8756C390.595 37.8756 391.968 37.0056 393.631 35.2656L394.211 35.8456C393.244 37.2762 391.968 38.5716 390.383 39.7316C388.797 40.8916 387.038 41.4716 385.105 41.4716C383.829 41.4716 382.843 41.1816 382.147 40.6016C381.451 39.9829 381.103 39.1322 381.103 38.0496C381.103 37.2376 381.199 36.4062 381.393 35.5556C381.586 34.6662 381.799 33.7576 382.031 32.8296L384.293 23.7816C384.602 22.5442 384.853 21.4422 385.047 20.4756C385.24 19.5089 385.337 18.6196 385.337 17.8076C385.337 17.1116 385.182 16.6282 384.873 16.3576C384.563 16.0482 384.138 15.8936 383.597 15.8936C382.669 15.8936 381.567 16.2996 380.291 17.1116C379.053 17.9236 377.681 19.1996 376.173 20.9396L374.549 28.2476C374.123 30.2969 373.717 32.3462 373.331 34.3956C372.944 36.4449 372.557 38.5136 372.171 40.6016L365.153 41.0076ZM425.788 41.5876C420.181 41.5876 415.793 40.1182 412.622 37.1796C409.451 34.2022 407.866 30.0456 407.866 24.7096C407.866 21.3842 408.427 18.3102 409.548 15.4876C410.708 12.6262 412.313 10.1322 414.362 8.00556C416.45 5.87889 418.867 4.23556 421.612 3.07556C424.396 1.87689 427.412 1.27756 430.66 1.27756C434.72 1.27756 438.49 2.24423 441.97 4.17756L440.578 13.2836H439.998L437.794 7.25156C437.175 5.47289 436.421 4.23556 435.532 3.53956C434.681 2.80489 433.289 2.43756 431.356 2.43756C428.379 2.43756 425.749 3.42356 423.468 5.39556C421.187 7.32889 419.408 9.99689 418.132 13.3996C416.856 16.7636 416.218 20.6109 416.218 24.9416C416.218 28.1509 416.643 30.9156 417.494 33.2356C418.383 35.5556 419.563 37.3342 421.032 38.5716C422.501 39.8089 424.164 40.4276 426.02 40.4276C427.025 40.4276 427.818 40.2342 428.398 39.8476C429.017 39.4222 429.423 38.6102 429.616 37.4116L429.964 35.6136C430.157 34.3762 430.389 32.9456 430.66 31.3216C430.931 29.6976 431.163 28.1316 431.356 26.6236C431.743 24.5742 430.911 23.2209 428.862 22.5636L427.586 22.1576L427.702 21.5776H443.42L443.304 22.1576L442.028 22.7376C440.597 23.3176 439.727 24.4002 439.418 25.9856L436.924 39.1516C435.223 39.8862 433.502 40.4662 431.762 40.8916C430.061 41.3556 428.069 41.5876 425.788 41.5876ZM449.592 41.4716C448.277 41.4716 447.137 41.0849 446.17 40.3116C445.242 39.4996 444.778 38.3009 444.778 36.7156C444.778 35.8262 444.875 34.8596 445.068 33.8156C445.261 32.7716 445.474 31.7469 445.706 30.7416L448.258 19.3156C448.606 17.8076 448.084 16.7056 446.692 16.0096L445.59 15.5456L445.648 14.9076L456.61 11.7756L457.132 12.2396L453.072 29.9876C452.84 30.9542 452.647 31.8242 452.492 32.5976C452.337 33.3709 452.26 34.0862 452.26 34.7436C452.26 35.5942 452.453 36.2129 452.84 36.5996C453.227 36.9476 453.729 37.1216 454.348 37.1216C455.237 37.1216 456.223 36.8122 457.306 36.1936C458.389 35.5362 459.645 34.5309 461.076 33.1776C461.115 32.9456 461.173 32.6942 461.25 32.4236L463.222 23.0856C463.531 21.5776 463.821 20.0696 464.092 18.5616C464.401 17.0149 464.691 15.4682 464.962 13.9216L472.27 11.7756L472.908 12.2976L468.326 33.3516C468.017 34.7049 467.862 35.7682 467.862 36.5416C467.862 37.3536 468.21 37.7596 468.906 37.7596C469.447 37.7596 470.027 37.5469 470.646 37.1216C471.265 36.6576 472.019 35.9809 472.908 35.0916L473.604 35.7876C472.637 37.2182 471.4 38.5329 469.892 39.7316C468.423 40.8916 466.741 41.4716 464.846 41.4716C463.647 41.4716 462.642 41.0656 461.83 40.2536C461.057 39.4029 460.67 38.2042 460.67 36.6576C460.67 36.0776 460.709 35.5169 460.786 34.9756C458.775 36.9862 456.823 38.5716 454.928 39.7316C453.072 40.8916 451.293 41.4716 449.592 41.4716ZM481.59 41.4716C480.507 41.4716 479.483 41.2202 478.516 40.7176C477.549 40.2149 476.757 39.3836 476.138 38.2236C475.558 37.0636 475.268 35.5362 475.268 33.6416C475.268 31.5922 475.674 29.5429 476.486 27.4936C477.298 25.4056 478.381 23.4336 479.734 21.5776C481.087 19.6829 482.595 18.0202 484.258 16.5896C485.921 15.1202 487.641 13.9602 489.42 13.1096C491.199 12.2589 492.881 11.8336 494.466 11.8336C495.239 11.8336 495.955 11.9882 496.612 12.2976C497.308 12.5682 497.965 12.9549 498.584 13.4576L503.282 11.6596L503.746 11.9496L498.7 34.1636C498.429 35.2462 498.294 36.1356 498.294 36.8316C498.294 37.6436 498.661 38.0496 499.396 38.0496C499.937 38.0496 500.556 37.7982 501.252 37.2956C501.987 36.7929 502.818 36.1162 503.746 35.2656L504.21 35.7296C503.63 36.6576 502.895 37.5662 502.006 38.4556C501.155 39.3062 500.189 40.0216 499.106 40.6016C498.062 41.1816 496.941 41.4716 495.742 41.4716C494.427 41.4716 493.364 41.0849 492.552 40.3116C491.74 39.4996 491.334 38.2622 491.334 36.5996C491.334 36.0582 491.353 35.5362 491.392 35.0336C489.845 36.7736 488.202 38.2816 486.462 39.5576C484.761 40.8336 483.137 41.4716 481.59 41.4716ZM482.112 31.0316C482.112 33.0809 482.441 34.5696 483.098 35.4976C483.794 36.3869 484.703 36.8316 485.824 36.8316C486.752 36.8316 487.68 36.5416 488.608 35.9616C489.536 35.3816 490.541 34.5502 491.624 33.4676C491.701 33.0036 491.798 32.5202 491.914 32.0176L495.568 15.3136C495.065 14.6949 494.466 14.2696 493.77 14.0376C493.074 13.8056 492.455 13.6896 491.914 13.6896C490.251 13.6896 488.511 14.6756 486.694 16.6476C485.263 18.2329 484.142 20.3209 483.33 22.9116C482.518 25.5022 482.112 28.2089 482.112 31.0316ZM506.506 41.0076L505.926 40.6016L510.334 19.3736C510.528 18.3682 510.47 17.6336 510.16 17.1696C509.851 16.6669 509.329 16.2609 508.594 15.9516L507.724 15.5456L507.84 14.9656L517.932 11.7756L518.512 12.2976L516.946 21.8676C517.758 20.0116 518.706 18.3296 519.788 16.8216C520.871 15.3136 522.012 14.1149 523.21 13.2256C524.409 12.2976 525.608 11.8336 526.806 11.8336C528.005 11.8336 528.972 12.1622 529.706 12.8196C530.441 13.4382 530.808 14.2696 530.808 15.3136C530.808 16.3962 530.48 17.2856 529.822 17.9816C529.204 18.6776 528.353 19.0256 527.27 19.0256C526.42 19.0256 525.608 18.8129 524.834 18.3876C524.061 17.9236 523.307 17.2662 522.572 16.4156C521.219 17.4209 520.059 18.7356 519.092 20.3596C518.126 21.9449 517.236 23.6849 516.424 25.5796L515.844 28.2476C515.419 30.2969 515.013 32.3462 514.626 34.3956C514.24 36.4449 513.853 38.5136 513.466 40.6016L506.506 41.0076ZM533.305 41.4716C532.223 41.4716 531.198 41.2202 530.231 40.7176C529.265 40.2149 528.472 39.3836 527.853 38.2236C527.273 37.0636 526.983 35.5362 526.983 33.6416C526.983 31.5922 527.389 29.5429 528.201 27.4936C529.013 25.4056 530.096 23.4336 531.449 21.5776C532.803 19.6829 534.311 18.0202 535.973 16.5896C537.636 15.1202 539.357 13.9602 541.135 13.1096C542.914 12.2589 544.596 11.8336 546.181 11.8336C546.955 11.8336 547.67 11.9882 548.327 12.2976C549.023 12.5682 549.681 12.9549 550.299 13.4576L554.997 11.6596L555.461 11.9496L550.415 34.1636C550.145 35.2462 550.009 36.1356 550.009 36.8316C550.009 37.6436 550.377 38.0496 551.111 38.0496C551.653 38.0496 552.271 37.7982 552.967 37.2956C553.702 36.7929 554.533 36.1162 555.461 35.2656L555.925 35.7296C555.345 36.6576 554.611 37.5662 553.721 38.4556C552.871 39.3062 551.904 40.0216 550.821 40.6016C549.777 41.1816 548.656 41.4716 547.457 41.4716C546.143 41.4716 545.079 41.0849 544.267 40.3116C543.455 39.4996 543.049 38.2622 543.049 36.5996C543.049 36.0582 543.069 35.5362 543.107 35.0336C541.561 36.7736 539.917 38.2816 538.177 39.5576C536.476 40.8336 534.852 41.4716 533.305 41.4716ZM533.827 31.0316C533.827 33.0809 534.156 34.5696 534.813 35.4976C535.509 36.3869 536.418 36.8316 537.539 36.8316C538.467 36.8316 539.395 36.5416 540.323 35.9616C541.251 35.3816 542.257 34.5502 543.339 33.4676C543.417 33.0036 543.513 32.5202 543.629 32.0176L547.283 15.3136C546.781 14.6949 546.181 14.2696 545.485 14.0376C544.789 13.8056 544.171 13.6896 543.629 13.6896C541.967 13.6896 540.227 14.6756 538.409 16.6476C536.979 18.2329 535.857 20.3209 535.045 22.9116C534.233 25.5022 533.827 28.2089 533.827 31.0316ZM558.164 41.0076L557.642 40.6016L562.108 19.2576C562.456 17.7496 561.914 16.6669 560.484 16.0096L559.498 15.5456L559.556 14.9656L570.344 11.7756L570.866 12.2396L569.532 19.2576C571.542 16.9762 573.592 15.1782 575.68 13.8636C577.768 12.5102 579.74 11.8336 581.596 11.8336C582.833 11.8336 583.858 12.2202 584.67 12.9936C585.482 13.7282 585.888 14.8882 585.888 16.4736C585.888 17.2856 585.81 18.1362 585.656 19.0256C585.501 19.8762 585.308 20.7656 585.076 21.6936L582.002 34.0476C581.847 34.6662 581.731 35.1882 581.654 35.6136C581.576 36.0002 581.538 36.3482 581.538 36.6576C581.538 37.4696 581.866 37.8756 582.524 37.8756C583.606 37.8756 584.979 37.0056 586.642 35.2656L587.222 35.8456C586.255 37.2762 584.979 38.5716 583.394 39.7316C581.808 40.8916 580.049 41.4716 578.116 41.4716C576.84 41.4716 575.854 41.1816 575.158 40.6016C574.462 39.9829 574.114 39.1322 574.114 38.0496C574.114 37.2376 574.21 36.4062 574.404 35.5556C574.597 34.6662 574.81 33.7576 575.042 32.8296L577.304 23.7816C577.613 22.5442 577.864 21.4422 578.058 20.4756C578.251 19.5089 578.348 18.6196 578.348 17.8076C578.348 17.1116 578.193 16.6282 577.884 16.3576C577.574 16.0482 577.149 15.8936 576.608 15.8936C575.68 15.8936 574.578 16.2996 573.302 17.1116C572.064 17.9236 570.692 19.1996 569.184 20.9396L567.56 28.2476C567.134 30.2969 566.728 32.3462 566.342 34.3956C565.955 36.4449 565.568 38.5136 565.182 40.6016L558.164 41.0076ZM594.691 41.4716C593.492 41.4716 592.487 41.1622 591.675 40.5436C590.902 39.8862 590.515 38.9389 590.515 37.7016C590.515 36.9282 590.592 36.0969 590.747 35.2076C590.902 34.2796 591.076 33.2936 591.269 32.2496L595.271 13.9216H590.457L590.631 13.2256L592.719 12.9936C593.802 12.8776 594.749 12.6069 595.561 12.1816C596.373 11.7562 597.146 11.1569 597.881 10.3836L603.449 4.75756H604.319L602.695 12.7036H609.017L608.727 13.9216H602.405L598.403 33.2356C598.248 33.9702 598.132 34.6082 598.055 35.1496C597.978 35.6522 597.939 36.0776 597.939 36.4256C597.939 36.8122 598.055 37.1216 598.287 37.3536C598.519 37.5856 598.77 37.7016 599.041 37.7016C599.582 37.7016 600.162 37.4889 600.781 37.0636C601.4 36.5996 602.173 35.9229 603.101 35.0336L603.797 35.6136C602.83 37.0442 601.574 38.3782 600.027 39.6156C598.48 40.8529 596.702 41.4716 594.691 41.4716ZM617.423 41.4716C614.523 41.4716 612.165 40.5242 610.347 38.6296C608.53 36.7349 607.621 34.0476 607.621 30.5676C607.621 28.0929 608.047 25.7342 608.897 23.4916C609.748 21.2489 610.927 19.2576 612.435 17.5176C613.982 15.7389 615.761 14.3469 617.771 13.3416C619.782 12.3362 621.967 11.8336 624.325 11.8336C626.761 11.8336 628.617 12.3942 629.893 13.5156C631.208 14.5982 631.865 16.0482 631.865 17.8656C631.865 19.3736 631.15 20.8622 629.719 22.3316C628.327 23.8009 626.355 25.1349 623.803 26.3336C621.251 27.4936 618.255 28.3829 614.813 29.0016C614.852 31.6696 615.432 33.6222 616.553 34.8596C617.675 36.0969 619.221 36.7156 621.193 36.7156C622.856 36.7156 624.383 36.2709 625.775 35.3816C627.167 34.4536 628.347 33.3709 629.313 32.1336L629.893 32.5396C629.12 34.0476 628.115 35.4782 626.877 36.8316C625.679 38.1849 624.287 39.3062 622.701 40.1956C621.116 41.0462 619.357 41.4716 617.423 41.4716ZM623.919 13.3996C623.03 13.3996 622.063 13.7862 621.019 14.5596C620.014 15.3329 619.047 16.3962 618.119 17.7496C617.23 19.0642 616.476 20.5916 615.857 22.3316C615.277 24.0329 614.929 25.8502 614.813 27.7836C619.067 26.6236 622.083 25.0962 623.861 23.2016C625.679 21.3069 626.587 19.1609 626.587 16.7636C626.587 15.6036 626.336 14.7529 625.833 14.2116C625.331 13.6702 624.693 13.3996 623.919 13.3996ZM642.375 41.4716C639.475 41.4716 637.116 40.5242 635.299 38.6296C633.481 36.7349 632.573 34.0476 632.573 30.5676C632.573 28.0929 632.998 25.7342 633.849 23.4916C634.699 21.2489 635.879 19.2576 637.387 17.5176C638.933 15.7389 640.712 14.3469 642.723 13.3416C644.733 12.3362 646.918 11.8336 649.277 11.8336C651.713 11.8336 653.569 12.3942 654.845 13.5156C656.159 14.5982 656.817 16.0482 656.817 17.8656C656.817 19.3736 656.101 20.8622 654.671 22.3316C653.279 23.8009 651.307 25.1349 648.755 26.3336C646.203 27.4936 643.206 28.3829 639.765 29.0016C639.803 31.6696 640.383 33.6222 641.505 34.8596C642.626 36.0969 644.173 36.7156 646.145 36.7156C647.807 36.7156 649.335 36.2709 650.727 35.3816C652.119 34.4536 653.298 33.3709 654.265 32.1336L654.845 32.5396C654.071 34.0476 653.066 35.4782 651.829 36.8316C650.63 38.1849 649.238 39.3062 647.653 40.1956C646.067 41.0462 644.308 41.4716 642.375 41.4716ZM648.871 13.3996C647.981 13.3996 647.015 13.7862 645.971 14.5596C644.965 15.3329 643.999 16.3962 643.071 17.7496C642.181 19.0642 641.427 20.5916 640.809 22.3316C640.229 24.0329 639.881 25.8502 639.765 27.7836C644.018 26.6236 647.034 25.0962 648.813 23.2016C650.63 21.3069 651.539 19.1609 651.539 16.7636C651.539 15.6036 651.287 14.7529 650.785 14.2116C650.282 13.6702 649.644 13.3996 648.871 13.3996ZM663.374 28.2476L663.432 20.2436C663.393 16.4929 663.412 13.4769 663.49 11.1956C663.606 8.87556 663.78 7.11623 664.012 5.91756C664.321 4.25489 664.959 3.07556 665.926 2.37956C666.892 1.64489 668.033 1.27756 669.348 1.27756C670.778 1.27756 671.842 1.64489 672.538 2.37956C673.272 3.11423 673.64 4.06156 673.64 5.22156C673.64 6.26556 673.33 7.6769 672.712 9.45556C672.093 11.1956 671.107 13.5542 669.754 16.5316C668.4 19.5089 666.622 23.4142 664.418 28.2476H663.374ZM657.864 37.4116C657.864 36.0582 658.347 34.8982 659.314 33.9316C660.319 32.9649 661.479 32.4816 662.794 32.4816C664.031 32.4816 665.017 32.8876 665.752 33.6996C666.486 34.5116 666.854 35.4782 666.854 36.5996C666.854 37.9529 666.351 39.0936 665.346 40.0216C664.379 40.9496 663.238 41.4136 661.924 41.4136C660.725 41.4136 659.739 41.0269 658.966 40.2536C658.231 39.4416 657.864 38.4942 657.864 37.4116ZM679.546 28.2476L679.604 20.2436C679.565 16.4929 679.584 13.4769 679.662 11.1956C679.778 8.87556 679.952 7.11623 680.184 5.91756C680.493 4.25489 681.131 3.07556 682.098 2.37956C683.064 1.64489 684.205 1.27756 685.52 1.27756C686.95 1.27756 688.014 1.64489 688.71 2.37956C689.444 3.11423 689.812 4.06156 689.812 5.22156C689.812 6.26556 689.502 7.6769 688.884 9.45556C688.265 11.1956 687.279 13.5542 685.926 16.5316C684.572 19.5089 682.794 23.4142 680.59 28.2476H679.546ZM674.036 37.4116C674.036 36.0582 674.519 34.8982 675.486 33.9316C676.491 32.9649 677.651 32.4816 678.966 32.4816C680.203 32.4816 681.189 32.8876 681.924 33.6996C682.658 34.5116 683.026 35.4782 683.026 36.5996C683.026 37.9529 682.523 39.0936 681.518 40.0216C680.551 40.9496 679.41 41.4136 678.096 41.4136C676.897 41.4136 675.911 41.0269 675.138 40.2536C674.403 39.4416 674.036 38.4942 674.036 37.4116Z" fill="#FF5DCA"/>
<path d="M0.000124761 40.6016L0.116125 40.0216L1.39212 39.4996C2.66812 38.9582 3.44146 38.0302 3.71212 36.7156L6.78612 20.3016C7.17279 18.2522 7.57879 15.9902 8.00412 13.5156C8.42946 11.0022 8.83546 8.62423 9.22213 6.38156C9.49279 4.83489 8.89346 3.77156 7.42413 3.19156L6.84413 2.90156L6.96013 2.32156H33.7561L32.1321 12.4136H31.5521L30.2761 7.48356C29.8508 6.01423 29.2515 4.98956 28.4781 4.40956C27.7048 3.79089 26.5255 3.48156 24.9401 3.48156H17.8061L14.6161 20.3016H18.9661C20.0488 20.3016 20.9381 20.1276 21.6341 19.7796C22.3688 19.3929 23.0455 18.7742 23.6641 17.9236L25.9261 14.9656H26.5061L24.2441 27.0876H23.6641L22.7361 24.4776C22.3881 23.4336 21.9241 22.6796 21.3441 22.2156C20.8028 21.7129 19.9715 21.4616 18.8501 21.4616H14.3841C14.1135 22.8922 13.8041 24.4969 13.4561 26.2756C13.1468 28.0156 12.8375 29.7942 12.5281 31.6116C12.2188 33.3902 11.9288 35.0529 11.6581 36.5996C11.4261 38.0302 11.9675 38.9969 13.2821 39.4996L14.6741 40.0216L14.5581 40.6016H0.000124761ZM35.468 41.4716C34.3854 41.4716 33.3607 41.2202 32.394 40.7176C31.4274 40.2149 30.6347 39.3836 30.016 38.2236C29.436 37.0636 29.146 35.5362 29.146 33.6416C29.146 31.5922 29.552 29.5429 30.364 27.4936C31.176 25.4056 32.2587 23.4336 33.612 21.5776C34.9654 19.6829 36.4734 18.0202 38.136 16.5896C39.7987 15.1202 41.5194 13.9602 43.298 13.1096C45.0767 12.2589 46.7587 11.8336 48.344 11.8336C49.1174 11.8336 49.8327 11.9882 50.49 12.2976C51.186 12.5682 51.8434 12.9549 52.462 13.4576L57.16 11.6596L57.624 11.9496L52.578 34.1636C52.3074 35.2462 52.172 36.1356 52.172 36.8316C52.172 37.6436 52.5394 38.0496 53.274 38.0496C53.8154 38.0496 54.434 37.7982 55.13 37.2956C55.8647 36.7929 56.696 36.1162 57.624 35.2656L58.088 35.7296C57.508 36.6576 56.7734 37.5662 55.884 38.4556C55.0334 39.3062 54.0667 40.0216 52.984 40.6016C51.94 41.1816 50.8187 41.4716 49.62 41.4716C48.3054 41.4716 47.242 41.0849 46.43 40.3116C45.618 39.4996 45.212 38.2622 45.212 36.5996C45.212 36.0582 45.2314 35.5362 45.27 35.0336C43.7234 36.7736 42.08 38.2816 40.34 39.5576C38.6387 40.8336 37.0147 41.4716 35.468 41.4716ZM35.99 31.0316C35.99 33.0809 36.3187 34.5696 36.976 35.4976C37.672 36.3869 38.5807 36.8316 39.702 36.8316C40.63 36.8316 41.558 36.5416 42.486 35.9616C43.414 35.3816 44.4194 34.5502 45.502 33.4676C45.5794 33.0036 45.676 32.5202 45.792 32.0176L49.446 15.3136C48.9434 14.6949 48.344 14.2696 47.648 14.0376C46.952 13.8056 46.3334 13.6896 45.792 13.6896C44.1294 13.6896 42.3894 14.6756 40.572 16.6476C39.1414 18.2329 38.02 20.3209 37.208 22.9116C36.396 25.5022 35.99 28.2089 35.99 31.0316ZM67.5212 41.4716C65.0852 41.4716 63.1132 40.9882 61.6052 40.0216C60.0972 39.0549 59.3432 37.6822 59.3432 35.9036C59.3432 34.9756 59.6719 34.1636 60.3292 33.4676C60.9865 32.7716 61.8372 32.4236 62.8812 32.4236C64.8145 32.4236 66.0132 33.6029 66.4772 35.9616L66.8252 37.5856C67.0185 38.3976 67.2505 39.0549 67.5212 39.5576C67.8305 40.0602 68.4105 40.3116 69.2612 40.3116C70.2279 40.3116 71.0785 39.9056 71.8132 39.0936C72.5479 38.2816 72.9152 37.1602 72.9152 35.7296C72.9152 34.6469 72.5672 33.6029 71.8712 32.5976C71.2139 31.5922 70.0925 30.4902 68.5072 29.2916C66.9219 28.0542 65.6459 26.7782 64.6792 25.4636C63.7125 24.1102 63.2292 22.5056 63.2292 20.6496C63.2292 19.0256 63.6352 17.5562 64.4472 16.2416C65.2979 14.8882 66.5159 13.8249 68.1012 13.0516C69.6865 12.2396 71.5619 11.8336 73.7272 11.8336C76.2405 11.8336 78.2125 12.3362 79.6432 13.3416C81.1125 14.3469 81.8472 15.6422 81.8472 17.2276C81.8472 18.0782 81.5959 18.7936 81.0932 19.3736C80.5905 19.9149 79.8365 20.1856 78.8312 20.1856C76.9752 20.1856 75.7185 19.0642 75.0612 16.8216L74.4812 15.1976C74.2879 14.4242 74.0559 13.8829 73.7852 13.5736C73.5145 13.2642 73.0892 13.1096 72.5092 13.1096C71.8905 13.1096 71.2525 13.4576 70.5952 14.1536C69.9379 14.8109 69.6092 15.8742 69.6092 17.3436C69.6092 18.7356 70.0152 20.0116 70.8272 21.1716C71.6779 22.2929 72.9345 23.4722 74.5972 24.7096C76.2985 25.9856 77.5359 27.2229 78.3092 28.4216C79.1212 29.6202 79.5272 31.0702 79.5272 32.7716C79.5272 34.3569 79.0632 35.8069 78.1352 37.1216C77.2072 38.4362 75.8539 39.4996 74.0752 40.3116C72.2965 41.0849 70.1119 41.4716 67.5212 41.4716ZM88.4143 41.4716C87.2157 41.4716 86.2103 41.1622 85.3983 40.5436C84.625 39.8862 84.2383 38.9389 84.2383 37.7016C84.2383 36.9282 84.3157 36.0969 84.4703 35.2076C84.625 34.2796 84.799 33.2936 84.9923 32.2496L88.9943 13.9216H84.1803L84.3543 13.2256L86.4423 12.9936C87.525 12.8776 88.4723 12.6069 89.2843 12.1816C90.0963 11.7562 90.8697 11.1569 91.6043 10.3836L97.1723 4.75756H98.0423L96.4183 12.7036H102.74L102.45 13.9216H96.1283L92.1263 33.2356C91.9717 33.9702 91.8557 34.6082 91.7783 35.1496C91.701 35.6522 91.6623 36.0776 91.6623 36.4256C91.6623 36.8122 91.7783 37.1216 92.0103 37.3536C92.2423 37.5856 92.4937 37.7016 92.7643 37.7016C93.3057 37.7016 93.8857 37.4889 94.5043 37.0636C95.123 36.5996 95.8963 35.9229 96.8243 35.0336L97.5203 35.6136C96.5537 37.0442 95.297 38.3782 93.7503 39.6156C92.2037 40.8529 90.425 41.4716 88.4143 41.4716ZM110.483 40.6016L110.599 40.0216L111.527 39.6736C113.074 39.0549 113.983 37.9722 114.253 36.4256L117.269 20.3016C117.656 18.0976 118.062 15.8162 118.487 13.4576C118.913 11.0602 119.319 8.72089 119.705 6.43956C120.015 4.85423 119.415 3.75223 117.907 3.13356L117.327 2.90156L117.443 2.32156H132.059C136.429 2.32156 139.657 3.13356 141.745 4.75756C143.833 6.34289 144.877 8.50823 144.877 11.2536C144.877 13.6122 144.065 15.7002 142.441 17.5176C140.817 19.3349 138.497 20.6882 135.481 21.5776L141.397 36.6576C142.016 38.1269 142.983 39.1709 144.297 39.7896L144.703 40.0216L144.529 40.6016H134.147L128.289 22.9696H124.577C124.191 24.9802 123.804 27.1069 123.417 29.3496C123.031 31.5922 122.625 33.9702 122.199 36.4836C121.929 38.0302 122.528 39.0936 123.997 39.6736L124.693 40.0216L124.577 40.6016H110.483ZM124.809 21.8096H127.709C130.841 21.7322 133.181 20.7849 134.727 18.9676C136.313 17.1116 137.105 14.5982 137.105 11.4276C137.105 6.13023 134.901 3.48156 130.493 3.48156H128.289L124.809 21.8096ZM158.274 41.4716C155.374 41.4716 153.015 40.5242 151.198 38.6296C149.381 36.7349 148.472 34.0476 148.472 30.5676C148.472 28.0929 148.897 25.7342 149.748 23.4916C150.599 21.2489 151.778 19.2576 153.286 17.5176C154.833 15.7389 156.611 14.3469 158.622 13.3416C160.633 12.3362 162.817 11.8336 165.176 11.8336C167.612 11.8336 169.468 12.3942 170.744 13.5156C172.059 14.5982 172.716 16.0482 172.716 17.8656C172.716 19.3736 172.001 20.8622 170.57 22.3316C169.178 23.8009 167.206 25.1349 164.654 26.3336C162.102 27.4936 159.105 28.3829 155.664 29.0016C155.703 31.6696 156.283 33.6222 157.404 34.8596C158.525 36.0969 160.072 36.7156 162.044 36.7156C163.707 36.7156 165.234 36.2709 166.626 35.3816C168.018 34.4536 169.197 33.3709 170.164 32.1336L170.744 32.5396C169.971 34.0476 168.965 35.4782 167.728 36.8316C166.529 38.1849 165.137 39.3062 163.552 40.1956C161.967 41.0462 160.207 41.4716 158.274 41.4716ZM164.77 13.3996C163.881 13.3996 162.914 13.7862 161.87 14.5596C160.865 15.3329 159.898 16.3962 158.97 17.7496C158.081 19.0642 157.327 20.5916 156.708 22.3316C156.128 24.0329 155.78 25.8502 155.664 27.7836C159.917 26.6236 162.933 25.0962 164.712 23.2016C166.529 21.3069 167.438 19.1609 167.438 16.7636C167.438 15.6036 167.187 14.7529 166.684 14.2116C166.181 13.6702 165.543 13.3996 164.77 13.3996ZM180.1 41.4716C177.664 41.4716 175.692 40.9882 174.184 40.0216C172.676 39.0549 171.922 37.6822 171.922 35.9036C171.922 34.9756 172.251 34.1636 172.908 33.4676C173.565 32.7716 174.416 32.4236 175.46 32.4236C177.393 32.4236 178.592 33.6029 179.056 35.9616L179.404 37.5856C179.597 38.3976 179.829 39.0549 180.1 39.5576C180.409 40.0602 180.989 40.3116 181.84 40.3116C182.807 40.3116 183.657 39.9056 184.392 39.0936C185.127 38.2816 185.494 37.1602 185.494 35.7296C185.494 34.6469 185.146 33.6029 184.45 32.5976C183.793 31.5922 182.671 30.4902 181.086 29.2916C179.501 28.0542 178.225 26.7782 177.258 25.4636C176.291 24.1102 175.808 22.5056 175.808 20.6496C175.808 19.0256 176.214 17.5562 177.026 16.2416C177.877 14.8882 179.095 13.8249 180.68 13.0516C182.265 12.2396 184.141 11.8336 186.306 11.8336C188.819 11.8336 190.791 12.3362 192.222 13.3416C193.691 14.3469 194.426 15.6422 194.426 17.2276C194.426 18.0782 194.175 18.7936 193.672 19.3736C193.169 19.9149 192.415 20.1856 191.41 20.1856C189.554 20.1856 188.297 19.0642 187.64 16.8216L187.06 15.1976C186.867 14.4242 186.635 13.8829 186.364 13.5736C186.093 13.2642 185.668 13.1096 185.088 13.1096C184.469 13.1096 183.831 13.4576 183.174 14.1536C182.517 14.8109 182.188 15.8742 182.188 17.3436C182.188 18.7356 182.594 20.0116 183.406 21.1716C184.257 22.2929 185.513 23.4722 187.176 24.7096C188.877 25.9856 190.115 27.2229 190.888 28.4216C191.7 29.6202 192.106 31.0702 192.106 32.7716C192.106 34.3569 191.642 35.8069 190.714 37.1216C189.786 38.4362 188.433 39.4996 186.654 40.3116C184.875 41.0849 182.691 41.4716 180.1 41.4716ZM205.061 41.4716C202.161 41.4716 199.803 40.5242 197.985 38.6296C196.168 36.7349 195.259 34.0476 195.259 30.5676C195.259 28.0929 195.685 25.7342 196.535 23.4916C197.386 21.2489 198.565 19.2576 200.073 17.5176C201.62 15.7389 203.399 14.3469 205.409 13.3416C207.42 12.3362 209.605 11.8336 211.963 11.8336C214.399 11.8336 216.255 12.3942 217.531 13.5156C218.846 14.5982 219.503 16.0482 219.503 17.8656C219.503 19.3736 218.788 20.8622 217.357 22.3316C215.965 23.8009 213.993 25.1349 211.441 26.3336C208.889 27.4936 205.893 28.3829 202.451 29.0016C202.49 31.6696 203.07 33.6222 204.191 34.8596C205.313 36.0969 206.859 36.7156 208.831 36.7156C210.494 36.7156 212.021 36.2709 213.413 35.3816C214.805 34.4536 215.985 33.3709 216.951 32.1336L217.531 32.5396C216.758 34.0476 215.753 35.4782 214.515 36.8316C213.317 38.1849 211.925 39.3062 210.339 40.1956C208.754 41.0462 206.995 41.4716 205.061 41.4716ZM211.557 13.3996C210.668 13.3996 209.701 13.7862 208.657 14.5596C207.652 15.3329 206.685 16.3962 205.757 17.7496C204.868 19.0642 204.114 20.5916 203.495 22.3316C202.915 24.0329 202.567 25.8502 202.451 27.7836C206.705 26.6236 209.721 25.0962 211.499 23.2016C213.317 21.3069 214.225 19.1609 214.225 16.7636C214.225 15.6036 213.974 14.7529 213.471 14.2116C212.969 13.6702 212.331 13.3996 211.557 13.3996ZM220.261 41.0076L219.681 40.6016L224.089 19.3736C224.282 18.3682 224.224 17.6336 223.915 17.1696C223.605 16.6669 223.083 16.2609 222.349 15.9516L221.479 15.5456L221.595 14.9656L231.687 11.7756L232.267 12.2976L230.701 21.8676C231.513 20.0116 232.46 18.3296 233.543 16.8216C234.625 15.3136 235.766 14.1149 236.965 13.2256C238.163 12.2976 239.362 11.8336 240.561 11.8336C241.759 11.8336 242.726 12.1622 243.461 12.8196C244.195 13.4382 244.563 14.2696 244.563 15.3136C244.563 16.3962 244.234 17.2856 243.577 17.9816C242.958 18.6776 242.107 19.0256 241.025 19.0256C240.174 19.0256 239.362 18.8129 238.589 18.3876C237.815 17.9236 237.061 17.2662 236.327 16.4156C234.973 17.4209 233.813 18.7356 232.847 20.3596C231.88 21.9449 230.991 23.6849 230.179 25.5796L229.599 28.2476C229.173 30.2969 228.767 32.3462 228.381 34.3956C227.994 36.4449 227.607 38.5136 227.221 40.6016L220.261 41.0076ZM251.974 41.1236L251.394 40.6596C251.046 36.4062 250.679 32.4622 250.292 28.8276C249.905 25.1542 249.519 21.5582 249.132 18.0396C249.055 17.1502 248.881 16.5896 248.61 16.3576C248.339 16.0869 248.03 15.9516 247.682 15.9516C246.986 15.9516 246.019 16.6862 244.782 18.1556L244.086 17.4596C245.439 15.6036 246.735 14.2116 247.972 13.2836C249.248 12.3169 250.543 11.8336 251.858 11.8336C254.565 11.8336 256.092 13.6316 256.44 17.2276C256.672 19.9729 256.904 22.9309 257.136 26.1016C257.407 29.2722 257.658 32.6556 257.89 36.2516C259.359 34.4729 260.732 32.7716 262.008 31.1476C263.323 29.4849 264.56 27.7642 265.72 25.9856C266.377 24.9802 266.745 24.0136 266.822 23.0856C266.899 22.1189 266.725 21.0942 266.3 20.0116L265.314 17.2856C264.811 15.7776 264.889 14.4629 265.546 13.3416C266.242 12.2202 267.247 11.6596 268.562 11.6596C269.915 11.6596 270.863 12.0656 271.404 12.8776C271.984 13.6896 272.274 14.6562 272.274 15.7776C272.274 16.5509 272.061 17.4982 271.636 18.6196C271.249 19.7409 270.495 21.2489 269.374 23.1436C267.866 25.6569 265.933 28.4602 263.574 31.5536C261.215 34.6469 258.547 37.7016 255.57 40.7176L251.974 41.1236ZM277.165 41.4716C276.082 41.4716 275.058 41.2202 274.091 40.7176C273.124 40.2149 272.332 39.3836 271.713 38.2236C271.133 37.0636 270.843 35.5362 270.843 33.6416C270.843 31.5922 271.249 29.5429 272.061 27.4936C272.873 25.4056 273.956 23.4336 275.309 21.5776C276.662 19.6829 278.17 18.0202 279.833 16.5896C281.496 15.1202 283.216 13.9602 284.995 13.1096C286.774 12.2589 288.456 11.8336 290.041 11.8336C290.814 11.8336 291.53 11.9882 292.187 12.2976C292.883 12.5682 293.54 12.9549 294.159 13.4576L298.857 11.6596L299.321 11.9496L294.275 34.1636C294.004 35.2462 293.869 36.1356 293.869 36.8316C293.869 37.6436 294.236 38.0496 294.971 38.0496C295.512 38.0496 296.131 37.7982 296.827 37.2956C297.562 36.7929 298.393 36.1162 299.321 35.2656L299.785 35.7296C299.205 36.6576 298.47 37.5662 297.581 38.4556C296.73 39.3062 295.764 40.0216 294.681 40.6016C293.637 41.1816 292.516 41.4716 291.317 41.4716C290.002 41.4716 288.939 41.0849 288.127 40.3116C287.315 39.4996 286.909 38.2622 286.909 36.5996C286.909 36.0582 286.928 35.5362 286.967 35.0336C285.42 36.7736 283.777 38.2816 282.037 39.5576C280.336 40.8336 278.712 41.4716 277.165 41.4716ZM277.687 31.0316C277.687 33.0809 278.016 34.5696 278.673 35.4976C279.369 36.3869 280.278 36.8316 281.399 36.8316C282.327 36.8316 283.255 36.5416 284.183 35.9616C285.111 35.3816 286.116 34.5502 287.199 33.4676C287.276 33.0036 287.373 32.5202 287.489 32.0176L291.143 15.3136C290.64 14.6949 290.041 14.2696 289.345 14.0376C288.649 13.8056 288.03 13.6896 287.489 13.6896C285.826 13.6896 284.086 14.6756 282.269 16.6476C280.838 18.2329 279.717 20.3209 278.905 22.9116C278.093 25.5022 277.687 28.2089 277.687 31.0316ZM307.652 41.4716C306.453 41.4716 305.448 41.1622 304.636 40.5436C303.863 39.8862 303.476 38.9389 303.476 37.7016C303.476 36.9282 303.553 36.0969 303.708 35.2076C303.863 34.2796 304.037 33.2936 304.23 32.2496L308.232 13.9216H303.418L303.592 13.2256L305.68 12.9936C306.763 12.8776 307.71 12.6069 308.522 12.1816C309.334 11.7562 310.107 11.1569 310.842 10.3836L316.41 4.75756H317.28L315.656 12.7036H321.978L321.688 13.9216H315.366L311.364 33.2356C311.209 33.9702 311.093 34.6082 311.016 35.1496C310.939 35.6522 310.9 36.0776 310.9 36.4256C310.9 36.8122 311.016 37.1216 311.248 37.3536C311.48 37.5856 311.731 37.7016 312.002 37.7016C312.543 37.7016 313.123 37.4889 313.742 37.0636C314.361 36.5996 315.134 35.9229 316.062 35.0336L316.758 35.6136C315.791 37.0442 314.535 38.3782 312.988 39.6156C311.441 40.8529 309.663 41.4716 307.652 41.4716ZM330.55 8.58556C329.468 8.58556 328.52 8.23756 327.708 7.54156C326.935 6.80689 326.548 5.84023 326.548 4.64156C326.548 3.28823 327.012 2.18623 327.94 1.33556C328.907 0.446226 329.99 0.00155973 331.188 0.00155973C332.348 0.00155973 333.296 0.368893 334.03 1.10356C334.765 1.83823 335.132 2.78556 335.132 3.94556C335.132 5.26023 334.668 6.36223 333.74 7.25156C332.812 8.14089 331.749 8.58556 330.55 8.58556ZM325.156 41.4716C323.958 41.4716 322.972 41.1622 322.198 40.5436C321.425 39.9249 321.038 39.0162 321.038 37.8176C321.038 37.1216 321.116 36.2902 321.27 35.3236C321.425 34.3569 321.599 33.3902 321.792 32.4236L324.518 19.3736C324.866 17.7882 324.306 16.6669 322.836 16.0096L321.908 15.5456L321.966 14.9076L332.87 11.7756L333.45 12.2976L328.926 33.2936C328.772 33.9896 328.656 34.5889 328.578 35.0916C328.501 35.5556 328.462 36.0196 328.462 36.4836C328.462 37.3342 328.849 37.7596 329.622 37.7596C330.202 37.7596 330.782 37.5856 331.362 37.2376C331.942 36.8509 332.677 36.2322 333.566 35.3816L334.088 35.9036C333.122 37.3342 331.884 38.6296 330.376 39.7896C328.907 40.9109 327.167 41.4716 325.156 41.4716ZM347.031 41.4716C345.021 41.4716 343.184 41.0849 341.521 40.3116C339.859 39.4996 338.544 38.3009 337.577 36.7156C336.611 35.0916 336.127 33.0422 336.127 30.5676C336.127 28.0929 336.533 25.7342 337.345 23.4916C338.196 21.2489 339.375 19.2576 340.883 17.5176C342.391 15.7389 344.151 14.3469 346.161 13.3416C348.172 12.3362 350.357 11.8336 352.715 11.8336C354.765 11.8336 356.582 12.2396 358.167 13.0516C359.791 13.8249 361.067 15.0042 361.995 16.5896C362.962 18.1749 363.445 20.2049 363.445 22.6796C363.445 25.1156 363.02 27.4742 362.169 29.7556C361.357 31.9982 360.197 34.0089 358.689 35.7876C357.22 37.5276 355.48 38.9196 353.469 39.9636C351.497 40.9689 349.351 41.4716 347.031 41.4716ZM347.727 40.3116C348.926 40.3116 350.009 39.7702 350.975 38.6876C351.981 37.5662 352.851 36.0969 353.585 34.2796C354.32 32.4236 354.881 30.3936 355.267 28.1896C355.654 25.9469 355.847 23.7236 355.847 21.5196C355.847 18.3102 355.519 16.0869 354.861 14.8496C354.204 13.6122 353.353 12.9936 352.309 12.9936C351.072 12.9936 349.931 13.5349 348.887 14.6176C347.843 15.7002 346.935 17.1502 346.161 18.9676C345.388 20.7849 344.789 22.7956 344.363 24.9996C343.938 27.2036 343.725 29.4076 343.725 31.6116C343.725 34.8982 344.112 37.1796 344.885 38.4556C345.659 39.6929 346.606 40.3116 347.727 40.3116ZM365.153 41.0076L364.631 40.6016L369.097 19.2576C369.445 17.7496 368.903 16.6669 367.473 16.0096L366.487 15.5456L366.545 14.9656L377.333 11.7756L377.855 12.2396L376.521 19.2576C378.531 16.9762 380.581 15.1782 382.669 13.8636C384.757 12.5102 386.729 11.8336 388.585 11.8336C389.822 11.8336 390.847 12.2202 391.659 12.9936C392.471 13.7282 392.877 14.8882 392.877 16.4736C392.877 17.2856 392.799 18.1362 392.645 19.0256C392.49 19.8762 392.297 20.7656 392.065 21.6936L388.991 34.0476C388.836 34.6662 388.72 35.1882 388.643 35.6136C388.565 36.0002 388.527 36.3482 388.527 36.6576C388.527 37.4696 388.855 37.8756 389.513 37.8756C390.595 37.8756 391.968 37.0056 393.631 35.2656L394.211 35.8456C393.244 37.2762 391.968 38.5716 390.383 39.7316C388.797 40.8916 387.038 41.4716 385.105 41.4716C383.829 41.4716 382.843 41.1816 382.147 40.6016C381.451 39.9829 381.103 39.1322 381.103 38.0496C381.103 37.2376 381.199 36.4062 381.393 35.5556C381.586 34.6662 381.799 33.7576 382.031 32.8296L384.293 23.7816C384.602 22.5442 384.853 21.4422 385.047 20.4756C385.24 19.5089 385.337 18.6196 385.337 17.8076C385.337 17.1116 385.182 16.6282 384.873 16.3576C384.563 16.0482 384.138 15.8936 383.597 15.8936C382.669 15.8936 381.567 16.2996 380.291 17.1116C379.053 17.9236 377.681 19.1996 376.173 20.9396L374.549 28.2476C374.123 30.2969 373.717 32.3462 373.331 34.3956C372.944 36.4449 372.557 38.5136 372.171 40.6016L365.153 41.0076ZM425.788 41.5876C420.181 41.5876 415.793 40.1182 412.622 37.1796C409.451 34.2022 407.866 30.0456 407.866 24.7096C407.866 21.3842 408.427 18.3102 409.548 15.4876C410.708 12.6262 412.313 10.1322 414.362 8.00556C416.45 5.87889 418.867 4.23556 421.612 3.07556C424.396 1.87689 427.412 1.27756 430.66 1.27756C434.72 1.27756 438.49 2.24423 441.97 4.17756L440.578 13.2836H439.998L437.794 7.25156C437.175 5.47289 436.421 4.23556 435.532 3.53956C434.681 2.80489 433.289 2.43756 431.356 2.43756C428.379 2.43756 425.749 3.42356 423.468 5.39556C421.187 7.32889 419.408 9.99689 418.132 13.3996C416.856 16.7636 416.218 20.6109 416.218 24.9416C416.218 28.1509 416.643 30.9156 417.494 33.2356C418.383 35.5556 419.563 37.3342 421.032 38.5716C422.501 39.8089 424.164 40.4276 426.02 40.4276C427.025 40.4276 427.818 40.2342 428.398 39.8476C429.017 39.4222 429.423 38.6102 429.616 37.4116L429.964 35.6136C430.157 34.3762 430.389 32.9456 430.66 31.3216C430.931 29.6976 431.163 28.1316 431.356 26.6236C431.743 24.5742 430.911 23.2209 428.862 22.5636L427.586 22.1576L427.702 21.5776H443.42L443.304 22.1576L442.028 22.7376C440.597 23.3176 439.727 24.4002 439.418 25.9856L436.924 39.1516C435.223 39.8862 433.502 40.4662 431.762 40.8916C430.061 41.3556 428.069 41.5876 425.788 41.5876ZM449.592 41.4716C448.277 41.4716 447.137 41.0849 446.17 40.3116C445.242 39.4996 444.778 38.3009 444.778 36.7156C444.778 35.8262 444.875 34.8596 445.068 33.8156C445.261 32.7716 445.474 31.7469 445.706 30.7416L448.258 19.3156C448.606 17.8076 448.084 16.7056 446.692 16.0096L445.59 15.5456L445.648 14.9076L456.61 11.7756L457.132 12.2396L453.072 29.9876C452.84 30.9542 452.647 31.8242 452.492 32.5976C452.337 33.3709 452.26 34.0862 452.26 34.7436C452.26 35.5942 452.453 36.2129 452.84 36.5996C453.227 36.9476 453.729 37.1216 454.348 37.1216C455.237 37.1216 456.223 36.8122 457.306 36.1936C458.389 35.5362 459.645 34.5309 461.076 33.1776C461.115 32.9456 461.173 32.6942 461.25 32.4236L463.222 23.0856C463.531 21.5776 463.821 20.0696 464.092 18.5616C464.401 17.0149 464.691 15.4682 464.962 13.9216L472.27 11.7756L472.908 12.2976L468.326 33.3516C468.017 34.7049 467.862 35.7682 467.862 36.5416C467.862 37.3536 468.21 37.7596 468.906 37.7596C469.447 37.7596 470.027 37.5469 470.646 37.1216C471.265 36.6576 472.019 35.9809 472.908 35.0916L473.604 35.7876C472.637 37.2182 471.4 38.5329 469.892 39.7316C468.423 40.8916 466.741 41.4716 464.846 41.4716C463.647 41.4716 462.642 41.0656 461.83 40.2536C461.057 39.4029 460.67 38.2042 460.67 36.6576C460.67 36.0776 460.709 35.5169 460.786 34.9756C458.775 36.9862 456.823 38.5716 454.928 39.7316C453.072 40.8916 451.293 41.4716 449.592 41.4716ZM481.59 41.4716C480.507 41.4716 479.483 41.2202 478.516 40.7176C477.549 40.2149 476.757 39.3836 476.138 38.2236C475.558 37.0636 475.268 35.5362 475.268 33.6416C475.268 31.5922 475.674 29.5429 476.486 27.4936C477.298 25.4056 478.381 23.4336 479.734 21.5776C481.087 19.6829 482.595 18.0202 484.258 16.5896C485.921 15.1202 487.641 13.9602 489.42 13.1096C491.199 12.2589 492.881 11.8336 494.466 11.8336C495.239 11.8336 495.955 11.9882 496.612 12.2976C497.308 12.5682 497.965 12.9549 498.584 13.4576L503.282 11.6596L503.746 11.9496L498.7 34.1636C498.429 35.2462 498.294 36.1356 498.294 36.8316C498.294 37.6436 498.661 38.0496 499.396 38.0496C499.937 38.0496 500.556 37.7982 501.252 37.2956C501.987 36.7929 502.818 36.1162 503.746 35.2656L504.21 35.7296C503.63 36.6576 502.895 37.5662 502.006 38.4556C501.155 39.3062 500.189 40.0216 499.106 40.6016C498.062 41.1816 496.941 41.4716 495.742 41.4716C494.427 41.4716 493.364 41.0849 492.552 40.3116C491.74 39.4996 491.334 38.2622 491.334 36.5996C491.334 36.0582 491.353 35.5362 491.392 35.0336C489.845 36.7736 488.202 38.2816 486.462 39.5576C484.761 40.8336 483.137 41.4716 481.59 41.4716ZM482.112 31.0316C482.112 33.0809 482.441 34.5696 483.098 35.4976C483.794 36.3869 484.703 36.8316 485.824 36.8316C486.752 36.8316 487.68 36.5416 488.608 35.9616C489.536 35.3816 490.541 34.5502 491.624 33.4676C491.701 33.0036 491.798 32.5202 491.914 32.0176L495.568 15.3136C495.065 14.6949 494.466 14.2696 493.77 14.0376C493.074 13.8056 492.455 13.6896 491.914 13.6896C490.251 13.6896 488.511 14.6756 486.694 16.6476C485.263 18.2329 484.142 20.3209 483.33 22.9116C482.518 25.5022 482.112 28.2089 482.112 31.0316ZM506.506 41.0076L505.926 40.6016L510.334 19.3736C510.528 18.3682 510.47 17.6336 510.16 17.1696C509.851 16.6669 509.329 16.2609 508.594 15.9516L507.724 15.5456L507.84 14.9656L517.932 11.7756L518.512 12.2976L516.946 21.8676C517.758 20.0116 518.706 18.3296 519.788 16.8216C520.871 15.3136 522.012 14.1149 523.21 13.2256C524.409 12.2976 525.608 11.8336 526.806 11.8336C528.005 11.8336 528.972 12.1622 529.706 12.8196C530.441 13.4382 530.808 14.2696 530.808 15.3136C530.808 16.3962 530.48 17.2856 529.822 17.9816C529.204 18.6776 528.353 19.0256 527.27 19.0256C526.42 19.0256 525.608 18.8129 524.834 18.3876C524.061 17.9236 523.307 17.2662 522.572 16.4156C521.219 17.4209 520.059 18.7356 519.092 20.3596C518.126 21.9449 517.236 23.6849 516.424 25.5796L515.844 28.2476C515.419 30.2969 515.013 32.3462 514.626 34.3956C514.24 36.4449 513.853 38.5136 513.466 40.6016L506.506 41.0076ZM533.305 41.4716C532.223 41.4716 531.198 41.2202 530.231 40.7176C529.265 40.2149 528.472 39.3836 527.853 38.2236C527.273 37.0636 526.983 35.5362 526.983 33.6416C526.983 31.5922 527.389 29.5429 528.201 27.4936C529.013 25.4056 530.096 23.4336 531.449 21.5776C532.803 19.6829 534.311 18.0202 535.973 16.5896C537.636 15.1202 539.357 13.9602 541.135 13.1096C542.914 12.2589 544.596 11.8336 546.181 11.8336C546.955 11.8336 547.67 11.9882 548.327 12.2976C549.023 12.5682 549.681 12.9549 550.299 13.4576L554.997 11.6596L555.461 11.9496L550.415 34.1636C550.145 35.2462 550.009 36.1356 550.009 36.8316C550.009 37.6436 550.377 38.0496 551.111 38.0496C551.653 38.0496 552.271 37.7982 552.967 37.2956C553.702 36.7929 554.533 36.1162 555.461 35.2656L555.925 35.7296C555.345 36.6576 554.611 37.5662 553.721 38.4556C552.871 39.3062 551.904 40.0216 550.821 40.6016C549.777 41.1816 548.656 41.4716 547.457 41.4716C546.143 41.4716 545.079 41.0849 544.267 40.3116C543.455 39.4996 543.049 38.2622 543.049 36.5996C543.049 36.0582 543.069 35.5362 543.107 35.0336C541.561 36.7736 539.917 38.2816 538.177 39.5576C536.476 40.8336 534.852 41.4716 533.305 41.4716ZM533.827 31.0316C533.827 33.0809 534.156 34.5696 534.813 35.4976C535.509 36.3869 536.418 36.8316 537.539 36.8316C538.467 36.8316 539.395 36.5416 540.323 35.9616C541.251 35.3816 542.257 34.5502 543.339 33.4676C543.417 33.0036 543.513 32.5202 543.629 32.0176L547.283 15.3136C546.781 14.6949 546.181 14.2696 545.485 14.0376C544.789 13.8056 544.171 13.6896 543.629 13.6896C541.967 13.6896 540.227 14.6756 538.409 16.6476C536.979 18.2329 535.857 20.3209 535.045 22.9116C534.233 25.5022 533.827 28.2089 533.827 31.0316ZM558.164 41.0076L557.642 40.6016L562.108 19.2576C562.456 17.7496 561.914 16.6669 560.484 16.0096L559.498 15.5456L559.556 14.9656L570.344 11.7756L570.866 12.2396L569.532 19.2576C571.542 16.9762 573.592 15.1782 575.68 13.8636C577.768 12.5102 579.74 11.8336 581.596 11.8336C582.833 11.8336 583.858 12.2202 584.67 12.9936C585.482 13.7282 585.888 14.8882 585.888 16.4736C585.888 17.2856 585.81 18.1362 585.656 19.0256C585.501 19.8762 585.308 20.7656 585.076 21.6936L582.002 34.0476C581.847 34.6662 581.731 35.1882 581.654 35.6136C581.576 36.0002 581.538 36.3482 581.538 36.6576C581.538 37.4696 581.866 37.8756 582.524 37.8756C583.606 37.8756 584.979 37.0056 586.642 35.2656L587.222 35.8456C586.255 37.2762 584.979 38.5716 583.394 39.7316C581.808 40.8916 580.049 41.4716 578.116 41.4716C576.84 41.4716 575.854 41.1816 575.158 40.6016C574.462 39.9829 574.114 39.1322 574.114 38.0496C574.114 37.2376 574.21 36.4062 574.404 35.5556C574.597 34.6662 574.81 33.7576 575.042 32.8296L577.304 23.7816C577.613 22.5442 577.864 21.4422 578.058 20.4756C578.251 19.5089 578.348 18.6196 578.348 17.8076C578.348 17.1116 578.193 16.6282 577.884 16.3576C577.574 16.0482 577.149 15.8936 576.608 15.8936C575.68 15.8936 574.578 16.2996 573.302 17.1116C572.064 17.9236 570.692 19.1996 569.184 20.9396L567.56 28.2476C567.134 30.2969 566.728 32.3462 566.342 34.3956C565.955 36.4449 565.568 38.5136 565.182 40.6016L558.164 41.0076ZM594.691 41.4716C593.492 41.4716 592.487 41.1622 591.675 40.5436C590.902 39.8862 590.515 38.9389 590.515 37.7016C590.515 36.9282 590.592 36.0969 590.747 35.2076C590.902 34.2796 591.076 33.2936 591.269 32.2496L595.271 13.9216H590.457L590.631 13.2256L592.719 12.9936C593.802 12.8776 594.749 12.6069 595.561 12.1816C596.373 11.7562 597.146 11.1569 597.881 10.3836L603.449 4.75756H604.319L602.695 12.7036H609.017L608.727 13.9216H602.405L598.403 33.2356C598.248 33.9702 598.132 34.6082 598.055 35.1496C597.978 35.6522 597.939 36.0776 597.939 36.4256C597.939 36.8122 598.055 37.1216 598.287 37.3536C598.519 37.5856 598.77 37.7016 599.041 37.7016C599.582 37.7016 600.162 37.4889 600.781 37.0636C601.4 36.5996 602.173 35.9229 603.101 35.0336L603.797 35.6136C602.83 37.0442 601.574 38.3782 600.027 39.6156C598.48 40.8529 596.702 41.4716 594.691 41.4716ZM617.423 41.4716C614.523 41.4716 612.165 40.5242 610.347 38.6296C608.53 36.7349 607.621 34.0476 607.621 30.5676C607.621 28.0929 608.047 25.7342 608.897 23.4916C609.748 21.2489 610.927 19.2576 612.435 17.5176C613.982 15.7389 615.761 14.3469 617.771 13.3416C619.782 12.3362 621.967 11.8336 624.325 11.8336C626.761 11.8336 628.617 12.3942 629.893 13.5156C631.208 14.5982 631.865 16.0482 631.865 17.8656C631.865 19.3736 631.15 20.8622 629.719 22.3316C628.327 23.8009 626.355 25.1349 623.803 26.3336C621.251 27.4936 618.255 28.3829 614.813 29.0016C614.852 31.6696 615.432 33.6222 616.553 34.8596C617.675 36.0969 619.221 36.7156 621.193 36.7156C622.856 36.7156 624.383 36.2709 625.775 35.3816C627.167 34.4536 628.347 33.3709 629.313 32.1336L629.893 32.5396C629.12 34.0476 628.115 35.4782 626.877 36.8316C625.679 38.1849 624.287 39.3062 622.701 40.1956C621.116 41.0462 619.357 41.4716 617.423 41.4716ZM623.919 13.3996C623.03 13.3996 622.063 13.7862 621.019 14.5596C620.014 15.3329 619.047 16.3962 618.119 17.7496C617.23 19.0642 616.476 20.5916 615.857 22.3316C615.277 24.0329 614.929 25.8502 614.813 27.7836C619.067 26.6236 622.083 25.0962 623.861 23.2016C625.679 21.3069 626.587 19.1609 626.587 16.7636C626.587 15.6036 626.336 14.7529 625.833 14.2116C625.331 13.6702 624.693 13.3996 623.919 13.3996ZM642.375 41.4716C639.475 41.4716 637.116 40.5242 635.299 38.6296C633.481 36.7349 632.573 34.0476 632.573 30.5676C632.573 28.0929 632.998 25.7342 633.849 23.4916C634.699 21.2489 635.879 19.2576 637.387 17.5176C638.933 15.7389 640.712 14.3469 642.723 13.3416C644.733 12.3362 646.918 11.8336 649.277 11.8336C651.713 11.8336 653.569 12.3942 654.845 13.5156C656.159 14.5982 656.817 16.0482 656.817 17.8656C656.817 19.3736 656.101 20.8622 654.671 22.3316C653.279 23.8009 651.307 25.1349 648.755 26.3336C646.203 27.4936 643.206 28.3829 639.765 29.0016C639.803 31.6696 640.383 33.6222 641.505 34.8596C642.626 36.0969 644.173 36.7156 646.145 36.7156C647.807 36.7156 649.335 36.2709 650.727 35.3816C652.119 34.4536 653.298 33.3709 654.265 32.1336L654.845 32.5396C654.071 34.0476 653.066 35.4782 651.829 36.8316C650.63 38.1849 649.238 39.3062 647.653 40.1956C646.067 41.0462 644.308 41.4716 642.375 41.4716ZM648.871 13.3996C647.981 13.3996 647.015 13.7862 645.971 14.5596C644.965 15.3329 643.999 16.3962 643.071 17.7496C642.181 19.0642 641.427 20.5916 640.809 22.3316C640.229 24.0329 639.881 25.8502 639.765 27.7836C644.018 26.6236 647.034 25.0962 648.813 23.2016C650.63 21.3069 651.539 19.1609 651.539 16.7636C651.539 15.6036 651.287 14.7529 650.785 14.2116C650.282 13.6702 649.644 13.3996 648.871 13.3996ZM663.374 28.2476L663.432 20.2436C663.393 16.4929 663.412 13.4769 663.49 11.1956C663.606 8.87556 663.78 7.11623 664.012 5.91756C664.321 4.25489 664.959 3.07556 665.926 2.37956C666.892 1.64489 668.033 1.27756 669.348 1.27756C670.778 1.27756 671.842 1.64489 672.538 2.37956C673.272 3.11423 673.64 4.06156 673.64 5.22156C673.64 6.26556 673.33 7.6769 672.712 9.45556C672.093 11.1956 671.107 13.5542 669.754 16.5316C668.4 19.5089 666.622 23.4142 664.418 28.2476H663.374ZM657.864 37.4116C657.864 36.0582 658.347 34.8982 659.314 33.9316C660.319 32.9649 661.479 32.4816 662.794 32.4816C664.031 32.4816 665.017 32.8876 665.752 33.6996C666.486 34.5116 666.854 35.4782 666.854 36.5996C666.854 37.9529 666.351 39.0936 665.346 40.0216C664.379 40.9496 663.238 41.4136 661.924 41.4136C660.725 41.4136 659.739 41.0269 658.966 40.2536C658.231 39.4416 657.864 38.4942 657.864 37.4116ZM679.546 28.2476L679.604 20.2436C679.565 16.4929 679.584 13.4769 679.662 11.1956C679.778 8.87556 679.952 7.11623 680.184 5.91756C680.493 4.25489 681.131 3.07556 682.098 2.37956C683.064 1.64489 684.205 1.27756 685.52 1.27756C686.95 1.27756 688.014 1.64489 688.71 2.37956C689.444 3.11423 689.812 4.06156 689.812 5.22156C689.812 6.26556 689.502 7.6769 688.884 9.45556C688.265 11.1956 687.279 13.5542 685.926 16.5316C684.572 19.5089 682.794 23.4142 680.59 28.2476H679.546ZM674.036 37.4116C674.036 36.0582 674.519 34.8982 675.486 33.9316C676.491 32.9649 677.651 32.4816 678.966 32.4816C680.203 32.4816 681.189 32.8876 681.924 33.6996C682.658 34.5116 683.026 35.4782 683.026 36.5996C683.026 37.9529 682.523 39.0936 681.518 40.0216C680.551 40.9496 679.41 41.4136 678.096 41.4136C676.897 41.4136 675.911 41.0269 675.138 40.2536C674.403 39.4416 674.036 38.4942 674.036 37.4116Z" fill="url(#paint0_linear_6205_33533)"/>
<defs>
<linearGradient id="paint0_linear_6205_33533" x1="126.626" y1="4.31144" x2="504.714" y2="291.637" gradientUnits="userSpaceOnUse">
<stop stop-color="#3E57E2"/>
<stop offset="0.4" stop-color="#B133FF"/>
<stop offset="1" stop-color="#FF5DCA"/>
</linearGradient>
</defs>
</svg>
