<svg width="604" height="78" viewBox="0 0 604 78" fill="none" xmlns="http://www.w3.org/2000/svg">
<path d="M43.9206 23.5431H40.1766C38.8806 23.5431 37.9446 23.7591 37.3686 24.1911C36.7926 24.6231 36.4566 25.4631 36.3606 26.7111C36.1206 29.3991 35.8806 32.6871 35.6406 36.5751C35.4486 40.4151 35.3526 43.5831 35.3526 46.0791L35.9286 63.5031L34.7766 64.0071L26.9286 60.1911C27.6486 50.9271 28.0086 43.8711 28.0086 39.0231L20.2326 38.8071C17.4006 38.8071 15.3606 39.3831 14.1126 40.5351C12.8646 41.6391 12.2406 43.2711 12.2406 45.4311C12.2406 47.8311 12.8886 50.4231 14.1846 53.2071C15.5286 55.9911 17.4006 58.6311 19.8006 61.1271L19.5846 62.2791L15.8406 64.5831C7.82456 55.7991 3.81656 48.0471 3.81656 41.3271C3.81656 38.1591 4.89656 35.7831 7.05656 34.1991C9.26456 32.6151 12.4566 31.8231 16.6326 31.8231L27.8646 32.1831C27.8166 30.0231 27.6726 27.1431 27.4326 23.5431H1.80056C0.936555 21.7671 0.336555 20.2071 0.000555038 18.8631L0.432555 18.1431H42.1206L42.5526 18.6471L44.1366 22.6791L43.9206 23.5431ZM14.4967 1.94314C17.6647 1.94314 20.6167 2.83114 23.3527 4.60714C26.0887 6.38314 28.2247 8.80714 29.7607 11.8791L34.5127 21.1671H28.6807L24.7207 12.7431C24.0007 11.2071 23.2087 10.0791 22.3447 9.35914C21.4807 8.59114 20.4487 8.20714 19.2487 8.20714C18.3847 8.20714 17.3287 8.42314 16.0807 8.85514C14.7847 9.28714 13.1047 9.95914 11.0407 10.8711L7.87274 3.67114L8.08874 2.87914C10.1527 2.25514 12.2887 1.94314 14.4967 1.94314ZM95.9304 23.5431H92.1864C90.8904 23.5431 89.9544 23.7591 89.3784 24.1911C88.8024 24.6231 88.4664 25.4631 88.3704 26.7111C88.1304 29.3991 87.8904 32.6871 87.6504 36.5751C87.4584 40.4151 87.3624 43.5831 87.3624 46.0791L87.9384 63.5031L86.7864 64.0071L78.9384 60.1911C79.6584 50.7351 80.0184 43.5831 80.0184 38.7351V37.0071H68.9304C72.0024 40.1751 73.5384 43.3431 73.5384 46.5111C73.5384 49.1511 72.6264 51.3351 70.8024 53.0631C69.0264 54.7911 66.4824 55.6551 63.1704 55.6551C58.3224 55.6551 54.0744 53.7831 50.4264 50.0391C46.7784 46.2951 43.9224 41.1351 41.8584 34.5591L41.9304 33.9831L45.6024 32.1111L46.3224 32.5431C48.2424 38.4951 50.3544 42.7671 52.6584 45.3591C55.0104 47.9031 57.3384 49.1751 59.6424 49.1751C61.4184 49.1751 62.9544 48.5751 64.2504 47.3751C65.5944 46.1751 66.2664 44.6631 66.2664 42.8391C66.2664 41.1111 65.5704 39.7671 64.1784 38.8071C62.7864 37.8471 60.7224 37.1271 57.9864 36.6471C57.1224 35.2551 56.4024 33.5031 55.8264 31.3911L56.2584 30.8151H79.8744L79.7304 28.0791C79.6344 26.1591 79.5384 24.6471 79.4424 23.5431H39.8424C38.9784 21.9111 38.3784 20.3511 38.0424 18.8631L38.4744 18.1431H94.1304L94.5624 18.6471L96.1464 22.6791L95.9304 23.5431ZM51.2904 57.1671C52.6344 57.7911 53.7624 58.6791 54.6744 59.8311C55.6344 60.9351 56.3064 62.1831 56.6904 63.5751C56.0664 64.8711 55.1784 65.9751 54.0264 66.8871C52.9224 67.8471 51.6744 68.5191 50.2824 68.9031C49.0344 68.2791 47.9304 67.3911 46.9704 66.2391C46.0104 65.1351 45.3384 63.9111 44.9544 62.5671C45.5784 61.2711 46.4424 60.1431 47.5464 59.1831C48.6984 58.2231 49.9464 57.5511 51.2904 57.1671ZM186.627 23.5431H182.883C181.587 23.5431 180.651 23.7591 180.075 24.1911C179.499 24.6231 179.163 25.4631 179.067 26.7111C178.827 29.3991 178.587 32.6871 178.347 36.5751C178.155 40.4151 178.059 43.5831 178.059 46.0791L178.635 63.5031L177.483 64.0071L169.635 60.1911C170.355 50.7351 170.715 43.5831 170.715 38.7351C170.715 34.7511 170.523 29.6871 170.139 23.5431H161.211C159.915 23.5431 158.979 23.7591 158.403 24.1911C157.827 24.6231 157.491 25.4631 157.395 26.7111C157.155 29.3991 156.915 32.6871 156.675 36.5751C156.483 40.4151 156.387 43.5831 156.387 46.0791L156.963 63.5031L155.811 64.0071L147.963 60.1911C148.443 53.0871 148.755 48.0711 148.899 45.1431C147.795 45.6711 146.499 45.9351 145.011 45.9351C143.811 45.8871 142.083 45.3831 139.827 44.4231C140.403 45.8151 140.691 47.2551 140.691 48.7431C140.691 51.9111 139.563 54.4791 137.307 56.4471C135.099 58.3671 132.219 59.3271 128.667 59.3271C124.299 59.3271 120.507 57.7911 117.291 54.7191C114.075 51.6471 111.483 47.3271 109.515 41.7591L109.587 41.2551L113.331 39.2391L113.979 39.5991C117.003 48.3831 120.915 52.7751 125.715 52.7751C128.019 52.7751 129.939 51.9831 131.475 50.3991C133.011 48.8151 133.779 46.8471 133.779 44.4951C133.779 43.1031 133.443 41.9751 132.771 41.1111C132.147 40.2471 131.331 39.8151 130.323 39.8151C129.651 39.8151 128.739 39.9831 127.587 40.3191C126.483 40.6551 124.779 41.2551 122.475 42.1191L119.595 36.0711L119.883 35.4231C123.819 34.3191 126.675 32.9991 128.451 31.4631C130.227 29.9271 131.115 28.1991 131.115 26.2791C131.115 25.3671 130.899 24.6951 130.467 24.2631C130.035 23.7831 129.339 23.5431 128.379 23.5431C125.883 23.5431 122.187 25.5831 117.291 29.6631L116.499 29.7351L111.675 23.3271C114.027 21.4071 116.259 19.9911 118.371 19.0791C120.483 18.1671 122.643 17.7111 124.851 17.7111C127.155 17.7111 129.267 18.1911 131.187 19.1511C133.155 20.1111 134.715 21.4551 135.867 23.1831C137.067 24.9111 137.667 26.8791 137.667 29.0871C137.667 31.9191 136.611 34.3911 134.499 36.5031C136.995 38.5671 139.347 39.5991 141.555 39.5991C143.091 39.5991 144.483 39.0951 145.731 38.0871C147.027 37.0791 148.107 35.5671 148.971 33.5511C148.875 30.5271 148.707 27.1911 148.467 23.5431H142.275C141.411 21.9111 140.811 20.3511 140.475 18.8631L140.907 18.1431H184.827L185.259 18.6471L186.843 22.6791L186.627 23.5431ZM203.896 23.5431C205.48 26.3271 206.272 28.9911 206.272 31.5351C206.272 33.9351 205.504 36.3111 203.968 38.6631C202.432 40.9671 200.008 43.3911 196.696 45.9351C200.68 50.3991 204.976 54.3111 209.584 57.6711V59.0391L204.472 63.2151C196.792 55.5831 190.624 47.3751 185.968 38.5911L187.696 35.4951C189.328 35.3991 190.48 35.3511 191.152 35.3511C192.496 35.3511 193.816 35.4231 195.112 35.5671C197.992 32.5431 199.432 29.8791 199.432 27.5751C199.432 26.3271 199.12 25.3431 198.496 24.6231C197.872 23.9031 197.032 23.5431 195.976 23.5431H183.952C183.088 21.6711 182.488 20.1111 182.152 18.8631L182.584 18.1431H211.96L212.392 18.6471L214.048 22.6791L213.76 23.5431H203.896ZM265.56 23.5431H261.816C260.52 23.5431 259.584 23.7591 259.008 24.1911C258.432 24.6231 258.096 25.4631 258 26.7111C257.76 29.3991 257.52 32.6871 257.28 36.5751C257.088 40.4151 256.992 43.5831 256.992 46.0791L257.568 63.5031L256.416 64.0071L248.568 60.1911C249.096 52.6551 249.432 47.2071 249.576 43.8471C246.888 44.5191 244.152 44.8551 241.368 44.8551C236.616 44.8551 232.176 43.9431 228.048 42.1191C225.504 44.1831 223.56 46.0311 222.216 47.6631C220.872 49.2951 220.2 51.0711 220.2 52.9911C220.2 54.2391 220.56 55.1511 221.28 55.7271C222 56.2551 223.2 56.5191 224.88 56.5191C226.032 56.5191 227.112 56.4231 228.12 56.2311C229.128 55.9911 230.232 55.5831 231.432 55.0071C231.096 53.9031 230.928 52.8231 230.928 51.7671C230.928 51.2871 231.024 50.4231 231.216 49.1751L232.512 48.2391C236.832 49.1991 240.552 51.1671 243.672 54.1431L244.032 55.9431C242.88 57.0951 241.632 58.1751 240.288 59.1831C242.64 61.1511 244.344 62.9031 245.4 64.4391C246.456 65.9751 246.984 67.4871 246.984 68.9751C246.984 70.4151 246.48 71.7831 245.472 73.0791C244.512 74.4231 242.976 75.8151 240.864 77.2551L235.752 73.0791L235.608 71.4951C237.048 70.7751 238.176 69.9591 238.992 69.0471C239.856 68.1351 240.288 67.2471 240.288 66.3831C240.288 65.6631 240.024 64.9911 239.496 64.3671C238.968 63.7431 238.344 63.1431 237.624 62.5671C236.904 61.9911 236.4 61.5831 236.112 61.3431C233.952 62.0151 231.768 62.3511 229.56 62.3511C226.776 62.3511 224.136 61.7511 221.64 60.5511C219.192 59.3991 217.224 57.8391 215.736 55.8711C214.248 53.8551 213.504 51.7191 213.504 49.4631C213.504 47.3511 214.152 45.3591 215.448 43.4871C216.792 41.5671 218.616 39.5751 220.92 37.5111C219.288 35.9751 218.016 34.2711 217.104 32.3991C216.192 30.4791 215.736 28.5111 215.736 26.4951C215.736 23.8071 216.504 21.6951 218.04 20.1591C219.576 18.6231 221.712 17.8551 224.448 17.8551C226.704 17.8551 228.864 18.4071 230.928 19.5111C233.04 20.5671 234.72 21.9831 235.968 23.7591C237.264 25.4871 237.912 27.3111 237.912 29.2311C237.912 30.9111 237.408 32.5191 236.4 34.0551C235.44 35.5431 234.048 37.0791 232.224 38.6631C233.76 38.9511 235.464 39.0951 237.336 39.0951C241.176 39.0951 245.28 38.2791 249.648 36.6471C249.552 32.6631 249.36 28.2951 249.072 23.5431H240.144C239.28 21.9111 238.68 20.3511 238.344 18.8631L238.704 18.1431H263.76L264.192 18.6471L265.776 22.6791L265.56 23.5431ZM222.36 30.2391C222.36 31.9671 222.96 33.5031 224.16 34.8471C226.56 32.8311 228.312 31.1751 229.416 29.8791C230.568 28.5831 231.144 27.2871 231.144 25.9911C231.144 25.1751 230.928 24.5991 230.496 24.2631C230.064 23.8791 229.392 23.6871 228.48 23.6871C226.752 23.6871 225.288 24.3351 224.088 25.6311C222.936 26.8791 222.36 28.4151 222.36 30.2391ZM320.66 23.5431H316.916C315.62 23.5431 314.684 23.7591 314.108 24.1911C313.532 24.6231 313.196 25.4631 313.1 26.7111C312.86 29.3991 312.62 32.6871 312.38 36.5751C312.188 40.4151 312.092 43.5831 312.092 46.0791L312.668 63.5031L311.516 64.0071L303.668 60.1911C304.388 50.7351 304.748 43.5831 304.748 38.7351C304.748 34.7511 304.556 29.6871 304.172 23.5431H298.124C295.772 23.5431 294.572 24.7431 294.524 27.1431L294.236 40.3191C294.188 42.3831 293.708 44.3511 292.796 46.2231C291.884 48.0471 290.564 49.5111 288.836 50.6151C287.156 51.7191 285.164 52.2711 282.86 52.2711C280.22 52.2711 277.676 51.5991 275.228 50.2551C272.78 48.9111 270.812 47.2311 269.324 45.2151C267.884 43.1511 267.164 41.1831 267.164 39.3111L267.308 23.5431H262.916C262.052 21.9111 261.452 20.3511 261.116 18.8631L261.548 18.1431H318.86L319.292 18.6471L320.876 22.6791L320.66 23.5431ZM278.18 45.7191C280.724 45.7191 282.788 44.5911 284.372 42.3351C286.004 40.0311 286.82 37.2711 286.82 34.0551L286.676 23.5431H278.108C277.34 23.5431 276.788 23.7111 276.452 24.0471C276.164 24.3351 275.948 24.9351 275.804 25.8471C275.564 27.9591 275.3 30.8391 275.012 34.4871C274.724 38.0871 274.58 40.4631 274.58 41.6151C274.58 44.3511 275.78 45.7191 278.18 45.7191ZM371.212 23.5431C369.916 23.5431 368.98 23.7591 368.404 24.1911C367.828 24.6231 367.492 25.4631 367.396 26.7111C367.108 30.2151 366.94 32.4711 366.892 33.4791C369.484 31.7031 371.932 30.8151 374.236 30.8151C376.54 30.8151 378.82 31.5591 381.076 33.0471C383.38 34.5351 385.252 36.4551 386.692 38.8071C388.132 41.1111 388.852 43.4631 388.852 45.8631C388.852 48.5991 387.868 51.2391 385.9 53.7831C383.98 56.2791 381.484 58.2951 378.412 59.8311L377.62 59.6871L372.796 53.7111L372.868 52.7031C375.7 50.9751 377.908 49.0071 379.492 46.7991C381.076 44.5431 381.868 42.3111 381.868 40.1031C381.868 38.9031 381.628 38.0631 381.148 37.5831C380.668 37.0551 379.876 36.7911 378.772 36.7911C376.948 36.7911 375.028 37.4391 373.012 38.7351C370.996 39.9831 368.788 41.7591 366.388 44.0631V46.0791L366.964 63.5031L365.812 64.0071L357.964 60.1911L358.612 50.6871C356.308 52.7511 353.956 53.7831 351.556 53.7831C348.82 53.7831 346.18 53.0631 343.636 51.6231C341.14 50.1831 339.1 48.2151 337.516 45.7191C335.98 43.2231 335.212 40.4871 335.212 37.5111C335.212 34.1511 336.268 31.5351 338.38 29.6631C340.492 27.7911 343.228 26.8551 346.588 26.8551C348.7 26.8551 350.812 27.2631 352.924 28.0791C355.036 28.8471 357.028 29.9751 358.9 31.4631C358.852 29.3031 358.708 26.6631 358.468 23.5431H331.684C330.82 21.9111 330.22 20.3511 329.884 18.8631L330.316 18.1431H391.948L392.38 18.6471L393.964 22.6791L393.676 23.5431H371.212ZM347.38 48.4551C349.012 48.4551 350.74 47.7591 352.564 46.3671C354.436 44.9751 356.596 42.9351 359.044 40.2471V38.7351V35.7111C356.452 33.6471 353.884 32.6151 351.34 32.6151C348.892 32.6151 346.924 33.4791 345.436 35.2071C343.948 36.9351 343.204 39.3111 343.204 42.3351C343.204 46.4151 344.596 48.4551 347.38 48.4551ZM413.745 23.5431H410.001C408.705 23.5431 407.769 23.7591 407.193 24.1911C406.617 24.6231 406.281 25.4631 406.185 26.7111C405.945 29.3991 405.705 32.6871 405.465 36.5751C405.273 40.4151 405.177 43.5831 405.177 46.0791L405.753 63.5031L404.601 64.0071L396.753 60.1911C397.473 50.7351 397.833 43.5831 397.833 38.7351C397.833 34.7511 397.641 29.6871 397.257 23.5431H391.065C390.201 21.9111 389.601 20.3511 389.265 18.8631L389.697 18.1431H399.201C397.857 14.8311 395.937 12.2151 393.441 10.2951C390.993 8.32714 388.401 7.34314 385.665 7.34314C384.225 7.34314 383.145 7.65514 382.425 8.27914C381.705 8.90314 381.345 9.71914 381.345 10.7271C381.345 11.7831 381.705 12.7911 382.425 13.7511L382.209 14.2551L379.329 15.2631C378.129 14.0631 377.193 12.7671 376.521 11.3751C375.849 9.93514 375.513 8.56714 375.513 7.27114C375.513 5.54314 376.113 4.12714 377.313 3.02314C378.465 1.91914 380.169 1.36714 382.425 1.36714C385.161 1.36714 387.969 2.15914 390.849 3.74314C393.681 5.27914 396.273 7.34314 398.625 9.93514C400.977 12.5271 402.801 15.2631 404.097 18.1431H411.945L412.377 18.6471L413.961 22.6791L413.745 23.5431ZM469.747 23.5431H466.003C464.707 23.5431 463.771 23.7591 463.195 24.1911C462.619 24.6231 462.283 25.4631 462.187 26.7111C461.947 29.3991 461.707 32.6871 461.467 36.5751C461.275 40.4151 461.179 43.5831 461.179 46.0791L461.755 63.5031L460.603 64.0071L452.755 60.1911C453.475 50.7351 453.835 43.5831 453.835 38.7351C453.835 34.7511 453.643 29.6871 453.259 23.5431H445.267C444.163 23.5431 443.371 23.8071 442.891 24.3351C442.411 24.8151 442.147 25.6311 442.099 26.7831L441.523 41.5431C441.379 45.0471 441.091 48.0231 440.659 50.4711L437.923 51.7671C435.091 50.0871 432.715 48.4071 430.795 46.7271C428.923 44.9991 427.315 43.1031 425.971 41.0391L427.195 38.1591L434.107 37.9431C434.059 33.2391 433.771 28.4391 433.243 23.5431H424.747C423.883 21.9111 423.283 20.3511 422.947 18.8631L423.379 18.1431H467.947L468.379 18.6471L469.963 22.6791L469.747 23.5431ZM489.792 23.5431H486.048C484.752 23.5431 483.816 23.7591 483.24 24.1911C482.664 24.6231 482.328 25.4631 482.232 26.7111C481.992 29.3991 481.752 32.6871 481.512 36.5751C481.32 40.4151 481.224 43.5831 481.224 46.0791L481.8 63.5031L480.648 64.0071L472.8 60.1911C473.52 50.7351 473.88 43.5831 473.88 38.7351C473.88 34.7511 473.688 29.6871 473.304 23.5431H467.112C466.248 21.9111 465.648 20.3511 465.312 18.8631L465.744 18.1431H487.992L488.424 18.6471L490.008 22.6791L489.792 23.5431ZM507.061 23.5431C508.645 26.3271 509.437 28.9911 509.437 31.5351C509.437 33.9351 508.669 36.3111 507.133 38.6631C505.597 40.9671 503.173 43.3911 499.861 45.9351C503.845 50.3991 508.141 54.3111 512.749 57.6711V59.0391L507.637 63.2151C499.957 55.5831 493.789 47.3751 489.133 38.5911L490.861 35.4951C492.493 35.3991 493.645 35.3511 494.317 35.3511C495.661 35.3511 496.981 35.4231 498.277 35.5671C501.157 32.5431 502.597 29.8791 502.597 27.5751C502.597 26.3271 502.285 25.3431 501.661 24.6231C501.037 23.9031 500.197 23.5431 499.141 23.5431H487.117C486.253 21.6711 485.653 20.1111 485.317 18.8631L485.749 18.1431H515.125L515.557 18.6471L517.213 22.6791L516.925 23.5431H507.061ZM503.151 -0.000862122C504.399 0.623138 505.479 1.48714 506.391 2.59114C507.303 3.64714 507.927 4.82314 508.263 6.11914C507.687 7.31914 506.871 8.37514 505.815 9.28714C504.711 10.1991 503.487 10.8471 502.143 11.2311C500.943 10.6071 499.887 9.76714 498.975 8.71114C498.063 7.60714 497.439 6.40714 497.103 5.11114C497.679 3.91114 498.519 2.85514 499.623 1.94314C500.679 1.03114 501.855 0.383139 503.151 -0.000862122ZM531.717 35.2071C529.317 35.2071 527.397 35.9991 525.957 37.5831C524.565 39.1191 523.869 41.2071 523.869 43.8471C523.869 46.1991 524.445 47.9751 525.597 49.1751C526.797 50.3751 528.357 50.9751 530.277 50.9751C532.101 50.9751 534.117 50.4471 536.325 49.3911C538.581 48.3351 540.717 46.8951 542.733 45.0711L544.029 45.2151L547.989 52.7751C546.357 54.2151 544.461 55.3191 542.301 56.0871C540.141 56.8071 537.861 57.1671 535.461 57.1671C532.005 57.1671 528.837 56.3751 525.957 54.7911C523.077 53.2071 520.797 50.9991 519.117 48.1671C517.437 45.2871 516.597 42.0231 516.597 38.3751C516.597 35.0151 517.533 32.6151 519.405 31.1751C521.277 29.7351 524.325 29.0391 528.549 29.0871L535.317 29.1591L535.245 23.5431H512.925C512.061 21.9111 511.461 20.3511 511.125 18.8631L511.557 18.1431H548.925L549.285 18.6471L550.941 22.6791L550.653 23.5431H544.821C544.101 23.5431 543.573 23.7111 543.237 24.0471C542.949 24.3351 542.781 24.8391 542.733 25.5591L542.445 34.7751L541.869 35.4951L531.717 35.2071ZM570.727 23.5431H566.983C565.687 23.5431 564.751 23.7591 564.175 24.1911C563.599 24.6231 563.263 25.4631 563.167 26.7111C562.927 29.3991 562.687 32.6871 562.447 36.5751C562.255 40.4151 562.159 43.5831 562.159 46.0791L562.735 63.5031L561.583 64.0071L553.735 60.1911C554.455 50.7351 554.815 43.5831 554.815 38.7351C554.815 34.7511 554.623 29.6871 554.239 23.5431H548.047C547.183 21.9111 546.583 20.3511 546.247 18.8631L546.679 18.1431H556.183C554.839 14.8311 552.919 12.2151 550.423 10.2951C547.975 8.32714 545.383 7.34314 542.647 7.34314C541.207 7.34314 540.127 7.65514 539.407 8.27914C538.687 8.90314 538.327 9.71914 538.327 10.7271C538.327 11.7831 538.687 12.7911 539.407 13.7511L539.191 14.2551L536.311 15.2631C535.111 14.0631 534.175 12.7671 533.503 11.3751C532.831 9.93514 532.495 8.56714 532.495 7.27114C532.495 5.54314 533.095 4.12714 534.295 3.02314C535.447 1.91914 537.151 1.36714 539.407 1.36714C542.143 1.36714 544.951 2.15914 547.831 3.74314C550.663 5.27914 553.255 7.34314 555.607 9.93514C557.959 12.5271 559.783 15.2631 561.079 18.1431H568.927L569.359 18.6471L570.943 22.6791L570.727 23.5431ZM583.604 9.35914L584.756 10.6551L580.292 43.2711L575.684 44.0631L574.532 43.1271L573.092 12.1671L573.956 10.9431L583.604 9.35914ZM576.836 60.9111C575.108 60.9111 573.788 60.4311 572.876 59.4711C571.964 58.4631 571.508 57.1191 571.508 55.4391C571.508 53.7111 572.036 52.2951 573.092 51.1911C574.148 50.0871 575.564 49.5351 577.34 49.5351C579.02 49.5351 580.34 50.0391 581.3 51.0471C582.26 52.0071 582.74 53.3031 582.74 54.9351C582.74 56.7111 582.188 58.1511 581.084 59.2551C580.028 60.3591 578.612 60.9111 576.836 60.9111ZM602.696 9.35914L603.848 10.6551L599.384 43.2711L594.776 44.0631L593.624 43.1271L592.184 12.1671L593.048 10.9431L602.696 9.35914ZM595.928 60.9111C594.2 60.9111 592.88 60.4311 591.968 59.4711C591.056 58.4631 590.6 57.1191 590.6 55.4391C590.6 53.7111 591.128 52.2951 592.184 51.1911C593.24 50.0871 594.656 49.5351 596.432 49.5351C598.112 49.5351 599.432 50.0391 600.392 51.0471C601.352 52.0071 601.832 53.3031 601.832 54.9351C601.832 56.7111 601.28 58.1511 600.176 59.2551C599.12 60.3591 597.704 60.9111 595.928 60.9111Z" fill="#FF5DCA"/>
<path d="M43.9206 23.5431H40.1766C38.8806 23.5431 37.9446 23.7591 37.3686 24.1911C36.7926 24.6231 36.4566 25.4631 36.3606 26.7111C36.1206 29.3991 35.8806 32.6871 35.6406 36.5751C35.4486 40.4151 35.3526 43.5831 35.3526 46.0791L35.9286 63.5031L34.7766 64.0071L26.9286 60.1911C27.6486 50.9271 28.0086 43.8711 28.0086 39.0231L20.2326 38.8071C17.4006 38.8071 15.3606 39.3831 14.1126 40.5351C12.8646 41.6391 12.2406 43.2711 12.2406 45.4311C12.2406 47.8311 12.8886 50.4231 14.1846 53.2071C15.5286 55.9911 17.4006 58.6311 19.8006 61.1271L19.5846 62.2791L15.8406 64.5831C7.82456 55.7991 3.81656 48.0471 3.81656 41.3271C3.81656 38.1591 4.89656 35.7831 7.05656 34.1991C9.26456 32.6151 12.4566 31.8231 16.6326 31.8231L27.8646 32.1831C27.8166 30.0231 27.6726 27.1431 27.4326 23.5431H1.80056C0.936555 21.7671 0.336555 20.2071 0.000555038 18.8631L0.432555 18.1431H42.1206L42.5526 18.6471L44.1366 22.6791L43.9206 23.5431ZM14.4967 1.94314C17.6647 1.94314 20.6167 2.83114 23.3527 4.60714C26.0887 6.38314 28.2247 8.80714 29.7607 11.8791L34.5127 21.1671H28.6807L24.7207 12.7431C24.0007 11.2071 23.2087 10.0791 22.3447 9.35914C21.4807 8.59114 20.4487 8.20714 19.2487 8.20714C18.3847 8.20714 17.3287 8.42314 16.0807 8.85514C14.7847 9.28714 13.1047 9.95914 11.0407 10.8711L7.87274 3.67114L8.08874 2.87914C10.1527 2.25514 12.2887 1.94314 14.4967 1.94314ZM95.9304 23.5431H92.1864C90.8904 23.5431 89.9544 23.7591 89.3784 24.1911C88.8024 24.6231 88.4664 25.4631 88.3704 26.7111C88.1304 29.3991 87.8904 32.6871 87.6504 36.5751C87.4584 40.4151 87.3624 43.5831 87.3624 46.0791L87.9384 63.5031L86.7864 64.0071L78.9384 60.1911C79.6584 50.7351 80.0184 43.5831 80.0184 38.7351V37.0071H68.9304C72.0024 40.1751 73.5384 43.3431 73.5384 46.5111C73.5384 49.1511 72.6264 51.3351 70.8024 53.0631C69.0264 54.7911 66.4824 55.6551 63.1704 55.6551C58.3224 55.6551 54.0744 53.7831 50.4264 50.0391C46.7784 46.2951 43.9224 41.1351 41.8584 34.5591L41.9304 33.9831L45.6024 32.1111L46.3224 32.5431C48.2424 38.4951 50.3544 42.7671 52.6584 45.3591C55.0104 47.9031 57.3384 49.1751 59.6424 49.1751C61.4184 49.1751 62.9544 48.5751 64.2504 47.3751C65.5944 46.1751 66.2664 44.6631 66.2664 42.8391C66.2664 41.1111 65.5704 39.7671 64.1784 38.8071C62.7864 37.8471 60.7224 37.1271 57.9864 36.6471C57.1224 35.2551 56.4024 33.5031 55.8264 31.3911L56.2584 30.8151H79.8744L79.7304 28.0791C79.6344 26.1591 79.5384 24.6471 79.4424 23.5431H39.8424C38.9784 21.9111 38.3784 20.3511 38.0424 18.8631L38.4744 18.1431H94.1304L94.5624 18.6471L96.1464 22.6791L95.9304 23.5431ZM51.2904 57.1671C52.6344 57.7911 53.7624 58.6791 54.6744 59.8311C55.6344 60.9351 56.3064 62.1831 56.6904 63.5751C56.0664 64.8711 55.1784 65.9751 54.0264 66.8871C52.9224 67.8471 51.6744 68.5191 50.2824 68.9031C49.0344 68.2791 47.9304 67.3911 46.9704 66.2391C46.0104 65.1351 45.3384 63.9111 44.9544 62.5671C45.5784 61.2711 46.4424 60.1431 47.5464 59.1831C48.6984 58.2231 49.9464 57.5511 51.2904 57.1671ZM186.627 23.5431H182.883C181.587 23.5431 180.651 23.7591 180.075 24.1911C179.499 24.6231 179.163 25.4631 179.067 26.7111C178.827 29.3991 178.587 32.6871 178.347 36.5751C178.155 40.4151 178.059 43.5831 178.059 46.0791L178.635 63.5031L177.483 64.0071L169.635 60.1911C170.355 50.7351 170.715 43.5831 170.715 38.7351C170.715 34.7511 170.523 29.6871 170.139 23.5431H161.211C159.915 23.5431 158.979 23.7591 158.403 24.1911C157.827 24.6231 157.491 25.4631 157.395 26.7111C157.155 29.3991 156.915 32.6871 156.675 36.5751C156.483 40.4151 156.387 43.5831 156.387 46.0791L156.963 63.5031L155.811 64.0071L147.963 60.1911C148.443 53.0871 148.755 48.0711 148.899 45.1431C147.795 45.6711 146.499 45.9351 145.011 45.9351C143.811 45.8871 142.083 45.3831 139.827 44.4231C140.403 45.8151 140.691 47.2551 140.691 48.7431C140.691 51.9111 139.563 54.4791 137.307 56.4471C135.099 58.3671 132.219 59.3271 128.667 59.3271C124.299 59.3271 120.507 57.7911 117.291 54.7191C114.075 51.6471 111.483 47.3271 109.515 41.7591L109.587 41.2551L113.331 39.2391L113.979 39.5991C117.003 48.3831 120.915 52.7751 125.715 52.7751C128.019 52.7751 129.939 51.9831 131.475 50.3991C133.011 48.8151 133.779 46.8471 133.779 44.4951C133.779 43.1031 133.443 41.9751 132.771 41.1111C132.147 40.2471 131.331 39.8151 130.323 39.8151C129.651 39.8151 128.739 39.9831 127.587 40.3191C126.483 40.6551 124.779 41.2551 122.475 42.1191L119.595 36.0711L119.883 35.4231C123.819 34.3191 126.675 32.9991 128.451 31.4631C130.227 29.9271 131.115 28.1991 131.115 26.2791C131.115 25.3671 130.899 24.6951 130.467 24.2631C130.035 23.7831 129.339 23.5431 128.379 23.5431C125.883 23.5431 122.187 25.5831 117.291 29.6631L116.499 29.7351L111.675 23.3271C114.027 21.4071 116.259 19.9911 118.371 19.0791C120.483 18.1671 122.643 17.7111 124.851 17.7111C127.155 17.7111 129.267 18.1911 131.187 19.1511C133.155 20.1111 134.715 21.4551 135.867 23.1831C137.067 24.9111 137.667 26.8791 137.667 29.0871C137.667 31.9191 136.611 34.3911 134.499 36.5031C136.995 38.5671 139.347 39.5991 141.555 39.5991C143.091 39.5991 144.483 39.0951 145.731 38.0871C147.027 37.0791 148.107 35.5671 148.971 33.5511C148.875 30.5271 148.707 27.1911 148.467 23.5431H142.275C141.411 21.9111 140.811 20.3511 140.475 18.8631L140.907 18.1431H184.827L185.259 18.6471L186.843 22.6791L186.627 23.5431ZM203.896 23.5431C205.48 26.3271 206.272 28.9911 206.272 31.5351C206.272 33.9351 205.504 36.3111 203.968 38.6631C202.432 40.9671 200.008 43.3911 196.696 45.9351C200.68 50.3991 204.976 54.3111 209.584 57.6711V59.0391L204.472 63.2151C196.792 55.5831 190.624 47.3751 185.968 38.5911L187.696 35.4951C189.328 35.3991 190.48 35.3511 191.152 35.3511C192.496 35.3511 193.816 35.4231 195.112 35.5671C197.992 32.5431 199.432 29.8791 199.432 27.5751C199.432 26.3271 199.12 25.3431 198.496 24.6231C197.872 23.9031 197.032 23.5431 195.976 23.5431H183.952C183.088 21.6711 182.488 20.1111 182.152 18.8631L182.584 18.1431H211.96L212.392 18.6471L214.048 22.6791L213.76 23.5431H203.896ZM265.56 23.5431H261.816C260.52 23.5431 259.584 23.7591 259.008 24.1911C258.432 24.6231 258.096 25.4631 258 26.7111C257.76 29.3991 257.52 32.6871 257.28 36.5751C257.088 40.4151 256.992 43.5831 256.992 46.0791L257.568 63.5031L256.416 64.0071L248.568 60.1911C249.096 52.6551 249.432 47.2071 249.576 43.8471C246.888 44.5191 244.152 44.8551 241.368 44.8551C236.616 44.8551 232.176 43.9431 228.048 42.1191C225.504 44.1831 223.56 46.0311 222.216 47.6631C220.872 49.2951 220.2 51.0711 220.2 52.9911C220.2 54.2391 220.56 55.1511 221.28 55.7271C222 56.2551 223.2 56.5191 224.88 56.5191C226.032 56.5191 227.112 56.4231 228.12 56.2311C229.128 55.9911 230.232 55.5831 231.432 55.0071C231.096 53.9031 230.928 52.8231 230.928 51.7671C230.928 51.2871 231.024 50.4231 231.216 49.1751L232.512 48.2391C236.832 49.1991 240.552 51.1671 243.672 54.1431L244.032 55.9431C242.88 57.0951 241.632 58.1751 240.288 59.1831C242.64 61.1511 244.344 62.9031 245.4 64.4391C246.456 65.9751 246.984 67.4871 246.984 68.9751C246.984 70.4151 246.48 71.7831 245.472 73.0791C244.512 74.4231 242.976 75.8151 240.864 77.2551L235.752 73.0791L235.608 71.4951C237.048 70.7751 238.176 69.9591 238.992 69.0471C239.856 68.1351 240.288 67.2471 240.288 66.3831C240.288 65.6631 240.024 64.9911 239.496 64.3671C238.968 63.7431 238.344 63.1431 237.624 62.5671C236.904 61.9911 236.4 61.5831 236.112 61.3431C233.952 62.0151 231.768 62.3511 229.56 62.3511C226.776 62.3511 224.136 61.7511 221.64 60.5511C219.192 59.3991 217.224 57.8391 215.736 55.8711C214.248 53.8551 213.504 51.7191 213.504 49.4631C213.504 47.3511 214.152 45.3591 215.448 43.4871C216.792 41.5671 218.616 39.5751 220.92 37.5111C219.288 35.9751 218.016 34.2711 217.104 32.3991C216.192 30.4791 215.736 28.5111 215.736 26.4951C215.736 23.8071 216.504 21.6951 218.04 20.1591C219.576 18.6231 221.712 17.8551 224.448 17.8551C226.704 17.8551 228.864 18.4071 230.928 19.5111C233.04 20.5671 234.72 21.9831 235.968 23.7591C237.264 25.4871 237.912 27.3111 237.912 29.2311C237.912 30.9111 237.408 32.5191 236.4 34.0551C235.44 35.5431 234.048 37.0791 232.224 38.6631C233.76 38.9511 235.464 39.0951 237.336 39.0951C241.176 39.0951 245.28 38.2791 249.648 36.6471C249.552 32.6631 249.36 28.2951 249.072 23.5431H240.144C239.28 21.9111 238.68 20.3511 238.344 18.8631L238.704 18.1431H263.76L264.192 18.6471L265.776 22.6791L265.56 23.5431ZM222.36 30.2391C222.36 31.9671 222.96 33.5031 224.16 34.8471C226.56 32.8311 228.312 31.1751 229.416 29.8791C230.568 28.5831 231.144 27.2871 231.144 25.9911C231.144 25.1751 230.928 24.5991 230.496 24.2631C230.064 23.8791 229.392 23.6871 228.48 23.6871C226.752 23.6871 225.288 24.3351 224.088 25.6311C222.936 26.8791 222.36 28.4151 222.36 30.2391ZM320.66 23.5431H316.916C315.62 23.5431 314.684 23.7591 314.108 24.1911C313.532 24.6231 313.196 25.4631 313.1 26.7111C312.86 29.3991 312.62 32.6871 312.38 36.5751C312.188 40.4151 312.092 43.5831 312.092 46.0791L312.668 63.5031L311.516 64.0071L303.668 60.1911C304.388 50.7351 304.748 43.5831 304.748 38.7351C304.748 34.7511 304.556 29.6871 304.172 23.5431H298.124C295.772 23.5431 294.572 24.7431 294.524 27.1431L294.236 40.3191C294.188 42.3831 293.708 44.3511 292.796 46.2231C291.884 48.0471 290.564 49.5111 288.836 50.6151C287.156 51.7191 285.164 52.2711 282.86 52.2711C280.22 52.2711 277.676 51.5991 275.228 50.2551C272.78 48.9111 270.812 47.2311 269.324 45.2151C267.884 43.1511 267.164 41.1831 267.164 39.3111L267.308 23.5431H262.916C262.052 21.9111 261.452 20.3511 261.116 18.8631L261.548 18.1431H318.86L319.292 18.6471L320.876 22.6791L320.66 23.5431ZM278.18 45.7191C280.724 45.7191 282.788 44.5911 284.372 42.3351C286.004 40.0311 286.82 37.2711 286.82 34.0551L286.676 23.5431H278.108C277.34 23.5431 276.788 23.7111 276.452 24.0471C276.164 24.3351 275.948 24.9351 275.804 25.8471C275.564 27.9591 275.3 30.8391 275.012 34.4871C274.724 38.0871 274.58 40.4631 274.58 41.6151C274.58 44.3511 275.78 45.7191 278.18 45.7191ZM371.212 23.5431C369.916 23.5431 368.98 23.7591 368.404 24.1911C367.828 24.6231 367.492 25.4631 367.396 26.7111C367.108 30.2151 366.94 32.4711 366.892 33.4791C369.484 31.7031 371.932 30.8151 374.236 30.8151C376.54 30.8151 378.82 31.5591 381.076 33.0471C383.38 34.5351 385.252 36.4551 386.692 38.8071C388.132 41.1111 388.852 43.4631 388.852 45.8631C388.852 48.5991 387.868 51.2391 385.9 53.7831C383.98 56.2791 381.484 58.2951 378.412 59.8311L377.62 59.6871L372.796 53.7111L372.868 52.7031C375.7 50.9751 377.908 49.0071 379.492 46.7991C381.076 44.5431 381.868 42.3111 381.868 40.1031C381.868 38.9031 381.628 38.0631 381.148 37.5831C380.668 37.0551 379.876 36.7911 378.772 36.7911C376.948 36.7911 375.028 37.4391 373.012 38.7351C370.996 39.9831 368.788 41.7591 366.388 44.0631V46.0791L366.964 63.5031L365.812 64.0071L357.964 60.1911L358.612 50.6871C356.308 52.7511 353.956 53.7831 351.556 53.7831C348.82 53.7831 346.18 53.0631 343.636 51.6231C341.14 50.1831 339.1 48.2151 337.516 45.7191C335.98 43.2231 335.212 40.4871 335.212 37.5111C335.212 34.1511 336.268 31.5351 338.38 29.6631C340.492 27.7911 343.228 26.8551 346.588 26.8551C348.7 26.8551 350.812 27.2631 352.924 28.0791C355.036 28.8471 357.028 29.9751 358.9 31.4631C358.852 29.3031 358.708 26.6631 358.468 23.5431H331.684C330.82 21.9111 330.22 20.3511 329.884 18.8631L330.316 18.1431H391.948L392.38 18.6471L393.964 22.6791L393.676 23.5431H371.212ZM347.38 48.4551C349.012 48.4551 350.74 47.7591 352.564 46.3671C354.436 44.9751 356.596 42.9351 359.044 40.2471V38.7351V35.7111C356.452 33.6471 353.884 32.6151 351.34 32.6151C348.892 32.6151 346.924 33.4791 345.436 35.2071C343.948 36.9351 343.204 39.3111 343.204 42.3351C343.204 46.4151 344.596 48.4551 347.38 48.4551ZM413.745 23.5431H410.001C408.705 23.5431 407.769 23.7591 407.193 24.1911C406.617 24.6231 406.281 25.4631 406.185 26.7111C405.945 29.3991 405.705 32.6871 405.465 36.5751C405.273 40.4151 405.177 43.5831 405.177 46.0791L405.753 63.5031L404.601 64.0071L396.753 60.1911C397.473 50.7351 397.833 43.5831 397.833 38.7351C397.833 34.7511 397.641 29.6871 397.257 23.5431H391.065C390.201 21.9111 389.601 20.3511 389.265 18.8631L389.697 18.1431H399.201C397.857 14.8311 395.937 12.2151 393.441 10.2951C390.993 8.32714 388.401 7.34314 385.665 7.34314C384.225 7.34314 383.145 7.65514 382.425 8.27914C381.705 8.90314 381.345 9.71914 381.345 10.7271C381.345 11.7831 381.705 12.7911 382.425 13.7511L382.209 14.2551L379.329 15.2631C378.129 14.0631 377.193 12.7671 376.521 11.3751C375.849 9.93514 375.513 8.56714 375.513 7.27114C375.513 5.54314 376.113 4.12714 377.313 3.02314C378.465 1.91914 380.169 1.36714 382.425 1.36714C385.161 1.36714 387.969 2.15914 390.849 3.74314C393.681 5.27914 396.273 7.34314 398.625 9.93514C400.977 12.5271 402.801 15.2631 404.097 18.1431H411.945L412.377 18.6471L413.961 22.6791L413.745 23.5431ZM469.747 23.5431H466.003C464.707 23.5431 463.771 23.7591 463.195 24.1911C462.619 24.6231 462.283 25.4631 462.187 26.7111C461.947 29.3991 461.707 32.6871 461.467 36.5751C461.275 40.4151 461.179 43.5831 461.179 46.0791L461.755 63.5031L460.603 64.0071L452.755 60.1911C453.475 50.7351 453.835 43.5831 453.835 38.7351C453.835 34.7511 453.643 29.6871 453.259 23.5431H445.267C444.163 23.5431 443.371 23.8071 442.891 24.3351C442.411 24.8151 442.147 25.6311 442.099 26.7831L441.523 41.5431C441.379 45.0471 441.091 48.0231 440.659 50.4711L437.923 51.7671C435.091 50.0871 432.715 48.4071 430.795 46.7271C428.923 44.9991 427.315 43.1031 425.971 41.0391L427.195 38.1591L434.107 37.9431C434.059 33.2391 433.771 28.4391 433.243 23.5431H424.747C423.883 21.9111 423.283 20.3511 422.947 18.8631L423.379 18.1431H467.947L468.379 18.6471L469.963 22.6791L469.747 23.5431ZM489.792 23.5431H486.048C484.752 23.5431 483.816 23.7591 483.24 24.1911C482.664 24.6231 482.328 25.4631 482.232 26.7111C481.992 29.3991 481.752 32.6871 481.512 36.5751C481.32 40.4151 481.224 43.5831 481.224 46.0791L481.8 63.5031L480.648 64.0071L472.8 60.1911C473.52 50.7351 473.88 43.5831 473.88 38.7351C473.88 34.7511 473.688 29.6871 473.304 23.5431H467.112C466.248 21.9111 465.648 20.3511 465.312 18.8631L465.744 18.1431H487.992L488.424 18.6471L490.008 22.6791L489.792 23.5431ZM507.061 23.5431C508.645 26.3271 509.437 28.9911 509.437 31.5351C509.437 33.9351 508.669 36.3111 507.133 38.6631C505.597 40.9671 503.173 43.3911 499.861 45.9351C503.845 50.3991 508.141 54.3111 512.749 57.6711V59.0391L507.637 63.2151C499.957 55.5831 493.789 47.3751 489.133 38.5911L490.861 35.4951C492.493 35.3991 493.645 35.3511 494.317 35.3511C495.661 35.3511 496.981 35.4231 498.277 35.5671C501.157 32.5431 502.597 29.8791 502.597 27.5751C502.597 26.3271 502.285 25.3431 501.661 24.6231C501.037 23.9031 500.197 23.5431 499.141 23.5431H487.117C486.253 21.6711 485.653 20.1111 485.317 18.8631L485.749 18.1431H515.125L515.557 18.6471L517.213 22.6791L516.925 23.5431H507.061ZM503.151 -0.000862122C504.399 0.623138 505.479 1.48714 506.391 2.59114C507.303 3.64714 507.927 4.82314 508.263 6.11914C507.687 7.31914 506.871 8.37514 505.815 9.28714C504.711 10.1991 503.487 10.8471 502.143 11.2311C500.943 10.6071 499.887 9.76714 498.975 8.71114C498.063 7.60714 497.439 6.40714 497.103 5.11114C497.679 3.91114 498.519 2.85514 499.623 1.94314C500.679 1.03114 501.855 0.383139 503.151 -0.000862122ZM531.717 35.2071C529.317 35.2071 527.397 35.9991 525.957 37.5831C524.565 39.1191 523.869 41.2071 523.869 43.8471C523.869 46.1991 524.445 47.9751 525.597 49.1751C526.797 50.3751 528.357 50.9751 530.277 50.9751C532.101 50.9751 534.117 50.4471 536.325 49.3911C538.581 48.3351 540.717 46.8951 542.733 45.0711L544.029 45.2151L547.989 52.7751C546.357 54.2151 544.461 55.3191 542.301 56.0871C540.141 56.8071 537.861 57.1671 535.461 57.1671C532.005 57.1671 528.837 56.3751 525.957 54.7911C523.077 53.2071 520.797 50.9991 519.117 48.1671C517.437 45.2871 516.597 42.0231 516.597 38.3751C516.597 35.0151 517.533 32.6151 519.405 31.1751C521.277 29.7351 524.325 29.0391 528.549 29.0871L535.317 29.1591L535.245 23.5431H512.925C512.061 21.9111 511.461 20.3511 511.125 18.8631L511.557 18.1431H548.925L549.285 18.6471L550.941 22.6791L550.653 23.5431H544.821C544.101 23.5431 543.573 23.7111 543.237 24.0471C542.949 24.3351 542.781 24.8391 542.733 25.5591L542.445 34.7751L541.869 35.4951L531.717 35.2071ZM570.727 23.5431H566.983C565.687 23.5431 564.751 23.7591 564.175 24.1911C563.599 24.6231 563.263 25.4631 563.167 26.7111C562.927 29.3991 562.687 32.6871 562.447 36.5751C562.255 40.4151 562.159 43.5831 562.159 46.0791L562.735 63.5031L561.583 64.0071L553.735 60.1911C554.455 50.7351 554.815 43.5831 554.815 38.7351C554.815 34.7511 554.623 29.6871 554.239 23.5431H548.047C547.183 21.9111 546.583 20.3511 546.247 18.8631L546.679 18.1431H556.183C554.839 14.8311 552.919 12.2151 550.423 10.2951C547.975 8.32714 545.383 7.34314 542.647 7.34314C541.207 7.34314 540.127 7.65514 539.407 8.27914C538.687 8.90314 538.327 9.71914 538.327 10.7271C538.327 11.7831 538.687 12.7911 539.407 13.7511L539.191 14.2551L536.311 15.2631C535.111 14.0631 534.175 12.7671 533.503 11.3751C532.831 9.93514 532.495 8.56714 532.495 7.27114C532.495 5.54314 533.095 4.12714 534.295 3.02314C535.447 1.91914 537.151 1.36714 539.407 1.36714C542.143 1.36714 544.951 2.15914 547.831 3.74314C550.663 5.27914 553.255 7.34314 555.607 9.93514C557.959 12.5271 559.783 15.2631 561.079 18.1431H568.927L569.359 18.6471L570.943 22.6791L570.727 23.5431ZM583.604 9.35914L584.756 10.6551L580.292 43.2711L575.684 44.0631L574.532 43.1271L573.092 12.1671L573.956 10.9431L583.604 9.35914ZM576.836 60.9111C575.108 60.9111 573.788 60.4311 572.876 59.4711C571.964 58.4631 571.508 57.1191 571.508 55.4391C571.508 53.7111 572.036 52.2951 573.092 51.1911C574.148 50.0871 575.564 49.5351 577.34 49.5351C579.02 49.5351 580.34 50.0391 581.3 51.0471C582.26 52.0071 582.74 53.3031 582.74 54.9351C582.74 56.7111 582.188 58.1511 581.084 59.2551C580.028 60.3591 578.612 60.9111 576.836 60.9111ZM602.696 9.35914L603.848 10.6551L599.384 43.2711L594.776 44.0631L593.624 43.1271L592.184 12.1671L593.048 10.9431L602.696 9.35914ZM595.928 60.9111C594.2 60.9111 592.88 60.4311 591.968 59.4711C591.056 58.4631 590.6 57.1191 590.6 55.4391C590.6 53.7111 591.128 52.2951 592.184 51.1911C593.24 50.0871 594.656 49.5351 596.432 49.5351C598.112 49.5351 599.432 50.0391 600.392 51.0471C601.352 52.0071 601.832 53.3031 601.832 54.9351C601.832 56.7111 601.28 58.1511 600.176 59.2551C599.12 60.3591 597.704 60.9111 595.928 60.9111Z" fill="url(#paint0_linear_3073_32337)"/>
<defs>
<linearGradient id="paint0_linear_3073_32337" x1="113.276" y1="15.8969" x2="519.964" y2="234.87" gradientUnits="userSpaceOnUse">
<stop stop-color="#3E57E2"/>
<stop offset="0.4" stop-color="#B133FF"/>
<stop offset="1" stop-color="#FF5DCA"/>
</linearGradient>
</defs>
</svg>
