<svg width="697" height="49" viewBox="0 0 697 49" fill="none" xmlns="http://www.w3.org/2000/svg">
<path d="M18.2538 37.2852H0.0017922L0.521792 35.0492C1.94313 35.0492 3.03513 34.9105 3.79779 34.6332C4.59513 34.3558 5.18446 33.8532 5.56579 33.1252C5.98179 32.3625 6.32846 31.3225 6.60579 30.0052L10.9738 10.2452C11.0778 9.75982 11.1471 9.30915 11.1818 8.89316C11.2511 8.47716 11.2858 8.11315 11.2858 7.80115C11.2858 6.83049 10.9738 6.18915 10.3498 5.87715C9.72579 5.56515 8.59913 5.40915 6.96979 5.40915L7.54179 3.12116H37.1818L35.2578 15.1852H32.6578C32.5191 13.2438 32.2591 11.6318 31.8778 10.3492C31.4965 9.03182 30.7685 8.04382 29.6938 7.38515C28.6191 6.72649 26.9725 6.39715 24.7538 6.39715H19.2418L14.0938 30.0052C13.8858 30.9412 13.7818 31.7385 13.7818 32.3972C13.7818 33.4372 14.1458 34.1478 14.8738 34.5292C15.6018 34.8758 16.8845 35.0492 18.7218 35.0492L18.2538 37.2852ZM39.1233 38.0652C37.8059 38.0652 36.5579 37.7705 35.3793 37.1812C34.2353 36.5918 33.2993 35.6038 32.5713 34.2172C31.8779 32.8305 31.5313 30.9585 31.5313 28.6012C31.5313 26.1745 31.9126 23.9732 32.6753 21.9972C33.4379 19.9865 34.4606 18.2532 35.7433 16.7972C37.0606 15.3412 38.5513 14.2318 40.2153 13.4692C41.8793 12.6718 43.5953 12.2732 45.3633 12.2732C47.0273 12.2732 48.2233 12.5852 48.9513 13.2092C49.7139 13.7985 50.3726 14.4398 50.9273 15.1332H51.2393L53.3193 12.6892H57.5833L53.8913 30.3692C53.8913 30.3692 53.8393 30.5945 53.7353 31.0452C53.6659 31.4612 53.6313 31.8598 53.6313 32.2412C53.6313 32.5878 53.7006 32.9172 53.8393 33.2292C54.0126 33.5065 54.3766 33.6452 54.9313 33.6452C55.4166 33.6452 55.8326 33.5412 56.1793 33.3332C56.5606 33.0905 56.9073 32.7958 57.2193 32.4492C57.5313 32.1025 57.8259 31.7558 58.1033 31.4092L59.7673 32.7092C59.3513 33.3678 58.7966 34.1132 58.1033 34.9452C57.4446 35.7425 56.5259 36.4358 55.3473 37.0252C54.2033 37.6145 52.7126 37.9092 50.8753 37.9092C49.5579 37.9092 48.5526 37.6838 47.8593 37.2332C47.2006 36.7825 46.8713 35.9332 46.8713 34.6852C46.8713 34.5118 46.8713 34.3385 46.8713 34.1652C46.8713 33.9918 46.8886 33.8012 46.9233 33.5932H46.5073C45.4673 34.9798 44.3926 36.0718 43.2833 36.8692C42.1739 37.6665 40.7873 38.0652 39.1233 38.0652ZM42.0873 33.7492C42.9886 33.7492 43.7339 33.5238 44.3233 33.0732C44.9473 32.5878 45.4846 31.8772 45.9353 30.9412C46.3859 30.0052 46.8019 28.8612 47.1833 27.5092C47.3913 26.7465 47.5819 25.9145 47.7553 25.0132C47.9633 24.1118 48.1366 23.1932 48.2753 22.2572C48.4139 21.2865 48.4833 20.3678 48.4833 19.5012C48.4833 18.0798 48.2579 16.9185 47.8073 16.0172C47.3913 15.0812 46.6286 14.6132 45.5193 14.6132C44.4793 14.6132 43.5606 15.0118 42.7633 15.8092C41.9659 16.5718 41.2899 17.6118 40.7353 18.9292C40.1806 20.2465 39.7646 21.7198 39.4873 23.3492C39.2099 24.9438 39.0713 26.5732 39.0713 28.2372C39.0713 30.4212 39.3313 31.8945 39.8513 32.6572C40.3713 33.3852 41.1166 33.7492 42.0873 33.7492ZM74.3264 37.8572C72.9051 37.8572 71.7438 37.6665 70.8424 37.2852C69.9411 36.8692 69.2478 36.5398 68.7624 36.2972L69.2304 32.9172C69.8198 33.4718 70.4611 33.9745 71.1544 34.4252C71.8824 34.8412 72.6798 35.0492 73.5464 35.0492C74.8984 35.0492 76.0771 34.4945 77.0824 33.3852C78.1224 32.2412 78.9198 30.6985 79.4744 28.7572C80.0638 26.7812 80.3584 24.5798 80.3584 22.1532C80.3584 20.3505 80.2198 19.0158 79.9424 18.1492C79.6651 17.2478 79.3011 16.6585 78.8504 16.3812C78.3998 16.0692 77.9318 15.9132 77.4464 15.9132C76.5451 15.9132 75.7304 16.2078 75.0024 16.7972C74.3091 17.3865 73.7024 18.1318 73.1824 19.0332C72.6624 19.8998 72.2464 20.8185 71.9344 21.7892L72.0384 17.3172C73.0438 16.3118 73.9451 15.4278 74.7424 14.6652C75.5398 13.9025 76.3718 13.3132 77.2384 12.8972C78.1398 12.4812 79.1971 12.2732 80.4104 12.2732C81.8318 12.2732 83.1144 12.6025 84.2584 13.2612C85.4371 13.9198 86.3558 14.9598 87.0144 16.3812C87.7078 17.7678 88.0544 19.6052 88.0544 21.8932C88.0544 25.0825 87.4131 27.8732 86.1304 30.2652C84.8478 32.6572 83.1664 34.5292 81.0864 35.8812C79.0064 37.1985 76.7531 37.8572 74.3264 37.8572ZM72.6104 48.7252H59.0904L65.6944 17.8892C65.7291 17.7158 65.7464 17.5598 65.7464 17.4212C65.7811 17.2478 65.7984 17.0745 65.7984 16.9012C65.7984 16.3812 65.6424 15.9998 65.3304 15.7572C65.0531 15.5145 64.5504 15.3932 63.8224 15.3932C63.4758 15.3932 63.1291 15.4105 62.7824 15.4452C62.4704 15.4798 62.3144 15.4972 62.3144 15.4972V13.4172L71.0504 12.6372H73.2344L72.4024 16.5892H73.0784L68.0344 41.7572C67.9998 41.9998 67.9478 42.3292 67.8784 42.7452C67.8438 43.1958 67.8264 43.5252 67.8264 43.7332C67.8264 44.4612 68.1731 45.1025 68.8664 45.6572C69.5944 46.2465 70.9984 46.5412 73.0784 46.5412L72.6104 48.7252ZM97.6761 38.0652C96.3587 38.0652 95.1107 37.7705 93.9321 37.1812C92.7881 36.5918 91.8521 35.6038 91.1241 34.2172C90.4307 32.8305 90.0841 30.9585 90.0841 28.6012C90.0841 26.1745 90.4654 23.9732 91.2281 21.9972C91.9907 19.9865 93.0134 18.2532 94.2961 16.7972C95.6134 15.3412 97.1041 14.2318 98.7681 13.4692C100.432 12.6718 102.148 12.2732 103.916 12.2732C105.58 12.2732 106.776 12.5852 107.504 13.2092C108.267 13.7985 108.925 14.4398 109.48 15.1332H109.792L111.872 12.6892H116.136L112.444 30.3692C112.444 30.3692 112.392 30.5945 112.288 31.0452C112.219 31.4612 112.184 31.8598 112.184 32.2412C112.184 32.5878 112.253 32.9172 112.392 33.2292C112.565 33.5065 112.929 33.6452 113.484 33.6452C113.969 33.6452 114.385 33.5412 114.732 33.3332C115.113 33.0905 115.46 32.7958 115.772 32.4492C116.084 32.1025 116.379 31.7558 116.656 31.4092L118.32 32.7092C117.904 33.3678 117.349 34.1132 116.656 34.9452C115.997 35.7425 115.079 36.4358 113.9 37.0252C112.756 37.6145 111.265 37.9092 109.428 37.9092C108.111 37.9092 107.105 37.6838 106.412 37.2332C105.753 36.7825 105.424 35.9332 105.424 34.6852C105.424 34.5118 105.424 34.3385 105.424 34.1652C105.424 33.9918 105.441 33.8012 105.476 33.5932H105.06C104.02 34.9798 102.945 36.0718 101.836 36.8692C100.727 37.6665 99.3401 38.0652 97.6761 38.0652ZM100.64 33.7492C101.541 33.7492 102.287 33.5238 102.876 33.0732C103.5 32.5878 104.037 31.8772 104.488 30.9412C104.939 30.0052 105.355 28.8612 105.736 27.5092C105.944 26.7465 106.135 25.9145 106.308 25.0132C106.516 24.1118 106.689 23.1932 106.828 22.2572C106.967 21.2865 107.036 20.3678 107.036 19.5012C107.036 18.0798 106.811 16.9185 106.36 16.0172C105.944 15.0812 105.181 14.6132 104.072 14.6132C103.032 14.6132 102.113 15.0118 101.316 15.8092C100.519 16.5718 99.8427 17.6118 99.2881 18.9292C98.7334 20.2465 98.3174 21.7198 98.0401 23.3492C97.7627 24.9438 97.6241 26.5732 97.6241 28.2372C97.6241 30.4212 97.8841 31.8945 98.4041 32.6572C98.9241 33.3852 99.6694 33.7492 100.64 33.7492ZM141.147 37.9092C139.657 37.9092 138.565 37.5972 137.871 36.9732C137.213 36.3492 136.883 35.5865 136.883 34.6852C136.883 34.2345 136.935 33.7145 137.039 33.1252C137.143 32.5012 137.369 31.4265 137.715 29.9012L141.199 12.6892H148.479L144.787 30.7332C144.787 30.7332 144.735 31.0105 144.631 31.5652C144.527 32.0852 144.475 32.5358 144.475 32.9172C144.475 33.5758 144.805 33.9052 145.463 33.9052C146.053 33.9052 146.573 33.7665 147.023 33.4892C147.474 33.2118 147.873 32.8825 148.219 32.5012C148.566 32.1198 148.878 31.7732 149.155 31.4612L150.767 32.6572C150.178 33.4892 149.519 34.3038 148.791 35.1012C148.098 35.8985 147.162 36.5572 145.983 37.0772C144.805 37.5972 143.193 37.8745 141.147 37.9092ZM127.315 37.2852H120.035L124.143 18.3572C124.213 18.0452 124.247 17.7678 124.247 17.5252C124.282 17.2478 124.299 17.0918 124.299 17.0572C124.299 16.4332 124.195 15.9825 123.987 15.7052C123.779 15.3932 123.242 15.2372 122.375 15.2372C122.133 15.2372 121.89 15.2545 121.647 15.2892C121.439 15.2892 121.179 15.3065 120.867 15.3412V13.1052L130.279 12.5332H132.515L127.315 37.2852ZM139.171 25.7932H129.135L129.603 23.4532H139.587L139.171 25.7932ZM186.308 37.9092C184.402 37.9092 183.136 37.5798 182.512 36.9212C181.923 36.2278 181.628 35.4825 181.628 34.6852C181.628 34.3038 181.663 33.9225 181.732 33.5412C181.802 33.1252 181.854 32.8478 181.888 32.7092L184.592 23.4012C184.766 22.8465 184.939 22.1185 185.112 21.2172C185.32 20.2812 185.424 19.5012 185.424 18.8772C185.424 18.4265 185.338 18.0278 185.164 17.6812C185.026 17.2998 184.748 17.1092 184.332 17.1092C183.778 17.1092 183.171 17.4385 182.512 18.0972C181.854 18.7558 181.16 19.6398 180.432 20.7492C179.739 21.8585 179.063 23.0718 178.404 24.3892C177.746 25.6718 177.139 26.9718 176.584 28.2892C176.064 29.6065 175.648 30.8198 175.336 31.9292L177.312 22.1532C178.075 20.6625 178.872 19.3105 179.704 18.0972C180.536 16.8838 181.42 15.8438 182.356 14.9772C183.327 14.1105 184.35 13.4518 185.424 13.0012C186.499 12.5158 187.66 12.2732 188.908 12.2732C190.572 12.2732 191.664 12.6545 192.184 13.4172C192.704 14.1452 192.964 15.0118 192.964 16.0172C192.964 16.7452 192.895 17.5252 192.756 18.3572C192.618 19.1892 192.514 19.7092 192.444 19.9172L189.376 31.6692C189.376 31.6692 189.342 31.8078 189.272 32.0852C189.238 32.3278 189.22 32.5878 189.22 32.8652C189.22 33.5585 189.584 33.9052 190.312 33.9052C191.11 33.9052 191.803 33.6278 192.392 33.0732C192.982 32.4838 193.484 31.9465 193.9 31.4612L195.512 32.6572C195.374 32.8652 195.096 33.2638 194.68 33.8532C194.299 34.4078 193.744 34.9972 193.016 35.6212C192.323 36.2452 191.422 36.7825 190.312 37.2332C189.203 37.6838 187.868 37.9092 186.308 37.9092ZM159.944 37.2852H152.56L156.72 18.3052C156.72 18.3052 156.755 18.1145 156.824 17.7332C156.894 17.3518 156.928 16.9878 156.928 16.6412C156.928 16.1558 156.807 15.7918 156.564 15.5492C156.322 15.3065 155.854 15.1852 155.16 15.1852C154.883 15.1852 154.536 15.2025 154.12 15.2372C153.739 15.2718 153.548 15.2892 153.548 15.2892V13.1052L162.7 12.5332H164.624L162.388 21.0612H163.636L159.944 37.2852ZM174.192 37.2852H166.756C167.415 34.8585 167.935 32.8998 168.316 31.4092C168.732 29.9185 169.062 28.6705 169.304 27.6652C169.582 26.6252 169.824 25.6372 170.032 24.7012C170.275 23.7305 170.552 22.5518 170.864 21.1652C170.899 21.0958 170.951 20.8185 171.02 20.3332C171.124 19.8478 171.176 19.3625 171.176 18.8772C171.176 18.3918 171.09 17.9758 170.916 17.6292C170.778 17.2825 170.483 17.1092 170.032 17.1092C169.339 17.1092 168.576 17.5425 167.744 18.4092C166.912 19.2758 166.08 20.4198 165.248 21.8412C164.451 23.2278 163.706 24.7358 163.012 26.3652C162.319 27.9945 161.73 29.5545 161.244 31.0452L162.7 21.5812C163.186 20.8532 163.758 19.9692 164.416 18.9292C165.11 17.8545 165.924 16.8145 166.86 15.8092C167.796 14.7692 168.871 13.9198 170.084 13.2612C171.298 12.5678 172.684 12.2212 174.244 12.2212C175.943 12.2212 177.052 12.6198 177.572 13.4172C178.127 14.1798 178.404 15.0118 178.404 15.9132C178.404 16.5718 178.335 17.2132 178.196 17.8372C178.058 18.4265 177.971 18.7558 177.936 18.8252L177.208 21.2172H177.936L175.336 31.9292L174.192 37.2852ZM202.107 37.9092C200.547 37.9092 199.437 37.4932 198.779 36.6612C198.155 35.8292 197.843 34.7198 197.843 33.3332C197.843 32.7438 197.895 32.1198 197.999 31.4612C198.103 30.8025 198.241 30.1265 198.415 29.4332L201.119 18.3572C201.119 18.3572 201.136 18.2705 201.171 18.0972C201.205 17.9238 201.24 17.7158 201.275 17.4732C201.309 17.1958 201.327 16.9358 201.327 16.6932C201.327 16.3465 201.205 16.0172 200.963 15.7052C200.755 15.3932 200.304 15.2372 199.611 15.2372C199.16 15.2372 198.761 15.2545 198.415 15.2892C198.103 15.3238 197.947 15.3412 197.947 15.3412V13.1052L207.047 12.5332H209.751L206.007 28.1852C205.903 28.6012 205.816 28.9998 205.747 29.3812C205.712 29.7625 205.695 30.1265 205.695 30.4732C205.695 31.1318 205.799 31.6692 206.007 32.0852C206.249 32.5012 206.596 32.7092 207.047 32.7092C207.636 32.7092 208.243 32.4838 208.867 32.0332C209.491 31.5478 210.097 30.9065 210.687 30.1092C211.311 29.3118 211.9 28.4105 212.455 27.4052C213.009 26.3998 213.495 25.3425 213.911 24.2332C214.327 23.0892 214.656 21.9625 214.899 20.8532L216.615 12.6892H223.947L220.255 30.7852C220.255 30.7852 220.203 31.0625 220.099 31.6172C219.995 32.1718 219.943 32.6398 219.943 33.0212C219.943 33.2292 220.012 33.4372 220.151 33.6452C220.289 33.8185 220.567 33.9052 220.983 33.9052C221.572 33.9052 222.109 33.7318 222.595 33.3852C223.115 33.0385 223.548 32.6745 223.895 32.2932C224.276 31.8772 224.519 31.5998 224.623 31.4612L226.235 32.6572C225.645 33.5932 224.969 34.4598 224.207 35.2572C223.444 36.0545 222.491 36.6958 221.347 37.1812C220.203 37.6665 218.764 37.9092 217.031 37.9092C215.228 37.9092 213.997 37.6145 213.339 37.0252C212.68 36.4358 212.351 35.6558 212.351 34.6852C212.351 34.1998 212.385 33.6798 212.455 33.1252C212.559 32.5705 212.68 31.9812 212.819 31.3572H212.195C211.883 31.8078 211.432 32.3972 210.843 33.1252C210.288 33.8532 209.595 34.5812 208.763 35.3092C207.965 36.0372 207.012 36.6612 205.903 37.1812C204.793 37.6665 203.528 37.9092 202.107 37.9092ZM228.443 37.9092C227.126 37.9092 226.051 37.6665 225.219 37.1812C224.387 36.6958 223.694 35.9852 223.139 35.0492L224.595 33.5932C224.976 34.0092 225.358 34.3212 225.739 34.5292C226.086 34.7372 226.588 34.8412 227.247 34.8412C227.802 34.8412 228.218 34.6678 228.495 34.3212C228.807 33.9745 229.102 33.4372 229.379 32.7092C229.691 31.9812 230.072 31.0798 230.523 30.0052C231.078 28.8958 231.702 27.9425 232.395 27.1452C233.088 26.3478 234.284 25.7238 235.983 25.2732V25.0652C235.255 24.9612 234.423 24.7358 233.487 24.3892C232.551 24.0078 231.736 23.4185 231.043 22.6212C230.35 21.7892 230.003 20.6798 230.003 19.2932C230.003 18.0798 230.384 16.9532 231.147 15.9132C231.944 14.8385 233.279 13.9892 235.151 13.3652C237.058 12.7065 239.675 12.3772 243.003 12.3772C243.731 12.3772 244.719 12.4118 245.967 12.4812C247.215 12.5158 248.463 12.5678 249.711 12.6372C250.994 12.7065 252.016 12.7932 252.779 12.8972L249.191 30.7332C249.191 30.7332 249.139 31.0105 249.035 31.5652C248.931 32.0852 248.879 32.5358 248.879 32.9172C248.879 33.5758 249.208 33.9052 249.867 33.9052C250.456 33.9052 250.976 33.7665 251.427 33.4892C251.878 33.2118 252.276 32.8825 252.623 32.5012C252.97 32.1198 253.282 31.7732 253.559 31.4612L255.171 32.6572C254.582 33.4892 253.923 34.3038 253.195 35.1012C252.502 35.8985 251.566 36.5572 250.387 37.0772C249.208 37.5972 247.596 37.8745 245.551 37.9092C244.06 37.9092 242.951 37.5972 242.223 36.9732C241.495 36.3492 241.131 35.5865 241.131 34.6852C241.131 34.2345 241.183 33.7145 241.287 33.1252C241.426 32.5012 241.668 31.4265 242.015 29.9012L245.395 14.7172C244.84 14.6478 244.303 14.5958 243.783 14.5612C243.263 14.5265 242.864 14.5092 242.587 14.5092C240.576 14.5092 239.155 14.9945 238.323 15.9652C237.526 16.9358 237.127 18.1838 237.127 19.7092C237.127 21.3038 237.526 22.3785 238.323 22.9332C239.12 23.4532 240.247 23.7132 241.703 23.7132C241.876 23.7132 242.24 23.7132 242.795 23.7132C243.35 23.6785 243.679 23.5918 243.783 23.4532L243.939 25.8452C242.483 25.7758 241.304 25.9318 240.403 26.3132C239.536 26.6945 238.86 27.2145 238.375 27.8732C237.924 28.4972 237.56 29.2078 237.283 30.0052C236.763 31.2185 236.156 32.4492 235.463 33.6972C234.804 34.9105 233.92 35.9158 232.811 36.7132C231.702 37.5105 230.246 37.9092 228.443 37.9092ZM277.724 37.9092C275.193 37.9092 273.2 37.4065 271.744 36.4012C270.288 35.3612 269.248 34.0092 268.624 32.3452C268.035 30.6465 267.74 28.8265 267.74 26.8852C267.74 25.3598 267.879 23.7478 268.156 22.0492C268.468 20.3505 268.78 18.8945 269.092 17.6812C269.959 14.5958 271.103 12.1172 272.524 10.2452C273.945 8.33849 275.488 6.86515 277.152 5.82516C278.816 4.78515 280.428 4.02249 281.988 3.53715C283.583 3.05182 284.969 2.70515 286.148 2.49715C287.361 2.28916 288.488 2.09849 289.528 1.92516C290.603 1.71715 291.487 1.47449 292.18 1.19716C292.908 0.885156 293.341 0.486489 293.48 0.00115585H295.352C295.248 1.66516 294.867 3.01715 294.208 4.05715C293.549 5.09715 292.717 5.92915 291.712 6.55316C290.707 7.14249 289.615 7.59316 288.436 7.90516C287.292 8.21715 286.165 8.45982 285.056 8.63316C283.877 8.80649 282.716 9.04916 281.572 9.36116C280.428 9.67316 279.353 10.1758 278.348 10.8692C277.343 11.5278 276.407 12.5158 275.54 13.8332C274.708 15.1158 273.997 16.8318 273.408 18.9812L273.98 19.0332C274.431 17.9238 275.055 16.8838 275.852 15.9132C276.684 14.9425 277.707 14.1625 278.92 13.5732C280.168 12.9838 281.659 12.6892 283.392 12.6892C285.333 12.6892 286.98 13.0878 288.332 13.8852C289.684 14.6478 290.707 15.7918 291.4 17.3172C292.093 18.8078 292.44 20.6452 292.44 22.8292C292.44 25.1865 292.059 27.3012 291.296 29.1732C290.533 31.0105 289.476 32.5878 288.124 33.9052C286.807 35.1878 285.247 36.1758 283.444 36.8692C281.676 37.5625 279.769 37.9092 277.724 37.9092ZM278.712 35.4652C279.717 35.4652 280.584 35.0665 281.312 34.2692C282.075 33.4372 282.699 32.3625 283.184 31.0452C283.704 29.6932 284.085 28.2198 284.328 26.6252C284.605 25.0305 284.744 23.4532 284.744 21.8932C284.744 20.6105 284.64 19.4838 284.432 18.5132C284.224 17.5078 283.86 16.7278 283.34 16.1732C282.82 15.5838 282.109 15.2892 281.208 15.2892C280.168 15.2892 279.284 15.7052 278.556 16.5372C277.828 17.3692 277.221 18.4438 276.736 19.7612C276.285 21.0785 275.956 22.5172 275.748 24.0772C275.54 25.6372 275.436 27.1452 275.436 28.6012C275.436 29.8838 275.523 31.0452 275.696 32.0852C275.869 33.1252 276.181 33.9572 276.632 34.5812C277.117 35.1705 277.811 35.4652 278.712 35.4652ZM304.496 37.8052C302.278 37.8052 300.544 37.5278 299.296 36.9732C298.048 36.3838 297.164 35.6212 296.644 34.6852C296.124 33.7492 295.864 32.7785 295.864 31.7732C295.864 31.2878 295.899 30.7678 295.968 30.2132C296.072 29.6238 296.176 29.1212 296.28 28.7052C296.384 28.2545 296.436 28.0118 296.436 27.9772L298.672 18.2012C298.776 17.8198 298.828 17.4385 298.828 17.0572C298.828 16.5025 298.672 16.0345 298.36 15.6532C298.083 15.2718 297.598 15.0812 296.904 15.0812C296.662 15.0812 296.402 15.0985 296.124 15.1332C295.882 15.1332 295.604 15.1505 295.292 15.1852V13.1052L304.028 12.5332H306.732L304.184 23.2452L304.548 23.2972C305.415 22.5692 306.282 21.9972 307.148 21.5812C308.015 21.1652 309.09 20.9572 310.372 20.9572C312.348 20.9572 313.96 21.5638 315.208 22.7772C316.491 23.9905 317.132 25.8278 317.132 28.2892C317.132 30.5425 316.543 32.3798 315.364 33.8012C314.22 35.1878 312.678 36.2105 310.736 36.8692C308.83 37.4932 306.75 37.8052 304.496 37.8052ZM306.368 35.4652C307.27 35.4652 308.015 35.1532 308.604 34.5292C309.194 33.8705 309.627 33.0212 309.904 31.9812C310.216 30.9065 310.372 29.7452 310.372 28.4972C310.372 27.2838 310.147 26.2265 309.696 25.3252C309.246 24.3892 308.552 23.9212 307.616 23.9212C306.715 23.9212 305.935 24.2505 305.276 24.9092C304.652 25.5332 304.15 26.7292 303.768 28.4972C303.734 28.7052 303.647 29.2078 303.508 30.0052C303.37 30.8025 303.3 31.4958 303.3 32.0852C303.3 33.0558 303.456 33.7838 303.768 34.2692C304.115 34.7545 304.514 35.0838 304.964 35.2572C305.45 35.3958 305.918 35.4652 306.368 35.4652ZM323.944 37.9092C322.454 37.9092 321.362 37.5972 320.668 36.9732C320.01 36.3492 319.68 35.5865 319.68 34.6852C319.68 34.2345 319.732 33.7145 319.836 33.1252C319.94 32.5012 320.166 31.4265 320.512 29.9012L324.204 12.5852H331.432L327.584 30.7332C327.584 30.7332 327.532 31.0105 327.428 31.5652C327.324 32.0852 327.272 32.5358 327.272 32.9172C327.272 33.5758 327.602 33.9052 328.26 33.9052C328.85 33.9052 329.37 33.7665 329.82 33.4892C330.271 33.2118 330.67 32.8825 331.016 32.5012C331.363 32.1198 331.675 31.7732 331.952 31.4612L333.564 32.6572C332.975 33.4892 332.316 34.3038 331.588 35.1012C330.895 35.8985 329.959 36.5572 328.78 37.0772C327.602 37.5972 325.99 37.8745 323.944 37.9092ZM343.703 38.0132C341.449 38.0132 339.647 37.5972 338.295 36.7652C336.977 35.8985 336.024 34.7545 335.435 33.3332C334.88 31.8772 334.603 30.2652 334.603 28.4972C334.603 26.2785 334.984 24.1985 335.747 22.2572C336.509 20.2812 337.567 18.5478 338.919 17.0572C340.271 15.5665 341.848 14.4052 343.651 13.5732C345.453 12.7065 347.395 12.2732 349.475 12.2732C351.555 12.2732 353.253 12.7238 354.571 13.6252C355.923 14.4918 356.599 15.7572 356.599 17.4212C356.599 18.4958 356.269 19.4838 355.611 20.3852C354.987 21.2518 354.016 21.6852 352.699 21.6852C351.867 21.6852 351.191 21.4772 350.671 21.0612C350.185 20.6452 349.943 20.0038 349.943 19.1372C349.943 18.4438 350.064 17.8545 350.307 17.3692C350.584 16.8492 350.723 16.3812 350.723 15.9652C350.723 15.6185 350.567 15.3065 350.255 15.0292C349.977 14.7518 349.44 14.6132 348.643 14.6132C347.464 14.6132 346.459 14.9598 345.627 15.6532C344.795 16.3118 344.101 17.2305 343.547 18.4092C343.027 19.5878 342.645 20.9225 342.403 22.4132C342.16 23.8692 342.039 25.3772 342.039 26.9372C342.039 28.8092 342.212 30.2478 342.559 31.2532C342.905 32.2238 343.408 32.8998 344.067 33.2812C344.725 33.6278 345.54 33.8012 346.511 33.8012C348.036 33.8012 349.353 33.4892 350.463 32.8652C351.572 32.2412 352.508 31.4438 353.271 30.4732L354.727 31.6172C353.999 32.7958 353.132 33.8705 352.127 34.8412C351.121 35.8118 349.925 36.5918 348.539 37.1812C347.187 37.7358 345.575 38.0132 343.703 38.0132ZM391.345 37.9092C389.438 37.9092 388.173 37.5798 387.549 36.9212C386.96 36.2278 386.665 35.4825 386.665 34.6852C386.665 34.3038 386.7 33.9225 386.769 33.5412C386.838 33.1252 386.89 32.8478 386.925 32.7092L389.629 23.4012C389.802 22.8465 389.976 22.1185 390.149 21.2172C390.357 20.2812 390.461 19.5012 390.461 18.8772C390.461 18.4265 390.374 18.0278 390.201 17.6812C390.062 17.2998 389.785 17.1092 389.369 17.1092C388.814 17.1092 388.208 17.4385 387.549 18.0972C386.89 18.7558 386.197 19.6398 385.469 20.7492C384.776 21.8585 384.1 23.0718 383.441 24.3892C382.782 25.6718 382.176 26.9718 381.621 28.2892C381.101 29.6065 380.685 30.8198 380.373 31.9292L382.349 22.1532C383.112 20.6625 383.909 19.3105 384.741 18.0972C385.573 16.8838 386.457 15.8438 387.393 14.9772C388.364 14.1105 389.386 13.4518 390.461 13.0012C391.536 12.5158 392.697 12.2732 393.945 12.2732C395.609 12.2732 396.701 12.6545 397.221 13.4172C397.741 14.1452 398.001 15.0118 398.001 16.0172C398.001 16.7452 397.932 17.5252 397.793 18.3572C397.654 19.1892 397.55 19.7092 397.481 19.9172L394.413 31.6692C394.413 31.6692 394.378 31.8078 394.309 32.0852C394.274 32.3278 394.257 32.5878 394.257 32.8652C394.257 33.5585 394.621 33.9052 395.349 33.9052C396.146 33.9052 396.84 33.6278 397.429 33.0732C398.018 32.4838 398.521 31.9465 398.937 31.4612L400.549 32.6572C400.41 32.8652 400.133 33.2638 399.717 33.8532C399.336 34.4078 398.781 34.9972 398.053 35.6212C397.36 36.2452 396.458 36.7825 395.349 37.2332C394.24 37.6838 392.905 37.9092 391.345 37.9092ZM364.981 37.2852H357.597L361.757 18.3052C361.757 18.3052 361.792 18.1145 361.861 17.7332C361.93 17.3518 361.965 16.9878 361.965 16.6412C361.965 16.1558 361.844 15.7918 361.601 15.5492C361.358 15.3065 360.89 15.1852 360.197 15.1852C359.92 15.1852 359.573 15.2025 359.157 15.2372C358.776 15.2718 358.585 15.2892 358.585 15.2892V13.1052L367.737 12.5332H369.661L367.425 21.0612H368.673L364.981 37.2852ZM379.229 37.2852H371.793C372.452 34.8585 372.972 32.8998 373.353 31.4092C373.769 29.9185 374.098 28.6705 374.341 27.6652C374.618 26.6252 374.861 25.6372 375.069 24.7012C375.312 23.7305 375.589 22.5518 375.901 21.1652C375.936 21.0958 375.988 20.8185 376.057 20.3332C376.161 19.8478 376.213 19.3625 376.213 18.8772C376.213 18.3918 376.126 17.9758 375.953 17.6292C375.814 17.2825 375.52 17.1092 375.069 17.1092C374.376 17.1092 373.613 17.5425 372.781 18.4092C371.949 19.2758 371.117 20.4198 370.285 21.8412C369.488 23.2278 368.742 24.7358 368.049 26.3652C367.356 27.9945 366.766 29.5545 366.281 31.0452L367.737 21.5812C368.222 20.8532 368.794 19.9692 369.453 18.9292C370.146 17.8545 370.961 16.8145 371.897 15.8092C372.833 14.7692 373.908 13.9198 375.121 13.2612C376.334 12.5678 377.721 12.2212 379.281 12.2212C380.98 12.2212 382.089 12.6198 382.609 13.4172C383.164 14.1798 383.441 15.0118 383.441 15.9132C383.441 16.5718 383.372 17.2132 383.233 17.8372C383.094 18.4265 383.008 18.7558 382.973 18.8252L382.245 21.2172H382.973L380.373 31.9292L379.229 37.2852ZM415.359 37.8572C413.938 37.8572 412.776 37.6665 411.875 37.2852C410.974 36.8692 410.28 36.5398 409.795 36.2972L410.263 32.9172C410.852 33.4718 411.494 33.9745 412.187 34.4252C412.915 34.8412 413.712 35.0492 414.579 35.0492C415.931 35.0492 417.11 34.4945 418.115 33.3852C419.155 32.2412 419.952 30.6985 420.507 28.7572C421.096 26.7812 421.391 24.5798 421.391 22.1532C421.391 20.3505 421.252 19.0158 420.975 18.1492C420.698 17.2478 420.334 16.6585 419.883 16.3812C419.432 16.0692 418.964 15.9132 418.479 15.9132C417.578 15.9132 416.763 16.2078 416.035 16.7972C415.342 17.3865 414.735 18.1318 414.215 19.0332C413.695 19.8998 413.279 20.8185 412.967 21.7892L413.071 17.3172C414.076 16.3118 414.978 15.4278 415.775 14.6652C416.572 13.9025 417.404 13.3132 418.271 12.8972C419.172 12.4812 420.23 12.2732 421.443 12.2732C422.864 12.2732 424.147 12.6025 425.291 13.2612C426.47 13.9198 427.388 14.9598 428.047 16.3812C428.74 17.7678 429.087 19.6052 429.087 21.8932C429.087 25.0825 428.446 27.8732 427.163 30.2652C425.88 32.6572 424.199 34.5292 422.119 35.8812C420.039 37.1985 417.786 37.8572 415.359 37.8572ZM413.643 48.7252H400.123L406.727 17.8892C406.762 17.7158 406.779 17.5598 406.779 17.4212C406.814 17.2478 406.831 17.0745 406.831 16.9012C406.831 16.3812 406.675 15.9998 406.363 15.7572C406.086 15.5145 405.583 15.3932 404.855 15.3932C404.508 15.3932 404.162 15.4105 403.815 15.4452C403.503 15.4798 403.347 15.4972 403.347 15.4972V13.4172L412.083 12.6372H414.267L413.435 16.5892H414.111L409.067 41.7572C409.032 41.9998 408.98 42.3292 408.911 42.7452C408.876 43.1958 408.859 43.5252 408.859 43.7332C408.859 44.4612 409.206 45.1025 409.899 45.6572C410.627 46.2465 412.031 46.5412 414.111 46.5412L413.643 48.7252ZM441.569 37.9612C439.731 37.9612 438.015 37.6318 436.421 36.9732C434.826 36.3145 433.543 35.2398 432.573 33.7492C431.602 32.2238 431.117 30.1612 431.117 27.5612C431.117 25.4812 431.446 23.5225 432.105 21.6852C432.763 19.8478 433.717 18.2358 434.965 16.8492C436.247 15.4278 437.79 14.3185 439.593 13.5212C441.395 12.6892 443.441 12.2732 445.729 12.2732C447.566 12.2732 449.265 12.6025 450.825 13.2612C452.385 13.8852 453.65 14.9598 454.621 16.4852C455.591 18.0105 456.077 20.0905 456.077 22.7252C456.077 24.8052 455.747 26.7638 455.089 28.6012C454.43 30.4385 453.477 32.0678 452.229 33.4892C451.015 34.8758 449.507 35.9678 447.705 36.7652C445.902 37.5625 443.857 37.9612 441.569 37.9612ZM442.089 35.4652C442.99 35.4652 443.805 35.1185 444.533 34.4252C445.295 33.6972 445.937 32.7092 446.457 31.4612C447.011 30.2132 447.445 28.7572 447.757 27.0932C448.069 25.3945 448.225 23.5572 448.225 21.5812C448.225 20.2292 448.138 19.0505 447.965 18.0452C447.791 17.0052 447.462 16.1905 446.977 15.6012C446.526 15.0118 445.885 14.7172 445.053 14.7172C444.151 14.7172 443.319 15.0638 442.557 15.7572C441.829 16.4505 441.187 17.4212 440.633 18.6692C440.113 19.9172 439.697 21.3905 439.385 23.0892C439.107 24.7532 438.969 26.5558 438.969 28.4972C438.969 29.8492 439.055 31.0452 439.229 32.0852C439.402 33.1252 439.714 33.9572 440.165 34.5812C440.65 35.1705 441.291 35.4652 442.089 35.4652ZM463.309 37.9092C461.749 37.9092 460.64 37.4932 459.981 36.6612C459.357 35.8292 459.045 34.7198 459.045 33.3332C459.045 32.7438 459.097 32.1198 459.201 31.4612C459.305 30.8025 459.444 30.1265 459.617 29.4332L462.321 18.3572C462.321 18.3572 462.339 18.2705 462.373 18.0972C462.408 17.9238 462.443 17.7158 462.477 17.4732C462.512 17.1958 462.529 16.9358 462.529 16.6932C462.529 16.3465 462.408 16.0172 462.165 15.7052C461.957 15.3932 461.507 15.2372 460.813 15.2372C460.363 15.2372 459.964 15.2545 459.617 15.2892C459.305 15.3238 459.149 15.3412 459.149 15.3412V13.1052L468.249 12.5332H470.953L467.209 28.1852C467.105 28.6012 467.019 28.9998 466.949 29.3812C466.915 29.7625 466.897 30.1265 466.897 30.4732C466.897 31.1318 467.001 31.6692 467.209 32.0852C467.452 32.5012 467.799 32.7092 468.249 32.7092C468.839 32.7092 469.445 32.4838 470.069 32.0332C470.693 31.5478 471.3 30.9065 471.889 30.1092C472.513 29.3118 473.103 28.4105 473.657 27.4052C474.212 26.3998 474.697 25.3425 475.113 24.2332C475.529 23.0892 475.859 21.9625 476.101 20.8532L477.817 12.6892H485.149L481.457 30.7852C481.457 30.7852 481.405 31.0625 481.301 31.6172C481.197 32.1718 481.145 32.6398 481.145 33.0212C481.145 33.2292 481.215 33.4372 481.353 33.6452C481.492 33.8185 481.769 33.9052 482.185 33.9052C482.775 33.9052 483.312 33.7318 483.797 33.3852C484.317 33.0385 484.751 32.6745 485.097 32.2932C485.479 31.8772 485.721 31.5998 485.825 31.4612L487.437 32.6572C486.848 33.5932 486.172 34.4598 485.409 35.2572C484.647 36.0545 483.693 36.6958 482.549 37.1812C481.405 37.6665 479.967 37.9092 478.233 37.9092C476.431 37.9092 475.2 37.6145 474.541 37.0252C473.883 36.4358 473.553 35.6558 473.553 34.6852C473.553 34.1998 473.588 33.6798 473.657 33.1252C473.761 32.5705 473.883 31.9812 474.021 31.3572H473.397C473.085 31.8078 472.635 32.3972 472.045 33.1252C471.491 33.8532 470.797 34.5812 469.965 35.3092C469.168 36.0372 468.215 36.6612 467.105 37.1812C465.996 37.6665 464.731 37.9092 463.309 37.9092ZM474.749 9.77715C472.219 9.77715 470.364 9.20515 469.185 8.06115C468.007 6.88249 467.417 5.54782 467.417 4.05715C467.417 3.01715 467.677 2.20249 468.197 1.61315C468.717 1.02382 469.445 0.729156 470.381 0.729156C471.283 0.729156 471.959 0.989156 472.409 1.50916C472.895 1.99449 473.137 2.60115 473.137 3.32915C473.137 3.39849 473.137 3.48516 473.137 3.58916C473.137 3.65849 473.137 3.72782 473.137 3.79715C473.137 4.97582 473.276 5.84249 473.553 6.39715C473.865 6.91715 474.663 7.17715 475.945 7.17715C478.06 7.17715 479.603 6.60515 480.573 5.46115C481.579 4.28249 482.445 2.72249 483.173 0.781155L484.993 1.19716C484.647 2.68782 484.057 4.09182 483.225 5.40915C482.428 6.69182 481.336 7.74915 479.949 8.58115C478.563 9.37849 476.829 9.77715 474.749 9.77715ZM506.213 37.8052C503.96 37.8052 502.123 37.3718 500.701 36.5052C499.315 35.6038 498.223 34.4425 497.425 33.0212L499.037 31.6692C499.835 32.4318 500.719 33.0385 501.689 33.4892C502.66 33.9398 503.804 34.1652 505.121 34.1652C506.057 34.1652 506.959 34.0265 507.825 33.7492C508.727 33.4718 509.455 33.0038 510.009 32.3452C510.599 31.6865 510.893 30.7678 510.893 29.5892C510.893 28.1678 510.373 27.1278 509.333 26.4692C508.328 25.7758 506.976 25.4292 505.277 25.4292H503.613L504.185 22.6732H505.537C508.103 22.6732 509.94 22.3438 511.049 21.6852C512.193 20.9918 512.765 19.7612 512.765 17.9932C512.765 16.8145 512.488 15.9305 511.933 15.3412C511.379 14.7172 510.547 14.4052 509.437 14.4052C507.877 14.4052 506.647 14.9078 505.745 15.9132C504.844 16.9185 503.995 18.4958 503.197 20.6452H501.117L502.989 12.2732H504.653L505.433 13.4692H505.537C505.953 13.2612 506.681 12.9838 507.721 12.6372C508.761 12.2558 510.269 12.0652 512.245 12.0652C514.811 12.0652 516.804 12.5158 518.225 13.4172C519.647 14.2838 520.357 15.5318 520.357 17.1612C520.357 18.3745 520.045 19.3972 519.421 20.2292C518.797 21.0265 517.965 21.7025 516.925 22.2572C515.92 22.8118 514.811 23.2972 513.597 23.7132L513.545 23.9212C515.001 24.3718 516.215 25.0478 517.185 25.9492C518.156 26.8158 518.641 28.1678 518.641 30.0052C518.641 31.4612 518.277 32.6918 517.549 33.6972C516.821 34.7025 515.851 35.4998 514.637 36.0892C513.424 36.6785 512.072 37.1118 510.581 37.3892C509.125 37.6665 507.669 37.8052 506.213 37.8052ZM529.205 38.0652C527.888 38.0652 526.64 37.7705 525.461 37.1812C524.317 36.5918 523.381 35.6038 522.653 34.2172C521.96 32.8305 521.613 30.9585 521.613 28.6012C521.613 26.1745 521.994 23.9732 522.757 21.9972C523.52 19.9865 524.542 18.2532 525.825 16.7972C527.142 15.3412 528.633 14.2318 530.297 13.4692C531.961 12.6718 533.677 12.2732 535.445 12.2732C537.109 12.2732 538.305 12.5852 539.033 13.2092C539.796 13.7985 540.454 14.4398 541.009 15.1332H541.321L543.401 12.6892H547.665L543.973 30.3692C543.973 30.3692 543.921 30.5945 543.817 31.0452C543.748 31.4612 543.713 31.8598 543.713 32.2412C543.713 32.5878 543.782 32.9172 543.921 33.2292C544.094 33.5065 544.458 33.6452 545.013 33.6452C545.498 33.6452 545.914 33.5412 546.261 33.3332C546.642 33.0905 546.989 32.7958 547.301 32.4492C547.613 32.1025 547.908 31.7558 548.185 31.4092L549.849 32.7092C549.433 33.3678 548.878 34.1132 548.185 34.9452C547.526 35.7425 546.608 36.4358 545.429 37.0252C544.285 37.6145 542.794 37.9092 540.957 37.9092C539.64 37.9092 538.634 37.6838 537.941 37.2332C537.282 36.7825 536.953 35.9332 536.953 34.6852C536.953 34.5118 536.953 34.3385 536.953 34.1652C536.953 33.9918 536.97 33.8012 537.005 33.5932H536.589C535.549 34.9798 534.474 36.0718 533.365 36.8692C532.256 37.6665 530.869 38.0652 529.205 38.0652ZM532.169 33.7492C533.07 33.7492 533.816 33.5238 534.405 33.0732C535.029 32.5878 535.566 31.8772 536.017 30.9412C536.468 30.0052 536.884 28.8612 537.265 27.5092C537.473 26.7465 537.664 25.9145 537.837 25.0132C538.045 24.1118 538.218 23.1932 538.357 22.2572C538.496 21.2865 538.565 20.3678 538.565 19.5012C538.565 18.0798 538.34 16.9185 537.889 16.0172C537.473 15.0812 536.71 14.6132 535.601 14.6132C534.561 14.6132 533.642 15.0118 532.845 15.8092C532.048 16.5718 531.372 17.6118 530.817 18.9292C530.262 20.2465 529.846 21.7198 529.569 23.3492C529.292 24.9438 529.153 26.5732 529.153 28.2372C529.153 30.4212 529.413 31.8945 529.933 32.6572C530.453 33.3852 531.198 33.7492 532.169 33.7492ZM571.324 37.9092C569.556 37.9092 568.343 37.5972 567.684 36.9732C567.06 36.3492 566.748 35.5172 566.748 34.4772C566.748 34.0612 566.783 33.6972 566.852 33.3852C566.921 33.0385 566.973 32.7785 567.008 32.6052L570.128 21.6332C570.128 21.6332 570.18 21.3558 570.284 20.8012C570.423 20.2465 570.492 19.6572 570.492 19.0332C570.492 18.4785 570.405 18.0278 570.232 17.6812C570.093 17.2998 569.799 17.1092 569.348 17.1092C568.759 17.1092 568.1 17.4558 567.372 18.1492C566.679 18.8425 565.968 19.7438 565.24 20.8532C564.512 21.9625 563.801 23.1585 563.108 24.4412C562.449 25.6892 561.843 26.9198 561.288 28.1332C560.768 29.3118 560.369 30.3172 560.092 31.1492L561.444 22.8292C561.86 22.1358 562.397 21.2172 563.056 20.0732C563.715 18.8945 564.512 17.7158 565.448 16.5372C566.419 15.3238 567.58 14.3185 568.932 13.5212C570.284 12.6892 571.896 12.2732 573.768 12.2732C575.536 12.2732 576.697 12.6718 577.252 13.4692C577.841 14.2318 578.136 15.2025 578.136 16.3812C578.136 17.0398 578.084 17.6638 577.98 18.2532C577.876 18.8425 577.755 19.3972 577.616 19.9172L574.496 31.6692C574.496 31.6692 574.461 31.8078 574.392 32.0852C574.357 32.3278 574.34 32.5878 574.34 32.8652C574.34 33.5585 574.704 33.9052 575.432 33.9052C576.229 33.9052 576.923 33.6278 577.512 33.0732C578.136 32.4838 578.639 31.9465 579.02 31.4612L580.632 32.6572C580.493 32.8652 580.233 33.2465 579.852 33.8012C579.471 34.3558 578.916 34.9625 578.188 35.6212C577.46 36.2452 576.541 36.7825 575.432 37.2332C574.323 37.6838 572.953 37.9092 571.324 37.9092ZM558.948 37.2852H551.564L555.672 18.3052C555.672 18.3052 555.689 18.1145 555.724 17.7332C555.793 17.3518 555.828 17.0052 555.828 16.6932C555.828 16.2078 555.707 15.8438 555.464 15.6012C555.221 15.3238 554.771 15.1852 554.112 15.1852C553.835 15.1852 553.505 15.2025 553.124 15.2372C552.743 15.2718 552.552 15.2892 552.552 15.2892V13.1052L561.08 12.5332H563.524L560.976 22.4132H562.484L558.948 37.2852ZM587.297 37.9092C585.737 37.9092 584.627 37.4932 583.969 36.6612C583.345 35.8292 583.033 34.7198 583.033 33.3332C583.033 32.7438 583.085 32.1198 583.189 31.4612C583.293 30.8025 583.431 30.1265 583.605 29.4332L586.309 18.3572C586.309 18.3572 586.326 18.2705 586.361 18.0972C586.395 17.9238 586.43 17.7158 586.465 17.4732C586.499 17.1958 586.517 16.9358 586.517 16.6932C586.517 16.3465 586.395 16.0172 586.153 15.7052C585.945 15.3932 585.494 15.2372 584.801 15.2372C584.35 15.2372 583.951 15.2545 583.605 15.2892C583.293 15.3238 583.137 15.3412 583.137 15.3412V13.1052L592.237 12.5332H594.941L591.197 28.1852C591.093 28.6012 591.006 28.9998 590.937 29.3812C590.902 29.7625 590.885 30.1265 590.885 30.4732C590.885 31.1318 590.989 31.6692 591.197 32.0852C591.439 32.5012 591.786 32.7092 592.237 32.7092C592.826 32.7092 593.433 32.4838 594.057 32.0332C594.681 31.5478 595.287 30.9065 595.877 30.1092C596.501 29.3118 597.09 28.4105 597.645 27.4052C598.199 26.3998 598.685 25.3425 599.101 24.2332C599.517 23.0892 599.846 21.9625 600.089 20.8532L601.805 12.6892H609.137L605.445 30.7852C605.445 30.7852 605.393 31.0625 605.289 31.6172C605.185 32.1718 605.133 32.6398 605.133 33.0212C605.133 33.2292 605.202 33.4372 605.341 33.6452C605.479 33.8185 605.757 33.9052 606.173 33.9052C606.762 33.9052 607.299 33.7318 607.785 33.3852C608.305 33.0385 608.738 32.6745 609.085 32.2932C609.466 31.8772 609.709 31.5998 609.813 31.4612L611.425 32.6572C610.835 33.5932 610.159 34.4598 609.397 35.2572C608.634 36.0545 607.681 36.6958 606.537 37.1812C605.393 37.6665 603.954 37.9092 602.221 37.9092C600.418 37.9092 599.187 37.6145 598.529 37.0252C597.87 36.4358 597.541 35.6558 597.541 34.6852C597.541 34.1998 597.575 33.6798 597.645 33.1252C597.749 32.5705 597.87 31.9812 598.009 31.3572H597.385C597.073 31.8078 596.622 32.3972 596.033 33.1252C595.478 33.8532 594.785 34.5812 593.953 35.3092C593.155 36.0372 592.202 36.6612 591.093 37.1812C589.983 37.6665 588.718 37.9092 587.297 37.9092ZM621.537 38.0132C619.284 38.0132 617.481 37.5972 616.129 36.7652C614.812 35.8985 613.858 34.7545 613.269 33.3332C612.714 31.8772 612.437 30.2652 612.437 28.4972C612.437 26.2785 612.818 24.1985 613.581 22.2572C614.344 20.2812 615.401 18.5478 616.753 17.0572C618.105 15.5665 619.682 14.4052 621.485 13.5732C623.288 12.7065 625.229 12.2732 627.309 12.2732C629.389 12.2732 631.088 12.7238 632.405 13.6252C633.757 14.4918 634.433 15.7572 634.433 17.4212C634.433 18.4958 634.104 19.4838 633.445 20.3852C632.821 21.2518 631.85 21.6852 630.533 21.6852C629.701 21.6852 629.025 21.4772 628.505 21.0612C628.02 20.6452 627.777 20.0038 627.777 19.1372C627.777 18.4438 627.898 17.8545 628.141 17.3692C628.418 16.8492 628.557 16.3812 628.557 15.9652C628.557 15.6185 628.401 15.3065 628.089 15.0292C627.812 14.7518 627.274 14.6132 626.477 14.6132C625.298 14.6132 624.293 14.9598 623.461 15.6532C622.629 16.3118 621.936 17.2305 621.381 18.4092C620.861 19.5878 620.48 20.9225 620.237 22.4132C619.994 23.8692 619.873 25.3772 619.873 26.9372C619.873 28.8092 620.046 30.2478 620.393 31.2532C620.74 32.2238 621.242 32.8998 621.901 33.2812C622.56 33.6278 623.374 33.8012 624.345 33.8012C625.87 33.8012 627.188 33.4892 628.297 32.8652C629.406 32.2412 630.342 31.4438 631.105 30.4732L632.561 31.6172C631.833 32.7958 630.966 33.8705 629.961 34.8412C628.956 35.8118 627.76 36.5918 626.373 37.1812C625.021 37.7358 623.409 38.0132 621.537 38.0132ZM640.111 37.9092C638.551 37.9092 637.442 37.4932 636.783 36.6612C636.159 35.8292 635.847 34.7198 635.847 33.3332C635.847 32.7438 635.899 32.1198 636.003 31.4612C636.107 30.8025 636.246 30.1265 636.419 29.4332L639.123 18.3572C639.123 18.3572 639.141 18.2705 639.175 18.0972C639.21 17.9238 639.245 17.7158 639.279 17.4732C639.314 17.1958 639.331 16.9358 639.331 16.6932C639.331 16.3465 639.21 16.0172 638.967 15.7052C638.759 15.3932 638.309 15.2372 637.615 15.2372C637.165 15.2372 636.766 15.2545 636.419 15.2892C636.107 15.3238 635.951 15.3412 635.951 15.3412V13.1052L645.051 12.5332H647.755L644.011 28.1852C643.907 28.6012 643.821 28.9998 643.751 29.3812C643.717 29.7625 643.699 30.1265 643.699 30.4732C643.699 31.1318 643.803 31.6692 644.011 32.0852C644.254 32.5012 644.601 32.7092 645.051 32.7092C645.641 32.7092 646.247 32.4838 646.871 32.0332C647.495 31.5478 648.102 30.9065 648.691 30.1092C649.315 29.3118 649.905 28.4105 650.459 27.4052C651.014 26.3998 651.499 25.3425 651.915 24.2332C652.331 23.0892 652.661 21.9625 652.903 20.8532L654.619 12.6892H661.951L658.259 30.7852C658.259 30.7852 658.207 31.0625 658.103 31.6172C657.999 32.1718 657.947 32.6398 657.947 33.0212C657.947 33.2292 658.017 33.4372 658.155 33.6452C658.294 33.8185 658.571 33.9052 658.987 33.9052C659.577 33.9052 660.114 33.7318 660.599 33.3852C661.119 33.0385 661.553 32.6745 661.899 32.2932C662.281 31.8772 662.523 31.5998 662.627 31.4612L664.239 32.6572C663.65 33.5932 662.974 34.4598 662.211 35.2572C661.449 36.0545 660.495 36.6958 659.351 37.1812C658.207 37.6665 656.769 37.9092 655.035 37.9092C653.233 37.9092 652.002 37.6145 651.343 37.0252C650.685 36.4358 650.355 35.6558 650.355 34.6852C650.355 34.1998 650.39 33.6798 650.459 33.1252C650.563 32.5705 650.685 31.9812 650.823 31.3572H650.199C649.887 31.8078 649.437 32.3972 648.847 33.1252C648.293 33.8532 647.599 34.5812 646.767 35.3092C645.97 36.0372 645.017 36.6612 643.907 37.1812C642.798 37.6665 641.533 37.9092 640.111 37.9092ZM673.052 27.2492H670.192L671.596 9.30915C671.665 8.58115 671.734 7.93982 671.804 7.38515C671.873 6.83049 671.942 6.34515 672.012 5.92915C672.22 4.95849 672.653 4.14382 673.312 3.48515C673.97 2.82649 675.149 2.49715 676.848 2.49715C678.165 2.49715 679.101 2.75715 679.656 3.27715C680.21 3.79715 680.488 4.45582 680.488 5.25315C680.488 5.63449 680.366 6.24116 680.124 7.07315C679.881 7.87049 679.604 8.71982 679.292 9.62116L673.052 27.2492ZM670.868 37.8052C669.62 37.8052 668.632 37.4585 667.904 36.7652C667.21 36.0372 666.864 35.0838 666.864 33.9052C666.864 32.7612 667.21 31.8425 667.904 31.1492C668.597 30.4212 669.585 30.0572 670.868 30.0572C672.185 30.0572 673.19 30.4212 673.884 31.1492C674.577 31.8425 674.924 32.7438 674.924 33.8532C674.924 35.0318 674.577 35.9852 673.884 36.7132C673.19 37.4412 672.185 37.8052 670.868 37.8052ZM688.973 27.2492H686.113L687.517 9.30915C687.586 8.58115 687.655 7.93982 687.725 7.38515C687.794 6.83049 687.863 6.34515 687.933 5.92915C688.141 4.95849 688.574 4.14382 689.233 3.48515C689.891 2.82649 691.07 2.49715 692.769 2.49715C694.086 2.49715 695.022 2.75715 695.577 3.27715C696.131 3.79715 696.409 4.45582 696.409 5.25315C696.409 5.63449 696.287 6.24116 696.045 7.07315C695.802 7.87049 695.525 8.71982 695.213 9.62116L688.973 27.2492ZM686.789 37.8052C685.541 37.8052 684.553 37.4585 683.825 36.7652C683.131 36.0372 682.785 35.0838 682.785 33.9052C682.785 32.7612 683.131 31.8425 683.825 31.1492C684.518 30.4212 685.506 30.0572 686.789 30.0572C688.106 30.0572 689.111 30.4212 689.805 31.1492C690.498 31.8425 690.845 32.7438 690.845 33.8532C690.845 35.0318 690.498 35.9852 689.805 36.7132C689.111 37.4412 688.106 37.8052 686.789 37.8052Z" fill="#FF5DCA"/>
<path d="M18.2538 37.2852H0.0017922L0.521792 35.0492C1.94313 35.0492 3.03513 34.9105 3.79779 34.6332C4.59513 34.3558 5.18446 33.8532 5.56579 33.1252C5.98179 32.3625 6.32846 31.3225 6.60579 30.0052L10.9738 10.2452C11.0778 9.75982 11.1471 9.30915 11.1818 8.89316C11.2511 8.47716 11.2858 8.11315 11.2858 7.80115C11.2858 6.83049 10.9738 6.18915 10.3498 5.87715C9.72579 5.56515 8.59913 5.40915 6.96979 5.40915L7.54179 3.12116H37.1818L35.2578 15.1852H32.6578C32.5191 13.2438 32.2591 11.6318 31.8778 10.3492C31.4965 9.03182 30.7685 8.04382 29.6938 7.38515C28.6191 6.72649 26.9725 6.39715 24.7538 6.39715H19.2418L14.0938 30.0052C13.8858 30.9412 13.7818 31.7385 13.7818 32.3972C13.7818 33.4372 14.1458 34.1478 14.8738 34.5292C15.6018 34.8758 16.8845 35.0492 18.7218 35.0492L18.2538 37.2852ZM39.1233 38.0652C37.8059 38.0652 36.5579 37.7705 35.3793 37.1812C34.2353 36.5918 33.2993 35.6038 32.5713 34.2172C31.8779 32.8305 31.5313 30.9585 31.5313 28.6012C31.5313 26.1745 31.9126 23.9732 32.6753 21.9972C33.4379 19.9865 34.4606 18.2532 35.7433 16.7972C37.0606 15.3412 38.5513 14.2318 40.2153 13.4692C41.8793 12.6718 43.5953 12.2732 45.3633 12.2732C47.0273 12.2732 48.2233 12.5852 48.9513 13.2092C49.7139 13.7985 50.3726 14.4398 50.9273 15.1332H51.2393L53.3193 12.6892H57.5833L53.8913 30.3692C53.8913 30.3692 53.8393 30.5945 53.7353 31.0452C53.6659 31.4612 53.6313 31.8598 53.6313 32.2412C53.6313 32.5878 53.7006 32.9172 53.8393 33.2292C54.0126 33.5065 54.3766 33.6452 54.9313 33.6452C55.4166 33.6452 55.8326 33.5412 56.1793 33.3332C56.5606 33.0905 56.9073 32.7958 57.2193 32.4492C57.5313 32.1025 57.8259 31.7558 58.1033 31.4092L59.7673 32.7092C59.3513 33.3678 58.7966 34.1132 58.1033 34.9452C57.4446 35.7425 56.5259 36.4358 55.3473 37.0252C54.2033 37.6145 52.7126 37.9092 50.8753 37.9092C49.5579 37.9092 48.5526 37.6838 47.8593 37.2332C47.2006 36.7825 46.8713 35.9332 46.8713 34.6852C46.8713 34.5118 46.8713 34.3385 46.8713 34.1652C46.8713 33.9918 46.8886 33.8012 46.9233 33.5932H46.5073C45.4673 34.9798 44.3926 36.0718 43.2833 36.8692C42.1739 37.6665 40.7873 38.0652 39.1233 38.0652ZM42.0873 33.7492C42.9886 33.7492 43.7339 33.5238 44.3233 33.0732C44.9473 32.5878 45.4846 31.8772 45.9353 30.9412C46.3859 30.0052 46.8019 28.8612 47.1833 27.5092C47.3913 26.7465 47.5819 25.9145 47.7553 25.0132C47.9633 24.1118 48.1366 23.1932 48.2753 22.2572C48.4139 21.2865 48.4833 20.3678 48.4833 19.5012C48.4833 18.0798 48.2579 16.9185 47.8073 16.0172C47.3913 15.0812 46.6286 14.6132 45.5193 14.6132C44.4793 14.6132 43.5606 15.0118 42.7633 15.8092C41.9659 16.5718 41.2899 17.6118 40.7353 18.9292C40.1806 20.2465 39.7646 21.7198 39.4873 23.3492C39.2099 24.9438 39.0713 26.5732 39.0713 28.2372C39.0713 30.4212 39.3313 31.8945 39.8513 32.6572C40.3713 33.3852 41.1166 33.7492 42.0873 33.7492ZM74.3264 37.8572C72.9051 37.8572 71.7438 37.6665 70.8424 37.2852C69.9411 36.8692 69.2478 36.5398 68.7624 36.2972L69.2304 32.9172C69.8198 33.4718 70.4611 33.9745 71.1544 34.4252C71.8824 34.8412 72.6798 35.0492 73.5464 35.0492C74.8984 35.0492 76.0771 34.4945 77.0824 33.3852C78.1224 32.2412 78.9198 30.6985 79.4744 28.7572C80.0638 26.7812 80.3584 24.5798 80.3584 22.1532C80.3584 20.3505 80.2198 19.0158 79.9424 18.1492C79.6651 17.2478 79.3011 16.6585 78.8504 16.3812C78.3998 16.0692 77.9318 15.9132 77.4464 15.9132C76.5451 15.9132 75.7304 16.2078 75.0024 16.7972C74.3091 17.3865 73.7024 18.1318 73.1824 19.0332C72.6624 19.8998 72.2464 20.8185 71.9344 21.7892L72.0384 17.3172C73.0438 16.3118 73.9451 15.4278 74.7424 14.6652C75.5398 13.9025 76.3718 13.3132 77.2384 12.8972C78.1398 12.4812 79.1971 12.2732 80.4104 12.2732C81.8318 12.2732 83.1144 12.6025 84.2584 13.2612C85.4371 13.9198 86.3558 14.9598 87.0144 16.3812C87.7078 17.7678 88.0544 19.6052 88.0544 21.8932C88.0544 25.0825 87.4131 27.8732 86.1304 30.2652C84.8478 32.6572 83.1664 34.5292 81.0864 35.8812C79.0064 37.1985 76.7531 37.8572 74.3264 37.8572ZM72.6104 48.7252H59.0904L65.6944 17.8892C65.7291 17.7158 65.7464 17.5598 65.7464 17.4212C65.7811 17.2478 65.7984 17.0745 65.7984 16.9012C65.7984 16.3812 65.6424 15.9998 65.3304 15.7572C65.0531 15.5145 64.5504 15.3932 63.8224 15.3932C63.4758 15.3932 63.1291 15.4105 62.7824 15.4452C62.4704 15.4798 62.3144 15.4972 62.3144 15.4972V13.4172L71.0504 12.6372H73.2344L72.4024 16.5892H73.0784L68.0344 41.7572C67.9998 41.9998 67.9478 42.3292 67.8784 42.7452C67.8438 43.1958 67.8264 43.5252 67.8264 43.7332C67.8264 44.4612 68.1731 45.1025 68.8664 45.6572C69.5944 46.2465 70.9984 46.5412 73.0784 46.5412L72.6104 48.7252ZM97.6761 38.0652C96.3587 38.0652 95.1107 37.7705 93.9321 37.1812C92.7881 36.5918 91.8521 35.6038 91.1241 34.2172C90.4307 32.8305 90.0841 30.9585 90.0841 28.6012C90.0841 26.1745 90.4654 23.9732 91.2281 21.9972C91.9907 19.9865 93.0134 18.2532 94.2961 16.7972C95.6134 15.3412 97.1041 14.2318 98.7681 13.4692C100.432 12.6718 102.148 12.2732 103.916 12.2732C105.58 12.2732 106.776 12.5852 107.504 13.2092C108.267 13.7985 108.925 14.4398 109.48 15.1332H109.792L111.872 12.6892H116.136L112.444 30.3692C112.444 30.3692 112.392 30.5945 112.288 31.0452C112.219 31.4612 112.184 31.8598 112.184 32.2412C112.184 32.5878 112.253 32.9172 112.392 33.2292C112.565 33.5065 112.929 33.6452 113.484 33.6452C113.969 33.6452 114.385 33.5412 114.732 33.3332C115.113 33.0905 115.46 32.7958 115.772 32.4492C116.084 32.1025 116.379 31.7558 116.656 31.4092L118.32 32.7092C117.904 33.3678 117.349 34.1132 116.656 34.9452C115.997 35.7425 115.079 36.4358 113.9 37.0252C112.756 37.6145 111.265 37.9092 109.428 37.9092C108.111 37.9092 107.105 37.6838 106.412 37.2332C105.753 36.7825 105.424 35.9332 105.424 34.6852C105.424 34.5118 105.424 34.3385 105.424 34.1652C105.424 33.9918 105.441 33.8012 105.476 33.5932H105.06C104.02 34.9798 102.945 36.0718 101.836 36.8692C100.727 37.6665 99.3401 38.0652 97.6761 38.0652ZM100.64 33.7492C101.541 33.7492 102.287 33.5238 102.876 33.0732C103.5 32.5878 104.037 31.8772 104.488 30.9412C104.939 30.0052 105.355 28.8612 105.736 27.5092C105.944 26.7465 106.135 25.9145 106.308 25.0132C106.516 24.1118 106.689 23.1932 106.828 22.2572C106.967 21.2865 107.036 20.3678 107.036 19.5012C107.036 18.0798 106.811 16.9185 106.36 16.0172C105.944 15.0812 105.181 14.6132 104.072 14.6132C103.032 14.6132 102.113 15.0118 101.316 15.8092C100.519 16.5718 99.8427 17.6118 99.2881 18.9292C98.7334 20.2465 98.3174 21.7198 98.0401 23.3492C97.7627 24.9438 97.6241 26.5732 97.6241 28.2372C97.6241 30.4212 97.8841 31.8945 98.4041 32.6572C98.9241 33.3852 99.6694 33.7492 100.64 33.7492ZM141.147 37.9092C139.657 37.9092 138.565 37.5972 137.871 36.9732C137.213 36.3492 136.883 35.5865 136.883 34.6852C136.883 34.2345 136.935 33.7145 137.039 33.1252C137.143 32.5012 137.369 31.4265 137.715 29.9012L141.199 12.6892H148.479L144.787 30.7332C144.787 30.7332 144.735 31.0105 144.631 31.5652C144.527 32.0852 144.475 32.5358 144.475 32.9172C144.475 33.5758 144.805 33.9052 145.463 33.9052C146.053 33.9052 146.573 33.7665 147.023 33.4892C147.474 33.2118 147.873 32.8825 148.219 32.5012C148.566 32.1198 148.878 31.7732 149.155 31.4612L150.767 32.6572C150.178 33.4892 149.519 34.3038 148.791 35.1012C148.098 35.8985 147.162 36.5572 145.983 37.0772C144.805 37.5972 143.193 37.8745 141.147 37.9092ZM127.315 37.2852H120.035L124.143 18.3572C124.213 18.0452 124.247 17.7678 124.247 17.5252C124.282 17.2478 124.299 17.0918 124.299 17.0572C124.299 16.4332 124.195 15.9825 123.987 15.7052C123.779 15.3932 123.242 15.2372 122.375 15.2372C122.133 15.2372 121.89 15.2545 121.647 15.2892C121.439 15.2892 121.179 15.3065 120.867 15.3412V13.1052L130.279 12.5332H132.515L127.315 37.2852ZM139.171 25.7932H129.135L129.603 23.4532H139.587L139.171 25.7932ZM186.308 37.9092C184.402 37.9092 183.136 37.5798 182.512 36.9212C181.923 36.2278 181.628 35.4825 181.628 34.6852C181.628 34.3038 181.663 33.9225 181.732 33.5412C181.802 33.1252 181.854 32.8478 181.888 32.7092L184.592 23.4012C184.766 22.8465 184.939 22.1185 185.112 21.2172C185.32 20.2812 185.424 19.5012 185.424 18.8772C185.424 18.4265 185.338 18.0278 185.164 17.6812C185.026 17.2998 184.748 17.1092 184.332 17.1092C183.778 17.1092 183.171 17.4385 182.512 18.0972C181.854 18.7558 181.16 19.6398 180.432 20.7492C179.739 21.8585 179.063 23.0718 178.404 24.3892C177.746 25.6718 177.139 26.9718 176.584 28.2892C176.064 29.6065 175.648 30.8198 175.336 31.9292L177.312 22.1532C178.075 20.6625 178.872 19.3105 179.704 18.0972C180.536 16.8838 181.42 15.8438 182.356 14.9772C183.327 14.1105 184.35 13.4518 185.424 13.0012C186.499 12.5158 187.66 12.2732 188.908 12.2732C190.572 12.2732 191.664 12.6545 192.184 13.4172C192.704 14.1452 192.964 15.0118 192.964 16.0172C192.964 16.7452 192.895 17.5252 192.756 18.3572C192.618 19.1892 192.514 19.7092 192.444 19.9172L189.376 31.6692C189.376 31.6692 189.342 31.8078 189.272 32.0852C189.238 32.3278 189.22 32.5878 189.22 32.8652C189.22 33.5585 189.584 33.9052 190.312 33.9052C191.11 33.9052 191.803 33.6278 192.392 33.0732C192.982 32.4838 193.484 31.9465 193.9 31.4612L195.512 32.6572C195.374 32.8652 195.096 33.2638 194.68 33.8532C194.299 34.4078 193.744 34.9972 193.016 35.6212C192.323 36.2452 191.422 36.7825 190.312 37.2332C189.203 37.6838 187.868 37.9092 186.308 37.9092ZM159.944 37.2852H152.56L156.72 18.3052C156.72 18.3052 156.755 18.1145 156.824 17.7332C156.894 17.3518 156.928 16.9878 156.928 16.6412C156.928 16.1558 156.807 15.7918 156.564 15.5492C156.322 15.3065 155.854 15.1852 155.16 15.1852C154.883 15.1852 154.536 15.2025 154.12 15.2372C153.739 15.2718 153.548 15.2892 153.548 15.2892V13.1052L162.7 12.5332H164.624L162.388 21.0612H163.636L159.944 37.2852ZM174.192 37.2852H166.756C167.415 34.8585 167.935 32.8998 168.316 31.4092C168.732 29.9185 169.062 28.6705 169.304 27.6652C169.582 26.6252 169.824 25.6372 170.032 24.7012C170.275 23.7305 170.552 22.5518 170.864 21.1652C170.899 21.0958 170.951 20.8185 171.02 20.3332C171.124 19.8478 171.176 19.3625 171.176 18.8772C171.176 18.3918 171.09 17.9758 170.916 17.6292C170.778 17.2825 170.483 17.1092 170.032 17.1092C169.339 17.1092 168.576 17.5425 167.744 18.4092C166.912 19.2758 166.08 20.4198 165.248 21.8412C164.451 23.2278 163.706 24.7358 163.012 26.3652C162.319 27.9945 161.73 29.5545 161.244 31.0452L162.7 21.5812C163.186 20.8532 163.758 19.9692 164.416 18.9292C165.11 17.8545 165.924 16.8145 166.86 15.8092C167.796 14.7692 168.871 13.9198 170.084 13.2612C171.298 12.5678 172.684 12.2212 174.244 12.2212C175.943 12.2212 177.052 12.6198 177.572 13.4172C178.127 14.1798 178.404 15.0118 178.404 15.9132C178.404 16.5718 178.335 17.2132 178.196 17.8372C178.058 18.4265 177.971 18.7558 177.936 18.8252L177.208 21.2172H177.936L175.336 31.9292L174.192 37.2852ZM202.107 37.9092C200.547 37.9092 199.437 37.4932 198.779 36.6612C198.155 35.8292 197.843 34.7198 197.843 33.3332C197.843 32.7438 197.895 32.1198 197.999 31.4612C198.103 30.8025 198.241 30.1265 198.415 29.4332L201.119 18.3572C201.119 18.3572 201.136 18.2705 201.171 18.0972C201.205 17.9238 201.24 17.7158 201.275 17.4732C201.309 17.1958 201.327 16.9358 201.327 16.6932C201.327 16.3465 201.205 16.0172 200.963 15.7052C200.755 15.3932 200.304 15.2372 199.611 15.2372C199.16 15.2372 198.761 15.2545 198.415 15.2892C198.103 15.3238 197.947 15.3412 197.947 15.3412V13.1052L207.047 12.5332H209.751L206.007 28.1852C205.903 28.6012 205.816 28.9998 205.747 29.3812C205.712 29.7625 205.695 30.1265 205.695 30.4732C205.695 31.1318 205.799 31.6692 206.007 32.0852C206.249 32.5012 206.596 32.7092 207.047 32.7092C207.636 32.7092 208.243 32.4838 208.867 32.0332C209.491 31.5478 210.097 30.9065 210.687 30.1092C211.311 29.3118 211.9 28.4105 212.455 27.4052C213.009 26.3998 213.495 25.3425 213.911 24.2332C214.327 23.0892 214.656 21.9625 214.899 20.8532L216.615 12.6892H223.947L220.255 30.7852C220.255 30.7852 220.203 31.0625 220.099 31.6172C219.995 32.1718 219.943 32.6398 219.943 33.0212C219.943 33.2292 220.012 33.4372 220.151 33.6452C220.289 33.8185 220.567 33.9052 220.983 33.9052C221.572 33.9052 222.109 33.7318 222.595 33.3852C223.115 33.0385 223.548 32.6745 223.895 32.2932C224.276 31.8772 224.519 31.5998 224.623 31.4612L226.235 32.6572C225.645 33.5932 224.969 34.4598 224.207 35.2572C223.444 36.0545 222.491 36.6958 221.347 37.1812C220.203 37.6665 218.764 37.9092 217.031 37.9092C215.228 37.9092 213.997 37.6145 213.339 37.0252C212.68 36.4358 212.351 35.6558 212.351 34.6852C212.351 34.1998 212.385 33.6798 212.455 33.1252C212.559 32.5705 212.68 31.9812 212.819 31.3572H212.195C211.883 31.8078 211.432 32.3972 210.843 33.1252C210.288 33.8532 209.595 34.5812 208.763 35.3092C207.965 36.0372 207.012 36.6612 205.903 37.1812C204.793 37.6665 203.528 37.9092 202.107 37.9092ZM228.443 37.9092C227.126 37.9092 226.051 37.6665 225.219 37.1812C224.387 36.6958 223.694 35.9852 223.139 35.0492L224.595 33.5932C224.976 34.0092 225.358 34.3212 225.739 34.5292C226.086 34.7372 226.588 34.8412 227.247 34.8412C227.802 34.8412 228.218 34.6678 228.495 34.3212C228.807 33.9745 229.102 33.4372 229.379 32.7092C229.691 31.9812 230.072 31.0798 230.523 30.0052C231.078 28.8958 231.702 27.9425 232.395 27.1452C233.088 26.3478 234.284 25.7238 235.983 25.2732V25.0652C235.255 24.9612 234.423 24.7358 233.487 24.3892C232.551 24.0078 231.736 23.4185 231.043 22.6212C230.35 21.7892 230.003 20.6798 230.003 19.2932C230.003 18.0798 230.384 16.9532 231.147 15.9132C231.944 14.8385 233.279 13.9892 235.151 13.3652C237.058 12.7065 239.675 12.3772 243.003 12.3772C243.731 12.3772 244.719 12.4118 245.967 12.4812C247.215 12.5158 248.463 12.5678 249.711 12.6372C250.994 12.7065 252.016 12.7932 252.779 12.8972L249.191 30.7332C249.191 30.7332 249.139 31.0105 249.035 31.5652C248.931 32.0852 248.879 32.5358 248.879 32.9172C248.879 33.5758 249.208 33.9052 249.867 33.9052C250.456 33.9052 250.976 33.7665 251.427 33.4892C251.878 33.2118 252.276 32.8825 252.623 32.5012C252.97 32.1198 253.282 31.7732 253.559 31.4612L255.171 32.6572C254.582 33.4892 253.923 34.3038 253.195 35.1012C252.502 35.8985 251.566 36.5572 250.387 37.0772C249.208 37.5972 247.596 37.8745 245.551 37.9092C244.06 37.9092 242.951 37.5972 242.223 36.9732C241.495 36.3492 241.131 35.5865 241.131 34.6852C241.131 34.2345 241.183 33.7145 241.287 33.1252C241.426 32.5012 241.668 31.4265 242.015 29.9012L245.395 14.7172C244.84 14.6478 244.303 14.5958 243.783 14.5612C243.263 14.5265 242.864 14.5092 242.587 14.5092C240.576 14.5092 239.155 14.9945 238.323 15.9652C237.526 16.9358 237.127 18.1838 237.127 19.7092C237.127 21.3038 237.526 22.3785 238.323 22.9332C239.12 23.4532 240.247 23.7132 241.703 23.7132C241.876 23.7132 242.24 23.7132 242.795 23.7132C243.35 23.6785 243.679 23.5918 243.783 23.4532L243.939 25.8452C242.483 25.7758 241.304 25.9318 240.403 26.3132C239.536 26.6945 238.86 27.2145 238.375 27.8732C237.924 28.4972 237.56 29.2078 237.283 30.0052C236.763 31.2185 236.156 32.4492 235.463 33.6972C234.804 34.9105 233.92 35.9158 232.811 36.7132C231.702 37.5105 230.246 37.9092 228.443 37.9092ZM277.724 37.9092C275.193 37.9092 273.2 37.4065 271.744 36.4012C270.288 35.3612 269.248 34.0092 268.624 32.3452C268.035 30.6465 267.74 28.8265 267.74 26.8852C267.74 25.3598 267.879 23.7478 268.156 22.0492C268.468 20.3505 268.78 18.8945 269.092 17.6812C269.959 14.5958 271.103 12.1172 272.524 10.2452C273.945 8.33849 275.488 6.86515 277.152 5.82516C278.816 4.78515 280.428 4.02249 281.988 3.53715C283.583 3.05182 284.969 2.70515 286.148 2.49715C287.361 2.28916 288.488 2.09849 289.528 1.92516C290.603 1.71715 291.487 1.47449 292.18 1.19716C292.908 0.885156 293.341 0.486489 293.48 0.00115585H295.352C295.248 1.66516 294.867 3.01715 294.208 4.05715C293.549 5.09715 292.717 5.92915 291.712 6.55316C290.707 7.14249 289.615 7.59316 288.436 7.90516C287.292 8.21715 286.165 8.45982 285.056 8.63316C283.877 8.80649 282.716 9.04916 281.572 9.36116C280.428 9.67316 279.353 10.1758 278.348 10.8692C277.343 11.5278 276.407 12.5158 275.54 13.8332C274.708 15.1158 273.997 16.8318 273.408 18.9812L273.98 19.0332C274.431 17.9238 275.055 16.8838 275.852 15.9132C276.684 14.9425 277.707 14.1625 278.92 13.5732C280.168 12.9838 281.659 12.6892 283.392 12.6892C285.333 12.6892 286.98 13.0878 288.332 13.8852C289.684 14.6478 290.707 15.7918 291.4 17.3172C292.093 18.8078 292.44 20.6452 292.44 22.8292C292.44 25.1865 292.059 27.3012 291.296 29.1732C290.533 31.0105 289.476 32.5878 288.124 33.9052C286.807 35.1878 285.247 36.1758 283.444 36.8692C281.676 37.5625 279.769 37.9092 277.724 37.9092ZM278.712 35.4652C279.717 35.4652 280.584 35.0665 281.312 34.2692C282.075 33.4372 282.699 32.3625 283.184 31.0452C283.704 29.6932 284.085 28.2198 284.328 26.6252C284.605 25.0305 284.744 23.4532 284.744 21.8932C284.744 20.6105 284.64 19.4838 284.432 18.5132C284.224 17.5078 283.86 16.7278 283.34 16.1732C282.82 15.5838 282.109 15.2892 281.208 15.2892C280.168 15.2892 279.284 15.7052 278.556 16.5372C277.828 17.3692 277.221 18.4438 276.736 19.7612C276.285 21.0785 275.956 22.5172 275.748 24.0772C275.54 25.6372 275.436 27.1452 275.436 28.6012C275.436 29.8838 275.523 31.0452 275.696 32.0852C275.869 33.1252 276.181 33.9572 276.632 34.5812C277.117 35.1705 277.811 35.4652 278.712 35.4652ZM304.496 37.8052C302.278 37.8052 300.544 37.5278 299.296 36.9732C298.048 36.3838 297.164 35.6212 296.644 34.6852C296.124 33.7492 295.864 32.7785 295.864 31.7732C295.864 31.2878 295.899 30.7678 295.968 30.2132C296.072 29.6238 296.176 29.1212 296.28 28.7052C296.384 28.2545 296.436 28.0118 296.436 27.9772L298.672 18.2012C298.776 17.8198 298.828 17.4385 298.828 17.0572C298.828 16.5025 298.672 16.0345 298.36 15.6532C298.083 15.2718 297.598 15.0812 296.904 15.0812C296.662 15.0812 296.402 15.0985 296.124 15.1332C295.882 15.1332 295.604 15.1505 295.292 15.1852V13.1052L304.028 12.5332H306.732L304.184 23.2452L304.548 23.2972C305.415 22.5692 306.282 21.9972 307.148 21.5812C308.015 21.1652 309.09 20.9572 310.372 20.9572C312.348 20.9572 313.96 21.5638 315.208 22.7772C316.491 23.9905 317.132 25.8278 317.132 28.2892C317.132 30.5425 316.543 32.3798 315.364 33.8012C314.22 35.1878 312.678 36.2105 310.736 36.8692C308.83 37.4932 306.75 37.8052 304.496 37.8052ZM306.368 35.4652C307.27 35.4652 308.015 35.1532 308.604 34.5292C309.194 33.8705 309.627 33.0212 309.904 31.9812C310.216 30.9065 310.372 29.7452 310.372 28.4972C310.372 27.2838 310.147 26.2265 309.696 25.3252C309.246 24.3892 308.552 23.9212 307.616 23.9212C306.715 23.9212 305.935 24.2505 305.276 24.9092C304.652 25.5332 304.15 26.7292 303.768 28.4972C303.734 28.7052 303.647 29.2078 303.508 30.0052C303.37 30.8025 303.3 31.4958 303.3 32.0852C303.3 33.0558 303.456 33.7838 303.768 34.2692C304.115 34.7545 304.514 35.0838 304.964 35.2572C305.45 35.3958 305.918 35.4652 306.368 35.4652ZM323.944 37.9092C322.454 37.9092 321.362 37.5972 320.668 36.9732C320.01 36.3492 319.68 35.5865 319.68 34.6852C319.68 34.2345 319.732 33.7145 319.836 33.1252C319.94 32.5012 320.166 31.4265 320.512 29.9012L324.204 12.5852H331.432L327.584 30.7332C327.584 30.7332 327.532 31.0105 327.428 31.5652C327.324 32.0852 327.272 32.5358 327.272 32.9172C327.272 33.5758 327.602 33.9052 328.26 33.9052C328.85 33.9052 329.37 33.7665 329.82 33.4892C330.271 33.2118 330.67 32.8825 331.016 32.5012C331.363 32.1198 331.675 31.7732 331.952 31.4612L333.564 32.6572C332.975 33.4892 332.316 34.3038 331.588 35.1012C330.895 35.8985 329.959 36.5572 328.78 37.0772C327.602 37.5972 325.99 37.8745 323.944 37.9092ZM343.703 38.0132C341.449 38.0132 339.647 37.5972 338.295 36.7652C336.977 35.8985 336.024 34.7545 335.435 33.3332C334.88 31.8772 334.603 30.2652 334.603 28.4972C334.603 26.2785 334.984 24.1985 335.747 22.2572C336.509 20.2812 337.567 18.5478 338.919 17.0572C340.271 15.5665 341.848 14.4052 343.651 13.5732C345.453 12.7065 347.395 12.2732 349.475 12.2732C351.555 12.2732 353.253 12.7238 354.571 13.6252C355.923 14.4918 356.599 15.7572 356.599 17.4212C356.599 18.4958 356.269 19.4838 355.611 20.3852C354.987 21.2518 354.016 21.6852 352.699 21.6852C351.867 21.6852 351.191 21.4772 350.671 21.0612C350.185 20.6452 349.943 20.0038 349.943 19.1372C349.943 18.4438 350.064 17.8545 350.307 17.3692C350.584 16.8492 350.723 16.3812 350.723 15.9652C350.723 15.6185 350.567 15.3065 350.255 15.0292C349.977 14.7518 349.44 14.6132 348.643 14.6132C347.464 14.6132 346.459 14.9598 345.627 15.6532C344.795 16.3118 344.101 17.2305 343.547 18.4092C343.027 19.5878 342.645 20.9225 342.403 22.4132C342.16 23.8692 342.039 25.3772 342.039 26.9372C342.039 28.8092 342.212 30.2478 342.559 31.2532C342.905 32.2238 343.408 32.8998 344.067 33.2812C344.725 33.6278 345.54 33.8012 346.511 33.8012C348.036 33.8012 349.353 33.4892 350.463 32.8652C351.572 32.2412 352.508 31.4438 353.271 30.4732L354.727 31.6172C353.999 32.7958 353.132 33.8705 352.127 34.8412C351.121 35.8118 349.925 36.5918 348.539 37.1812C347.187 37.7358 345.575 38.0132 343.703 38.0132ZM391.345 37.9092C389.438 37.9092 388.173 37.5798 387.549 36.9212C386.96 36.2278 386.665 35.4825 386.665 34.6852C386.665 34.3038 386.7 33.9225 386.769 33.5412C386.838 33.1252 386.89 32.8478 386.925 32.7092L389.629 23.4012C389.802 22.8465 389.976 22.1185 390.149 21.2172C390.357 20.2812 390.461 19.5012 390.461 18.8772C390.461 18.4265 390.374 18.0278 390.201 17.6812C390.062 17.2998 389.785 17.1092 389.369 17.1092C388.814 17.1092 388.208 17.4385 387.549 18.0972C386.89 18.7558 386.197 19.6398 385.469 20.7492C384.776 21.8585 384.1 23.0718 383.441 24.3892C382.782 25.6718 382.176 26.9718 381.621 28.2892C381.101 29.6065 380.685 30.8198 380.373 31.9292L382.349 22.1532C383.112 20.6625 383.909 19.3105 384.741 18.0972C385.573 16.8838 386.457 15.8438 387.393 14.9772C388.364 14.1105 389.386 13.4518 390.461 13.0012C391.536 12.5158 392.697 12.2732 393.945 12.2732C395.609 12.2732 396.701 12.6545 397.221 13.4172C397.741 14.1452 398.001 15.0118 398.001 16.0172C398.001 16.7452 397.932 17.5252 397.793 18.3572C397.654 19.1892 397.55 19.7092 397.481 19.9172L394.413 31.6692C394.413 31.6692 394.378 31.8078 394.309 32.0852C394.274 32.3278 394.257 32.5878 394.257 32.8652C394.257 33.5585 394.621 33.9052 395.349 33.9052C396.146 33.9052 396.84 33.6278 397.429 33.0732C398.018 32.4838 398.521 31.9465 398.937 31.4612L400.549 32.6572C400.41 32.8652 400.133 33.2638 399.717 33.8532C399.336 34.4078 398.781 34.9972 398.053 35.6212C397.36 36.2452 396.458 36.7825 395.349 37.2332C394.24 37.6838 392.905 37.9092 391.345 37.9092ZM364.981 37.2852H357.597L361.757 18.3052C361.757 18.3052 361.792 18.1145 361.861 17.7332C361.93 17.3518 361.965 16.9878 361.965 16.6412C361.965 16.1558 361.844 15.7918 361.601 15.5492C361.358 15.3065 360.89 15.1852 360.197 15.1852C359.92 15.1852 359.573 15.2025 359.157 15.2372C358.776 15.2718 358.585 15.2892 358.585 15.2892V13.1052L367.737 12.5332H369.661L367.425 21.0612H368.673L364.981 37.2852ZM379.229 37.2852H371.793C372.452 34.8585 372.972 32.8998 373.353 31.4092C373.769 29.9185 374.098 28.6705 374.341 27.6652C374.618 26.6252 374.861 25.6372 375.069 24.7012C375.312 23.7305 375.589 22.5518 375.901 21.1652C375.936 21.0958 375.988 20.8185 376.057 20.3332C376.161 19.8478 376.213 19.3625 376.213 18.8772C376.213 18.3918 376.126 17.9758 375.953 17.6292C375.814 17.2825 375.52 17.1092 375.069 17.1092C374.376 17.1092 373.613 17.5425 372.781 18.4092C371.949 19.2758 371.117 20.4198 370.285 21.8412C369.488 23.2278 368.742 24.7358 368.049 26.3652C367.356 27.9945 366.766 29.5545 366.281 31.0452L367.737 21.5812C368.222 20.8532 368.794 19.9692 369.453 18.9292C370.146 17.8545 370.961 16.8145 371.897 15.8092C372.833 14.7692 373.908 13.9198 375.121 13.2612C376.334 12.5678 377.721 12.2212 379.281 12.2212C380.98 12.2212 382.089 12.6198 382.609 13.4172C383.164 14.1798 383.441 15.0118 383.441 15.9132C383.441 16.5718 383.372 17.2132 383.233 17.8372C383.094 18.4265 383.008 18.7558 382.973 18.8252L382.245 21.2172H382.973L380.373 31.9292L379.229 37.2852ZM415.359 37.8572C413.938 37.8572 412.776 37.6665 411.875 37.2852C410.974 36.8692 410.28 36.5398 409.795 36.2972L410.263 32.9172C410.852 33.4718 411.494 33.9745 412.187 34.4252C412.915 34.8412 413.712 35.0492 414.579 35.0492C415.931 35.0492 417.11 34.4945 418.115 33.3852C419.155 32.2412 419.952 30.6985 420.507 28.7572C421.096 26.7812 421.391 24.5798 421.391 22.1532C421.391 20.3505 421.252 19.0158 420.975 18.1492C420.698 17.2478 420.334 16.6585 419.883 16.3812C419.432 16.0692 418.964 15.9132 418.479 15.9132C417.578 15.9132 416.763 16.2078 416.035 16.7972C415.342 17.3865 414.735 18.1318 414.215 19.0332C413.695 19.8998 413.279 20.8185 412.967 21.7892L413.071 17.3172C414.076 16.3118 414.978 15.4278 415.775 14.6652C416.572 13.9025 417.404 13.3132 418.271 12.8972C419.172 12.4812 420.23 12.2732 421.443 12.2732C422.864 12.2732 424.147 12.6025 425.291 13.2612C426.47 13.9198 427.388 14.9598 428.047 16.3812C428.74 17.7678 429.087 19.6052 429.087 21.8932C429.087 25.0825 428.446 27.8732 427.163 30.2652C425.88 32.6572 424.199 34.5292 422.119 35.8812C420.039 37.1985 417.786 37.8572 415.359 37.8572ZM413.643 48.7252H400.123L406.727 17.8892C406.762 17.7158 406.779 17.5598 406.779 17.4212C406.814 17.2478 406.831 17.0745 406.831 16.9012C406.831 16.3812 406.675 15.9998 406.363 15.7572C406.086 15.5145 405.583 15.3932 404.855 15.3932C404.508 15.3932 404.162 15.4105 403.815 15.4452C403.503 15.4798 403.347 15.4972 403.347 15.4972V13.4172L412.083 12.6372H414.267L413.435 16.5892H414.111L409.067 41.7572C409.032 41.9998 408.98 42.3292 408.911 42.7452C408.876 43.1958 408.859 43.5252 408.859 43.7332C408.859 44.4612 409.206 45.1025 409.899 45.6572C410.627 46.2465 412.031 46.5412 414.111 46.5412L413.643 48.7252ZM441.569 37.9612C439.731 37.9612 438.015 37.6318 436.421 36.9732C434.826 36.3145 433.543 35.2398 432.573 33.7492C431.602 32.2238 431.117 30.1612 431.117 27.5612C431.117 25.4812 431.446 23.5225 432.105 21.6852C432.763 19.8478 433.717 18.2358 434.965 16.8492C436.247 15.4278 437.79 14.3185 439.593 13.5212C441.395 12.6892 443.441 12.2732 445.729 12.2732C447.566 12.2732 449.265 12.6025 450.825 13.2612C452.385 13.8852 453.65 14.9598 454.621 16.4852C455.591 18.0105 456.077 20.0905 456.077 22.7252C456.077 24.8052 455.747 26.7638 455.089 28.6012C454.43 30.4385 453.477 32.0678 452.229 33.4892C451.015 34.8758 449.507 35.9678 447.705 36.7652C445.902 37.5625 443.857 37.9612 441.569 37.9612ZM442.089 35.4652C442.99 35.4652 443.805 35.1185 444.533 34.4252C445.295 33.6972 445.937 32.7092 446.457 31.4612C447.011 30.2132 447.445 28.7572 447.757 27.0932C448.069 25.3945 448.225 23.5572 448.225 21.5812C448.225 20.2292 448.138 19.0505 447.965 18.0452C447.791 17.0052 447.462 16.1905 446.977 15.6012C446.526 15.0118 445.885 14.7172 445.053 14.7172C444.151 14.7172 443.319 15.0638 442.557 15.7572C441.829 16.4505 441.187 17.4212 440.633 18.6692C440.113 19.9172 439.697 21.3905 439.385 23.0892C439.107 24.7532 438.969 26.5558 438.969 28.4972C438.969 29.8492 439.055 31.0452 439.229 32.0852C439.402 33.1252 439.714 33.9572 440.165 34.5812C440.65 35.1705 441.291 35.4652 442.089 35.4652ZM463.309 37.9092C461.749 37.9092 460.64 37.4932 459.981 36.6612C459.357 35.8292 459.045 34.7198 459.045 33.3332C459.045 32.7438 459.097 32.1198 459.201 31.4612C459.305 30.8025 459.444 30.1265 459.617 29.4332L462.321 18.3572C462.321 18.3572 462.339 18.2705 462.373 18.0972C462.408 17.9238 462.443 17.7158 462.477 17.4732C462.512 17.1958 462.529 16.9358 462.529 16.6932C462.529 16.3465 462.408 16.0172 462.165 15.7052C461.957 15.3932 461.507 15.2372 460.813 15.2372C460.363 15.2372 459.964 15.2545 459.617 15.2892C459.305 15.3238 459.149 15.3412 459.149 15.3412V13.1052L468.249 12.5332H470.953L467.209 28.1852C467.105 28.6012 467.019 28.9998 466.949 29.3812C466.915 29.7625 466.897 30.1265 466.897 30.4732C466.897 31.1318 467.001 31.6692 467.209 32.0852C467.452 32.5012 467.799 32.7092 468.249 32.7092C468.839 32.7092 469.445 32.4838 470.069 32.0332C470.693 31.5478 471.3 30.9065 471.889 30.1092C472.513 29.3118 473.103 28.4105 473.657 27.4052C474.212 26.3998 474.697 25.3425 475.113 24.2332C475.529 23.0892 475.859 21.9625 476.101 20.8532L477.817 12.6892H485.149L481.457 30.7852C481.457 30.7852 481.405 31.0625 481.301 31.6172C481.197 32.1718 481.145 32.6398 481.145 33.0212C481.145 33.2292 481.215 33.4372 481.353 33.6452C481.492 33.8185 481.769 33.9052 482.185 33.9052C482.775 33.9052 483.312 33.7318 483.797 33.3852C484.317 33.0385 484.751 32.6745 485.097 32.2932C485.479 31.8772 485.721 31.5998 485.825 31.4612L487.437 32.6572C486.848 33.5932 486.172 34.4598 485.409 35.2572C484.647 36.0545 483.693 36.6958 482.549 37.1812C481.405 37.6665 479.967 37.9092 478.233 37.9092C476.431 37.9092 475.2 37.6145 474.541 37.0252C473.883 36.4358 473.553 35.6558 473.553 34.6852C473.553 34.1998 473.588 33.6798 473.657 33.1252C473.761 32.5705 473.883 31.9812 474.021 31.3572H473.397C473.085 31.8078 472.635 32.3972 472.045 33.1252C471.491 33.8532 470.797 34.5812 469.965 35.3092C469.168 36.0372 468.215 36.6612 467.105 37.1812C465.996 37.6665 464.731 37.9092 463.309 37.9092ZM474.749 9.77715C472.219 9.77715 470.364 9.20515 469.185 8.06115C468.007 6.88249 467.417 5.54782 467.417 4.05715C467.417 3.01715 467.677 2.20249 468.197 1.61315C468.717 1.02382 469.445 0.729156 470.381 0.729156C471.283 0.729156 471.959 0.989156 472.409 1.50916C472.895 1.99449 473.137 2.60115 473.137 3.32915C473.137 3.39849 473.137 3.48516 473.137 3.58916C473.137 3.65849 473.137 3.72782 473.137 3.79715C473.137 4.97582 473.276 5.84249 473.553 6.39715C473.865 6.91715 474.663 7.17715 475.945 7.17715C478.06 7.17715 479.603 6.60515 480.573 5.46115C481.579 4.28249 482.445 2.72249 483.173 0.781155L484.993 1.19716C484.647 2.68782 484.057 4.09182 483.225 5.40915C482.428 6.69182 481.336 7.74915 479.949 8.58115C478.563 9.37849 476.829 9.77715 474.749 9.77715ZM506.213 37.8052C503.96 37.8052 502.123 37.3718 500.701 36.5052C499.315 35.6038 498.223 34.4425 497.425 33.0212L499.037 31.6692C499.835 32.4318 500.719 33.0385 501.689 33.4892C502.66 33.9398 503.804 34.1652 505.121 34.1652C506.057 34.1652 506.959 34.0265 507.825 33.7492C508.727 33.4718 509.455 33.0038 510.009 32.3452C510.599 31.6865 510.893 30.7678 510.893 29.5892C510.893 28.1678 510.373 27.1278 509.333 26.4692C508.328 25.7758 506.976 25.4292 505.277 25.4292H503.613L504.185 22.6732H505.537C508.103 22.6732 509.94 22.3438 511.049 21.6852C512.193 20.9918 512.765 19.7612 512.765 17.9932C512.765 16.8145 512.488 15.9305 511.933 15.3412C511.379 14.7172 510.547 14.4052 509.437 14.4052C507.877 14.4052 506.647 14.9078 505.745 15.9132C504.844 16.9185 503.995 18.4958 503.197 20.6452H501.117L502.989 12.2732H504.653L505.433 13.4692H505.537C505.953 13.2612 506.681 12.9838 507.721 12.6372C508.761 12.2558 510.269 12.0652 512.245 12.0652C514.811 12.0652 516.804 12.5158 518.225 13.4172C519.647 14.2838 520.357 15.5318 520.357 17.1612C520.357 18.3745 520.045 19.3972 519.421 20.2292C518.797 21.0265 517.965 21.7025 516.925 22.2572C515.92 22.8118 514.811 23.2972 513.597 23.7132L513.545 23.9212C515.001 24.3718 516.215 25.0478 517.185 25.9492C518.156 26.8158 518.641 28.1678 518.641 30.0052C518.641 31.4612 518.277 32.6918 517.549 33.6972C516.821 34.7025 515.851 35.4998 514.637 36.0892C513.424 36.6785 512.072 37.1118 510.581 37.3892C509.125 37.6665 507.669 37.8052 506.213 37.8052ZM529.205 38.0652C527.888 38.0652 526.64 37.7705 525.461 37.1812C524.317 36.5918 523.381 35.6038 522.653 34.2172C521.96 32.8305 521.613 30.9585 521.613 28.6012C521.613 26.1745 521.994 23.9732 522.757 21.9972C523.52 19.9865 524.542 18.2532 525.825 16.7972C527.142 15.3412 528.633 14.2318 530.297 13.4692C531.961 12.6718 533.677 12.2732 535.445 12.2732C537.109 12.2732 538.305 12.5852 539.033 13.2092C539.796 13.7985 540.454 14.4398 541.009 15.1332H541.321L543.401 12.6892H547.665L543.973 30.3692C543.973 30.3692 543.921 30.5945 543.817 31.0452C543.748 31.4612 543.713 31.8598 543.713 32.2412C543.713 32.5878 543.782 32.9172 543.921 33.2292C544.094 33.5065 544.458 33.6452 545.013 33.6452C545.498 33.6452 545.914 33.5412 546.261 33.3332C546.642 33.0905 546.989 32.7958 547.301 32.4492C547.613 32.1025 547.908 31.7558 548.185 31.4092L549.849 32.7092C549.433 33.3678 548.878 34.1132 548.185 34.9452C547.526 35.7425 546.608 36.4358 545.429 37.0252C544.285 37.6145 542.794 37.9092 540.957 37.9092C539.64 37.9092 538.634 37.6838 537.941 37.2332C537.282 36.7825 536.953 35.9332 536.953 34.6852C536.953 34.5118 536.953 34.3385 536.953 34.1652C536.953 33.9918 536.97 33.8012 537.005 33.5932H536.589C535.549 34.9798 534.474 36.0718 533.365 36.8692C532.256 37.6665 530.869 38.0652 529.205 38.0652ZM532.169 33.7492C533.07 33.7492 533.816 33.5238 534.405 33.0732C535.029 32.5878 535.566 31.8772 536.017 30.9412C536.468 30.0052 536.884 28.8612 537.265 27.5092C537.473 26.7465 537.664 25.9145 537.837 25.0132C538.045 24.1118 538.218 23.1932 538.357 22.2572C538.496 21.2865 538.565 20.3678 538.565 19.5012C538.565 18.0798 538.34 16.9185 537.889 16.0172C537.473 15.0812 536.71 14.6132 535.601 14.6132C534.561 14.6132 533.642 15.0118 532.845 15.8092C532.048 16.5718 531.372 17.6118 530.817 18.9292C530.262 20.2465 529.846 21.7198 529.569 23.3492C529.292 24.9438 529.153 26.5732 529.153 28.2372C529.153 30.4212 529.413 31.8945 529.933 32.6572C530.453 33.3852 531.198 33.7492 532.169 33.7492ZM571.324 37.9092C569.556 37.9092 568.343 37.5972 567.684 36.9732C567.06 36.3492 566.748 35.5172 566.748 34.4772C566.748 34.0612 566.783 33.6972 566.852 33.3852C566.921 33.0385 566.973 32.7785 567.008 32.6052L570.128 21.6332C570.128 21.6332 570.18 21.3558 570.284 20.8012C570.423 20.2465 570.492 19.6572 570.492 19.0332C570.492 18.4785 570.405 18.0278 570.232 17.6812C570.093 17.2998 569.799 17.1092 569.348 17.1092C568.759 17.1092 568.1 17.4558 567.372 18.1492C566.679 18.8425 565.968 19.7438 565.24 20.8532C564.512 21.9625 563.801 23.1585 563.108 24.4412C562.449 25.6892 561.843 26.9198 561.288 28.1332C560.768 29.3118 560.369 30.3172 560.092 31.1492L561.444 22.8292C561.86 22.1358 562.397 21.2172 563.056 20.0732C563.715 18.8945 564.512 17.7158 565.448 16.5372C566.419 15.3238 567.58 14.3185 568.932 13.5212C570.284 12.6892 571.896 12.2732 573.768 12.2732C575.536 12.2732 576.697 12.6718 577.252 13.4692C577.841 14.2318 578.136 15.2025 578.136 16.3812C578.136 17.0398 578.084 17.6638 577.98 18.2532C577.876 18.8425 577.755 19.3972 577.616 19.9172L574.496 31.6692C574.496 31.6692 574.461 31.8078 574.392 32.0852C574.357 32.3278 574.34 32.5878 574.34 32.8652C574.34 33.5585 574.704 33.9052 575.432 33.9052C576.229 33.9052 576.923 33.6278 577.512 33.0732C578.136 32.4838 578.639 31.9465 579.02 31.4612L580.632 32.6572C580.493 32.8652 580.233 33.2465 579.852 33.8012C579.471 34.3558 578.916 34.9625 578.188 35.6212C577.46 36.2452 576.541 36.7825 575.432 37.2332C574.323 37.6838 572.953 37.9092 571.324 37.9092ZM558.948 37.2852H551.564L555.672 18.3052C555.672 18.3052 555.689 18.1145 555.724 17.7332C555.793 17.3518 555.828 17.0052 555.828 16.6932C555.828 16.2078 555.707 15.8438 555.464 15.6012C555.221 15.3238 554.771 15.1852 554.112 15.1852C553.835 15.1852 553.505 15.2025 553.124 15.2372C552.743 15.2718 552.552 15.2892 552.552 15.2892V13.1052L561.08 12.5332H563.524L560.976 22.4132H562.484L558.948 37.2852ZM587.297 37.9092C585.737 37.9092 584.627 37.4932 583.969 36.6612C583.345 35.8292 583.033 34.7198 583.033 33.3332C583.033 32.7438 583.085 32.1198 583.189 31.4612C583.293 30.8025 583.431 30.1265 583.605 29.4332L586.309 18.3572C586.309 18.3572 586.326 18.2705 586.361 18.0972C586.395 17.9238 586.43 17.7158 586.465 17.4732C586.499 17.1958 586.517 16.9358 586.517 16.6932C586.517 16.3465 586.395 16.0172 586.153 15.7052C585.945 15.3932 585.494 15.2372 584.801 15.2372C584.35 15.2372 583.951 15.2545 583.605 15.2892C583.293 15.3238 583.137 15.3412 583.137 15.3412V13.1052L592.237 12.5332H594.941L591.197 28.1852C591.093 28.6012 591.006 28.9998 590.937 29.3812C590.902 29.7625 590.885 30.1265 590.885 30.4732C590.885 31.1318 590.989 31.6692 591.197 32.0852C591.439 32.5012 591.786 32.7092 592.237 32.7092C592.826 32.7092 593.433 32.4838 594.057 32.0332C594.681 31.5478 595.287 30.9065 595.877 30.1092C596.501 29.3118 597.09 28.4105 597.645 27.4052C598.199 26.3998 598.685 25.3425 599.101 24.2332C599.517 23.0892 599.846 21.9625 600.089 20.8532L601.805 12.6892H609.137L605.445 30.7852C605.445 30.7852 605.393 31.0625 605.289 31.6172C605.185 32.1718 605.133 32.6398 605.133 33.0212C605.133 33.2292 605.202 33.4372 605.341 33.6452C605.479 33.8185 605.757 33.9052 606.173 33.9052C606.762 33.9052 607.299 33.7318 607.785 33.3852C608.305 33.0385 608.738 32.6745 609.085 32.2932C609.466 31.8772 609.709 31.5998 609.813 31.4612L611.425 32.6572C610.835 33.5932 610.159 34.4598 609.397 35.2572C608.634 36.0545 607.681 36.6958 606.537 37.1812C605.393 37.6665 603.954 37.9092 602.221 37.9092C600.418 37.9092 599.187 37.6145 598.529 37.0252C597.87 36.4358 597.541 35.6558 597.541 34.6852C597.541 34.1998 597.575 33.6798 597.645 33.1252C597.749 32.5705 597.87 31.9812 598.009 31.3572H597.385C597.073 31.8078 596.622 32.3972 596.033 33.1252C595.478 33.8532 594.785 34.5812 593.953 35.3092C593.155 36.0372 592.202 36.6612 591.093 37.1812C589.983 37.6665 588.718 37.9092 587.297 37.9092ZM621.537 38.0132C619.284 38.0132 617.481 37.5972 616.129 36.7652C614.812 35.8985 613.858 34.7545 613.269 33.3332C612.714 31.8772 612.437 30.2652 612.437 28.4972C612.437 26.2785 612.818 24.1985 613.581 22.2572C614.344 20.2812 615.401 18.5478 616.753 17.0572C618.105 15.5665 619.682 14.4052 621.485 13.5732C623.288 12.7065 625.229 12.2732 627.309 12.2732C629.389 12.2732 631.088 12.7238 632.405 13.6252C633.757 14.4918 634.433 15.7572 634.433 17.4212C634.433 18.4958 634.104 19.4838 633.445 20.3852C632.821 21.2518 631.85 21.6852 630.533 21.6852C629.701 21.6852 629.025 21.4772 628.505 21.0612C628.02 20.6452 627.777 20.0038 627.777 19.1372C627.777 18.4438 627.898 17.8545 628.141 17.3692C628.418 16.8492 628.557 16.3812 628.557 15.9652C628.557 15.6185 628.401 15.3065 628.089 15.0292C627.812 14.7518 627.274 14.6132 626.477 14.6132C625.298 14.6132 624.293 14.9598 623.461 15.6532C622.629 16.3118 621.936 17.2305 621.381 18.4092C620.861 19.5878 620.48 20.9225 620.237 22.4132C619.994 23.8692 619.873 25.3772 619.873 26.9372C619.873 28.8092 620.046 30.2478 620.393 31.2532C620.74 32.2238 621.242 32.8998 621.901 33.2812C622.56 33.6278 623.374 33.8012 624.345 33.8012C625.87 33.8012 627.188 33.4892 628.297 32.8652C629.406 32.2412 630.342 31.4438 631.105 30.4732L632.561 31.6172C631.833 32.7958 630.966 33.8705 629.961 34.8412C628.956 35.8118 627.76 36.5918 626.373 37.1812C625.021 37.7358 623.409 38.0132 621.537 38.0132ZM640.111 37.9092C638.551 37.9092 637.442 37.4932 636.783 36.6612C636.159 35.8292 635.847 34.7198 635.847 33.3332C635.847 32.7438 635.899 32.1198 636.003 31.4612C636.107 30.8025 636.246 30.1265 636.419 29.4332L639.123 18.3572C639.123 18.3572 639.141 18.2705 639.175 18.0972C639.21 17.9238 639.245 17.7158 639.279 17.4732C639.314 17.1958 639.331 16.9358 639.331 16.6932C639.331 16.3465 639.21 16.0172 638.967 15.7052C638.759 15.3932 638.309 15.2372 637.615 15.2372C637.165 15.2372 636.766 15.2545 636.419 15.2892C636.107 15.3238 635.951 15.3412 635.951 15.3412V13.1052L645.051 12.5332H647.755L644.011 28.1852C643.907 28.6012 643.821 28.9998 643.751 29.3812C643.717 29.7625 643.699 30.1265 643.699 30.4732C643.699 31.1318 643.803 31.6692 644.011 32.0852C644.254 32.5012 644.601 32.7092 645.051 32.7092C645.641 32.7092 646.247 32.4838 646.871 32.0332C647.495 31.5478 648.102 30.9065 648.691 30.1092C649.315 29.3118 649.905 28.4105 650.459 27.4052C651.014 26.3998 651.499 25.3425 651.915 24.2332C652.331 23.0892 652.661 21.9625 652.903 20.8532L654.619 12.6892H661.951L658.259 30.7852C658.259 30.7852 658.207 31.0625 658.103 31.6172C657.999 32.1718 657.947 32.6398 657.947 33.0212C657.947 33.2292 658.017 33.4372 658.155 33.6452C658.294 33.8185 658.571 33.9052 658.987 33.9052C659.577 33.9052 660.114 33.7318 660.599 33.3852C661.119 33.0385 661.553 32.6745 661.899 32.2932C662.281 31.8772 662.523 31.5998 662.627 31.4612L664.239 32.6572C663.65 33.5932 662.974 34.4598 662.211 35.2572C661.449 36.0545 660.495 36.6958 659.351 37.1812C658.207 37.6665 656.769 37.9092 655.035 37.9092C653.233 37.9092 652.002 37.6145 651.343 37.0252C650.685 36.4358 650.355 35.6558 650.355 34.6852C650.355 34.1998 650.39 33.6798 650.459 33.1252C650.563 32.5705 650.685 31.9812 650.823 31.3572H650.199C649.887 31.8078 649.437 32.3972 648.847 33.1252C648.293 33.8532 647.599 34.5812 646.767 35.3092C645.97 36.0372 645.017 36.6612 643.907 37.1812C642.798 37.6665 641.533 37.9092 640.111 37.9092ZM673.052 27.2492H670.192L671.596 9.30915C671.665 8.58115 671.734 7.93982 671.804 7.38515C671.873 6.83049 671.942 6.34515 672.012 5.92915C672.22 4.95849 672.653 4.14382 673.312 3.48515C673.97 2.82649 675.149 2.49715 676.848 2.49715C678.165 2.49715 679.101 2.75715 679.656 3.27715C680.21 3.79715 680.488 4.45582 680.488 5.25315C680.488 5.63449 680.366 6.24116 680.124 7.07315C679.881 7.87049 679.604 8.71982 679.292 9.62116L673.052 27.2492ZM670.868 37.8052C669.62 37.8052 668.632 37.4585 667.904 36.7652C667.21 36.0372 666.864 35.0838 666.864 33.9052C666.864 32.7612 667.21 31.8425 667.904 31.1492C668.597 30.4212 669.585 30.0572 670.868 30.0572C672.185 30.0572 673.19 30.4212 673.884 31.1492C674.577 31.8425 674.924 32.7438 674.924 33.8532C674.924 35.0318 674.577 35.9852 673.884 36.7132C673.19 37.4412 672.185 37.8052 670.868 37.8052ZM688.973 27.2492H686.113L687.517 9.30915C687.586 8.58115 687.655 7.93982 687.725 7.38515C687.794 6.83049 687.863 6.34515 687.933 5.92915C688.141 4.95849 688.574 4.14382 689.233 3.48515C689.891 2.82649 691.07 2.49715 692.769 2.49715C694.086 2.49715 695.022 2.75715 695.577 3.27715C696.131 3.79715 696.409 4.45582 696.409 5.25315C696.409 5.63449 696.287 6.24116 696.045 7.07315C695.802 7.87049 695.525 8.71982 695.213 9.62116L688.973 27.2492ZM686.789 37.8052C685.541 37.8052 684.553 37.4585 683.825 36.7652C683.131 36.0372 682.785 35.0838 682.785 33.9052C682.785 32.7612 683.131 31.8425 683.825 31.1492C684.518 30.4212 685.506 30.0572 686.789 30.0572C688.106 30.0572 689.111 30.4212 689.805 31.1492C690.498 31.8425 690.845 32.7438 690.845 33.8532C690.845 35.0318 690.498 35.9852 689.805 36.7132C689.111 37.4412 688.106 37.8052 686.789 37.8052Z" fill="url(#paint0_linear_4419_17926)"/>
<defs>
<linearGradient id="paint0_linear_4419_17926" x1="129.285" y1="8.68022" x2="476.918" y2="306.337" gradientUnits="userSpaceOnUse">
<stop stop-color="#3E57E2"/>
<stop offset="0.4" stop-color="#B133FF"/>
<stop offset="1" stop-color="#FF5DCA"/>
</linearGradient>
</defs>
</svg>
